  0
SECTION
  2
HEADER
  9
$ACADVER
  1
AC1009
  9
$EXTMIN
 10
0.0
 20
0.0
 30
0.0
  9
$EXTMAX
 10
1000.0
 20
1000.0
 30
0.0
  9
$FILLMODE
 70
 0
  9
$SPLFRAME
 70
 1
  0
ENDSEC
  0
SECTION
  2
TABLES
  0
TABLE
  2
LAYER
 70
1
  0
LAYER
  2
0
 70
     0
 62
     7
  6
CONTINUOUS
  0
ENDTAB
  0
ENDSEC
  0
SECTION
  2
ENTITIES
  0
POLYLINE
  8
0
 62
     0
 66
     1
 10
0
 20
0
 30
0.0
 70
     1
 40
0.402683
 41
0.402683
  0
VERTEX
  8
0
 10
4.02735
 20
33.3017
 30
0.0
 40
0.00559282
 41
0.00559282
  0
VERTEX
  8
0
 10
4.02735
 20
30.5458
 30
0.0
 40
0.00559282
 41
0.00559282
  0
VERTEX
  8
0
 10
22.5313
 20
30.5458
 30
0.0
 40
0.00559282
 41
0.00559282
  0
VERTEX
  8
0
 10
22.5313
 20
33.3017
 30
0.0
 40
0.00559282
 41
0.00559282
  0
VERTEX
  8
0
 10
20.9499
 20
33.3017
 30
0.0
 40
0.00559282
 41
0.00559282
  0
VERTEX
  8
0
 10
20.81
 20
33.061
 30
0.0
 40
0.00559282
 41
0.00559282
  0
VERTEX
  8
0
 10
20.6403
 20
32.8454
 30
0.0
 40
0.00559282
 41
0.00559282
  0
VERTEX
  8
0
 10
20.4442
 20
32.6571
 30
0.0
 40
0.00559282
 41
0.00559282
  0
VERTEX
  8
0
 10
20.2249
 20
32.4983
 30
0.0
 40
0.00559282
 41
0.00559282
  0
VERTEX
  8
0
 10
19.986
 20
32.371
 30
0.0
 40
0.00559282
 41
0.00559282
  0
VERTEX
  8
0
 10
19.7307
 20
32.2772
 30
0.0
 40
0.00559282
 41
0.00559282
  0
VERTEX
  8
0
 10
19.4625
 20
32.2194
 30
0.0
 40
0.00559282
 41
0.00559282
  0
VERTEX
  8
0
 10
19.1847
 20
32.1993
 30
0.0
 40
0.00559282
 41
0.00559282
  0
VERTEX
  8
0
 10
18.9068
 20
32.2193
 30
0.0
 40
0.00559282
 41
0.00559282
  0
VERTEX
  8
0
 10
18.6385
 20
32.2771
 30
0.0
 40
0.00559282
 41
0.00559282
  0
VERTEX
  8
0
 10
18.3831
 20
32.3706
 30
0.0
 40
0.00559282
 41
0.00559282
  0
VERTEX
  8
0
 10
18.1439
 20
32.4979
 30
0.0
 40
0.00559282
 41
0.00559282
  0
VERTEX
  8
0
 10
17.9246
 20
32.6568
 30
0.0
 40
0.00559282
 41
0.00559282
  0
VERTEX
  8
0
 10
17.7282
 20
32.8451
 30
0.0
 40
0.00559282
 41
0.00559282
  0
VERTEX
  8
0
 10
17.5583
 20
33.0608
 30
0.0
 40
0.00559282
 41
0.00559282
  0
VERTEX
  8
0
 10
17.4185
 20
33.3017
 30
0.0
 40
0.00559282
 41
0.00559282
  0
VERTEX
  8
0
 10
15.226
 20
33.3017
 30
0.0
 40
0.00559282
 41
0.00559282
  0
VERTEX
  8
0
 10
15.1922
 20
33.1228
 30
0.0
 40
0.00559282
 41
0.00559282
  0
VERTEX
  8
0
 10
15.1432
 20
32.9506
 30
0.0
 40
0.00559282
 41
0.00559282
  0
VERTEX
  8
0
 10
15.0793
 20
32.7853
 30
0.0
 40
0.00559282
 41
0.00559282
  0
VERTEX
  8
0
 10
15.0017
 20
32.6281
 30
0.0
 40
0.00559282
 41
0.00559282
  0
VERTEX
  8
0
 10
14.911
 20
32.4794
 30
0.0
 40
0.00559282
 41
0.00559282
  0
VERTEX
  8
0
 10
14.8081
 20
32.34
 30
0.0
 40
0.00559282
 41
0.00559282
  0
VERTEX
  8
0
 10
14.6937
 20
32.2107
 30
0.0
 40
0.00559282
 41
0.00559282
  0
VERTEX
  8
0
 10
14.5686
 20
32.0919
 30
0.0
 40
0.00559282
 41
0.00559282
  0
VERTEX
  8
0
 10
14.4336
 20
31.9846
 30
0.0
 40
0.00559282
 41
0.00559282
  0
VERTEX
  8
0
 10
14.2896
 20
31.8892
 30
0.0
 40
0.00559282
 41
0.00559282
  0
VERTEX
  8
0
 10
14.1374
 20
31.8065
 30
0.0
 40
0.00559282
 41
0.00559282
  0
VERTEX
  8
0
 10
13.9775
 20
31.7374
 30
0.0
 40
0.00559282
 41
0.00559282
  0
VERTEX
  8
0
 10
13.811
 20
31.6824
 30
0.0
 40
0.00559282
 41
0.00559282
  0
VERTEX
  8
0
 10
13.6386
 20
31.6421
 30
0.0
 40
0.00559282
 41
0.00559282
  0
VERTEX
  8
0
 10
13.4611
 20
31.6174
 30
0.0
 40
0.00559282
 41
0.00559282
  0
VERTEX
  8
0
 10
13.2793
 20
31.6088
 30
0.0
 40
0.00559282
 41
0.00559282
  0
VERTEX
  8
0
 10
13.0974
 20
31.6174
 30
0.0
 40
0.00559282
 41
0.00559282
  0
VERTEX
  8
0
 10
12.9199
 20
31.6421
 30
0.0
 40
0.00559282
 41
0.00559282
  0
VERTEX
  8
0
 10
12.7474
 20
31.6822
 30
0.0
 40
0.00559282
 41
0.00559282
  0
VERTEX
  8
0
 10
12.5809
 20
31.7374
 30
0.0
 40
0.00559282
 41
0.00559282
  0
VERTEX
  8
0
 10
12.4211
 20
31.8065
 30
0.0
 40
0.00559282
 41
0.00559282
  0
VERTEX
  8
0
 10
12.2688
 20
31.889
 30
0.0
 40
0.00559282
 41
0.00559282
  0
VERTEX
  8
0
 10
12.1247
 20
31.9844
 30
0.0
 40
0.00559282
 41
0.00559282
  0
VERTEX
  8
0
 10
11.9898
 20
32.0918
 30
0.0
 40
0.00559282
 41
0.00559282
  0
VERTEX
  8
0
 10
11.8646
 20
32.2106
 30
0.0
 40
0.00559282
 41
0.00559282
  0
VERTEX
  8
0
 10
11.7502
 20
32.34
 30
0.0
 40
0.00559282
 41
0.00559282
  0
VERTEX
  8
0
 10
11.6472
 20
32.4793
 30
0.0
 40
0.00559282
 41
0.00559282
  0
VERTEX
  8
0
 10
11.5565
 20
32.6281
 30
0.0
 40
0.00559282
 41
0.00559282
  0
VERTEX
  8
0
 10
11.4789
 20
32.7853
 30
0.0
 40
0.00559282
 41
0.00559282
  0
VERTEX
  8
0
 10
11.4151
 20
32.9504
 30
0.0
 40
0.00559282
 41
0.00559282
  0
VERTEX
  8
0
 10
11.3659
 20
33.1228
 30
0.0
 40
0.00559282
 41
0.00559282
  0
VERTEX
  8
0
 10
11.3323
 20
33.3017
 30
0.0
 40
0.00559282
 41
0.00559282
  0
VERTEX
  8
0
 10
9.13878
 20
33.3017
 30
0.0
 40
0.00559282
 41
0.00559282
  0
VERTEX
  8
0
 10
8.99892
 20
33.061
 30
0.0
 40
0.00559282
 41
0.00559282
  0
VERTEX
  8
0
 10
8.82921
 20
32.8454
 30
0.0
 40
0.00559282
 41
0.00559282
  0
VERTEX
  8
0
 10
8.63308
 20
32.6571
 30
0.0
 40
0.00559282
 41
0.00559282
  0
VERTEX
  8
0
 10
8.41385
 20
32.4983
 30
0.0
 40
0.00559282
 41
0.00559282
  0
VERTEX
  8
0
 10
8.17492
 20
32.371
 30
0.0
 40
0.00559282
 41
0.00559282
  0
VERTEX
  8
0
 10
7.91965
 20
32.2772
 30
0.0
 40
0.00559282
 41
0.00559282
  0
VERTEX
  8
0
 10
7.65147
 20
32.2194
 30
0.0
 40
0.00559282
 41
0.00559282
  0
VERTEX
  8
0
 10
7.37375
 20
32.1993
 30
0.0
 40
0.00559282
 41
0.00559282
  0
VERTEX
  8
0
 10
7.09581
 20
32.2193
 30
0.0
 40
0.00559282
 41
0.00559282
  0
VERTEX
  8
0
 10
6.82747
 20
32.2771
 30
0.0
 40
0.00559282
 41
0.00559282
  0
VERTEX
  8
0
 10
6.572
 20
32.3706
 30
0.0
 40
0.00559282
 41
0.00559282
  0
VERTEX
  8
0
 10
6.3329
 20
32.4979
 30
0.0
 40
0.00559282
 41
0.00559282
  0
VERTEX
  8
0
 10
6.1135
 20
32.6568
 30
0.0
 40
0.00559282
 41
0.00559282
  0
VERTEX
  8
0
 10
5.91721
 20
32.8451
 30
0.0
 40
0.00559282
 41
0.00559282
  0
VERTEX
  8
0
 10
5.74739
 20
33.0608
 30
0.0
 40
0.00559282
 41
0.00559282
  0
VERTEX
  8
0
 10
5.60747
 20
33.3017
 30
0.0
 40
0.00559282
 41
0.00559282
  0
VERTEX
  8
0
 10
4.02735
 20
33.3017
 30
0.0
 40
0.00559282
 41
0.00559282
  0
SEQEND
 8
0
  0
POLYLINE
  8
0
 62
     0
 66
     1
 10
0
 20
0
 30
0.0
 70
     1
 40
0.329829
 41
0.329829
  0
VERTEX
  8
0
 10
9.36197
 20
32.0222
 30
0.0
 40
0.00458096
 41
0.00458096
  0
VERTEX
  8
0
 10
9.35422
 20
31.9839
 30
0.0
 40
0.00458096
 41
0.00458096
  0
VERTEX
  8
0
 10
9.33311
 20
31.9526
 30
0.0
 40
0.00458096
 41
0.00458096
  0
VERTEX
  8
0
 10
9.30186
 20
31.9315
 30
0.0
 40
0.00458096
 41
0.00458096
  0
VERTEX
  8
0
 10
9.26357
 20
31.9238
 30
0.0
 40
0.00458096
 41
0.00458096
  0
VERTEX
  8
0
 10
9.22521
 20
31.9315
 30
0.0
 40
0.00458096
 41
0.00458096
  0
VERTEX
  8
0
 10
9.19396
 20
31.9526
 30
0.0
 40
0.00458096
 41
0.00458096
  0
VERTEX
  8
0
 10
9.17285
 20
31.9839
 30
0.0
 40
0.00458096
 41
0.00458096
  0
VERTEX
  8
0
 10
9.16515
 20
32.0222
 30
0.0
 40
0.00458096
 41
0.00458096
  0
VERTEX
  8
0
 10
9.17285
 20
32.0606
 30
0.0
 40
0.00458096
 41
0.00458096
  0
VERTEX
  8
0
 10
9.19396
 20
32.0918
 30
0.0
 40
0.00458096
 41
0.00458096
  0
VERTEX
  8
0
 10
9.22521
 20
32.1129
 30
0.0
 40
0.00458096
 41
0.00458096
  0
VERTEX
  8
0
 10
9.26357
 20
32.1206
 30
0.0
 40
0.00458096
 41
0.00458096
  0
VERTEX
  8
0
 10
9.30186
 20
32.1129
 30
0.0
 40
0.00458096
 41
0.00458096
  0
VERTEX
  8
0
 10
9.33311
 20
32.0918
 30
0.0
 40
0.00458096
 41
0.00458096
  0
VERTEX
  8
0
 10
9.35422
 20
32.0606
 30
0.0
 40
0.00458096
 41
0.00458096
  0
VERTEX
  8
0
 10
9.36197
 20
32.0222
 30
0.0
 40
0.00458096
 41
0.00458096
  0
SEQEND
 8
0
  0
POLYLINE
  8
0
 62
     0
 66
     1
 10
0
 20
0
 30
0.0
 70
     1
 40
0.329829
 41
0.329829
  0
VERTEX
  8
0
 10
5.58247
 20
32.0222
 30
0.0
 40
0.00458096
 41
0.00458096
  0
VERTEX
  8
0
 10
5.57471
 20
31.9839
 30
0.0
 40
0.00458096
 41
0.00458096
  0
VERTEX
  8
0
 10
5.5536
 20
31.9526
 30
0.0
 40
0.00458096
 41
0.00458096
  0
VERTEX
  8
0
 10
5.52229
 20
31.9315
 30
0.0
 40
0.00458096
 41
0.00458096
  0
VERTEX
  8
0
 10
5.484
 20
31.9238
 30
0.0
 40
0.00458096
 41
0.00458096
  0
VERTEX
  8
0
 10
5.44569
 20
31.9315
 30
0.0
 40
0.00458096
 41
0.00458096
  0
VERTEX
  8
0
 10
5.41439
 20
31.9526
 30
0.0
 40
0.00458096
 41
0.00458096
  0
VERTEX
  8
0
 10
5.39328
 20
31.9839
 30
0.0
 40
0.00458096
 41
0.00458096
  0
VERTEX
  8
0
 10
5.38558
 20
32.0222
 30
0.0
 40
0.00458096
 41
0.00458096
  0
VERTEX
  8
0
 10
5.39328
 20
32.0606
 30
0.0
 40
0.00458096
 41
0.00458096
  0
VERTEX
  8
0
 10
5.41439
 20
32.0918
 30
0.0
 40
0.00458096
 41
0.00458096
  0
VERTEX
  8
0
 10
5.44569
 20
32.1129
 30
0.0
 40
0.00458096
 41
0.00458096
  0
VERTEX
  8
0
 10
5.484
 20
32.1206
 30
0.0
 40
0.00458096
 41
0.00458096
  0
VERTEX
  8
0
 10
5.52229
 20
32.1129
 30
0.0
 40
0.00458096
 41
0.00458096
  0
VERTEX
  8
0
 10
5.5536
 20
32.0918
 30
0.0
 40
0.00458096
 41
0.00458096
  0
VERTEX
  8
0
 10
5.57471
 20
32.0606
 30
0.0
 40
0.00458096
 41
0.00458096
  0
VERTEX
  8
0
 10
5.58247
 20
32.0222
 30
0.0
 40
0.00458096
 41
0.00458096
  0
SEQEND
 8
0
  0
POLYLINE
  8
0
 62
     0
 66
     1
 10
0
 20
0
 30
0.0
 70
     1
 40
0.329829
 41
0.329829
  0
VERTEX
  8
0
 10
15.2675
 20
31.4317
 30
0.0
 40
0.00458096
 41
0.00458096
  0
VERTEX
  8
0
 10
15.2597
 20
31.3933
 30
0.0
 40
0.00458096
 41
0.00458096
  0
VERTEX
  8
0
 10
15.2386
 20
31.3621
 30
0.0
 40
0.00458096
 41
0.00458096
  0
VERTEX
  8
0
 10
15.2074
 20
31.341
 30
0.0
 40
0.00458096
 41
0.00458096
  0
VERTEX
  8
0
 10
15.169
 20
31.3332
 30
0.0
 40
0.00458096
 41
0.00458096
  0
VERTEX
  8
0
 10
15.1307
 20
31.341
 30
0.0
 40
0.00458096
 41
0.00458096
  0
VERTEX
  8
0
 10
15.0994
 20
31.3621
 30
0.0
 40
0.00458096
 41
0.00458096
  0
VERTEX
  8
0
 10
15.0783
 20
31.3933
 30
0.0
 40
0.00458096
 41
0.00458096
  0
VERTEX
  8
0
 10
15.0707
 20
31.4317
 30
0.0
 40
0.00458096
 41
0.00458096
  0
VERTEX
  8
0
 10
15.0783
 20
31.47
 30
0.0
 40
0.00458096
 41
0.00458096
  0
VERTEX
  8
0
 10
15.0994
 20
31.5013
 30
0.0
 40
0.00458096
 41
0.00458096
  0
VERTEX
  8
0
 10
15.1307
 20
31.5224
 30
0.0
 40
0.00458096
 41
0.00458096
  0
VERTEX
  8
0
 10
15.169
 20
31.53
 30
0.0
 40
0.00458096
 41
0.00458096
  0
VERTEX
  8
0
 10
15.2074
 20
31.5224
 30
0.0
 40
0.00458096
 41
0.00458096
  0
VERTEX
  8
0
 10
15.2386
 20
31.5013
 30
0.0
 40
0.00458096
 41
0.00458096
  0
VERTEX
  8
0
 10
15.2597
 20
31.47
 30
0.0
 40
0.00458096
 41
0.00458096
  0
VERTEX
  8
0
 10
15.2675
 20
31.4317
 30
0.0
 40
0.00458096
 41
0.00458096
  0
SEQEND
 8
0
  0
POLYLINE
  8
0
 62
     0
 66
     1
 10
0
 20
0
 30
0.0
 70
     1
 40
0.329829
 41
0.329829
  0
VERTEX
  8
0
 10
11.488
 20
31.4317
 30
0.0
 40
0.00458096
 41
0.00458096
  0
VERTEX
  8
0
 10
11.4802
 20
31.3933
 30
0.0
 40
0.00458096
 41
0.00458096
  0
VERTEX
  8
0
 10
11.4591
 20
31.3621
 30
0.0
 40
0.00458096
 41
0.00458096
  0
VERTEX
  8
0
 10
11.4278
 20
31.341
 30
0.0
 40
0.00458096
 41
0.00458096
  0
VERTEX
  8
0
 10
11.3895
 20
31.3332
 30
0.0
 40
0.00458096
 41
0.00458096
  0
VERTEX
  8
0
 10
11.3512
 20
31.341
 30
0.0
 40
0.00458096
 41
0.00458096
  0
VERTEX
  8
0
 10
11.3199
 20
31.3621
 30
0.0
 40
0.00458096
 41
0.00458096
  0
VERTEX
  8
0
 10
11.2988
 20
31.3933
 30
0.0
 40
0.00458096
 41
0.00458096
  0
VERTEX
  8
0
 10
11.2911
 20
31.4317
 30
0.0
 40
0.00458096
 41
0.00458096
  0
VERTEX
  8
0
 10
11.2988
 20
31.47
 30
0.0
 40
0.00458096
 41
0.00458096
  0
VERTEX
  8
0
 10
11.3199
 20
31.5013
 30
0.0
 40
0.00458096
 41
0.00458096
  0
VERTEX
  8
0
 10
11.3512
 20
31.5224
 30
0.0
 40
0.00458096
 41
0.00458096
  0
VERTEX
  8
0
 10
11.3895
 20
31.53
 30
0.0
 40
0.00458096
 41
0.00458096
  0
VERTEX
  8
0
 10
11.4278
 20
31.5224
 30
0.0
 40
0.00458096
 41
0.00458096
  0
VERTEX
  8
0
 10
11.4591
 20
31.5013
 30
0.0
 40
0.00458096
 41
0.00458096
  0
VERTEX
  8
0
 10
11.4802
 20
31.47
 30
0.0
 40
0.00458096
 41
0.00458096
  0
VERTEX
  8
0
 10
11.488
 20
31.4317
 30
0.0
 40
0.00458096
 41
0.00458096
  0
SEQEND
 8
0
  0
POLYLINE
  8
0
 62
     0
 66
     1
 10
0
 20
0
 30
0.0
 70
     1
 40
0.329829
 41
0.329829
  0
VERTEX
  8
0
 10
21.1731
 20
32.0222
 30
0.0
 40
0.00458096
 41
0.00458096
  0
VERTEX
  8
0
 10
21.1653
 20
31.9839
 30
0.0
 40
0.00458096
 41
0.00458096
  0
VERTEX
  8
0
 10
21.1442
 20
31.9526
 30
0.0
 40
0.00458096
 41
0.00458096
  0
VERTEX
  8
0
 10
21.1128
 20
31.9315
 30
0.0
 40
0.00458096
 41
0.00458096
  0
VERTEX
  8
0
 10
21.0746
 20
31.9238
 30
0.0
 40
0.00458096
 41
0.00458096
  0
VERTEX
  8
0
 10
21.0362
 20
31.9315
 30
0.0
 40
0.00458096
 41
0.00458096
  0
VERTEX
  8
0
 10
21.005
 20
31.9526
 30
0.0
 40
0.00458096
 41
0.00458096
  0
VERTEX
  8
0
 10
20.9839
 20
31.9839
 30
0.0
 40
0.00458096
 41
0.00458096
  0
VERTEX
  8
0
 10
20.9761
 20
32.0222
 30
0.0
 40
0.00458096
 41
0.00458096
  0
VERTEX
  8
0
 10
20.9839
 20
32.0606
 30
0.0
 40
0.00458096
 41
0.00458096
  0
VERTEX
  8
0
 10
21.005
 20
32.0918
 30
0.0
 40
0.00458096
 41
0.00458096
  0
VERTEX
  8
0
 10
21.0362
 20
32.1129
 30
0.0
 40
0.00458096
 41
0.00458096
  0
VERTEX
  8
0
 10
21.0746
 20
32.1206
 30
0.0
 40
0.00458096
 41
0.00458096
  0
VERTEX
  8
0
 10
21.1128
 20
32.1129
 30
0.0
 40
0.00458096
 41
0.00458096
  0
VERTEX
  8
0
 10
21.1442
 20
32.0918
 30
0.0
 40
0.00458096
 41
0.00458096
  0
VERTEX
  8
0
 10
21.1653
 20
32.0606
 30
0.0
 40
0.00458096
 41
0.00458096
  0
VERTEX
  8
0
 10
21.1731
 20
32.0222
 30
0.0
 40
0.00458096
 41
0.00458096
  0
SEQEND
 8
0
  0
POLYLINE
  8
0
 62
     0
 66
     1
 10
0
 20
0
 30
0.0
 70
     1
 40
0.329829
 41
0.329829
  0
VERTEX
  8
0
 10
17.3935
 20
32.0222
 30
0.0
 40
0.00458096
 41
0.00458096
  0
VERTEX
  8
0
 10
17.3857
 20
31.9839
 30
0.0
 40
0.00458096
 41
0.00458096
  0
VERTEX
  8
0
 10
17.3646
 20
31.9526
 30
0.0
 40
0.00458096
 41
0.00458096
  0
VERTEX
  8
0
 10
17.3333
 20
31.9315
 30
0.0
 40
0.00458096
 41
0.00458096
  0
VERTEX
  8
0
 10
17.295
 20
31.9238
 30
0.0
 40
0.00458096
 41
0.00458096
  0
VERTEX
  8
0
 10
17.2567
 20
31.9315
 30
0.0
 40
0.00458096
 41
0.00458096
  0
VERTEX
  8
0
 10
17.2254
 20
31.9526
 30
0.0
 40
0.00458096
 41
0.00458096
  0
VERTEX
  8
0
 10
17.2043
 20
31.9839
 30
0.0
 40
0.00458096
 41
0.00458096
  0
VERTEX
  8
0
 10
17.1967
 20
32.0222
 30
0.0
 40
0.00458096
 41
0.00458096
  0
VERTEX
  8
0
 10
17.2043
 20
32.0606
 30
0.0
 40
0.00458096
 41
0.00458096
  0
VERTEX
  8
0
 10
17.2254
 20
32.0918
 30
0.0
 40
0.00458096
 41
0.00458096
  0
VERTEX
  8
0
 10
17.2567
 20
32.1129
 30
0.0
 40
0.00458096
 41
0.00458096
  0
VERTEX
  8
0
 10
17.295
 20
32.1206
 30
0.0
 40
0.00458096
 41
0.00458096
  0
VERTEX
  8
0
 10
17.3333
 20
32.1129
 30
0.0
 40
0.00458096
 41
0.00458096
  0
VERTEX
  8
0
 10
17.3646
 20
32.0918
 30
0.0
 40
0.00458096
 41
0.00458096
  0
VERTEX
  8
0
 10
17.3857
 20
32.0606
 30
0.0
 40
0.00458096
 41
0.00458096
  0
VERTEX
  8
0
 10
17.3935
 20
32.0222
 30
0.0
 40
0.00458096
 41
0.00458096
  0
SEQEND
 8
0
  0
POLYLINE
  8
0
 62
     0
 66
     1
 10
0
 20
0
 30
0.0
 70
     1
 40
0.402683
 41
0.402683
  0
VERTEX
  8
0
 10
3.96419
 20
36.7754
 30
0.0
 40
0.00559282
 41
0.00559282
  0
VERTEX
  8
0
 10
3.96419
 20
34.0194
 30
0.0
 40
0.00559282
 41
0.00559282
  0
VERTEX
  8
0
 10
22.4682
 20
34.0194
 30
0.0
 40
0.00559282
 41
0.00559282
  0
VERTEX
  8
0
 10
22.4682
 20
36.7754
 30
0.0
 40
0.00559282
 41
0.00559282
  0
VERTEX
  8
0
 10
20.8867
 20
36.7754
 30
0.0
 40
0.00559282
 41
0.00559282
  0
VERTEX
  8
0
 10
20.7468
 20
36.5346
 30
0.0
 40
0.00559282
 41
0.00559282
  0
VERTEX
  8
0
 10
20.5771
 20
36.319
 30
0.0
 40
0.00559282
 41
0.00559282
  0
VERTEX
  8
0
 10
20.381
 20
36.1307
 30
0.0
 40
0.00559282
 41
0.00559282
  0
VERTEX
  8
0
 10
20.1617
 20
35.9719
 30
0.0
 40
0.00559282
 41
0.00559282
  0
VERTEX
  8
0
 10
19.9228
 20
35.8446
 30
0.0
 40
0.00559282
 41
0.00559282
  0
VERTEX
  8
0
 10
19.6675
 20
35.751
 30
0.0
 40
0.00559282
 41
0.00559282
  0
VERTEX
  8
0
 10
19.3994
 20
35.6931
 30
0.0
 40
0.00559282
 41
0.00559282
  0
VERTEX
  8
0
 10
19.1217
 20
35.6731
 30
0.0
 40
0.00559282
 41
0.00559282
  0
VERTEX
  8
0
 10
18.8438
 20
35.6929
 30
0.0
 40
0.00559282
 41
0.00559282
  0
VERTEX
  8
0
 10
18.5754
 20
35.7507
 30
0.0
 40
0.00559282
 41
0.00559282
  0
VERTEX
  8
0
 10
18.32
 20
35.8443
 30
0.0
 40
0.00559282
 41
0.00559282
  0
VERTEX
  8
0
 10
18.0808
 20
35.9715
 30
0.0
 40
0.00559282
 41
0.00559282
  0
VERTEX
  8
0
 10
17.8614
 20
36.1304
 30
0.0
 40
0.00559282
 41
0.00559282
  0
VERTEX
  8
0
 10
17.6651
 20
36.3187
 30
0.0
 40
0.00559282
 41
0.00559282
  0
VERTEX
  8
0
 10
17.4953
 20
36.5344
 30
0.0
 40
0.00559282
 41
0.00559282
  0
VERTEX
  8
0
 10
17.3554
 20
36.7754
 30
0.0
 40
0.00559282
 41
0.00559282
  0
VERTEX
  8
0
 10
15.1629
 20
36.7754
 30
0.0
 40
0.00559282
 41
0.00559282
  0
VERTEX
  8
0
 10
15.1292
 20
36.5965
 30
0.0
 40
0.00559282
 41
0.00559282
  0
VERTEX
  8
0
 10
15.08
 20
36.4242
 30
0.0
 40
0.00559282
 41
0.00559282
  0
VERTEX
  8
0
 10
15.0163
 20
36.259
 30
0.0
 40
0.00559282
 41
0.00559282
  0
VERTEX
  8
0
 10
14.9386
 20
36.1018
 30
0.0
 40
0.00559282
 41
0.00559282
  0
VERTEX
  8
0
 10
14.8479
 20
35.9531
 30
0.0
 40
0.00559282
 41
0.00559282
  0
VERTEX
  8
0
 10
14.745
 20
35.8138
 30
0.0
 40
0.00559282
 41
0.00559282
  0
VERTEX
  8
0
 10
14.6306
 20
35.6843
 30
0.0
 40
0.00559282
 41
0.00559282
  0
VERTEX
  8
0
 10
14.5054
 20
35.5656
 30
0.0
 40
0.00559282
 41
0.00559282
  0
VERTEX
  8
0
 10
14.3706
 20
35.4582
 30
0.0
 40
0.00559282
 41
0.00559282
  0
VERTEX
  8
0
 10
14.2265
 20
35.3628
 30
0.0
 40
0.00559282
 41
0.00559282
  0
VERTEX
  8
0
 10
14.0742
 20
35.2803
 30
0.0
 40
0.00559282
 41
0.00559282
  0
VERTEX
  8
0
 10
13.9144
 20
35.2111
 30
0.0
 40
0.00559282
 41
0.00559282
  0
VERTEX
  8
0
 10
13.7479
 20
35.156
 30
0.0
 40
0.00559282
 41
0.00559282
  0
VERTEX
  8
0
 10
13.5755
 20
35.1158
 30
0.0
 40
0.00559282
 41
0.00559282
  0
VERTEX
  8
0
 10
13.3979
 20
35.091
 30
0.0
 40
0.00559282
 41
0.00559282
  0
VERTEX
  8
0
 10
13.2161
 20
35.0825
 30
0.0
 40
0.00559282
 41
0.00559282
  0
VERTEX
  8
0
 10
13.0343
 20
35.091
 30
0.0
 40
0.00559282
 41
0.00559282
  0
VERTEX
  8
0
 10
12.8568
 20
35.1157
 30
0.0
 40
0.00559282
 41
0.00559282
  0
VERTEX
  8
0
 10
12.6843
 20
35.156
 30
0.0
 40
0.00559282
 41
0.00559282
  0
VERTEX
  8
0
 10
12.5178
 20
35.211
 30
0.0
 40
0.00559282
 41
0.00559282
  0
VERTEX
  8
0
 10
12.358
 20
35.2801
 30
0.0
 40
0.00559282
 41
0.00559282
  0
VERTEX
  8
0
 10
12.2056
 20
35.3628
 30
0.0
 40
0.00559282
 41
0.00559282
  0
VERTEX
  8
0
 10
12.0616
 20
35.4581
 30
0.0
 40
0.00559282
 41
0.00559282
  0
VERTEX
  8
0
 10
11.9266
 20
35.5654
 30
0.0
 40
0.00559282
 41
0.00559282
  0
VERTEX
  8
0
 10
11.8015
 20
35.6843
 30
0.0
 40
0.00559282
 41
0.00559282
  0
VERTEX
  8
0
 10
11.6871
 20
35.8136
 30
0.0
 40
0.00559282
 41
0.00559282
  0
VERTEX
  8
0
 10
11.5841
 20
35.9531
 30
0.0
 40
0.00559282
 41
0.00559282
  0
VERTEX
  8
0
 10
11.4934
 20
36.1017
 30
0.0
 40
0.00559282
 41
0.00559282
  0
VERTEX
  8
0
 10
11.4158
 20
36.2589
 30
0.0
 40
0.00559282
 41
0.00559282
  0
VERTEX
  8
0
 10
11.352
 20
36.4242
 30
0.0
 40
0.00559282
 41
0.00559282
  0
VERTEX
  8
0
 10
11.3028
 20
36.5965
 30
0.0
 40
0.00559282
 41
0.00559282
  0
VERTEX
  8
0
 10
11.2692
 20
36.7754
 30
0.0
 40
0.00559282
 41
0.00559282
  0
VERTEX
  8
0
 10
9.07568
 20
36.7754
 30
0.0
 40
0.00559282
 41
0.00559282
  0
VERTEX
  8
0
 10
8.93576
 20
36.5346
 30
0.0
 40
0.00559282
 41
0.00559282
  0
VERTEX
  8
0
 10
8.76611
 20
36.319
 30
0.0
 40
0.00559282
 41
0.00559282
  0
VERTEX
  8
0
 10
8.56993
 20
36.1307
 30
0.0
 40
0.00559282
 41
0.00559282
  0
VERTEX
  8
0
 10
8.35069
 20
35.9719
 30
0.0
 40
0.00559282
 41
0.00559282
  0
VERTEX
  8
0
 10
8.11176
 20
35.8446
 30
0.0
 40
0.00559282
 41
0.00559282
  0
VERTEX
  8
0
 10
7.8565
 20
35.751
 30
0.0
 40
0.00559282
 41
0.00559282
  0
VERTEX
  8
0
 10
7.58837
 20
35.6931
 30
0.0
 40
0.00559282
 41
0.00559282
  0
VERTEX
  8
0
 10
7.31065
 20
35.6731
 30
0.0
 40
0.00559282
 41
0.00559282
  0
VERTEX
  8
0
 10
7.03271
 20
35.6929
 30
0.0
 40
0.00559282
 41
0.00559282
  0
VERTEX
  8
0
 10
6.76432
 20
35.7507
 30
0.0
 40
0.00559282
 41
0.00559282
  0
VERTEX
  8
0
 10
6.5089
 20
35.8443
 30
0.0
 40
0.00559282
 41
0.00559282
  0
VERTEX
  8
0
 10
6.26981
 20
35.9717
 30
0.0
 40
0.00559282
 41
0.00559282
  0
VERTEX
  8
0
 10
6.0504
 20
36.1304
 30
0.0
 40
0.00559282
 41
0.00559282
  0
VERTEX
  8
0
 10
5.85406
 20
36.3187
 30
0.0
 40
0.00559282
 41
0.00559282
  0
VERTEX
  8
0
 10
5.68425
 20
36.5344
 30
0.0
 40
0.00559282
 41
0.00559282
  0
VERTEX
  8
0
 10
5.54432
 20
36.7754
 30
0.0
 40
0.00559282
 41
0.00559282
  0
VERTEX
  8
0
 10
3.96419
 20
36.7754
 30
0.0
 40
0.00559282
 41
0.00559282
  0
SEQEND
 8
0
  0
POLYLINE
  8
0
 62
     0
 66
     1
 10
0
 20
0
 30
0.0
 70
     1
 40
0.329829
 41
0.329829
  0
VERTEX
  8
0
 10
9.29883
 20
35.4958
 30
0.0
 40
0.00458096
 41
0.00458096
  0
VERTEX
  8
0
 10
9.29107
 20
35.4576
 30
0.0
 40
0.00458096
 41
0.00458096
  0
VERTEX
  8
0
 10
9.26997
 20
35.4264
 30
0.0
 40
0.00458096
 41
0.00458096
  0
VERTEX
  8
0
 10
9.23872
 20
35.4053
 30
0.0
 40
0.00458096
 41
0.00458096
  0
VERTEX
  8
0
 10
9.20042
 20
35.3975
 30
0.0
 40
0.00458096
 41
0.00458096
  0
VERTEX
  8
0
 10
9.16206
 20
35.4053
 30
0.0
 40
0.00458096
 41
0.00458096
  0
VERTEX
  8
0
 10
9.13081
 20
35.4264
 30
0.0
 40
0.00458096
 41
0.00458096
  0
VERTEX
  8
0
 10
9.10969
 20
35.4576
 30
0.0
 40
0.00458096
 41
0.00458096
  0
VERTEX
  8
0
 10
9.102
 20
35.4958
 30
0.0
 40
0.00458096
 41
0.00458096
  0
VERTEX
  8
0
 10
9.10969
 20
35.5342
 30
0.0
 40
0.00458096
 41
0.00458096
  0
VERTEX
  8
0
 10
9.13081
 20
35.5654
 30
0.0
 40
0.00458096
 41
0.00458096
  0
VERTEX
  8
0
 10
9.16206
 20
35.5865
 30
0.0
 40
0.00458096
 41
0.00458096
  0
VERTEX
  8
0
 10
9.20042
 20
35.5943
 30
0.0
 40
0.00458096
 41
0.00458096
  0
VERTEX
  8
0
 10
9.23872
 20
35.5865
 30
0.0
 40
0.00458096
 41
0.00458096
  0
VERTEX
  8
0
 10
9.26997
 20
35.5654
 30
0.0
 40
0.00458096
 41
0.00458096
  0
VERTEX
  8
0
 10
9.29107
 20
35.5342
 30
0.0
 40
0.00458096
 41
0.00458096
  0
VERTEX
  8
0
 10
9.29883
 20
35.4958
 30
0.0
 40
0.00458096
 41
0.00458096
  0
SEQEND
 8
0
  0
POLYLINE
  8
0
 62
     0
 66
     1
 10
0
 20
0
 30
0.0
 70
     1
 40
0.328819
 41
0.328819
  0
VERTEX
  8
0
 10
5.51932
 20
35.4958
 30
0.0
 40
0.00456693
 41
0.00456693
  0
VERTEX
  8
0
 10
5.51156
 20
35.4576
 30
0.0
 40
0.00456693
 41
0.00456693
  0
VERTEX
  8
0
 10
5.49044
 20
35.4264
 30
0.0
 40
0.00456693
 41
0.00456693
  0
VERTEX
  8
0
 10
5.45919
 20
35.4053
 30
0.0
 40
0.00456693
 41
0.00456693
  0
VERTEX
  8
0
 10
5.4209
 20
35.3975
 30
0.0
 40
0.00456693
 41
0.00456693
  0
VERTEX
  8
0
 10
5.38254
 20
35.4053
 30
0.0
 40
0.00456693
 41
0.00456693
  0
VERTEX
  8
0
 10
5.35129
 20
35.4264
 30
0.0
 40
0.00456693
 41
0.00456693
  0
VERTEX
  8
0
 10
5.33018
 20
35.4576
 30
0.0
 40
0.00456693
 41
0.00456693
  0
VERTEX
  8
0
 10
5.32249
 20
35.4958
 30
0.0
 40
0.00456693
 41
0.00456693
  0
VERTEX
  8
0
 10
5.33018
 20
35.5342
 30
0.0
 40
0.00456693
 41
0.00456693
  0
VERTEX
  8
0
 10
5.35129
 20
35.5654
 30
0.0
 40
0.00456693
 41
0.00456693
  0
VERTEX
  8
0
 10
5.38254
 20
35.5865
 30
0.0
 40
0.00456693
 41
0.00456693
  0
VERTEX
  8
0
 10
5.4209
 20
35.5943
 30
0.0
 40
0.00456693
 41
0.00456693
  0
VERTEX
  8
0
 10
5.45919
 20
35.5865
 30
0.0
 40
0.00456693
 41
0.00456693
  0
VERTEX
  8
0
 10
5.49044
 20
35.5654
 30
0.0
 40
0.00456693
 41
0.00456693
  0
VERTEX
  8
0
 10
5.51156
 20
35.5342
 30
0.0
 40
0.00456693
 41
0.00456693
  0
VERTEX
  8
0
 10
5.51932
 20
35.4958
 30
0.0
 40
0.00456693
 41
0.00456693
  0
SEQEND
 8
0
  0
POLYLINE
  8
0
 62
     0
 66
     1
 10
0
 20
0
 30
0.0
 70
     1
 40
0.329829
 41
0.329829
  0
VERTEX
  8
0
 10
15.2043
 20
34.9053
 30
0.0
 40
0.00458096
 41
0.00458096
  0
VERTEX
  8
0
 10
15.1967
 20
34.8671
 30
0.0
 40
0.00458096
 41
0.00458096
  0
VERTEX
  8
0
 10
15.1756
 20
34.8358
 30
0.0
 40
0.00458096
 41
0.00458096
  0
VERTEX
  8
0
 10
15.1442
 20
34.8147
 30
0.0
 40
0.00458096
 41
0.00458096
  0
VERTEX
  8
0
 10
15.1058
 20
34.8069
 30
0.0
 40
0.00458096
 41
0.00458096
  0
VERTEX
  8
0
 10
15.0676
 20
34.8147
 30
0.0
 40
0.00458096
 41
0.00458096
  0
VERTEX
  8
0
 10
15.0362
 20
34.8358
 30
0.0
 40
0.00458096
 41
0.00458096
  0
VERTEX
  8
0
 10
15.0151
 20
34.8671
 30
0.0
 40
0.00458096
 41
0.00458096
  0
VERTEX
  8
0
 10
15.0075
 20
34.9053
 30
0.0
 40
0.00458096
 41
0.00458096
  0
VERTEX
  8
0
 10
15.0151
 20
34.9437
 30
0.0
 40
0.00458096
 41
0.00458096
  0
VERTEX
  8
0
 10
15.0362
 20
34.975
 30
0.0
 40
0.00458096
 41
0.00458096
  0
VERTEX
  8
0
 10
15.0676
 20
34.996
 30
0.0
 40
0.00458096
 41
0.00458096
  0
VERTEX
  8
0
 10
15.1058
 20
35.0038
 30
0.0
 40
0.00458096
 41
0.00458096
  0
VERTEX
  8
0
 10
15.1442
 20
34.996
 30
0.0
 40
0.00458096
 41
0.00458096
  0
VERTEX
  8
0
 10
15.1756
 20
34.975
 30
0.0
 40
0.00458096
 41
0.00458096
  0
VERTEX
  8
0
 10
15.1967
 20
34.9437
 30
0.0
 40
0.00458096
 41
0.00458096
  0
VERTEX
  8
0
 10
15.2043
 20
34.9053
 30
0.0
 40
0.00458096
 41
0.00458096
  0
SEQEND
 8
0
  0
POLYLINE
  8
0
 62
     0
 66
     1
 10
0
 20
0
 30
0.0
 70
     1
 40
0.329829
 41
0.329829
  0
VERTEX
  8
0
 10
11.4248
 20
34.9053
 30
0.0
 40
0.00458096
 41
0.00458096
  0
VERTEX
  8
0
 10
11.417
 20
34.8671
 30
0.0
 40
0.00458096
 41
0.00458096
  0
VERTEX
  8
0
 10
11.3959
 20
34.8358
 30
0.0
 40
0.00458096
 41
0.00458096
  0
VERTEX
  8
0
 10
11.3647
 20
34.8147
 30
0.0
 40
0.00458096
 41
0.00458096
  0
VERTEX
  8
0
 10
11.3264
 20
34.8069
 30
0.0
 40
0.00458096
 41
0.00458096
  0
VERTEX
  8
0
 10
11.288
 20
34.8147
 30
0.0
 40
0.00458096
 41
0.00458096
  0
VERTEX
  8
0
 10
11.2568
 20
34.8358
 30
0.0
 40
0.00458096
 41
0.00458096
  0
VERTEX
  8
0
 10
11.2357
 20
34.8671
 30
0.0
 40
0.00458096
 41
0.00458096
  0
VERTEX
  8
0
 10
11.228
 20
34.9053
 30
0.0
 40
0.00458096
 41
0.00458096
  0
VERTEX
  8
0
 10
11.2357
 20
34.9437
 30
0.0
 40
0.00458096
 41
0.00458096
  0
VERTEX
  8
0
 10
11.2568
 20
34.975
 30
0.0
 40
0.00458096
 41
0.00458096
  0
VERTEX
  8
0
 10
11.288
 20
34.996
 30
0.0
 40
0.00458096
 41
0.00458096
  0
VERTEX
  8
0
 10
11.3264
 20
35.0038
 30
0.0
 40
0.00458096
 41
0.00458096
  0
VERTEX
  8
0
 10
11.3647
 20
34.996
 30
0.0
 40
0.00458096
 41
0.00458096
  0
VERTEX
  8
0
 10
11.3959
 20
34.975
 30
0.0
 40
0.00458096
 41
0.00458096
  0
VERTEX
  8
0
 10
11.417
 20
34.9437
 30
0.0
 40
0.00458096
 41
0.00458096
  0
VERTEX
  8
0
 10
11.4248
 20
34.9053
 30
0.0
 40
0.00458096
 41
0.00458096
  0
SEQEND
 8
0
  0
POLYLINE
  8
0
 62
     0
 66
     1
 10
0
 20
0
 30
0.0
 70
     1
 40
0.329829
 41
0.329829
  0
VERTEX
  8
0
 10
21.1099
 20
35.4958
 30
0.0
 40
0.00458096
 41
0.00458096
  0
VERTEX
  8
0
 10
21.1021
 20
35.4576
 30
0.0
 40
0.00458096
 41
0.00458096
  0
VERTEX
  8
0
 10
21.081
 20
35.4264
 30
0.0
 40
0.00458096
 41
0.00458096
  0
VERTEX
  8
0
 10
21.0497
 20
35.4053
 30
0.0
 40
0.00458096
 41
0.00458096
  0
VERTEX
  8
0
 10
21.0114
 20
35.3975
 30
0.0
 40
0.00458096
 41
0.00458096
  0
VERTEX
  8
0
 10
20.9731
 20
35.4053
 30
0.0
 40
0.00458096
 41
0.00458096
  0
VERTEX
  8
0
 10
20.9418
 20
35.4264
 30
0.0
 40
0.00458096
 41
0.00458096
  0
VERTEX
  8
0
 10
20.9207
 20
35.4576
 30
0.0
 40
0.00458096
 41
0.00458096
  0
VERTEX
  8
0
 10
20.9131
 20
35.4958
 30
0.0
 40
0.00458096
 41
0.00458096
  0
VERTEX
  8
0
 10
20.9207
 20
35.5342
 30
0.0
 40
0.00458096
 41
0.00458096
  0
VERTEX
  8
0
 10
20.9418
 20
35.5654
 30
0.0
 40
0.00458096
 41
0.00458096
  0
VERTEX
  8
0
 10
20.9731
 20
35.5865
 30
0.0
 40
0.00458096
 41
0.00458096
  0
VERTEX
  8
0
 10
21.0114
 20
35.5943
 30
0.0
 40
0.00458096
 41
0.00458096
  0
VERTEX
  8
0
 10
21.0497
 20
35.5865
 30
0.0
 40
0.00458096
 41
0.00458096
  0
VERTEX
  8
0
 10
21.081
 20
35.5654
 30
0.0
 40
0.00458096
 41
0.00458096
  0
VERTEX
  8
0
 10
21.1021
 20
35.5342
 30
0.0
 40
0.00458096
 41
0.00458096
  0
VERTEX
  8
0
 10
21.1099
 20
35.4958
 30
0.0
 40
0.00458096
 41
0.00458096
  0
SEQEND
 8
0
  0
POLYLINE
  8
0
 62
     0
 66
     1
 10
0
 20
0
 30
0.0
 70
     1
 40
0.329829
 41
0.329829
  0
VERTEX
  8
0
 10
17.3304
 20
35.4958
 30
0.0
 40
0.00458096
 41
0.00458096
  0
VERTEX
  8
0
 10
17.3226
 20
35.4576
 30
0.0
 40
0.00458096
 41
0.00458096
  0
VERTEX
  8
0
 10
17.3015
 20
35.4264
 30
0.0
 40
0.00458096
 41
0.00458096
  0
VERTEX
  8
0
 10
17.2703
 20
35.4053
 30
0.0
 40
0.00458096
 41
0.00458096
  0
VERTEX
  8
0
 10
17.2319
 20
35.3975
 30
0.0
 40
0.00458096
 41
0.00458096
  0
VERTEX
  8
0
 10
17.1936
 20
35.4053
 30
0.0
 40
0.00458096
 41
0.00458096
  0
VERTEX
  8
0
 10
17.1622
 20
35.4264
 30
0.0
 40
0.00458096
 41
0.00458096
  0
VERTEX
  8
0
 10
17.1411
 20
35.4576
 30
0.0
 40
0.00458096
 41
0.00458096
  0
VERTEX
  8
0
 10
17.1335
 20
35.4958
 30
0.0
 40
0.00458096
 41
0.00458096
  0
VERTEX
  8
0
 10
17.1411
 20
35.5342
 30
0.0
 40
0.00458096
 41
0.00458096
  0
VERTEX
  8
0
 10
17.1622
 20
35.5654
 30
0.0
 40
0.00458096
 41
0.00458096
  0
VERTEX
  8
0
 10
17.1936
 20
35.5865
 30
0.0
 40
0.00458096
 41
0.00458096
  0
VERTEX
  8
0
 10
17.2319
 20
35.5943
 30
0.0
 40
0.00458096
 41
0.00458096
  0
VERTEX
  8
0
 10
17.2703
 20
35.5865
 30
0.0
 40
0.00458096
 41
0.00458096
  0
VERTEX
  8
0
 10
17.3015
 20
35.5654
 30
0.0
 40
0.00458096
 41
0.00458096
  0
VERTEX
  8
0
 10
17.3226
 20
35.5342
 30
0.0
 40
0.00458096
 41
0.00458096
  0
VERTEX
  8
0
 10
17.3304
 20
35.4958
 30
0.0
 40
0.00458096
 41
0.00458096
  0
SEQEND
 8
0
  0
POLYLINE
  8
0
 62
     0
 66
     1
 10
0
 20
0
 30
0.0
 70
     1
 40
0.328819
 41
0.328819
  0
VERTEX
  8
0
 10
6.91694
 20
34.7085
 30
0.0
 40
0.00456693
 41
0.00456693
  0
VERTEX
  8
0
 10
6.90918
 20
34.6701
 30
0.0
 40
0.00456693
 41
0.00456693
  0
VERTEX
  8
0
 10
6.88807
 20
34.6389
 30
0.0
 40
0.00456693
 41
0.00456693
  0
VERTEX
  8
0
 10
6.85682
 20
34.6178
 30
0.0
 40
0.00456693
 41
0.00456693
  0
VERTEX
  8
0
 10
6.81853
 20
34.61
 30
0.0
 40
0.00456693
 41
0.00456693
  0
VERTEX
  8
0
 10
6.78017
 20
34.6178
 30
0.0
 40
0.00456693
 41
0.00456693
  0
VERTEX
  8
0
 10
6.74892
 20
34.6389
 30
0.0
 40
0.00456693
 41
0.00456693
  0
VERTEX
  8
0
 10
6.72781
 20
34.6701
 30
0.0
 40
0.00456693
 41
0.00456693
  0
VERTEX
  8
0
 10
6.72011
 20
34.7085
 30
0.0
 40
0.00456693
 41
0.00456693
  0
VERTEX
  8
0
 10
6.72781
 20
34.7468
 30
0.0
 40
0.00456693
 41
0.00456693
  0
VERTEX
  8
0
 10
6.74892
 20
34.7781
 30
0.0
 40
0.00456693
 41
0.00456693
  0
VERTEX
  8
0
 10
6.78017
 20
34.7992
 30
0.0
 40
0.00456693
 41
0.00456693
  0
VERTEX
  8
0
 10
6.81853
 20
34.8069
 30
0.0
 40
0.00456693
 41
0.00456693
  0
VERTEX
  8
0
 10
6.85682
 20
34.7992
 30
0.0
 40
0.00456693
 41
0.00456693
  0
VERTEX
  8
0
 10
6.88807
 20
34.7781
 30
0.0
 40
0.00456693
 41
0.00456693
  0
VERTEX
  8
0
 10
6.90918
 20
34.7468
 30
0.0
 40
0.00456693
 41
0.00456693
  0
VERTEX
  8
0
 10
6.91694
 20
34.7085
 30
0.0
 40
0.00456693
 41
0.00456693
  0
SEQEND
 8
0
  0
POLYLINE
  8
0
 62
     0
 66
     1
 10
0
 20
0
 30
0.0
 70
     1
 40
0.328819
 41
0.328819
  0
VERTEX
  8
0
 10
19.7122
 20
34.7085
 30
0.0
 40
0.00456693
 41
0.00456693
  0
VERTEX
  8
0
 10
19.7044
 20
34.6701
 30
0.0
 40
0.00456693
 41
0.00456693
  0
VERTEX
  8
0
 10
19.6833
 20
34.6389
 30
0.0
 40
0.00456693
 41
0.00456693
  0
VERTEX
  8
0
 10
19.6521
 20
34.6178
 30
0.0
 40
0.00456693
 41
0.00456693
  0
VERTEX
  8
0
 10
19.6139
 20
34.61
 30
0.0
 40
0.00456693
 41
0.00456693
  0
VERTEX
  8
0
 10
19.5754
 20
34.6178
 30
0.0
 40
0.00456693
 41
0.00456693
  0
VERTEX
  8
0
 10
19.5442
 20
34.6389
 30
0.0
 40
0.00456693
 41
0.00456693
  0
VERTEX
  8
0
 10
19.5231
 20
34.6701
 30
0.0
 40
0.00456693
 41
0.00456693
  0
VERTEX
  8
0
 10
19.5154
 20
34.7085
 30
0.0
 40
0.00456693
 41
0.00456693
  0
VERTEX
  8
0
 10
19.5231
 20
34.7468
 30
0.0
 40
0.00456693
 41
0.00456693
  0
VERTEX
  8
0
 10
19.5442
 20
34.7781
 30
0.0
 40
0.00456693
 41
0.00456693
  0
VERTEX
  8
0
 10
19.5754
 20
34.7992
 30
0.0
 40
0.00456693
 41
0.00456693
  0
VERTEX
  8
0
 10
19.6139
 20
34.8069
 30
0.0
 40
0.00456693
 41
0.00456693
  0
VERTEX
  8
0
 10
19.6521
 20
34.7992
 30
0.0
 40
0.00456693
 41
0.00456693
  0
VERTEX
  8
0
 10
19.6833
 20
34.7781
 30
0.0
 40
0.00456693
 41
0.00456693
  0
VERTEX
  8
0
 10
19.7044
 20
34.7468
 30
0.0
 40
0.00456693
 41
0.00456693
  0
VERTEX
  8
0
 10
19.7122
 20
34.7085
 30
0.0
 40
0.00456693
 41
0.00456693
  0
SEQEND
 8
0
  0
POLYLINE
  8
0
 62
     0
 66
     1
 10
0
 20
0
 30
0.0
 70
     1
 40
0.402683
 41
0.402683
  0
VERTEX
  8
0
 10
3.98525
 20
29.6833
 30
0.0
 40
0.00559282
 41
0.00559282
  0
VERTEX
  8
0
 10
3.98525
 20
26.9274
 30
0.0
 40
0.00559282
 41
0.00559282
  0
VERTEX
  8
0
 10
22.4892
 20
26.9274
 30
0.0
 40
0.00559282
 41
0.00559282
  0
VERTEX
  8
0
 10
22.4892
 20
29.6833
 30
0.0
 40
0.00559282
 41
0.00559282
  0
VERTEX
  8
0
 10
20.9078
 20
29.6833
 30
0.0
 40
0.00559282
 41
0.00559282
  0
VERTEX
  8
0
 10
20.7679
 20
29.4425
 30
0.0
 40
0.00559282
 41
0.00559282
  0
VERTEX
  8
0
 10
20.5982
 20
29.2269
 30
0.0
 40
0.00559282
 41
0.00559282
  0
VERTEX
  8
0
 10
20.4021
 20
29.0386
 30
0.0
 40
0.00559282
 41
0.00559282
  0
VERTEX
  8
0
 10
20.1828
 20
28.8799
 30
0.0
 40
0.00559282
 41
0.00559282
  0
VERTEX
  8
0
 10
19.9439
 20
28.7525
 30
0.0
 40
0.00559282
 41
0.00559282
  0
VERTEX
  8
0
 10
19.6886
 20
28.6589
 30
0.0
 40
0.00559282
 41
0.00559282
  0
VERTEX
  8
0
 10
19.4204
 20
28.601
 30
0.0
 40
0.00559282
 41
0.00559282
  0
VERTEX
  8
0
 10
19.1428
 20
28.581
 30
0.0
 40
0.00559282
 41
0.00559282
  0
VERTEX
  8
0
 10
18.8649
 20
28.6008
 30
0.0
 40
0.00559282
 41
0.00559282
  0
VERTEX
  8
0
 10
18.5964
 20
28.6586
 30
0.0
 40
0.00559282
 41
0.00559282
  0
VERTEX
  8
0
 10
18.341
 20
28.7522
 30
0.0
 40
0.00559282
 41
0.00559282
  0
VERTEX
  8
0
 10
18.1018
 20
28.8794
 30
0.0
 40
0.00559282
 41
0.00559282
  0
VERTEX
  8
0
 10
17.8825
 20
29.0383
 30
0.0
 40
0.00559282
 41
0.00559282
  0
VERTEX
  8
0
 10
17.6861
 20
29.2267
 30
0.0
 40
0.00559282
 41
0.00559282
  0
VERTEX
  8
0
 10
17.5164
 20
29.4424
 30
0.0
 40
0.00559282
 41
0.00559282
  0
VERTEX
  8
0
 10
17.3764
 20
29.6833
 30
0.0
 40
0.00559282
 41
0.00559282
  0
VERTEX
  8
0
 10
15.1839
 20
29.6833
 30
0.0
 40
0.00559282
 41
0.00559282
  0
VERTEX
  8
0
 10
15.1501
 20
29.5044
 30
0.0
 40
0.00559282
 41
0.00559282
  0
VERTEX
  8
0
 10
15.1011
 20
29.3321
 30
0.0
 40
0.00559282
 41
0.00559282
  0
VERTEX
  8
0
 10
15.0372
 20
29.1669
 30
0.0
 40
0.00559282
 41
0.00559282
  0
VERTEX
  8
0
 10
14.9596
 20
29.0097
 30
0.0
 40
0.00559282
 41
0.00559282
  0
VERTEX
  8
0
 10
14.869
 20
28.861
 30
0.0
 40
0.00559282
 41
0.00559282
  0
VERTEX
  8
0
 10
14.766
 20
28.7217
 30
0.0
 40
0.00559282
 41
0.00559282
  0
VERTEX
  8
0
 10
14.6515
 20
28.5922
 30
0.0
 40
0.00559282
 41
0.00559282
  0
VERTEX
  8
0
 10
14.5265
 20
28.4735
 30
0.0
 40
0.00559282
 41
0.00559282
  0
VERTEX
  8
0
 10
14.3917
 20
28.3661
 30
0.0
 40
0.00559282
 41
0.00559282
  0
VERTEX
  8
0
 10
14.2475
 20
28.2708
 30
0.0
 40
0.00559282
 41
0.00559282
  0
VERTEX
  8
0
 10
14.0953
 20
28.1882
 30
0.0
 40
0.00559282
 41
0.00559282
  0
VERTEX
  8
0
 10
13.9354
 20
28.119
 30
0.0
 40
0.00559282
 41
0.00559282
  0
VERTEX
  8
0
 10
13.7689
 20
28.0639
 30
0.0
 40
0.00559282
 41
0.00559282
  0
VERTEX
  8
0
 10
13.5965
 20
28.0236
 30
0.0
 40
0.00559282
 41
0.00559282
  0
VERTEX
  8
0
 10
13.419
 20
27.9989
 30
0.0
 40
0.00559282
 41
0.00559282
  0
VERTEX
  8
0
 10
13.2372
 20
27.9903
 30
0.0
 40
0.00559282
 41
0.00559282
  0
VERTEX
  8
0
 10
13.0553
 20
27.9989
 30
0.0
 40
0.00559282
 41
0.00559282
  0
VERTEX
  8
0
 10
12.8778
 20
28.0236
 30
0.0
 40
0.00559282
 41
0.00559282
  0
VERTEX
  8
0
 10
12.7054
 20
28.0639
 30
0.0
 40
0.00559282
 41
0.00559282
  0
VERTEX
  8
0
 10
12.5388
 20
28.1189
 30
0.0
 40
0.00559282
 41
0.00559282
  0
VERTEX
  8
0
 10
12.379
 20
28.1881
 30
0.0
 40
0.00559282
 41
0.00559282
  0
VERTEX
  8
0
 10
12.2267
 20
28.2707
 30
0.0
 40
0.00559282
 41
0.00559282
  0
VERTEX
  8
0
 10
12.0826
 20
28.366
 30
0.0
 40
0.00559282
 41
0.00559282
  0
VERTEX
  8
0
 10
11.9476
 20
28.4733
 30
0.0
 40
0.00559282
 41
0.00559282
  0
VERTEX
  8
0
 10
11.8225
 20
28.5921
 30
0.0
 40
0.00559282
 41
0.00559282
  0
VERTEX
  8
0
 10
11.7081
 20
28.7215
 30
0.0
 40
0.00559282
 41
0.00559282
  0
VERTEX
  8
0
 10
11.6051
 20
28.861
 30
0.0
 40
0.00559282
 41
0.00559282
  0
VERTEX
  8
0
 10
11.5145
 20
29.0096
 30
0.0
 40
0.00559282
 41
0.00559282
  0
VERTEX
  8
0
 10
11.4368
 20
29.1669
 30
0.0
 40
0.00559282
 41
0.00559282
  0
VERTEX
  8
0
 10
11.373
 20
29.3321
 30
0.0
 40
0.00559282
 41
0.00559282
  0
VERTEX
  8
0
 10
11.3239
 20
29.5044
 30
0.0
 40
0.00559282
 41
0.00559282
  0
VERTEX
  8
0
 10
11.2902
 20
29.6833
 30
0.0
 40
0.00559282
 41
0.00559282
  0
VERTEX
  8
0
 10
9.09668
 20
29.6833
 30
0.0
 40
0.00559282
 41
0.00559282
  0
VERTEX
  8
0
 10
8.95682
 20
29.4425
 30
0.0
 40
0.00559282
 41
0.00559282
  0
VERTEX
  8
0
 10
8.78711
 20
29.2269
 30
0.0
 40
0.00559282
 41
0.00559282
  0
VERTEX
  8
0
 10
8.59099
 20
29.0386
 30
0.0
 40
0.00559282
 41
0.00559282
  0
VERTEX
  8
0
 10
8.37175
 20
28.8799
 30
0.0
 40
0.00559282
 41
0.00559282
  0
VERTEX
  8
0
 10
8.13281
 20
28.7525
 30
0.0
 40
0.00559282
 41
0.00559282
  0
VERTEX
  8
0
 10
7.87756
 20
28.6589
 30
0.0
 40
0.00559282
 41
0.00559282
  0
VERTEX
  8
0
 10
7.60943
 20
28.601
 30
0.0
 40
0.00559282
 41
0.00559282
  0
VERTEX
  8
0
 10
7.33171
 20
28.581
 30
0.0
 40
0.00559282
 41
0.00559282
  0
VERTEX
  8
0
 10
7.05376
 20
28.6008
 30
0.0
 40
0.00559282
 41
0.00559282
  0
VERTEX
  8
0
 10
6.78538
 20
28.6586
 30
0.0
 40
0.00559282
 41
0.00559282
  0
VERTEX
  8
0
 10
6.52994
 20
28.7522
 30
0.0
 40
0.00559282
 41
0.00559282
  0
VERTEX
  8
0
 10
6.29085
 20
28.8794
 30
0.0
 40
0.00559282
 41
0.00559282
  0
VERTEX
  8
0
 10
6.07146
 20
29.0383
 30
0.0
 40
0.00559282
 41
0.00559282
  0
VERTEX
  8
0
 10
5.87511
 20
29.2267
 30
0.0
 40
0.00559282
 41
0.00559282
  0
VERTEX
  8
0
 10
5.70529
 20
29.4424
 30
0.0
 40
0.00559282
 41
0.00559282
  0
VERTEX
  8
0
 10
5.56538
 20
29.6833
 30
0.0
 40
0.00559282
 41
0.00559282
  0
VERTEX
  8
0
 10
3.98525
 20
29.6833
 30
0.0
 40
0.00559282
 41
0.00559282
  0
SEQEND
 8
0
  0
POLYLINE
  8
0
 62
     0
 66
     1
 10
0
 20
0
 30
0.0
 70
     1
 40
0.329829
 41
0.329829
  0
VERTEX
  8
0
 10
9.31988
 20
28.4037
 30
0.0
 40
0.00458096
 41
0.00458096
  0
VERTEX
  8
0
 10
9.31213
 20
28.3654
 30
0.0
 40
0.00458096
 41
0.00458096
  0
VERTEX
  8
0
 10
9.29101
 20
28.3342
 30
0.0
 40
0.00458096
 41
0.00458096
  0
VERTEX
  8
0
 10
9.25976
 20
28.3131
 30
0.0
 40
0.00458096
 41
0.00458096
  0
VERTEX
  8
0
 10
9.22146
 20
28.3053
 30
0.0
 40
0.00458096
 41
0.00458096
  0
VERTEX
  8
0
 10
9.18311
 20
28.3131
 30
0.0
 40
0.00458096
 41
0.00458096
  0
VERTEX
  8
0
 10
9.15186
 20
28.3342
 30
0.0
 40
0.00458096
 41
0.00458096
  0
VERTEX
  8
0
 10
9.13075
 20
28.3654
 30
0.0
 40
0.00458096
 41
0.00458096
  0
VERTEX
  8
0
 10
9.12304
 20
28.4037
 30
0.0
 40
0.00458096
 41
0.00458096
  0
VERTEX
  8
0
 10
9.13075
 20
28.4421
 30
0.0
 40
0.00458096
 41
0.00458096
  0
VERTEX
  8
0
 10
9.15186
 20
28.4733
 30
0.0
 40
0.00458096
 41
0.00458096
  0
VERTEX
  8
0
 10
9.18311
 20
28.4944
 30
0.0
 40
0.00458096
 41
0.00458096
  0
VERTEX
  8
0
 10
9.22146
 20
28.5022
 30
0.0
 40
0.00458096
 41
0.00458096
  0
VERTEX
  8
0
 10
9.25976
 20
28.4944
 30
0.0
 40
0.00458096
 41
0.00458096
  0
VERTEX
  8
0
 10
9.29101
 20
28.4733
 30
0.0
 40
0.00458096
 41
0.00458096
  0
VERTEX
  8
0
 10
9.31213
 20
28.4421
 30
0.0
 40
0.00458096
 41
0.00458096
  0
VERTEX
  8
0
 10
9.31988
 20
28.4037
 30
0.0
 40
0.00458096
 41
0.00458096
  0
SEQEND
 8
0
  0
POLYLINE
  8
0
 62
     0
 66
     1
 10
0
 20
0
 30
0.0
 70
     1
 40
0.329829
 41
0.329829
  0
VERTEX
  8
0
 10
5.54036
 20
28.4037
 30
0.0
 40
0.00458096
 41
0.00458096
  0
VERTEX
  8
0
 10
5.53261
 20
28.3654
 30
0.0
 40
0.00458096
 41
0.00458096
  0
VERTEX
  8
0
 10
5.5115
 20
28.3342
 30
0.0
 40
0.00458096
 41
0.00458096
  0
VERTEX
  8
0
 10
5.48025
 20
28.3131
 30
0.0
 40
0.00458096
 41
0.00458096
  0
VERTEX
  8
0
 10
5.44194
 20
28.3053
 30
0.0
 40
0.00458096
 41
0.00458096
  0
VERTEX
  8
0
 10
5.4036
 20
28.3131
 30
0.0
 40
0.00458096
 41
0.00458096
  0
VERTEX
  8
0
 10
5.37235
 20
28.3342
 30
0.0
 40
0.00458096
 41
0.00458096
  0
VERTEX
  8
0
 10
5.35124
 20
28.3654
 30
0.0
 40
0.00458096
 41
0.00458096
  0
VERTEX
  8
0
 10
5.34353
 20
28.4037
 30
0.0
 40
0.00458096
 41
0.00458096
  0
VERTEX
  8
0
 10
5.35124
 20
28.4421
 30
0.0
 40
0.00458096
 41
0.00458096
  0
VERTEX
  8
0
 10
5.37235
 20
28.4733
 30
0.0
 40
0.00458096
 41
0.00458096
  0
VERTEX
  8
0
 10
5.4036
 20
28.4944
 30
0.0
 40
0.00458096
 41
0.00458096
  0
VERTEX
  8
0
 10
5.44194
 20
28.5022
 30
0.0
 40
0.00458096
 41
0.00458096
  0
VERTEX
  8
0
 10
5.48025
 20
28.4944
 30
0.0
 40
0.00458096
 41
0.00458096
  0
VERTEX
  8
0
 10
5.5115
 20
28.4733
 30
0.0
 40
0.00458096
 41
0.00458096
  0
VERTEX
  8
0
 10
5.53261
 20
28.4421
 30
0.0
 40
0.00458096
 41
0.00458096
  0
VERTEX
  8
0
 10
5.54036
 20
28.4037
 30
0.0
 40
0.00458096
 41
0.00458096
  0
SEQEND
 8
0
  0
POLYLINE
  8
0
 62
     0
 66
     1
 10
0
 20
0
 30
0.0
 70
     1
 40
0.329829
 41
0.329829
  0
VERTEX
  8
0
 10
15.2254
 20
27.8132
 30
0.0
 40
0.00458096
 41
0.00458096
  0
VERTEX
  8
0
 10
15.2176
 20
27.7749
 30
0.0
 40
0.00458096
 41
0.00458096
  0
VERTEX
  8
0
 10
15.1965
 20
27.7436
 30
0.0
 40
0.00458096
 41
0.00458096
  0
VERTEX
  8
0
 10
15.1653
 20
27.7225
 30
0.0
 40
0.00458096
 41
0.00458096
  0
VERTEX
  8
0
 10
15.1269
 20
27.7147
 30
0.0
 40
0.00458096
 41
0.00458096
  0
VERTEX
  8
0
 10
15.0886
 20
27.7225
 30
0.0
 40
0.00458096
 41
0.00458096
  0
VERTEX
  8
0
 10
15.0574
 20
27.7436
 30
0.0
 40
0.00458096
 41
0.00458096
  0
VERTEX
  8
0
 10
15.0362
 20
27.7749
 30
0.0
 40
0.00458096
 41
0.00458096
  0
VERTEX
  8
0
 10
15.0285
 20
27.8132
 30
0.0
 40
0.00458096
 41
0.00458096
  0
VERTEX
  8
0
 10
15.0362
 20
27.8515
 30
0.0
 40
0.00458096
 41
0.00458096
  0
VERTEX
  8
0
 10
15.0574
 20
27.8828
 30
0.0
 40
0.00458096
 41
0.00458096
  0
VERTEX
  8
0
 10
15.0886
 20
27.9039
 30
0.0
 40
0.00458096
 41
0.00458096
  0
VERTEX
  8
0
 10
15.1269
 20
27.9117
 30
0.0
 40
0.00458096
 41
0.00458096
  0
VERTEX
  8
0
 10
15.1653
 20
27.9039
 30
0.0
 40
0.00458096
 41
0.00458096
  0
VERTEX
  8
0
 10
15.1965
 20
27.8828
 30
0.0
 40
0.00458096
 41
0.00458096
  0
VERTEX
  8
0
 10
15.2176
 20
27.8515
 30
0.0
 40
0.00458096
 41
0.00458096
  0
VERTEX
  8
0
 10
15.2254
 20
27.8132
 30
0.0
 40
0.00458096
 41
0.00458096
  0
SEQEND
 8
0
  0
POLYLINE
  8
0
 62
     0
 66
     1
 10
0
 20
0
 30
0.0
 70
     1
 40
0.329829
 41
0.329829
  0
VERTEX
  8
0
 10
11.4459
 20
27.8132
 30
0.0
 40
0.00458096
 41
0.00458096
  0
VERTEX
  8
0
 10
11.4381
 20
27.7749
 30
0.0
 40
0.00458096
 41
0.00458096
  0
VERTEX
  8
0
 10
11.417
 20
27.7436
 30
0.0
 40
0.00458096
 41
0.00458096
  0
VERTEX
  8
0
 10
11.3857
 20
27.7225
 30
0.0
 40
0.00458096
 41
0.00458096
  0
VERTEX
  8
0
 10
11.3474
 20
27.7147
 30
0.0
 40
0.00458096
 41
0.00458096
  0
VERTEX
  8
0
 10
11.3091
 20
27.7225
 30
0.0
 40
0.00458096
 41
0.00458096
  0
VERTEX
  8
0
 10
11.2778
 20
27.7436
 30
0.0
 40
0.00458096
 41
0.00458096
  0
VERTEX
  8
0
 10
11.2567
 20
27.7749
 30
0.0
 40
0.00458096
 41
0.00458096
  0
VERTEX
  8
0
 10
11.249
 20
27.8132
 30
0.0
 40
0.00458096
 41
0.00458096
  0
VERTEX
  8
0
 10
11.2567
 20
27.8515
 30
0.0
 40
0.00458096
 41
0.00458096
  0
VERTEX
  8
0
 10
11.2778
 20
27.8828
 30
0.0
 40
0.00458096
 41
0.00458096
  0
VERTEX
  8
0
 10
11.3091
 20
27.9039
 30
0.0
 40
0.00458096
 41
0.00458096
  0
VERTEX
  8
0
 10
11.3474
 20
27.9117
 30
0.0
 40
0.00458096
 41
0.00458096
  0
VERTEX
  8
0
 10
11.3857
 20
27.9039
 30
0.0
 40
0.00458096
 41
0.00458096
  0
VERTEX
  8
0
 10
11.417
 20
27.8828
 30
0.0
 40
0.00458096
 41
0.00458096
  0
VERTEX
  8
0
 10
11.4381
 20
27.8515
 30
0.0
 40
0.00458096
 41
0.00458096
  0
VERTEX
  8
0
 10
11.4459
 20
27.8132
 30
0.0
 40
0.00458096
 41
0.00458096
  0
SEQEND
 8
0
  0
POLYLINE
  8
0
 62
     0
 66
     1
 10
0
 20
0
 30
0.0
 70
     1
 40
0.329829
 41
0.329829
  0
VERTEX
  8
0
 10
21.131
 20
28.4037
 30
0.0
 40
0.00458096
 41
0.00458096
  0
VERTEX
  8
0
 10
21.1232
 20
28.3654
 30
0.0
 40
0.00458096
 41
0.00458096
  0
VERTEX
  8
0
 10
21.1021
 20
28.3342
 30
0.0
 40
0.00458096
 41
0.00458096
  0
VERTEX
  8
0
 10
21.0708
 20
28.3131
 30
0.0
 40
0.00458096
 41
0.00458096
  0
VERTEX
  8
0
 10
21.0325
 20
28.3053
 30
0.0
 40
0.00458096
 41
0.00458096
  0
VERTEX
  8
0
 10
20.9942
 20
28.3131
 30
0.0
 40
0.00458096
 41
0.00458096
  0
VERTEX
  8
0
 10
20.9629
 20
28.3342
 30
0.0
 40
0.00458096
 41
0.00458096
  0
VERTEX
  8
0
 10
20.9418
 20
28.3654
 30
0.0
 40
0.00458096
 41
0.00458096
  0
VERTEX
  8
0
 10
20.934
 20
28.4037
 30
0.0
 40
0.00458096
 41
0.00458096
  0
VERTEX
  8
0
 10
20.9418
 20
28.4421
 30
0.0
 40
0.00458096
 41
0.00458096
  0
VERTEX
  8
0
 10
20.9629
 20
28.4733
 30
0.0
 40
0.00458096
 41
0.00458096
  0
VERTEX
  8
0
 10
20.9942
 20
28.4944
 30
0.0
 40
0.00458096
 41
0.00458096
  0
VERTEX
  8
0
 10
21.0325
 20
28.5022
 30
0.0
 40
0.00458096
 41
0.00458096
  0
VERTEX
  8
0
 10
21.0708
 20
28.4944
 30
0.0
 40
0.00458096
 41
0.00458096
  0
VERTEX
  8
0
 10
21.1021
 20
28.4733
 30
0.0
 40
0.00458096
 41
0.00458096
  0
VERTEX
  8
0
 10
21.1232
 20
28.4421
 30
0.0
 40
0.00458096
 41
0.00458096
  0
VERTEX
  8
0
 10
21.131
 20
28.4037
 30
0.0
 40
0.00458096
 41
0.00458096
  0
SEQEND
 8
0
  0
POLYLINE
  8
0
 62
     0
 66
     1
 10
0
 20
0
 30
0.0
 70
     1
 40
0.329829
 41
0.329829
  0
VERTEX
  8
0
 10
17.3514
 20
28.4037
 30
0.0
 40
0.00458096
 41
0.00458096
  0
VERTEX
  8
0
 10
17.3436
 20
28.3654
 30
0.0
 40
0.00458096
 41
0.00458096
  0
VERTEX
  8
0
 10
17.3225
 20
28.3342
 30
0.0
 40
0.00458096
 41
0.00458096
  0
VERTEX
  8
0
 10
17.2912
 20
28.3131
 30
0.0
 40
0.00458096
 41
0.00458096
  0
VERTEX
  8
0
 10
17.2529
 20
28.3053
 30
0.0
 40
0.00458096
 41
0.00458096
  0
VERTEX
  8
0
 10
17.2146
 20
28.3131
 30
0.0
 40
0.00458096
 41
0.00458096
  0
VERTEX
  8
0
 10
17.1833
 20
28.3342
 30
0.0
 40
0.00458096
 41
0.00458096
  0
VERTEX
  8
0
 10
17.1622
 20
28.3654
 30
0.0
 40
0.00458096
 41
0.00458096
  0
VERTEX
  8
0
 10
17.1544
 20
28.4037
 30
0.0
 40
0.00458096
 41
0.00458096
  0
VERTEX
  8
0
 10
17.1622
 20
28.4421
 30
0.0
 40
0.00458096
 41
0.00458096
  0
VERTEX
  8
0
 10
17.1833
 20
28.4733
 30
0.0
 40
0.00458096
 41
0.00458096
  0
VERTEX
  8
0
 10
17.2146
 20
28.4944
 30
0.0
 40
0.00458096
 41
0.00458096
  0
VERTEX
  8
0
 10
17.2529
 20
28.5022
 30
0.0
 40
0.00458096
 41
0.00458096
  0
VERTEX
  8
0
 10
17.2912
 20
28.4944
 30
0.0
 40
0.00458096
 41
0.00458096
  0
VERTEX
  8
0
 10
17.3225
 20
28.4733
 30
0.0
 40
0.00458096
 41
0.00458096
  0
VERTEX
  8
0
 10
17.3436
 20
28.4421
 30
0.0
 40
0.00458096
 41
0.00458096
  0
VERTEX
  8
0
 10
17.3514
 20
28.4037
 30
0.0
 40
0.00458096
 41
0.00458096
  0
SEQEND
 8
0
  0
ENDSEC
  0
EOF
