<?xml version="1.0" encoding="UTF-8" standalone="no"?>
<!-- Created with Inkscape (http://www.inkscape.org/) -->

<svg
   xmlns:dc="http://purl.org/dc/elements/1.1/"
   xmlns:cc="http://creativecommons.org/ns#"
   xmlns:rdf="http://www.w3.org/1999/02/22-rdf-syntax-ns#"
   xmlns:svg="http://www.w3.org/2000/svg"
   xmlns="http://www.w3.org/2000/svg"
   xmlns:sodipodi="http://sodipodi.sourceforge.net/DTD/sodipodi-0.dtd"
   xmlns:inkscape="http://www.inkscape.org/namespaces/inkscape"
   width="594mm"
   height="841mm"
   viewBox="0 0 594 841"
   version="1.1"
   id="svg8"
   inkscape:version="0.92.1 r15371"
   sodipodi:docname="cnc.svg">
  <defs
     id="defs2" />
  <sodipodi:namedview
     id="base"
     pagecolor="#ffffff"
     bordercolor="#666666"
     borderopacity="1.0"
     inkscape:pageopacity="0.0"
     inkscape:pageshadow="2"
     inkscape:zoom="0.35"
     inkscape:cx="367.36577"
     inkscape:cy="1886.3543"
     inkscape:document-units="mm"
     inkscape:current-layer="layer1"
     showgrid="false"
     inkscape:window-width="1920"
     inkscape:window-height="1114"
     inkscape:window-x="0"
     inkscape:window-y="31"
     inkscape:window-maximized="1" />
  <metadata
     id="metadata5">
    <rdf:RDF>
      <cc:Work
         rdf:about="">
        <dc:format>image/svg+xml</dc:format>
        <dc:type
           rdf:resource="http://purl.org/dc/dcmitype/StillImage" />
        <dc:title></dc:title>
      </cc:Work>
    </rdf:RDF>
  </metadata>
  <g
     inkscape:label="Layer 1"
     inkscape:groupmode="layer"
     id="layer1"
     transform="translate(0,544)">
    <circle
       style="fill:#000000;fill-opacity:1;stroke:#000000;stroke-width:0.11635642;stroke-miterlimit:4;stroke-dasharray:none;stroke-opacity:1"
       id="path4803-4"
       cx="208.02686"
       cy="-249.78207"
       r="2.5" />
    <circle
       style="fill:#000000;fill-opacity:1;stroke:#000000;stroke-width:0.11635642;stroke-miterlimit:4;stroke-dasharray:none;stroke-opacity:1"
       id="path4803-2-52"
       cx="112.02683"
       cy="-249.78207"
       r="2.5" />
    <circle
       style="fill:#000000;fill-opacity:1;stroke:#000000;stroke-width:0.11635642;stroke-miterlimit:4;stroke-dasharray:none;stroke-opacity:1"
       id="path4803-7-47"
       cx="358.02689"
       cy="-234.78207"
       r="2.5" />
    <circle
       style="fill:#000000;fill-opacity:1;stroke:#000000;stroke-width:0.11635642;stroke-miterlimit:4;stroke-dasharray:none;stroke-opacity:1"
       id="path4803-2-5-4"
       cx="262.02686"
       cy="-234.78207"
       r="2.5" />
    <circle
       style="fill:#000000;fill-opacity:1;stroke:#000000;stroke-width:0.11635642;stroke-miterlimit:4;stroke-dasharray:none;stroke-opacity:1"
       id="path4803-7-4-3"
       cx="508.02686"
       cy="-249.78207"
       r="2.5" />
    <circle
       style="fill:#000000;fill-opacity:1;stroke:#000000;stroke-width:0.11635642;stroke-miterlimit:4;stroke-dasharray:none;stroke-opacity:1"
       id="path4803-2-5-7-0"
       cx="412.02686"
       cy="-249.78207"
       r="2.5" />
    <circle
       style="fill:#000000;fill-opacity:1;stroke:#000000;stroke-width:0.11635642;stroke-miterlimit:4;stroke-dasharray:none;stroke-opacity:1"
       id="path4803-4-8"
       cx="206.42322"
       cy="-338.01389"
       r="2.5" />
    <circle
       style="fill:#000000;fill-opacity:1;stroke:#000000;stroke-width:0.116;stroke-miterlimit:4;stroke-dasharray:none;stroke-opacity:1"
       id="path4803-2-52-6"
       cx="110.42323"
       cy="-338.01389"
       r="2.5" />
    <circle
       style="fill:#000000;fill-opacity:1;stroke:#000000;stroke-width:0.11635642;stroke-miterlimit:4;stroke-dasharray:none;stroke-opacity:1"
       id="path4803-7-47-8"
       cx="356.42328"
       cy="-323.01389"
       r="2.5" />
    <circle
       style="fill:#000000;fill-opacity:1;stroke:#000000;stroke-width:0.11635642;stroke-miterlimit:4;stroke-dasharray:none;stroke-opacity:1"
       id="path4803-2-5-4-8"
       cx="260.42322"
       cy="-323.01389"
       r="2.5" />
    <circle
       style="fill:#000000;fill-opacity:1;stroke:#000000;stroke-width:0.11635642;stroke-miterlimit:4;stroke-dasharray:none;stroke-opacity:1"
       id="path4803-7-4-3-4"
       cx="506.42328"
       cy="-338.01389"
       r="2.5" />
    <circle
       style="fill:#000000;fill-opacity:1;stroke:#000000;stroke-width:0.11635642;stroke-miterlimit:4;stroke-dasharray:none;stroke-opacity:1"
       id="path4803-2-5-7-0-3"
       cx="410.42322"
       cy="-338.01389"
       r="2.5" />
    <circle
       style="fill:#000000;fill-opacity:1;stroke:#000000;stroke-width:0.116;stroke-miterlimit:4;stroke-dasharray:none;stroke-opacity:1"
       id="path5119"
       cx="165.9231"
       cy="-321.01401"
       r="2.5" />
    <circle
       style="fill:#000000;fill-opacity:1;stroke:#000000;stroke-width:0.116;stroke-miterlimit:4;stroke-dasharray:none;stroke-opacity:1"
       id="path5119-1"
       cx="450.9234"
       cy="-321.01401"
       r="2.5" />
    <path
       style="display:inline;fill:none;fill-opacity:1;stroke:#000000;stroke-width:0.1420504;stroke-miterlimit:4;stroke-dasharray:none;stroke-opacity:1"
       d="m 109.00071,-165.44551 0.003,0.003 h 5.3e-4 c -2.4e-4,0 -2.5e-4,5e-5 -5.3e-4,-0.003 h -5.3e-4 z m 0.003,0.003 c -3.28683,-0.003 -6.69802,-8e-5 -10.08103,0.12814 -0.0646,0.003 -0.12918,0.004 -0.19379,0.007 -0.25276,0.01 -0.5042,0.0227 -0.75654,0.0341 -14.76825,0.65313 -29.18124,3.87766 -29.13207,19.83031 0,0.30115 0.0159,0.60894 0.0444,0.92139 -0.005,0.22585 -0.0109,0.45088 -0.0109,0.68162 0.004,5.42163 6.26601,13.73828 16.31787,21.95679 16.25095,13.65663 44.66135,18.21675 68.30694,21.43901 49.67684,6.769604 100.18869,-5.00002 150.32469,-5.00021 50.14718,-2.1e-4 100.67038,11.771504 150.35825,5.00021 23.64558,-3.22234 52.05601,-7.78238 68.30698,-21.43901 10.05184,-8.21851 16.31405,-16.53516 16.31786,-21.95679 0,-0.23074 -0.006,-0.45577 -0.0109,-0.68162 0.0285,-0.31245 0.0444,-0.62024 0.0444,-0.92139 0.0492,-15.95265 -14.36331,-19.17718 -29.13155,-19.83031 -0.25234,-0.0114 -0.50427,-0.0241 -0.75706,-0.0341 -0.0646,-0.003 -0.12917,-0.004 -0.19378,-0.007 -3.38322,-0.12825 -6.79455,-0.12957 -10.08155,-0.12814 h -0.003 c -0.13091,0.26741 -0.26358,0.53358 -0.39894,0.79788 -0.40603,0.79271 -0.83161,1.57186 -1.2759,2.33629 0,0 -2e-5,0.003 -0.003,0.003 -0.59227,1.01896 -1.21769,2.01234 -1.87481,2.97913 -0.32983,0.48524 -0.66791,0.9639 -1.01338,1.43557 -0.51686,0.70573 -1.05074,1.39608 -1.60147,2.07069 -0.18349,0.22486 -0.36883,0.44786 -0.55602,0.66921 -0.37439,0.44264 -0.75644,0.87804 -1.14512,1.30638 -0.19436,0.21415 -0.39031,0.42611 -0.58811,0.63664 -0.39328,0.41857 -0.79328,0.83005 -1.19992,1.23404 l -0.003,0.003 c -0.0361,0.0358 -0.0729,0.0707 -0.10903,0.10647 -0.57822,0.57084 -1.16848,1.12779 -1.7725,1.66862 -0.003,0.003 -0.006,0.005 -0.008,0.007 -0.005,0.004 -0.009,0.008 -0.014,0.0124 -0.42436,0.3795 -0.85484,0.75134 -1.29138,1.1157 -0.22053,0.18412 -0.44304,0.36655 -0.66664,0.54673 -0.2236,0.18018 -0.44884,0.35809 -0.6754,0.53436 -0.22654,0.17621 -0.45421,0.3502 -0.68369,0.52244 -0.91789,0.689 -1.85869,1.34607 -2.82101,1.9699 -0.24056,0.15595 -0.48284,0.30967 -0.72604,0.46146 -0.48641,0.30361 -0.97774,0.59899 -1.47434,0.88575 -0.005,0.003 -0.0106,0.006 -0.0151,0.008 -0.24247,0.13991 -0.48633,0.27758 -0.73123,0.41341 -0.067,0.0372 -0.13478,0.0732 -0.20206,0.11007 -0.18288,0.10038 -0.36563,0.20111 -0.54981,0.29922 -0.0739,0.0394 -0.14864,0.0768 -0.22272,0.11575 -0.1764,0.0928 -0.35261,0.18624 -0.5302,0.27699 l -0.0169,0.009 c -0.25371,0.1295 -0.50832,0.25716 -0.76428,0.38239 -0.0406,0.0198 -0.0818,0.0386 -0.12248,0.0584 -0.21936,0.10658 -0.43897,0.21233 -0.65992,0.31576 -0.26011,0.12168 -0.52112,0.24135 -0.78343,0.35861 -0.26093,0.11666 -0.52295,0.23146 -0.78597,0.34367 -0.0309,0.0132 -0.0621,0.0257 -0.093,0.0387 -0.23509,0.0997 -0.47078,0.19789 -0.70745,0.29406 -0.2617,0.10634 -0.52498,0.21072 -0.78859,0.31263 -0.0638,0.0246 -0.12827,0.048 -0.19222,0.0723 -0.4714,0.18008 -0.94527,0.35446 -1.42263,0.52038 -0.003,0 -0.007,0.003 -0.0101,0.003 -0.0787,0.0273 -0.15788,0.0532 -0.23669,0.0801 -0.19826,0.0678 -0.39659,0.13573 -0.59585,0.20103 -0.54771,0.17954 -1.09878,0.34975 -1.65367,0.51054 -0.0386,0.0111 -0.0776,0.0214 -0.11623,0.0326 -0.24003,0.0689 -0.48067,0.13718 -0.72192,0.20256 -0.0939,0.0254 -0.18854,0.049 -0.28265,0.0739 -0.1855,0.0491 -0.37092,0.0982 -0.55708,0.1452 -0.01,0.003 -0.019,0.005 -0.0284,0.007 -0.27162,0.0684 -0.5439,0.13457 -0.817,0.19844 -0.28041,0.0656 -0.56148,0.12888 -0.84336,0.18965 -0.0591,0.0127 -0.11862,0.0241 -0.17778,0.0367 -0.22749,0.0482 -0.45519,0.096 -0.68368,0.14107 -0.28556,0.0563 -0.57182,0.11031 -0.85884,0.16174 -0.28702,0.0514 -0.57467,0.10031 -0.86302,0.14677 -0.28403,0.0458 -0.56893,0.0893 -0.8542,0.13023 -0.10729,0.0153 -0.215,0.0287 -0.32245,0.0434 -0.1846,0.0251 -0.36939,0.0512 -0.55449,0.0744 -0.0657,0.008 -0.13165,0.0154 -0.1974,0.0233 -0.22643,0.0275 -0.45294,0.0546 -0.68009,0.0791 -0.003,1.3e-4 -0.003,0 -0.004,0 -0.0339,0.004 -0.0684,0.007 -0.10231,0.01 -0.25691,0.027 -0.51377,0.0534 -0.77153,0.0765 -0.0396,0.003 -0.0793,0.006 -0.11887,0.01 -0.25395,0.0222 -0.508,0.0427 -0.76277,0.061 -0.0347,0.003 -0.0696,0.004 -0.10438,0.007 -0.25858,0.018 -0.51734,0.035 -0.77671,0.0491 -0.0664,0.004 -0.13303,0.006 -0.19947,0.009 -0.22852,0.0114 -0.45717,0.0222 -0.68622,0.0305 -0.0788,0.003 -0.15788,0.003 -0.2367,0.006 -0.21696,0.007 -0.43418,0.0135 -0.65164,0.0175 -0.10118,0.003 -0.20257,0.003 -0.30385,0.004 -0.1941,0.003 -0.38798,0.007 -0.5824,0.007 -0.19418,-2.1e-4 -0.38806,-0.003 -0.5819,-0.007 -0.0979,0 -0.19621,0 -0.29403,-0.003 -0.003,-8e-5 -0.007,0 -0.0103,0 -0.22344,-0.004 -0.44627,-0.0109 -0.66918,-0.018 -0.0725,-0.003 -0.14513,-0.003 -0.21757,-0.006 -0.24222,-0.009 -0.48345,-0.0204 -0.72504,-0.0325 -0.0531,-0.003 -0.10649,-0.004 -0.15965,-0.007 -0.24767,-0.0135 -0.49511,-0.0295 -0.74207,-0.0465 -0.0476,-0.003 -0.0955,-0.006 -0.14314,-0.009 -0.23194,-0.0167 -0.46324,-0.0359 -0.69453,-0.0558 -0.0625,-0.005 -0.12518,-0.009 -0.18759,-0.0151 -0.11957,-0.0106 -0.23874,-0.0236 -0.35812,-0.0351 -0.18108,-0.0175 -0.36248,-0.0348 -0.54311,-0.0543 -0.28202,-0.0304 -0.56348,-0.063 -0.84439,-0.0982 -0.003,0 -0.007,0 -0.0103,-0.003 -0.17174,-0.0217 -0.34282,-0.0454 -0.51416,-0.0687 -0.11988,-0.0164 -0.24003,-0.0314 -0.35968,-0.0486 -0.13343,-0.019 -0.26633,-0.0403 -0.39946,-0.0605 -0.15727,-0.0238 -0.31489,-0.0469 -0.47181,-0.0723 -0.28263,-0.0456 -0.56459,-0.0938 -0.84593,-0.1442 -0.13366,-0.0241 -0.26659,-0.0499 -0.39999,-0.0749 -0.16195,-0.0304 -0.32375,-0.06 -0.48522,-0.092 -0.27662,-0.0547 -0.55272,-0.11173 -0.82786,-0.17105 -0.004,0 -0.009,-0.003 -0.013,-0.003 -0.27977,-0.0604 -0.55883,-0.123 -0.83714,-0.18812 -0.13661,-0.0319 -0.27255,-0.0661 -0.40878,-0.0992 -0.15402,-0.0374 -0.3084,-0.0738 -0.46199,-0.11263 -0.27914,-0.0706 -0.55756,-0.1433 -0.83508,-0.2186 -0.27284,-0.0741 -0.54523,-0.15086 -0.81648,-0.22944 -0.18711,-0.0542 -0.37338,-0.11057 -0.55967,-0.16693 -0.095,-0.0287 -0.19045,-0.0565 -0.28525,-0.0858 -0.27133,-0.0838 -0.54176,-0.16999 -0.81132,-0.25836 -0.17833,-0.0584 -0.35573,-0.11941 -0.53329,-0.17984 -0.0998,-0.034 -0.20016,-0.0667 -0.29972,-0.10128 -0.13057,-0.0453 -0.26011,-0.0926 -0.39018,-0.13902 -0.14026,-0.05 -0.28088,-0.0991 -0.42064,-0.15039 -0.12303,-0.0451 -0.24532,-0.0924 -0.36793,-0.13848 -0.14861,-0.0558 -0.29694,-0.11073 -0.44495,-0.16796 -0.16232,-0.0628 -0.32366,-0.12782 -0.48519,-0.19224 -0.10213,-0.0407 -0.20471,-0.0801 -0.30649,-0.12142 -0.21471,-0.0873 -0.42842,-0.17698 -0.6418,-0.26718 -0.0569,-0.0241 -0.11428,-0.0471 -0.17103,-0.0713 -0.25781,-0.11009 -0.51424,-0.22259 -0.77002,-0.33695 -0.26228,-0.11729 -0.52384,-0.23693 -0.78393,-0.35861 -0.22098,-0.1034 -0.44056,-0.20918 -0.6599,-0.31576 -0.0407,-0.0198 -0.0818,-0.0385 -0.12247,-0.0584 -0.1301,-0.0637 -0.25906,-0.12957 -0.3886,-0.19431 -0.12935,-0.0647 -0.25934,-0.12854 -0.38809,-0.19431 -0.10157,-0.0519 -0.20219,-0.10557 -0.30334,-0.15812 -0.1519,-0.0789 -0.30422,-0.15726 -0.45527,-0.23772 -0.1841,-0.0981 -0.367,-0.19836 -0.54986,-0.29869 -0.0672,-0.0369 -0.13496,-0.0729 -0.20203,-0.11007 -0.12446,-0.069 -0.24771,-0.1397 -0.37156,-0.20979 -0.12472,-0.0706 -0.25003,-0.13972 -0.37412,-0.21137 -0.022,-0.0127 -0.0432,-0.0265 -0.0651,-0.0393 -0.23098,-0.13385 -0.46159,-0.26918 -0.69041,-0.40669 -0.24558,-0.14761 -0.48971,-0.29731 -0.73276,-0.44908 -0.23847,-0.14896 -0.47564,-0.29921 -0.71157,-0.45217 -0.003,-0.003 -0.007,-0.004 -0.0103,-0.007 -0.0613,-0.0397 -0.12192,-0.0804 -0.18296,-0.12042 -0.17894,-0.11716 -0.35793,-0.23402 -0.53536,-0.35346 -0.0473,-0.0319 -0.0939,-0.065 -0.14105,-0.0972 -0.19034,-0.12909 -0.38044,-0.25843 -0.56896,-0.39014 -0.0227,-0.0159 -0.045,-0.0322 -0.0677,-0.0481 -0.21257,-0.14901 -0.42379,-0.2993 -0.63408,-0.45164 -0.22839,-0.16542 -0.45553,-0.33292 -0.68111,-0.50228 -0.004,-0.003 -0.008,-0.006 -0.0114,-0.008 -0.10388,-0.078 -0.20624,-0.15836 -0.30954,-0.23719 -0.12469,-0.0952 -0.25027,-0.18939 -0.37414,-0.28579 -0.22292,-0.17345 -0.44405,-0.34874 -0.66406,-0.52604 l -0.003,-0.003 c -0.10816,-0.0872 -0.21508,-0.17598 -0.3225,-0.26406 -0.11612,-0.0952 -0.23301,-0.18952 -0.34827,-0.28577 -0.0384,-0.032 -0.0759,-0.065 -0.11419,-0.0972 -0.18246,-0.1533 -0.36433,-0.30707 -0.54467,-0.46302 -0.21434,-0.18534 -0.42746,-0.37264 -0.63873,-0.56173 -0.21413,-0.19164 -0.42627,-0.38542 -0.63717,-0.58084 -0.0807,-0.0748 -0.1601,-0.15103 -0.24032,-0.22633 -0.33954,-0.3188 -0.67628,-0.6414 -1.00714,-0.96999 l -0.005,-0.005 c -0.20285,-0.20151 -0.40402,-0.40465 -0.60357,-0.60978 l -0.007,-0.007 c -0.11645,-0.11978 -0.23093,-0.24178 -0.34624,-0.36277 -0.0838,-0.0879 -0.16846,-0.175 -0.25164,-0.26355 -0.19767,-0.21042 -0.39344,-0.42254 -0.58759,-0.63664 -0.1924,-0.21204 -0.38317,-0.42572 -0.57206,-0.6413 -0.003,-0.003 -0.003,-0.004 -0.005,-0.006 -0.18892,-0.21577 -0.37624,-0.43347 -0.56171,-0.65267 -0.003,-0.003 -0.003,-0.003 -0.005,-0.006 -0.16087,-0.19034 -0.31975,-0.38275 -0.47797,-0.57568 -0.0249,-0.0303 -0.0503,-0.0601 -0.0749,-0.0904 -0.16883,-0.20678 -0.33509,-0.41551 -0.50075,-0.62529 -0.014,-0.0177 -0.0284,-0.0351 -0.0424,-0.0527 -0.0471,-0.0597 -0.0927,-0.12038 -0.13954,-0.18037 -0.1333,-0.17084 -0.2667,-0.34141 -0.39791,-0.51416 -0.17481,-0.23013 -0.34777,-0.46204 -0.51882,-0.69556 0,-0.003 -0.003,-0.003 -0.004,-0.005 -0.17116,-0.23374 -0.34012,-0.46935 -0.50747,-0.70642 0,-0.003 -0.003,-0.003 -0.003,-0.004 -0.16746,-0.2373 -0.33303,-0.47612 -0.49663,-0.71673 0,0 -0.004,-0.003 -0.004,-0.004 -0.16301,-0.23982 -0.32356,-0.48141 -0.48266,-0.72449 l -0.003,-0.003 c -0.0243,-0.0373 -0.0485,-0.0752 -0.0729,-0.11263 -0.13616,-0.20932 -0.27083,-0.41929 -0.4041,-0.63098 -0.31234,-0.49625 -0.61666,-0.99878 -0.9126,-1.50792 v -0.003 c -0.1479,-0.25442 -0.29398,-0.5103 -0.4377,-0.7679 v -0.003 c -0.14375,-0.25775 -0.28578,-0.51734 -0.42532,-0.77824 -0.13962,-0.26109 -0.27702,-0.52332 -0.41238,-0.78753 -0.13533,-0.26432 -0.26895,-0.53049 -0.39997,-0.79791 a 27.857,5.0000001 0 0 1 -27.85668,4.9997 27.857,5.0000001 0 0 1 -27.85515,-4.98935 c -3.43474,24.25229 -23.90955,42.38577 -48.28286,42.9736 0,2e-5 -0.003,-3e-5 -0.004,0 -0.0631,0.003 -0.12655,0.003 -0.18965,0.003 -0.31848,0.006 -0.63675,0.0114 -0.95652,0.0119 -0.31996,0 -0.63895,-0.005 -0.95758,-0.0119 -0.0631,0 -0.12663,-3e-5 -0.18966,-0.003 0,-3e-5 -0.003,2e-5 -0.004,0 -24.37347,-0.58783 -44.84851,-18.72152 -48.28233,-42.97411 a 27.857,5.0000001 0 0 1 -27.85526,4.98975 27.857,5.0000001 0 0 1 -27.85722,-4.9997 c -0.13101,0.26742 -0.26355,0.53359 -0.39894,0.79791 -0.12323,0.24061 -0.24889,0.47924 -0.37568,0.71726 -0.15185,0.285 -0.30561,0.56882 -0.46251,0.85007 -0.20077,0.36 -0.40759,0.71539 -0.6165,1.06919 -0.24046,0.40714 -0.48483,0.81139 -0.73587,1.21025 -0.13324,0.2117 -0.26846,0.42114 -0.40463,0.63045 -0.0237,0.0364 -0.0465,0.0733 -0.0703,0.10957 -8e-4,0 -0.001,0.003 -0.002,0.003 -0.15975,0.24413 -0.32154,0.48678 -0.48525,0.72761 -0.39263,0.57766 -0.79808,1.14482 -1.21284,1.70325 -0.10613,0.1429 -0.2118,0.28628 -0.31936,0.42788 -0.001,0.003 -0.002,0.003 -0.004,0.005 -0.17474,0.23003 -0.35177,0.45815 -0.5302,0.68471 -0.001,0.003 -0.003,0.003 -0.004,0.005 -0.17848,0.22659 -0.35842,0.45175 -0.54053,0.6749 -7.9e-4,0 -0.002,0.003 -0.003,0.003 -0.0248,0.0303 -0.0501,0.0601 -0.0749,0.0904 -0.2728,0.33261 -0.55019,0.66064 -0.83096,0.98547 -0.26076,0.3017 -0.52368,0.60119 -0.79116,0.89606 -0.0989,0.10909 -0.19937,0.21641 -0.29921,0.32454 -0.0982,0.10636 -0.19596,0.21339 -0.29507,0.31885 -0.19553,0.2081 -0.39232,0.41508 -0.59118,0.6196 -0.2017,0.20741 -0.40522,0.41283 -0.6103,0.61651 -0.002,0.003 -0.003,0.003 -0.005,0.005 -0.33093,0.32861 -0.66762,0.65119 -1.00717,0.96996 -0.0802,0.0753 -0.15961,0.15158 -0.2403,0.22635 -0.21088,0.19537 -0.4231,0.38925 -0.63717,0.58084 -0.21158,0.18936 -0.42511,0.37663 -0.63975,0.56224 -0.003,0.003 -0.006,0.006 -0.009,0.008 -0.2142,0.18516 -0.42979,0.36846 -0.64699,0.54983 -0.003,0.003 -0.007,0.006 -0.01,0.008 -0.21715,0.18123 -0.4362,0.36049 -0.65629,0.53795 -0.002,0.003 -0.005,0.004 -0.007,0.006 -0.22105,0.17817 -0.44318,0.35383 -0.66714,0.52814 -0.12381,0.0964 -0.24944,0.1906 -0.37414,0.28577 -0.29895,0.22821 -0.59992,0.45416 -0.90382,0.6754 -0.0328,0.0241 -0.0653,0.049 -0.0982,0.0729 -0.004,0.003 -0.008,0.005 -0.0119,0.008 -0.2282,0.16521 -0.45793,0.32856 -0.68884,0.48991 -0.004,0.003 -0.008,0.006 -0.0124,0.009 -0.23084,0.16115 -0.46259,0.32027 -0.69608,0.47749 -0.004,0.003 -0.009,0.006 -0.0129,0.009 -0.23343,0.15708 -0.46833,0.31197 -0.70435,0.46508 -0.001,0 -0.002,3e-5 -0.004,0.003 -0.23925,0.15518 -0.47956,0.30837 -0.7214,0.45942 -0.24303,0.15177 -0.48717,0.30144 -0.73277,0.44905 -0.22879,0.13751 -0.4594,0.27287 -0.6904,0.40669 -0.0169,0.0101 -0.0337,0.0201 -0.0506,0.03 h -0.002 c -0.12861,0.0743 -0.2583,0.14647 -0.38757,0.21963 -0.12377,0.0701 -0.24719,0.14079 -0.37156,0.20982 -0.067,0.0372 -0.1343,0.0732 -0.20153,0.11006 -0.18284,0.10036 -0.36573,0.20064 -0.54984,0.29869 -0.15105,0.0805 -0.30337,0.15878 -0.45527,0.2377 -0.10118,0.0525 -0.20179,0.10626 -0.30334,0.15814 -0.12881,0.0658 -0.25869,0.12962 -0.38809,0.19431 -0.12948,0.0648 -0.25855,0.13066 -0.38861,0.19429 -0.0406,0.0198 -0.0818,0.0386 -0.12247,0.0584 -0.21937,0.10658 -0.43892,0.21236 -0.65991,0.31576 -0.2538,0.11877 -0.50892,0.23582 -0.76481,0.35036 -0.004,0.003 -0.008,0.003 -0.0124,0.005 -0.0774,0.0346 -0.15541,0.068 -0.23306,0.10234 -0.18606,0.0821 -0.37202,0.1646 -0.55914,0.24443 -0.25906,0.11054 -0.51925,0.21886 -0.7803,0.32504 -0.007,0.003 -0.0138,0.006 -0.0207,0.008 -0.10056,0.0408 -0.20198,0.0797 -0.30282,0.11988 -0.1616,0.0644 -0.3229,0.12946 -0.48524,0.19225 -0.26607,0.10287 -0.53349,0.20391 -0.8015,0.30231 -0.007,0.003 -0.0141,0.005 -0.0212,0.008 -0.13669,0.0501 -0.27416,0.0978 -0.41134,0.14673 -0.13003,0.0464 -0.25971,0.0937 -0.39016,0.13902 -0.0995,0.0346 -0.19993,0.0673 -0.29972,0.1013 -0.17755,0.0604 -0.35445,0.12137 -0.53278,0.17981 -0.26652,0.0874 -0.5338,0.17291 -0.80202,0.2558 -0.008,0.003 -0.0155,0.005 -0.0233,0.007 -0.0902,0.0278 -0.18096,0.0538 -0.27131,0.0811 -0.18628,0.0564 -0.37259,0.11271 -0.55966,0.16692 -0.27142,0.0786 -0.54344,0.15534 -0.81648,0.22945 -0.27751,0.0753 -0.55597,0.14798 -0.83508,0.21857 -0.15357,0.0388 -0.30796,0.0753 -0.462,0.11266 -0.1362,0.0331 -0.27219,0.0673 -0.40876,0.0992 -0.27391,0.0641 -0.54841,0.12602 -0.82373,0.18553 -0.004,0 -0.009,0.003 -0.0134,0.003 -0.2795,0.0603 -0.55984,0.11854 -0.84076,0.17415 -0.16154,0.032 -0.32379,0.0616 -0.48577,0.092 -0.13335,0.0251 -0.2663,0.051 -0.39997,0.0749 -0.27774,0.0498 -0.55608,0.0975 -0.8351,0.14261 -0.004,0 -0.007,-6e-5 -0.0108,0.003 -0.1569,0.0254 -0.31451,0.0485 -0.47181,0.0723 -0.13313,0.0201 -0.26552,0.0418 -0.39894,0.061 -0.11964,0.0172 -0.23982,0.0323 -0.35966,0.0486 -0.17134,0.0233 -0.34244,0.0472 -0.51419,0.0687 -0.28436,0.0357 -0.56924,0.0684 -0.85473,0.0992 -0.18066,0.0196 -0.36202,0.0372 -0.54311,0.0548 -0.11941,0.0116 -0.23854,0.0238 -0.35813,0.0346 -0.0624,0.006 -0.12511,0.0103 -0.18757,0.0156 -0.2313,0.0198 -0.46259,0.0392 -0.69454,0.0558 -0.0476,0.003 -0.0955,0.006 -0.14315,0.009 -0.24693,0.0169 -0.4944,0.0331 -0.74207,0.0465 -0.0531,0.003 -0.10651,0.005 -0.15968,0.007 -0.24157,0.0122 -0.48332,0.0238 -0.72553,0.0326 -0.0724,0.003 -0.14508,0.004 -0.21756,0.006 -0.22293,0.007 -0.44578,0.0138 -0.66921,0.0177 -0.10128,0.003 -0.20299,0.004 -0.30438,0.005 -0.19379,0.003 -0.38773,0.006 -0.58187,0.006 -0.19444,-2.2e-4 -0.3878,-0.003 -0.58188,-0.006 -0.10127,0 -0.2027,-0.004 -0.30385,-0.005 -0.21746,-0.004 -0.43469,-0.0103 -0.65165,-0.0169 -0.0788,-0.003 -0.15793,-0.004 -0.23667,-0.007 -0.2291,-0.008 -0.45774,-0.019 -0.68626,-0.0305 -0.0664,-0.003 -0.13309,-0.006 -0.19947,-0.009 -0.25936,-0.014 -0.51812,-0.0311 -0.7767,-0.0491 -0.0348,-0.003 -0.0696,-0.004 -0.10439,-0.007 -0.25472,-0.0182 -0.50883,-0.0388 -0.76275,-0.061 -0.0396,-0.003 -0.0793,-0.006 -0.11884,-0.0103 -0.2578,-0.023 -0.51512,-0.0489 -0.77206,-0.076 -0.0353,-0.004 -0.0707,-0.007 -0.10594,-0.0109 -0.22715,-0.0243 -0.45362,-0.051 -0.68006,-0.0785 -0.0658,-0.008 -0.13171,-0.0151 -0.19739,-0.0233 -0.18513,-0.0233 -0.36987,-0.0492 -0.55449,-0.0744 -0.11272,-0.0153 -0.22596,-0.0293 -0.33849,-0.0455 -0.27998,-0.0403 -0.55943,-0.0832 -0.83819,-0.12814 -0.28836,-0.0465 -0.57546,-0.0953 -0.86248,-0.14676 -0.28701,-0.0514 -0.57326,-0.10541 -0.85887,-0.16177 -0.22846,-0.0451 -0.45613,-0.0929 -0.68367,-0.14107 -0.0592,-0.0124 -0.11867,-0.0241 -0.17777,-0.0367 -0.28189,-0.0608 -0.56296,-0.12407 -0.84336,-0.18966 -0.2747,-0.0642 -0.54895,-0.1312 -0.82216,-0.19999 -0.008,-0.003 -0.0165,-0.004 -0.0248,-0.006 -0.18621,-0.047 -0.37159,-0.0961 -0.55708,-0.1452 -0.0981,-0.0259 -0.19665,-0.0505 -0.29455,-0.077 -0.27546,-0.0747 -0.5499,-0.15221 -0.82372,-0.23151 -0.55552,-0.16097 -1.10726,-0.33131 -1.65572,-0.51109 -0.19925,-0.0653 -0.39756,-0.13327 -0.59583,-0.20101 -0.082,-0.028 -0.16462,-0.0547 -0.24649,-0.0832 -0.47735,-0.16592 -0.95124,-0.34031 -1.42266,-0.52038 -0.0662,-0.0254 -0.13286,-0.0494 -0.19895,-0.0749 -0.50669,-0.19601 -1.01006,-0.40074 -1.50947,-0.61288 -0.0242,-0.0103 -0.0487,-0.0196 -0.0729,-0.03 -0.26304,-0.11221 -0.52507,-0.22699 -0.786,-0.34364 -0.26228,-0.11726 -0.52332,-0.23694 -0.78341,-0.35864 -0.22099,-0.1034 -0.44053,-0.20916 -0.65991,-0.31573 -0.0407,-0.0198 -0.0818,-0.0385 -0.12248,-0.0584 -0.25595,-0.12523 -0.51112,-0.25289 -0.76481,-0.38241 -0.006,-0.003 -0.0118,-0.006 -0.0176,-0.009 -0.17765,-0.0908 -0.35369,-0.18412 -0.5302,-0.27699 -0.074,-0.039 -0.14889,-0.0764 -0.22272,-0.11576 -0.18417,-0.0981 -0.36694,-0.19883 -0.54984,-0.29921 -0.0715,-0.0392 -0.14317,-0.0772 -0.21446,-0.11679 -0.24527,-0.13615 -0.48935,-0.27472 -0.73225,-0.41495 -0.24831,-0.14337 -0.49577,-0.28908 -0.74156,-0.43666 l -0.015,-0.009 c -0.24063,-0.14462 -0.48015,-0.29167 -0.71831,-0.44029 -0.24321,-0.15179 -0.48548,-0.30551 -0.72605,-0.46146 -0.96231,-0.62383 -1.90363,-1.2809 -2.82153,-1.9699 -0.004,-0.003 -0.008,-0.006 -0.0114,-0.008 -0.22555,-0.16939 -0.44957,-0.34147 -0.67231,-0.51472 -0.22656,-0.17624 -0.45182,-0.35415 -0.67541,-0.53433 -0.66612,-0.53684 -1.31875,-1.09122 -1.95751,-1.66243 -0.007,-0.007 -0.0149,-0.013 -0.0222,-0.0196 -0.21144,-0.18931 -0.42108,-0.38059 -0.62942,-0.57362 -0.38685,-0.35845 -0.76773,-0.72391 -1.1436,-1.095 -0.0368,-0.0364 -0.0744,-0.072 -0.1111,-0.10852 -0.40668,-0.40398 -0.80666,-0.81551 -1.19993,-1.23406 -0.1978,-0.21052 -0.39374,-0.42301 -0.58808,-0.63717 -0.38865,-0.42833 -0.77074,-0.8637 -1.14515,-1.30638 -0.002,-0.003 -0.004,-0.004 -0.005,-0.006 -0.18541,-0.21928 -0.36903,-0.44079 -0.55087,-0.66352 -0.55069,-0.67461 -1.08508,-1.36493 -1.60197,-2.07065 -0.001,-0.003 -0.002,-0.003 -0.004,-0.005 -0.17116,-0.23373 -0.34011,-0.46934 -0.50747,-0.70641 -0.001,-0.003 -0.002,-0.003 -0.003,-0.004 -0.84105,-1.19184 -1.63311,-2.4252 -2.3735,-3.69901 -5.3e-4,0 -10e-4,-0.003 -0.002,-0.003 -0.59215,-1.01888 -1.15057,-2.0638 -1.67431,-3.13261 z"
       id="rect4765-5-5"
       inkscape:connector-curvature="0" />
    <circle
       style="fill:#000000;fill-opacity:1;stroke:#000000;stroke-width:0.11635642;stroke-miterlimit:4;stroke-dasharray:none;stroke-opacity:1"
       id="path4803-4-6"
       cx="201.87376"
       cy="-132.94571"
       r="2.5" />
    <circle
       style="fill:#000000;fill-opacity:1;stroke:#000000;stroke-width:0.11635642;stroke-miterlimit:4;stroke-dasharray:none;stroke-opacity:1"
       id="path4803-2-52-2"
       cx="105.87376"
       cy="-132.94571"
       r="2.5" />
    <circle
       style="fill:#000000;fill-opacity:1;stroke:#000000;stroke-width:0.11635642;stroke-miterlimit:4;stroke-dasharray:none;stroke-opacity:1"
       id="path4803-7-47-9"
       cx="351.87378"
       cy="-117.94569"
       r="2.5" />
    <circle
       style="fill:#000000;fill-opacity:1;stroke:#000000;stroke-width:0.11635642;stroke-miterlimit:4;stroke-dasharray:none;stroke-opacity:1"
       id="path4803-2-5-4-1"
       cx="255.87378"
       cy="-117.94569"
       r="2.5" />
    <circle
       style="fill:#000000;fill-opacity:1;stroke:#000000;stroke-width:0.11635642;stroke-miterlimit:4;stroke-dasharray:none;stroke-opacity:1"
       id="path4803-7-4-3-2"
       cx="501.87378"
       cy="-132.94571"
       r="2.5" />
    <circle
       style="fill:#000000;fill-opacity:1;stroke:#000000;stroke-width:0.11635642;stroke-miterlimit:4;stroke-dasharray:none;stroke-opacity:1"
       id="path4803-2-5-7-0-7"
       cx="405.87378"
       cy="-132.94571"
       r="2.5" />
    <path
       style="display:inline;fill:none;fill-opacity:1;stroke:#000000;stroke-width:0.1420504;stroke-miterlimit:4;stroke-dasharray:none;stroke-opacity:1"
       d="m 115.15381,-282.29226 0.003,0.003 h 5.3e-4 c -2.3e-4,0 -2.5e-4,5e-5 -5.3e-4,-0.003 h -5.3e-4 z m 0.003,0.003 c -3.28683,-0.003 -6.69802,-9e-5 -10.08103,0.12814 -0.0646,0.003 -0.12918,0.004 -0.19379,0.007 -0.25276,0.0101 -0.5042,0.0228 -0.75654,0.0341 -14.76825,0.65312 -29.18125,3.87765 -29.13208,19.83031 0,0.30115 0.0159,0.60893 0.0445,0.92138 -0.005,0.22585 -0.0109,0.45088 -0.0109,0.68162 0.004,5.42163 6.26601,13.73828 16.31787,21.95679 16.25095,13.65663 44.66135,18.21675 68.30694,21.439 49.67683,6.76961 100.18869,-5.00001 150.32469,-5.0002 50.14718,-2.1e-4 100.67037,11.7715 150.35825,5.0002 23.64557,-3.22233 52.056,-7.78237 68.30698,-21.439 10.05183,-8.21851 16.31405,-16.53516 16.31786,-21.95679 0,-0.23074 -0.006,-0.45577 -0.0109,-0.68162 0.0285,-0.31245 0.0444,-0.62023 0.0444,-0.92138 0.0492,-15.95266 -14.3633,-19.17719 -29.13155,-19.83031 -0.25233,-0.0114 -0.50427,-0.0241 -0.75705,-0.0341 -0.0646,-0.003 -0.12917,-0.004 -0.19378,-0.007 -3.38323,-0.12824 -6.79453,-0.12957 -10.08152,-0.12814 h -0.003 c -0.13095,0.26742 -0.26358,0.53358 -0.39894,0.79788 -0.40606,0.79271 -0.83161,1.57185 -1.2759,2.3363 0,0 -3e-5,0.003 -0.003,0.003 -0.59227,1.01896 -1.2177,2.01234 -1.87481,2.97913 -0.32983,0.48525 -0.66792,0.9639 -1.01339,1.43558 -0.51686,0.70572 -1.05074,1.39607 -1.60147,2.07068 -0.18348,0.22487 -0.36882,0.44786 -0.55602,0.66921 -0.37438,0.44265 -0.75644,0.87804 -1.14511,1.30638 -0.19437,0.21415 -0.39032,0.42611 -0.58812,0.63664 -0.39328,0.41857 -0.79327,0.83005 -1.19991,1.23404 l -0.003,0.003 c -0.0361,0.0358 -0.0729,0.0707 -0.10904,0.10647 -0.57822,0.57083 -1.16848,1.12778 -1.77249,1.66862 -0.003,0.003 -0.006,0.005 -0.008,0.007 -0.005,0.004 -0.009,0.008 -0.014,0.0124 -0.42437,0.37949 -0.85482,0.75133 -1.29138,1.11569 -0.22053,0.18412 -0.44302,0.36655 -0.66662,0.54674 -0.2236,0.18018 -0.44887,0.35808 -0.6754,0.53435 -0.22656,0.17621 -0.45421,0.3502 -0.68371,0.52244 -0.91789,0.68901 -1.8587,1.34607 -2.82102,1.96991 -0.24055,0.15594 -0.48283,0.30967 -0.72601,0.46146 -0.48641,0.30361 -0.97777,0.59899 -1.47434,0.88574 -0.005,0.003 -0.0106,0.006 -0.0151,0.008 -0.24247,0.13992 -0.48633,0.27758 -0.73123,0.41342 -0.067,0.0372 -0.13478,0.0732 -0.20209,0.11006 -0.18288,0.10039 -0.3656,0.20111 -0.54978,0.29922 -0.0739,0.0394 -0.14864,0.0768 -0.22272,0.11576 -0.1764,0.0928 -0.35261,0.18624 -0.5302,0.27699 l -0.0169,0.009 c -0.25371,0.1295 -0.50832,0.25717 -0.76428,0.3824 -0.0406,0.0198 -0.0818,0.0386 -0.12248,0.0584 -0.21936,0.10658 -0.43897,0.21234 -0.65992,0.31577 -0.26011,0.12168 -0.52112,0.24135 -0.78343,0.3586 -0.26093,0.11666 -0.52295,0.23146 -0.786,0.34367 -0.0309,0.0132 -0.0621,0.0257 -0.093,0.0387 -0.23508,0.0997 -0.47075,0.19787 -0.70744,0.29405 -0.2617,0.10634 -0.52499,0.21071 -0.78857,0.31263 -0.0638,0.0246 -0.12827,0.0479 -0.19222,0.0723 -0.4714,0.18009 -0.9453,0.35447 -1.42266,0.5204 -0.003,0 -0.007,0.003 -0.0101,0.003 -0.0787,0.0273 -0.15787,0.0532 -0.23669,0.0801 -0.19825,0.0678 -0.39659,0.13573 -0.59584,0.20104 -0.54772,0.17954 -1.09879,0.34975 -1.65362,0.51054 -0.0386,0.0111 -0.0776,0.0214 -0.11623,0.0326 -0.24009,0.0689 -0.48067,0.13719 -0.72197,0.20257 -0.0939,0.0254 -0.18852,0.049 -0.28266,0.0739 -0.1855,0.0491 -0.37092,0.0982 -0.55708,0.1452 -0.01,0.003 -0.019,0.005 -0.0284,0.007 -0.27162,0.0684 -0.5439,0.13457 -0.817,0.19844 -0.28041,0.0656 -0.56148,0.12887 -0.84336,0.18964 -0.0591,0.0127 -0.11862,0.0241 -0.17778,0.0367 -0.22749,0.0482 -0.45519,0.096 -0.68368,0.14109 -0.28559,0.0563 -0.57182,0.11029 -0.85884,0.16174 -0.28702,0.0514 -0.57467,0.1003 -0.86302,0.14675 -0.28403,0.0458 -0.56893,0.0893 -0.8542,0.13023 -0.10729,0.0153 -0.215,0.0287 -0.32245,0.0434 -0.1846,0.0251 -0.36939,0.0512 -0.55449,0.0744 -0.0657,0.008 -0.13165,0.0153 -0.1974,0.0233 -0.22643,0.0275 -0.45294,0.0546 -0.68009,0.0791 -0.003,1.3e-4 -0.003,0 -0.004,0 -0.0339,0.004 -0.0684,0.007 -0.10231,0.01 -0.25691,0.027 -0.5138,0.0534 -0.77153,0.0765 -0.0396,0.003 -0.0793,0.006 -0.11887,0.01 -0.25395,0.0222 -0.508,0.0427 -0.76277,0.061 -0.0347,0.003 -0.0696,0.004 -0.10438,0.007 -0.25858,0.018 -0.51734,0.035 -0.77671,0.0491 -0.0664,0.004 -0.13303,0.006 -0.19947,0.009 -0.22852,0.0114 -0.45717,0.0222 -0.68622,0.0305 -0.0788,0.003 -0.15788,0.003 -0.2367,0.006 -0.21696,0.007 -0.43418,0.0135 -0.65164,0.0175 -0.10118,0.003 -0.20257,0.003 -0.30388,0.004 -0.19407,0.003 -0.38795,0.007 -0.58237,0.007 -0.19418,-2.1e-4 -0.38806,-0.003 -0.5819,-0.007 -0.0979,0 -0.19621,0 -0.29403,-0.003 -0.003,-8e-5 -0.007,0 -0.0103,0 -0.22344,-0.004 -0.44627,-0.0108 -0.66918,-0.018 -0.0725,-0.003 -0.14513,-0.003 -0.21757,-0.006 -0.24222,-0.009 -0.48345,-0.0204 -0.72504,-0.0325 -0.0532,-0.003 -0.10649,-0.004 -0.15965,-0.007 -0.24767,-0.0135 -0.49511,-0.0295 -0.74207,-0.0465 -0.0476,-0.003 -0.0955,-0.006 -0.14314,-0.009 -0.23194,-0.0167 -0.46324,-0.0359 -0.69453,-0.0558 -0.0625,-0.005 -0.12518,-0.009 -0.18759,-0.0151 -0.11957,-0.0106 -0.23874,-0.0235 -0.35812,-0.0351 -0.18108,-0.0175 -0.36248,-0.0348 -0.54311,-0.0543 -0.28202,-0.0304 -0.56348,-0.063 -0.84439,-0.0982 -0.003,0 -0.007,0 -0.0103,-0.003 -0.17174,-0.0217 -0.34282,-0.0454 -0.51416,-0.0687 -0.11988,-0.0164 -0.24003,-0.0314 -0.35968,-0.0486 -0.13343,-0.019 -0.26633,-0.0403 -0.39946,-0.0605 -0.15727,-0.0238 -0.31489,-0.0469 -0.47181,-0.0723 -0.28263,-0.0456 -0.56459,-0.0938 -0.84593,-0.1442 -0.13366,-0.0241 -0.26659,-0.0499 -0.39999,-0.0749 -0.16195,-0.0304 -0.32375,-0.0599 -0.48522,-0.092 -0.27662,-0.0547 -0.55272,-0.11173 -0.82786,-0.17105 -0.004,0 -0.009,-0.003 -0.013,-0.003 -0.27977,-0.0604 -0.55883,-0.123 -0.83714,-0.18812 -0.13661,-0.0319 -0.27255,-0.0661 -0.40878,-0.0992 -0.15402,-0.0374 -0.3084,-0.0738 -0.46199,-0.11264 -0.27914,-0.0706 -0.55756,-0.1433 -0.83508,-0.2186 -0.27287,-0.0741 -0.54523,-0.15086 -0.81648,-0.22944 -0.18711,-0.0542 -0.37341,-0.11057 -0.55967,-0.16693 -0.095,-0.0287 -0.19045,-0.0565 -0.28525,-0.0858 -0.27133,-0.0838 -0.54176,-0.16999 -0.81132,-0.25836 -0.17833,-0.0584 -0.35573,-0.11941 -0.53329,-0.17984 -0.0998,-0.034 -0.20019,-0.0667 -0.29972,-0.10128 -0.13057,-0.0453 -0.26011,-0.0926 -0.39018,-0.13901 -0.14026,-0.05 -0.28088,-0.0991 -0.42064,-0.15039 -0.12303,-0.0451 -0.24532,-0.0924 -0.36793,-0.13849 -0.14861,-0.0558 -0.29694,-0.11072 -0.44495,-0.16795 -0.16232,-0.0628 -0.32366,-0.12782 -0.48522,-0.19225 -0.1021,-0.0407 -0.20468,-0.0801 -0.30646,-0.12142 -0.21471,-0.0873 -0.42842,-0.17698 -0.6418,-0.26717 -0.0569,-0.0241 -0.11428,-0.0471 -0.17106,-0.0713 -0.25781,-0.11009 -0.51421,-0.22259 -0.76999,-0.33694 -0.26228,-0.11729 -0.52384,-0.23694 -0.78393,-0.35862 -0.22098,-0.1034 -0.44056,-0.20918 -0.6599,-0.31575 -0.0407,-0.0198 -0.0818,-0.0385 -0.12247,-0.0584 -0.13013,-0.0637 -0.25906,-0.12956 -0.3886,-0.19431 -0.12935,-0.0647 -0.25934,-0.12853 -0.38809,-0.19431 -0.10157,-0.0519 -0.20219,-0.10557 -0.30334,-0.15811 -0.1519,-0.0789 -0.30422,-0.15727 -0.45527,-0.23773 -0.1841,-0.0981 -0.367,-0.19836 -0.54986,-0.29869 -0.0672,-0.0369 -0.13496,-0.0729 -0.20203,-0.11007 -0.12446,-0.069 -0.24771,-0.1397 -0.37156,-0.20978 -0.12472,-0.0706 -0.25006,-0.13973 -0.37415,-0.21138 -0.022,-0.0127 -0.0432,-0.0265 -0.0651,-0.0393 -0.23098,-0.13386 -0.46159,-0.26919 -0.69038,-0.4067 -0.24561,-0.14761 -0.48974,-0.29731 -0.73276,-0.44907 -0.23847,-0.14896 -0.47564,-0.29922 -0.71157,-0.45218 -0.003,-0.003 -0.007,-0.004 -0.0103,-0.007 -0.0613,-0.0397 -0.12189,-0.0804 -0.18293,-0.12041 -0.17894,-0.11716 -0.35793,-0.23402 -0.53536,-0.35346 -0.0473,-0.0319 -0.0939,-0.065 -0.14108,-0.0971 -0.19034,-0.12909 -0.38041,-0.25845 -0.56896,-0.39016 -0.0228,-0.0159 -0.045,-0.0322 -0.0677,-0.0481 -0.21256,-0.14902 -0.42378,-0.2993 -0.63407,-0.45165 -0.22839,-0.16541 -0.45553,-0.33292 -0.68112,-0.50228 -0.004,-0.003 -0.008,-0.006 -0.0114,-0.008 -0.10391,-0.078 -0.20627,-0.15836 -0.30954,-0.2372 -0.12472,-0.0952 -0.2503,-0.18939 -0.37417,-0.28578 -0.22292,-0.17346 -0.44405,-0.34875 -0.66406,-0.52604 l -0.003,-0.003 c -0.10816,-0.0872 -0.21508,-0.17597 -0.3225,-0.26405 -0.11612,-0.0952 -0.23301,-0.18952 -0.34827,-0.28578 -0.0384,-0.032 -0.0759,-0.065 -0.11419,-0.0971 -0.18246,-0.1533 -0.36433,-0.30708 -0.54467,-0.46303 -0.21434,-0.18534 -0.42746,-0.37263 -0.63873,-0.56173 -0.21413,-0.19164 -0.42627,-0.38542 -0.63717,-0.58084 -0.0807,-0.0748 -0.1601,-0.15103 -0.24032,-0.22633 -0.33954,-0.31879 -0.67628,-0.6414 -1.00714,-0.96999 l -0.005,-0.005 c -0.20285,-0.2015 -0.40402,-0.40465 -0.60357,-0.60978 l -0.007,-0.007 c -0.11645,-0.11977 -0.23093,-0.24177 -0.34624,-0.36277 -0.0838,-0.0879 -0.16846,-0.17499 -0.25164,-0.26355 -0.19767,-0.21042 -0.39344,-0.42254 -0.58759,-0.63664 -0.1924,-0.21204 -0.38317,-0.42571 -0.57206,-0.6413 -0.003,-0.003 -0.003,-0.004 -0.005,-0.006 -0.18892,-0.21576 -0.37627,-0.43346 -0.56171,-0.65267 -0.003,-0.003 -0.003,-0.003 -0.005,-0.006 -0.16089,-0.19035 -0.31972,-0.38274 -0.47797,-0.57568 -0.0249,-0.0303 -0.0503,-0.0601 -0.075,-0.0904 -0.16883,-0.20677 -0.33507,-0.4155 -0.50075,-0.62529 -0.014,-0.0177 -0.0284,-0.0351 -0.0424,-0.0527 -0.0471,-0.0597 -0.0927,-0.12038 -0.13954,-0.18037 -0.1333,-0.17083 -0.2667,-0.34141 -0.39791,-0.51417 -0.17481,-0.23012 -0.34777,-0.46203 -0.51882,-0.69555 0,-0.003 -0.003,-0.003 -0.004,-0.005 -0.17116,-0.23374 -0.34012,-0.46935 -0.50747,-0.70641 0,-0.003 -0.003,-0.003 -0.003,-0.004 -0.16745,-0.2373 -0.33303,-0.47612 -0.49662,-0.71673 0,0 -0.004,-0.003 -0.004,-0.004 -0.16301,-0.23982 -0.32356,-0.48141 -0.48265,-0.72448 l -0.003,-0.003 c -0.0243,-0.0373 -0.0485,-0.0752 -0.0729,-0.11263 -0.13613,-0.20931 -0.2708,-0.41929 -0.40407,-0.63098 -0.31235,-0.49625 -0.6167,-0.99877 -0.91261,-1.50791 v -0.003 c -0.14792,-0.25442 -0.29397,-0.5103 -0.4377,-0.7679 v -0.003 c -0.14374,-0.25777 -0.28577,-0.51735 -0.42531,-0.77825 -0.13962,-0.2611 -0.27702,-0.52332 -0.41238,-0.78753 -0.13536,-0.26433 -0.26895,-0.53049 -0.39997,-0.79792 a 27.857,5.0000001 0 0 1 -27.85671,4.99971 27.857,5.0000001 0 0 1 -27.85512,-4.98936 c -3.43477,24.2523 -23.90958,42.38578 -48.28289,42.97361 0,1e-5 -0.003,-3e-5 -0.004,0 -0.0631,0.003 -0.12655,0.003 -0.18965,0.003 -0.31848,0.006 -0.63675,0.0114 -0.95652,0.0119 -0.31997,0 -0.63895,-0.005 -0.95758,-0.0119 -0.0631,0 -0.12663,-3e-5 -0.18966,-0.003 0,-3e-5 -0.003,1e-5 -0.004,0 -24.37346,-0.58783 -44.84851,-18.72152 -48.28232,-42.97411 a 27.857,5.0000001 0 0 1 -27.8554,4.98983 27.857,5.0000001 0 0 1 -27.85722,-4.9997 c -0.13102,0.26742 -0.26355,0.53359 -0.39894,0.79791 -0.12323,0.24061 -0.24889,0.47924 -0.37569,0.71726 -0.15184,0.28501 -0.3056,0.56883 -0.4625,0.85008 -0.20077,0.35999 -0.40759,0.71538 -0.6165,1.06918 -0.24046,0.40714 -0.48484,0.8114 -0.73588,1.21026 -0.13323,0.21169 -0.26845,0.42113 -0.40462,0.63044 -0.0237,0.0364 -0.0465,0.0733 -0.0703,0.10957 -8e-4,0 -10e-4,0.003 -0.002,0.003 -0.15975,0.24413 -0.32154,0.48678 -0.48524,0.72761 -0.39264,0.57766 -0.79809,1.14482 -1.21285,1.70325 -0.10613,0.1429 -0.2118,0.28628 -0.31936,0.42789 -0.001,0.003 -0.002,0.003 -0.004,0.005 -0.17474,0.23003 -0.35177,0.45815 -0.5302,0.68471 -0.001,0.003 -0.003,0.003 -0.004,0.005 -0.17848,0.22659 -0.35842,0.45175 -0.54053,0.6749 -7.9e-4,0 -0.002,0.003 -0.003,0.003 -0.0248,0.0303 -0.0501,0.0601 -0.0749,0.0904 -0.2728,0.3326 -0.55019,0.66063 -0.83096,0.98546 -0.26076,0.30171 -0.52368,0.60119 -0.79116,0.89607 -0.0989,0.10908 -0.19937,0.2164 -0.29921,0.32453 -0.0982,0.10637 -0.19596,0.21339 -0.29507,0.31885 -0.19553,0.2081 -0.39232,0.41508 -0.59118,0.61961 -0.2017,0.2074 -0.40522,0.41282 -0.6103,0.6165 -0.002,0.003 -0.003,0.003 -0.005,0.005 -0.33093,0.32861 -0.66762,0.65119 -1.00717,0.96996 -0.0802,0.0753 -0.15961,0.15158 -0.2403,0.22635 -0.21088,0.19537 -0.4231,0.38926 -0.63717,0.58084 -0.21158,0.18936 -0.42512,0.37664 -0.63975,0.56224 -0.003,0.003 -0.006,0.006 -0.009,0.008 -0.21421,0.18516 -0.42979,0.36846 -0.64699,0.54983 -0.003,0.003 -0.007,0.006 -0.01,0.008 -0.21714,0.18124 -0.4362,0.36049 -0.65629,0.53795 -0.002,0.003 -0.005,0.004 -0.007,0.006 -0.22105,0.17817 -0.44318,0.35383 -0.66714,0.52814 -0.12381,0.0964 -0.24943,0.1906 -0.37413,0.28578 -0.29895,0.2282 -0.59993,0.45415 -0.90383,0.6754 -0.0328,0.0241 -0.0653,0.049 -0.0982,0.0729 -0.004,0.003 -0.008,0.005 -0.0119,0.008 -0.22821,0.1652 -0.45794,0.32855 -0.68885,0.4899 -0.004,0.003 -0.008,0.006 -0.0124,0.009 -0.23085,0.16116 -0.4626,0.32028 -0.69608,0.47749 -0.004,0.003 -0.009,0.006 -0.0129,0.009 -0.23342,0.15709 -0.46832,0.31197 -0.70435,0.46509 -10e-4,0 -0.002,2e-5 -0.004,0.003 -0.23925,0.15518 -0.47957,0.30837 -0.72141,0.45943 -0.24303,0.15176 -0.48716,0.30143 -0.73277,0.44905 -0.22878,0.1375 -0.4594,0.27286 -0.6904,0.40669 -0.0169,0.01 -0.0337,0.0201 -0.0506,0.03 h -0.002 c -0.12861,0.0743 -0.25831,0.14648 -0.38758,0.21963 -0.12376,0.0701 -0.24718,0.14079 -0.37155,0.20982 -0.067,0.0372 -0.1343,0.0732 -0.20154,0.11007 -0.18284,0.10035 -0.36572,0.20063 -0.54983,0.29868 -0.15105,0.0805 -0.30337,0.15878 -0.45527,0.23771 -0.10118,0.0525 -0.20179,0.10625 -0.30334,0.15814 -0.12881,0.0658 -0.25869,0.12962 -0.38809,0.19431 -0.12948,0.0648 -0.25855,0.13065 -0.38861,0.19428 -0.0406,0.0198 -0.0818,0.0386 -0.12247,0.0584 -0.21937,0.10658 -0.43892,0.21236 -0.65991,0.31576 -0.2538,0.11877 -0.50892,0.23582 -0.76481,0.35036 -0.004,0.003 -0.008,0.003 -0.0124,0.005 -0.0774,0.0346 -0.15541,0.068 -0.23306,0.10234 -0.18606,0.0821 -0.37202,0.16459 -0.55914,0.24442 -0.25907,0.11054 -0.51925,0.21886 -0.78032,0.32504 -0.007,0.003 -0.0138,0.006 -0.0207,0.008 -0.10056,0.0408 -0.20199,0.0797 -0.30282,0.11989 -0.16161,0.0644 -0.32291,0.12946 -0.48524,0.19224 -0.26608,0.10287 -0.53349,0.20392 -0.80151,0.30231 -0.007,0.003 -0.0141,0.005 -0.0212,0.008 -0.13669,0.0501 -0.27417,0.0978 -0.41134,0.14674 -0.13003,0.0464 -0.25971,0.0937 -0.39016,0.13901 -0.0995,0.0346 -0.19993,0.0673 -0.29972,0.10131 -0.17756,0.0604 -0.35446,0.12136 -0.53279,0.17981 -0.26652,0.0874 -0.5338,0.1729 -0.80201,0.2558 -0.008,0.003 -0.0155,0.005 -0.0233,0.007 -0.0902,0.0278 -0.18095,0.0538 -0.2713,0.0811 -0.18628,0.0564 -0.3726,0.11271 -0.55966,0.16693 -0.27142,0.0786 -0.54345,0.15533 -0.81649,0.22944 -0.27751,0.0753 -0.55597,0.14798 -0.83509,0.21858 -0.15356,0.0388 -0.30794,0.0753 -0.46199,0.11265 -0.13621,0.0331 -0.27218,0.0673 -0.40876,0.0992 -0.2739,0.0641 -0.5484,0.12602 -0.82372,0.18553 -0.004,0 -0.009,0.003 -0.0134,0.003 -0.27951,0.0603 -0.55985,0.11855 -0.84077,0.17416 -0.16154,0.032 -0.32378,0.0616 -0.48576,0.092 -0.13335,0.0251 -0.26631,0.051 -0.39998,0.0749 -0.27774,0.0498 -0.55609,0.0975 -0.8351,0.14261 -0.004,0 -0.007,-5e-5 -0.0109,0.003 -0.1569,0.0254 -0.3145,0.0484 -0.4718,0.0723 -0.13314,0.0201 -0.26553,0.0418 -0.39894,0.061 -0.11965,0.0172 -0.23983,0.0323 -0.35967,0.0486 -0.17134,0.0233 -0.34244,0.0472 -0.51419,0.0687 -0.28436,0.0357 -0.56923,0.0684 -0.85472,0.0992 -0.18066,0.0196 -0.36202,0.0372 -0.54312,0.0548 -0.1194,0.0116 -0.23853,0.0238 -0.35812,0.0346 -0.0624,0.006 -0.12511,0.0103 -0.18759,0.0156 -0.23128,0.0198 -0.46257,0.0392 -0.69453,0.0558 -0.0476,0.003 -0.0955,0.006 -0.14314,0.009 -0.24694,0.0169 -0.49441,0.0331 -0.74207,0.0465 -0.0531,0.003 -0.10652,0.005 -0.15968,0.007 -0.24158,0.0122 -0.48332,0.0238 -0.72554,0.0326 -0.0724,0.003 -0.14508,0.004 -0.21756,0.006 -0.22293,0.007 -0.44578,0.0138 -0.66921,0.0177 -0.10128,0.003 -0.20299,0.004 -0.30437,0.005 -0.19379,0.003 -0.38773,0.006 -0.58188,0.006 -0.19444,-2.2e-4 -0.3878,-0.003 -0.58188,-0.006 -0.10127,0 -0.20269,-0.004 -0.30385,-0.005 -0.21746,-0.004 -0.43468,-0.0103 -0.65164,-0.0169 -0.0788,-0.003 -0.15793,-0.004 -0.23668,-0.007 -0.2291,-0.008 -0.45774,-0.019 -0.68627,-0.0305 -0.0664,-0.003 -0.13308,-0.006 -0.19946,-0.009 -0.25937,-0.014 -0.51811,-0.0311 -0.7767,-0.0491 -0.0348,-0.003 -0.0696,-0.004 -0.10439,-0.007 -0.25472,-0.0183 -0.50882,-0.0388 -0.76274,-0.061 -0.0396,-0.003 -0.0793,-0.006 -0.11886,-0.0103 -0.25779,-0.023 -0.51511,-0.0489 -0.77204,-0.076 -0.0353,-0.004 -0.0707,-0.007 -0.10594,-0.0108 -0.22715,-0.0244 -0.45362,-0.051 -0.68006,-0.0785 -0.0658,-0.008 -0.13172,-0.0151 -0.19741,-0.0233 -0.18512,-0.0233 -0.36985,-0.0492 -0.55448,-0.0744 -0.11272,-0.0154 -0.22596,-0.0293 -0.33849,-0.0455 -0.27998,-0.0403 -0.55943,-0.0832 -0.83819,-0.12813 -0.28836,-0.0465 -0.57546,-0.0953 -0.86248,-0.14677 -0.28701,-0.0514 -0.57325,-0.10541 -0.85886,-0.16176 -0.22846,-0.0451 -0.45615,-0.0929 -0.68368,-0.14108 -0.0592,-0.0124 -0.11867,-0.0241 -0.17777,-0.0367 -0.28189,-0.0608 -0.56296,-0.12406 -0.84336,-0.18965 -0.2747,-0.0642 -0.54895,-0.13121 -0.82217,-0.2 -0.008,-0.003 -0.0165,-0.004 -0.0248,-0.006 -0.18619,-0.047 -0.37157,-0.0961 -0.55706,-0.14519 -0.0981,-0.0259 -0.19666,-0.0505 -0.29455,-0.077 -0.27547,-0.0747 -0.54991,-0.15221 -0.82373,-0.23151 -0.55551,-0.16097 -1.10726,-0.33131 -1.65571,-0.51109 -0.19925,-0.0653 -0.39756,-0.13326 -0.59583,-0.20101 -0.082,-0.028 -0.16463,-0.0547 -0.2465,-0.0832 -0.47736,-0.16591 -0.95123,-0.3403 -1.42265,-0.52038 -0.0662,-0.0254 -0.13286,-0.0494 -0.19895,-0.0749 -0.50669,-0.19601 -1.01006,-0.40075 -1.50947,-0.61289 -0.0242,-0.0103 -0.0487,-0.0196 -0.0729,-0.03 -0.26304,-0.11221 -0.52507,-0.22698 -0.786,-0.34364 -0.26228,-0.11726 -0.52332,-0.23693 -0.78341,-0.35864 -0.22099,-0.10339 -0.44053,-0.20915 -0.65991,-0.31573 -0.0407,-0.0198 -0.0818,-0.0385 -0.12248,-0.0584 -0.25595,-0.12523 -0.51113,-0.25289 -0.76481,-0.3824 -0.006,-0.003 -0.0118,-0.006 -0.0176,-0.009 -0.17765,-0.0908 -0.3537,-0.18412 -0.5302,-0.27699 -0.074,-0.039 -0.1489,-0.0764 -0.22273,-0.11575 -0.18417,-0.0981 -0.36693,-0.19884 -0.54983,-0.29922 -0.0715,-0.0392 -0.14317,-0.0772 -0.21446,-0.11679 -0.24527,-0.13615 -0.48935,-0.27471 -0.73225,-0.41494 -0.24832,-0.14338 -0.49577,-0.28909 -0.74156,-0.43667 l -0.015,-0.009 c -0.24063,-0.14462 -0.48015,-0.29168 -0.7183,-0.4403 -0.24322,-0.15179 -0.48549,-0.30551 -0.72606,-0.46146 -0.96231,-0.62383 -1.90362,-1.2809 -2.82153,-1.9699 -0.004,-0.003 -0.008,-0.006 -0.0114,-0.008 -0.22555,-0.16939 -0.44957,-0.34147 -0.67231,-0.51472 -0.22656,-0.17624 -0.45182,-0.35415 -0.67541,-0.53433 -0.66612,-0.53684 -1.31875,-1.09122 -1.95751,-1.66243 -0.007,-0.007 -0.0149,-0.013 -0.0222,-0.0196 -0.21144,-0.18931 -0.42108,-0.3806 -0.62942,-0.57361 -0.38685,-0.35846 -0.76772,-0.72393 -1.14359,-1.09501 -0.0368,-0.0364 -0.0744,-0.072 -0.11111,-0.10853 -0.40668,-0.40397 -0.80666,-0.8155 -1.19993,-1.23404 -0.1978,-0.21053 -0.39374,-0.42302 -0.58807,-0.63717 -0.38865,-0.42834 -0.77074,-0.86371 -1.14515,-1.30638 -0.002,-0.003 -0.004,-0.004 -0.005,-0.006 -0.18542,-0.21929 -0.36904,-0.4408 -0.55087,-0.66353 -0.55069,-0.6746 -1.08508,-1.36493 -1.60197,-2.07065 -0.001,-0.003 -0.002,-0.003 -0.004,-0.005 -0.17116,-0.23374 -0.34012,-0.46935 -0.50747,-0.70641 -0.001,-0.003 -0.002,-0.003 -0.003,-0.004 -0.84105,-1.19184 -1.6331,-2.42519 -2.37349,-3.699 -5.3e-4,0 -0.001,-0.003 -0.002,-0.003 -0.59216,-1.01888 -1.15057,-2.0638 -1.67432,-3.13261 z"
       id="rect4765-5-5-6"
       inkscape:connector-curvature="0" />
    <path
       style="display:inline;fill:none;fill-opacity:1;stroke:#000000;stroke-width:0.1420504;stroke-miterlimit:4;stroke-dasharray:none;stroke-opacity:1"
       d="m 113.59577,-370.52509 0.003,0.003 h 5.3e-4 c -2.3e-4,0 -2.6e-4,5e-5 -5.3e-4,-0.003 h -5.3e-4 z m 0.003,0.003 c -3.28683,-0.003 -6.69802,-8e-5 -10.08103,0.12814 -0.0646,0.003 -0.12918,0.004 -0.19379,0.007 -0.25276,0.0101 -0.5042,0.0228 -0.75654,0.0341 -14.76824,0.65312 -29.18124,3.87765 -29.13207,19.83031 0,0.30115 0.0159,0.60893 0.0445,0.92138 -0.005,0.22585 -0.0109,0.45088 -0.0109,0.68162 0.004,5.42162 6.26602,13.73827 16.31788,21.95679 16.25094,13.65663 44.66135,18.21675 68.30694,21.439 49.67683,6.76961 100.18869,-5.00002 150.32469,-5.0002 50.14717,-2.1e-4 100.67037,11.7715 150.35824,5.0002 23.64558,-3.22233 52.05601,-7.78237 68.30698,-21.439 10.05184,-8.21852 16.31405,-16.53517 16.31786,-21.95679 0,-0.23074 -0.006,-0.45577 -0.0109,-0.68162 0.0285,-0.31245 0.0444,-0.62023 0.0444,-0.92138 0.0492,-15.95266 -14.36328,-19.17719 -29.13155,-19.83031 -0.25231,-0.0114 -0.50427,-0.0241 -0.75703,-0.0341 -0.0646,-0.003 -0.12919,-0.004 -0.19378,-0.007 -3.38325,-0.12824 -6.79455,-0.12957 -10.08155,-0.12814 h -0.003 c -0.13094,0.26742 -0.26358,0.53359 -0.39894,0.79788 -0.40605,0.79272 -0.83161,1.57186 -1.2759,2.3363 0,0 -3e-5,0.003 -0.003,0.003 -0.59227,1.01896 -1.21769,2.01234 -1.87481,2.97913 -0.32983,0.48525 -0.66791,0.9639 -1.01338,1.43558 -0.51686,0.70572 -1.05074,1.39607 -1.60147,2.07068 -0.18349,0.22487 -0.36883,0.44786 -0.55602,0.66921 -0.37439,0.44265 -0.75645,0.87804 -1.14512,1.30638 -0.19436,0.21415 -0.39031,0.42611 -0.58812,0.63664 -0.39327,0.41857 -0.79327,0.83005 -1.19991,1.23404 l -0.003,0.003 c -0.0361,0.0358 -0.0729,0.0707 -0.10903,0.10647 -0.57822,0.57083 -1.16848,1.12778 -1.7725,1.66862 -0.003,0.003 -0.006,0.005 -0.008,0.007 -0.005,0.004 -0.009,0.008 -0.014,0.0124 -0.42436,0.37949 -0.85482,0.75133 -1.29138,1.11569 -0.22053,0.18412 -0.44302,0.36655 -0.66662,0.54674 -0.22359,0.18018 -0.44883,0.35808 -0.6754,0.53435 -0.22656,0.17621 -0.45421,0.3502 -0.68371,0.52244 -0.91789,0.68901 -1.85869,1.34607 -2.82098,1.96991 -0.24056,0.15594 -0.48287,0.30967 -0.72605,0.46146 -0.48641,0.30361 -0.97777,0.59899 -1.47434,0.88574 -0.005,0.003 -0.0106,0.006 -0.0151,0.008 -0.24246,0.13992 -0.48633,0.27758 -0.73125,0.41342 -0.067,0.0372 -0.13478,0.0732 -0.20204,0.11006 -0.18288,0.10039 -0.36565,0.20111 -0.5498,0.29922 -0.0739,0.0394 -0.14867,0.0768 -0.22273,0.11576 -0.1764,0.0928 -0.35261,0.18624 -0.5302,0.27699 l -0.0169,0.009 c -0.25371,0.12951 -0.50832,0.25717 -0.76428,0.3824 -0.0406,0.0198 -0.0818,0.0386 -0.12247,0.0584 -0.21937,0.10658 -0.43897,0.21233 -0.65992,0.31576 -0.26012,0.12168 -0.52113,0.24135 -0.78344,0.35861 -0.26093,0.11666 -0.52295,0.23146 -0.78599,0.34367 -0.0309,0.0132 -0.0621,0.0257 -0.093,0.0387 -0.23509,0.0997 -0.47075,0.19788 -0.70745,0.29405 -0.2617,0.10634 -0.52498,0.21072 -0.78856,0.31264 -0.0638,0.0246 -0.12827,0.0479 -0.19222,0.0723 -0.47141,0.18008 -0.94531,0.35447 -1.42267,0.52039 -0.003,0 -0.007,0.003 -0.0101,0.003 -0.0787,0.0273 -0.15788,0.0532 -0.2367,0.0801 -0.19825,0.0678 -0.39658,0.13573 -0.59584,0.20103 -0.54771,0.17955 -1.09879,0.34975 -1.65362,0.51054 -0.0386,0.0111 -0.0776,0.0214 -0.11623,0.0326 -0.24008,0.0689 -0.48067,0.13719 -0.72197,0.20257 -0.0939,0.0254 -0.18849,0.049 -0.28265,0.0739 -0.1855,0.0491 -0.37092,0.0982 -0.55708,0.14521 -0.0101,0.003 -0.019,0.005 -0.0284,0.007 -0.27162,0.0684 -0.5439,0.13457 -0.81701,0.19844 -0.2804,0.0656 -0.56147,0.12888 -0.84335,0.18965 -0.0591,0.0127 -0.11862,0.0241 -0.17778,0.0367 -0.22749,0.0482 -0.45519,0.096 -0.68368,0.14108 -0.28559,0.0563 -0.57182,0.1103 -0.85884,0.16174 -0.28702,0.0514 -0.57467,0.1003 -0.86302,0.14676 -0.28403,0.0458 -0.56893,0.0893 -0.8542,0.13023 -0.10729,0.0153 -0.215,0.0287 -0.32245,0.0434 -0.1846,0.0251 -0.36939,0.0512 -0.55449,0.0744 -0.0657,0.008 -0.13166,0.0153 -0.19741,0.0233 -0.22643,0.0275 -0.45294,0.0546 -0.68008,0.0791 -0.003,1.3e-4 -0.003,0 -0.004,0 -0.0339,0.004 -0.0684,0.007 -0.10231,0.01 -0.25691,0.027 -0.5138,0.0534 -0.77153,0.0765 -0.0396,0.003 -0.0793,0.006 -0.11888,0.01 -0.25394,0.0222 -0.508,0.0427 -0.76276,0.061 -0.0347,0.003 -0.0696,0.004 -0.10438,0.007 -0.25858,0.018 -0.51734,0.035 -0.77671,0.0491 -0.0664,0.004 -0.13303,0.006 -0.19947,0.009 -0.22852,0.0114 -0.45717,0.0222 -0.68622,0.0305 -0.0788,0.003 -0.15788,0.003 -0.2367,0.006 -0.21696,0.007 -0.43418,0.0135 -0.65164,0.0175 -0.10118,0.003 -0.20257,0.003 -0.30388,0.004 -0.19407,0.003 -0.38796,0.007 -0.58237,0.007 -0.19418,-2.1e-4 -0.38807,-0.003 -0.5819,-0.007 -0.0979,0 -0.19621,0 -0.29403,-0.003 -0.003,-8e-5 -0.007,0 -0.0103,0 -0.22344,-0.004 -0.44627,-0.0108 -0.66918,-0.018 -0.0725,-0.003 -0.14513,-0.003 -0.21757,-0.006 -0.24223,-0.009 -0.48345,-0.0204 -0.72504,-0.0325 -0.0532,-0.003 -0.10649,-0.004 -0.15965,-0.007 -0.24767,-0.0135 -0.49511,-0.0295 -0.74207,-0.0465 -0.0476,-0.003 -0.0955,-0.006 -0.14314,-0.009 -0.23194,-0.0167 -0.46324,-0.0359 -0.69454,-0.0558 -0.0625,-0.005 -0.12517,-0.009 -0.18759,-0.0151 -0.11956,-0.0106 -0.23873,-0.0235 -0.35811,-0.0351 -0.18108,-0.0175 -0.36248,-0.0348 -0.54311,-0.0543 -0.28202,-0.0304 -0.56348,-0.063 -0.84439,-0.0982 -0.003,0 -0.007,0 -0.0103,-0.003 -0.17177,-0.0217 -0.34282,-0.0454 -0.51419,-0.0687 -0.11986,-0.0164 -0.24003,-0.0314 -0.35965,-0.0486 -0.13343,-0.019 -0.26633,-0.0403 -0.39947,-0.0605 -0.15729,-0.0238 -0.31488,-0.0469 -0.47183,-0.0723 -0.2826,-0.0456 -0.56457,-0.0938 -0.8459,-0.1442 -0.13369,-0.0241 -0.26662,-0.0499 -0.40002,-0.0749 -0.16193,-0.0304 -0.32372,-0.0599 -0.48522,-0.092 -0.2766,-0.0547 -0.55269,-0.11173 -0.82783,-0.17104 -0.004,0 -0.009,-0.003 -0.013,-0.003 -0.27977,-0.0604 -0.5588,-0.123 -0.83714,-0.18813 -0.13658,-0.0319 -0.27255,-0.0661 -0.40879,-0.0992 -0.15401,-0.0374 -0.30839,-0.0738 -0.46198,-0.11263 -0.27914,-0.0706 -0.55756,-0.14331 -0.83508,-0.21861 -0.27287,-0.0741 -0.5452,-0.15086 -0.81648,-0.22944 -0.18711,-0.0542 -0.37341,-0.11057 -0.55967,-0.16693 -0.095,-0.0287 -0.19045,-0.0565 -0.28525,-0.0858 -0.27133,-0.0838 -0.54176,-0.16999 -0.81129,-0.25836 -0.17836,-0.0584 -0.35576,-0.11941 -0.53332,-0.17984 -0.0998,-0.034 -0.20019,-0.0667 -0.29972,-0.10128 -0.13058,-0.0453 -0.26012,-0.0926 -0.39018,-0.13901 -0.14026,-0.05 -0.28089,-0.0991 -0.42064,-0.15039 -0.12303,-0.0451 -0.24532,-0.0924 -0.36793,-0.13849 -0.14862,-0.0558 -0.29694,-0.11072 -0.44495,-0.16795 -0.16232,-0.0628 -0.32366,-0.12782 -0.48522,-0.19225 -0.1021,-0.0407 -0.20465,-0.0801 -0.30646,-0.12142 -0.21471,-0.0873 -0.42842,-0.17698 -0.6418,-0.26717 -0.0569,-0.0241 -0.11428,-0.0471 -0.17106,-0.0713 -0.25781,-0.11009 -0.51422,-0.22259 -0.76999,-0.33694 -0.26225,-0.11729 -0.52385,-0.23694 -0.78393,-0.35862 -0.22098,-0.1034 -0.44053,-0.20918 -0.65987,-0.31575 -0.0407,-0.0198 -0.0818,-0.0385 -0.1225,-0.0584 -0.13013,-0.0637 -0.25906,-0.12956 -0.3886,-0.19431 -0.12935,-0.0647 -0.25934,-0.12853 -0.38806,-0.19431 -0.1016,-0.0519 -0.20222,-0.10557 -0.30337,-0.15811 -0.1519,-0.0789 -0.30422,-0.15727 -0.45527,-0.23773 -0.18407,-0.0981 -0.36701,-0.19836 -0.54983,-0.29869 -0.0672,-0.0369 -0.13499,-0.0729 -0.20207,-0.11007 -0.12446,-0.069 -0.2477,-0.1397 -0.37155,-0.20978 -0.12472,-0.0706 -0.25006,-0.13973 -0.37415,-0.21138 -0.022,-0.0127 -0.0432,-0.0265 -0.0651,-0.0393 -0.23099,-0.13386 -0.4616,-0.26919 -0.69038,-0.4067 -0.24561,-0.14761 -0.48975,-0.29731 -0.73277,-0.44907 -0.23846,-0.14896 -0.47564,-0.29922 -0.71157,-0.45218 -0.003,-0.003 -0.007,-0.004 -0.0103,-0.007 -0.0613,-0.0397 -0.1219,-0.0804 -0.18294,-0.12041 -0.17894,-0.11716 -0.35793,-0.23402 -0.53536,-0.35346 -0.0473,-0.0319 -0.0939,-0.065 -0.14107,-0.0971 -0.19034,-0.12909 -0.38042,-0.25845 -0.56896,-0.39016 -0.0228,-0.0159 -0.045,-0.0322 -0.0677,-0.0481 -0.21256,-0.14902 -0.42378,-0.2993 -0.63407,-0.45165 -0.22839,-0.16541 -0.45554,-0.33292 -0.68112,-0.50228 -0.004,-0.003 -0.008,-0.006 -0.0114,-0.008 -0.10387,-0.078 -0.20627,-0.15836 -0.30953,-0.2372 -0.12473,-0.0952 -0.25027,-0.18939 -0.37418,-0.28578 -0.22288,-0.17346 -0.44405,-0.34875 -0.66402,-0.52604 l -0.003,-0.003 c -0.10816,-0.0872 -0.21508,-0.17597 -0.3225,-0.26405 -0.11613,-0.0952 -0.23302,-0.18952 -0.34827,-0.28578 -0.0384,-0.032 -0.0759,-0.065 -0.1142,-0.0971 -0.18245,-0.1533 -0.36433,-0.30708 -0.54467,-0.46303 -0.21434,-0.18534 -0.42746,-0.37263 -0.63873,-0.56173 -0.21413,-0.19164 -0.42627,-0.38542 -0.63717,-0.58084 -0.0807,-0.0748 -0.1601,-0.15103 -0.24032,-0.22633 -0.33954,-0.31879 -0.67627,-0.6414 -1.00714,-0.96999 l -0.005,-0.005 c -0.20286,-0.2015 -0.40402,-0.40465 -0.60357,-0.60978 l -0.007,-0.007 c -0.11644,-0.11977 -0.23093,-0.24177 -0.34623,-0.36277 -0.0838,-0.0879 -0.16846,-0.17499 -0.25165,-0.26355 -0.19767,-0.21042 -0.39343,-0.42254 -0.58759,-0.63664 -0.1924,-0.21204 -0.38316,-0.42571 -0.57205,-0.6413 -0.003,-0.003 -0.003,-0.004 -0.005,-0.006 -0.18891,-0.21576 -0.37626,-0.43346 -0.56171,-0.65267 -0.003,-0.003 -0.003,-0.003 -0.005,-0.006 -0.16086,-0.19034 -0.31972,-0.38274 -0.47797,-0.57568 -0.0249,-0.0303 -0.0503,-0.0601 -0.075,-0.0904 -0.16881,-0.20677 -0.33507,-0.4155 -0.50073,-0.62529 -0.014,-0.0177 -0.0284,-0.0351 -0.0424,-0.0527 -0.0471,-0.0597 -0.0927,-0.12038 -0.13955,-0.18036 -0.13329,-0.17084 -0.2667,-0.34142 -0.3979,-0.51417 -0.17481,-0.23013 -0.34777,-0.46204 -0.51882,-0.69556 0,-0.003 -0.003,-0.003 -0.004,-0.005 -0.17116,-0.23374 -0.3401,-0.46935 -0.50747,-0.70641 0,-0.003 -0.003,-0.003 -0.003,-0.004 -0.16746,-0.2373 -0.33304,-0.47612 -0.49663,-0.71673 0,0 -0.004,-0.003 -0.004,-0.004 -0.16301,-0.23982 -0.32356,-0.48141 -0.48265,-0.72448 l -0.003,-0.003 c -0.0243,-0.0373 -0.0485,-0.0752 -0.0729,-0.11263 -0.13613,-0.20931 -0.27077,-0.41929 -0.40407,-0.63098 -0.31234,-0.49625 -0.61666,-0.99877 -0.9126,-1.50791 v -0.003 c -0.1479,-0.25442 -0.29395,-0.5103 -0.4377,-0.7679 v -0.003 c -0.14372,-0.25776 -0.28578,-0.51734 -0.42529,-0.77825 -0.13962,-0.26109 -0.27705,-0.52332 -0.41241,-0.78753 -0.13533,-0.26432 -0.26895,-0.53049 -0.39994,-0.79791 a 27.857,5.0000001 0 0 1 -27.85825,4.99962 27.857,5.0000001 0 0 1 -27.85512,-4.98935 c -3.43477,24.25229 -23.90957,42.38577 -48.28287,42.9736 0,1e-5 -0.003,-3e-5 -0.004,0 -0.0631,0.003 -0.12655,0.003 -0.18964,0.003 -0.31849,0.006 -0.63676,0.0114 -0.95653,0.0119 -0.31996,0 -0.63895,-0.005 -0.95758,-0.0119 -0.0631,0 -0.12663,-3e-5 -0.18965,-0.003 0,-3e-5 -0.003,1e-5 -0.004,0 -24.37349,-0.58783 -44.84854,-18.72152 -48.28235,-42.9741 a 27.857,5.0000001 0 0 1 -27.85463,4.98985 27.857,5.0000001 0 0 1 -27.85722,-4.9997 c -0.13102,0.26742 -0.26355,0.53359 -0.39894,0.79791 -0.12323,0.24061 -0.24889,0.47924 -0.37569,0.71726 -0.15184,0.28501 -0.3056,0.56883 -0.4625,0.85008 -0.20077,0.35999 -0.40759,0.71538 -0.6165,1.06918 -0.24046,0.40714 -0.48484,0.8114 -0.73588,1.21026 -0.13323,0.21169 -0.26845,0.42113 -0.40462,0.63044 -0.0237,0.0364 -0.0465,0.0733 -0.0703,0.10957 -8e-4,0 -10e-4,0.003 -0.002,0.003 -0.15975,0.24413 -0.32154,0.48678 -0.48524,0.72761 -0.39264,0.57766 -0.79809,1.14482 -1.21285,1.70325 -0.10613,0.1429 -0.2118,0.28628 -0.31936,0.42789 -0.001,0.003 -0.002,0.003 -0.004,0.005 -0.17474,0.23003 -0.35177,0.45815 -0.5302,0.68471 -0.001,0.003 -0.003,0.003 -0.004,0.005 -0.17848,0.22659 -0.35842,0.45175 -0.54053,0.6749 -7.9e-4,0 -0.002,0.003 -0.003,0.003 -0.0248,0.0303 -0.0501,0.0601 -0.0749,0.0904 -0.2728,0.3326 -0.55019,0.66063 -0.83096,0.98546 -0.26076,0.30171 -0.52368,0.60119 -0.79116,0.89607 -0.0989,0.10908 -0.19937,0.2164 -0.29921,0.32453 -0.0982,0.10637 -0.19596,0.21339 -0.29507,0.31885 -0.19553,0.2081 -0.39232,0.41508 -0.59118,0.61961 -0.2017,0.2074 -0.40522,0.41282 -0.6103,0.6165 -0.002,0.003 -0.003,0.003 -0.005,0.005 -0.33093,0.32861 -0.66762,0.65119 -1.00717,0.96996 -0.0802,0.0753 -0.15961,0.15158 -0.2403,0.22635 -0.21088,0.19537 -0.4231,0.38926 -0.63717,0.58084 -0.21158,0.18936 -0.42512,0.37664 -0.63975,0.56224 -0.003,0.003 -0.006,0.006 -0.009,0.008 -0.21421,0.18516 -0.42979,0.36846 -0.64699,0.54983 -0.003,0.003 -0.007,0.006 -0.01,0.008 -0.21715,0.18124 -0.4362,0.36049 -0.6563,0.53795 -0.002,0.003 -0.005,0.004 -0.007,0.006 -0.22105,0.17817 -0.44318,0.35383 -0.66714,0.52814 -0.12381,0.0964 -0.24943,0.1906 -0.37413,0.28578 -0.29895,0.2282 -0.59993,0.45415 -0.90383,0.6754 -0.0328,0.0241 -0.0653,0.049 -0.0982,0.0729 -0.004,0.003 -0.008,0.005 -0.0119,0.008 -0.22822,0.1652 -0.45795,0.32855 -0.68886,0.4899 -0.004,0.003 -0.008,0.006 -0.0124,0.009 -0.23085,0.16116 -0.4626,0.32028 -0.69608,0.47749 -0.004,0.003 -0.009,0.006 -0.0129,0.009 -0.23342,0.15709 -0.46832,0.31197 -0.70435,0.46509 -0.001,0 -0.002,2e-5 -0.004,0.003 -0.23926,0.15518 -0.47957,0.30837 -0.72141,0.45943 -0.24303,0.15176 -0.48717,0.30143 -0.73278,0.44905 -0.22878,0.1375 -0.45939,0.27286 -0.69039,0.40669 -0.0169,0.01 -0.0337,0.0201 -0.0506,0.03 h -0.002 c -0.12861,0.0743 -0.25831,0.14648 -0.38758,0.21963 -0.12376,0.0701 -0.24718,0.14079 -0.37155,0.20982 -0.067,0.0372 -0.1343,0.0732 -0.20154,0.11007 -0.18284,0.10035 -0.36572,0.20063 -0.54983,0.29868 -0.15105,0.0805 -0.30337,0.15878 -0.45527,0.23771 -0.10118,0.0525 -0.20179,0.10625 -0.30334,0.15814 -0.12881,0.0658 -0.25869,0.12962 -0.38809,0.19431 -0.12948,0.0648 -0.25855,0.13065 -0.38861,0.19428 -0.0406,0.0198 -0.0818,0.0386 -0.12247,0.0584 -0.21937,0.10658 -0.43892,0.21236 -0.65991,0.31576 -0.2538,0.11877 -0.50892,0.23582 -0.76481,0.35036 -0.004,0.003 -0.008,0.003 -0.0124,0.005 -0.0774,0.0346 -0.15541,0.068 -0.23306,0.10234 -0.18606,0.0821 -0.37202,0.16459 -0.55914,0.24442 -0.25907,0.11054 -0.51925,0.21886 -0.78032,0.32504 -0.007,0.003 -0.0138,0.006 -0.0207,0.008 -0.10056,0.0408 -0.20199,0.0797 -0.30282,0.11989 -0.16161,0.0644 -0.32291,0.12946 -0.48524,0.19224 -0.26608,0.10287 -0.53349,0.20392 -0.80151,0.30231 -0.007,0.003 -0.0141,0.005 -0.0212,0.008 -0.13669,0.0501 -0.27417,0.0978 -0.41134,0.14674 -0.13003,0.0464 -0.25971,0.0937 -0.39016,0.13901 -0.0995,0.0346 -0.19993,0.0673 -0.29972,0.10131 -0.17756,0.0604 -0.35446,0.12136 -0.53279,0.17981 -0.26652,0.0874 -0.5338,0.1729 -0.80202,0.2558 -0.008,0.003 -0.0155,0.005 -0.0233,0.007 -0.0902,0.0278 -0.18095,0.0538 -0.2713,0.0811 -0.18628,0.0564 -0.3726,0.11271 -0.55966,0.16693 -0.27142,0.0786 -0.54345,0.15533 -0.81649,0.22944 -0.27751,0.0753 -0.55597,0.14798 -0.83509,0.21858 -0.15356,0.0388 -0.30794,0.0753 -0.46199,0.11266 -0.13621,0.0331 -0.27218,0.0673 -0.40876,0.0992 -0.2739,0.0641 -0.5484,0.12602 -0.82372,0.18553 -0.004,0 -0.009,0.003 -0.0134,0.003 -0.27952,0.0603 -0.55986,0.11854 -0.84078,0.17415 -0.16154,0.032 -0.32378,0.0616 -0.48576,0.092 -0.13335,0.0251 -0.26631,0.051 -0.39998,0.0749 -0.27773,0.0498 -0.55608,0.0975 -0.83509,0.14261 -0.004,0 -0.007,-5e-5 -0.0109,0.003 -0.15689,0.0254 -0.3145,0.0484 -0.4718,0.0723 -0.13313,0.0201 -0.26553,0.0418 -0.39893,0.061 -0.11965,0.0172 -0.23984,0.0323 -0.35968,0.0486 -0.17134,0.0233 -0.34244,0.0472 -0.51419,0.0687 -0.28436,0.0357 -0.56923,0.0684 -0.85472,0.0992 -0.18066,0.0196 -0.36201,0.0372 -0.54312,0.0548 -0.1194,0.0116 -0.23853,0.0238 -0.35812,0.0346 -0.0624,0.006 -0.12511,0.0103 -0.18758,0.0156 -0.23129,0.0198 -0.46258,0.0392 -0.69454,0.0558 -0.0476,0.003 -0.0955,0.006 -0.14314,0.009 -0.24694,0.0169 -0.4944,0.0331 -0.74206,0.0465 -0.0531,0.003 -0.10653,0.005 -0.15969,0.007 -0.24158,0.0122 -0.48332,0.0238 -0.72554,0.0326 -0.0724,0.003 -0.14508,0.004 -0.21756,0.006 -0.22293,0.007 -0.44578,0.0138 -0.66921,0.0177 -0.10128,0.003 -0.20298,0.004 -0.30436,0.005 -0.1938,0.003 -0.38774,0.006 -0.58188,0.006 -0.19445,-2.2e-4 -0.3878,-0.003 -0.58189,-0.006 -0.10127,0 -0.20269,-0.004 -0.30385,-0.005 -0.21746,-0.004 -0.43468,-0.0103 -0.65164,-0.0169 -0.0788,-0.003 -0.15793,-0.004 -0.23668,-0.007 -0.22909,-0.008 -0.45774,-0.019 -0.68627,-0.0305 -0.0664,-0.003 -0.13308,-0.006 -0.19946,-0.009 -0.25936,-0.014 -0.51811,-0.0311 -0.7767,-0.0491 -0.0348,-0.003 -0.0696,-0.004 -0.10439,-0.007 -0.25472,-0.0183 -0.50882,-0.0388 -0.76274,-0.061 -0.0396,-0.003 -0.0793,-0.006 -0.11886,-0.0103 -0.25779,-0.023 -0.5151,-0.0489 -0.77204,-0.076 -0.0353,-0.004 -0.0707,-0.007 -0.10594,-0.0108 -0.22715,-0.0244 -0.45362,-0.051 -0.68006,-0.0785 -0.0658,-0.008 -0.13172,-0.0151 -0.1974,-0.0233 -0.18513,-0.0233 -0.36986,-0.0492 -0.55449,-0.0744 -0.11271,-0.0154 -0.22596,-0.0293 -0.33849,-0.0455 -0.27998,-0.0403 -0.55943,-0.0832 -0.83819,-0.12813 -0.28835,-0.0465 -0.57546,-0.0953 -0.86248,-0.14677 -0.28701,-0.0514 -0.57325,-0.10541 -0.85885,-0.16176 -0.22846,-0.0451 -0.45615,-0.0929 -0.68369,-0.14108 -0.0592,-0.0124 -0.11867,-0.0241 -0.17777,-0.0367 -0.28189,-0.0608 -0.56296,-0.12406 -0.84336,-0.18965 -0.27469,-0.0642 -0.54895,-0.13121 -0.82216,-0.2 -0.008,-0.003 -0.0165,-0.004 -0.0248,-0.006 -0.1862,-0.047 -0.37158,-0.0961 -0.55707,-0.1452 -0.0981,-0.0259 -0.19666,-0.0505 -0.29455,-0.077 -0.27547,-0.0747 -0.54991,-0.15221 -0.82373,-0.23151 -0.55551,-0.16097 -1.10726,-0.33131 -1.65571,-0.51109 -0.19925,-0.0653 -0.39756,-0.13327 -0.59583,-0.20101 -0.082,-0.028 -0.16463,-0.0547 -0.2465,-0.0832 -0.47735,-0.16592 -0.95123,-0.3403 -1.42265,-0.52038 -0.0662,-0.0254 -0.13286,-0.0494 -0.19895,-0.0749 -0.50669,-0.196 -1.01006,-0.40074 -1.50947,-0.61288 -0.0242,-0.0103 -0.0487,-0.0196 -0.0729,-0.03 -0.26304,-0.11221 -0.52507,-0.22698 -0.786,-0.34364 -0.26228,-0.11726 -0.52332,-0.23693 -0.78341,-0.35864 -0.22099,-0.1034 -0.44053,-0.20915 -0.65991,-0.31573 -0.0407,-0.0198 -0.0818,-0.0385 -0.12247,-0.0584 -0.25596,-0.12523 -0.51113,-0.25289 -0.76482,-0.3824 -0.006,-0.003 -0.0118,-0.006 -0.0176,-0.009 -0.17765,-0.0908 -0.35369,-0.18412 -0.5302,-0.27699 -0.074,-0.039 -0.1489,-0.0764 -0.22273,-0.11575 -0.18417,-0.0981 -0.36693,-0.19884 -0.54983,-0.29922 -0.0715,-0.0392 -0.14317,-0.0772 -0.21446,-0.11679 -0.24527,-0.13615 -0.48935,-0.27471 -0.73225,-0.41494 -0.24832,-0.14338 -0.49577,-0.28909 -0.74156,-0.43667 l -0.015,-0.009 c -0.24063,-0.14462 -0.48015,-0.29168 -0.7183,-0.4403 -0.24322,-0.15179 -0.48549,-0.30551 -0.72606,-0.46146 -0.96231,-0.62383 -1.90362,-1.2809 -2.82153,-1.9699 -0.004,-0.003 -0.008,-0.006 -0.0114,-0.008 -0.22555,-0.16939 -0.44957,-0.34147 -0.67231,-0.51472 -0.22656,-0.17624 -0.45182,-0.35415 -0.67541,-0.53433 -0.66612,-0.53684 -1.31875,-1.09122 -1.95751,-1.66243 -0.007,-0.007 -0.0149,-0.013 -0.0222,-0.0196 -0.21144,-0.18931 -0.42108,-0.3806 -0.62942,-0.57361 -0.38685,-0.35846 -0.76772,-0.72393 -1.14359,-1.09501 -0.0368,-0.0364 -0.0744,-0.072 -0.11111,-0.10853 -0.40668,-0.40397 -0.80666,-0.8155 -1.19993,-1.23404 -0.1978,-0.21053 -0.39374,-0.42302 -0.58807,-0.63717 -0.38865,-0.42834 -0.77074,-0.86371 -1.14515,-1.30638 -0.002,-0.003 -0.004,-0.004 -0.005,-0.006 -0.18542,-0.21929 -0.36904,-0.4408 -0.55087,-0.66353 -0.55069,-0.6746 -1.08508,-1.36493 -1.60197,-2.07065 -10e-4,-0.003 -0.002,-0.003 -0.004,-0.005 -0.17116,-0.23374 -0.34012,-0.46935 -0.50747,-0.70641 -0.001,-0.003 -0.002,-0.003 -0.003,-0.004 -0.84105,-1.19184 -1.6331,-2.42519 -2.37349,-3.699 -5.3e-4,0 -0.001,-0.003 -0.002,-0.003 -0.59184,-1.01888 -1.15025,-2.0638 -1.674,-3.13261 z"
       id="rect4765-5-5-6-0"
       inkscape:connector-curvature="0" />
  </g>
</svg>
