  0
SECTION
  2
HEADER
  9
$ACADVER
  1
AC1009
  9
$EXTMIN
 10
0.0
 20
0.0
 30
0.0
  9
$EXTMAX
 10
1000.0
 20
1000.0
 30
0.0
  9
$FILLMODE
 70
 0
  9
$SPLFRAME
 70
 1
  0
ENDSEC
  0
SECTION
  2
TABLES
  0
TABLE
  2
LAYER
 70
1
  0
LAYER
  2
0
 70
     0
 62
     7
  6
CONTINUOUS
  0
ENDTAB
  0
ENDSEC
  0
SECTION
  2
ENTITIES
  0
POLYLINE
  8
0
 62
     0
 66
     1
 10
0
 20
0
 30
0.0
 70
     1
 40
0
 41
0
  0
VERTEX
  8
0
 10
8.28847
 20
21.5268
 30
0.0
 40
0
 41
0
  0
VERTEX
  8
0
 10
8.28071
 20
21.4886
 30
0.0
 40
0
 41
0
  0
VERTEX
  8
0
 10
8.2596
 20
21.4574
 30
0.0
 40
0
 41
0
  0
VERTEX
  8
0
 10
8.22835
 20
21.4363
 30
0.0
 40
0
 41
0
  0
VERTEX
  8
0
 10
8.19006
 20
21.4285
 30
0.0
 40
0
 41
0
  0
VERTEX
  8
0
 10
8.15169
 20
21.4363
 30
0.0
 40
0
 41
0
  0
VERTEX
  8
0
 10
8.12044
 20
21.4574
 30
0.0
 40
0
 41
0
  0
VERTEX
  8
0
 10
8.09933
 20
21.4886
 30
0.0
 40
0
 41
0
  0
VERTEX
  8
0
 10
8.09164
 20
21.5268
 30
0.0
 40
0
 41
0
  0
VERTEX
  8
0
 10
8.09933
 20
21.5653
 30
0.0
 40
0
 41
0
  0
VERTEX
  8
0
 10
8.12044
 20
21.5965
 30
0.0
 40
0
 41
0
  0
VERTEX
  8
0
 10
8.15169
 20
21.6175
 30
0.0
 40
0
 41
0
  0
VERTEX
  8
0
 10
8.19006
 20
21.6253
 30
0.0
 40
0
 41
0
  0
VERTEX
  8
0
 10
8.22835
 20
21.6175
 30
0.0
 40
0
 41
0
  0
VERTEX
  8
0
 10
8.2596
 20
21.5965
 30
0.0
 40
0
 41
0
  0
VERTEX
  8
0
 10
8.28071
 20
21.5653
 30
0.0
 40
0
 41
0
  0
VERTEX
  8
0
 10
8.28847
 20
21.5268
 30
0.0
 40
0
 41
0
  0
SEQEND
 8
0
  0
POLYLINE
  8
0
 62
     0
 66
     1
 10
0
 20
0
 30
0.0
 70
     1
 40
0.329829
 41
0.329829
  0
VERTEX
  8
0
 10
8.28847
 20
21.5268
 30
0.0
 40
0.00458096
 41
0.00458096
  0
VERTEX
  8
0
 10
8.28071
 20
21.4886
 30
0.0
 40
0.00458096
 41
0.00458096
  0
VERTEX
  8
0
 10
8.2596
 20
21.4574
 30
0.0
 40
0.00458096
 41
0.00458096
  0
VERTEX
  8
0
 10
8.22835
 20
21.4363
 30
0.0
 40
0.00458096
 41
0.00458096
  0
VERTEX
  8
0
 10
8.19006
 20
21.4285
 30
0.0
 40
0.00458096
 41
0.00458096
  0
VERTEX
  8
0
 10
8.15169
 20
21.4363
 30
0.0
 40
0.00458096
 41
0.00458096
  0
VERTEX
  8
0
 10
8.12044
 20
21.4574
 30
0.0
 40
0.00458096
 41
0.00458096
  0
VERTEX
  8
0
 10
8.09933
 20
21.4886
 30
0.0
 40
0.00458096
 41
0.00458096
  0
VERTEX
  8
0
 10
8.09164
 20
21.5268
 30
0.0
 40
0.00458096
 41
0.00458096
  0
VERTEX
  8
0
 10
8.09933
 20
21.5653
 30
0.0
 40
0.00458096
 41
0.00458096
  0
VERTEX
  8
0
 10
8.12044
 20
21.5965
 30
0.0
 40
0.00458096
 41
0.00458096
  0
VERTEX
  8
0
 10
8.15169
 20
21.6175
 30
0.0
 40
0.00458096
 41
0.00458096
  0
VERTEX
  8
0
 10
8.19006
 20
21.6253
 30
0.0
 40
0.00458096
 41
0.00458096
  0
VERTEX
  8
0
 10
8.22835
 20
21.6175
 30
0.0
 40
0.00458096
 41
0.00458096
  0
VERTEX
  8
0
 10
8.2596
 20
21.5965
 30
0.0
 40
0.00458096
 41
0.00458096
  0
VERTEX
  8
0
 10
8.28071
 20
21.5653
 30
0.0
 40
0.00458096
 41
0.00458096
  0
VERTEX
  8
0
 10
8.28847
 20
21.5268
 30
0.0
 40
0.00458096
 41
0.00458096
  0
SEQEND
 8
0
  0
POLYLINE
  8
0
 62
     0
 66
     1
 10
0
 20
0
 30
0.0
 70
     1
 40
0
 41
0
  0
VERTEX
  8
0
 10
4.50896
 20
21.5268
 30
0.0
 40
0
 41
0
  0
VERTEX
  8
0
 10
4.50119
 20
21.4886
 30
0.0
 40
0
 41
0
  0
VERTEX
  8
0
 10
4.48008
 20
21.4574
 30
0.0
 40
0
 41
0
  0
VERTEX
  8
0
 10
4.44878
 20
21.4363
 30
0.0
 40
0
 41
0
  0
VERTEX
  8
0
 10
4.41049
 20
21.4285
 30
0.0
 40
0
 41
0
  0
VERTEX
  8
0
 10
4.37213
 20
21.4363
 30
0.0
 40
0
 41
0
  0
VERTEX
  8
0
 10
4.34088
 20
21.4574
 30
0.0
 40
0
 41
0
  0
VERTEX
  8
0
 10
4.31976
 20
21.4886
 30
0.0
 40
0
 41
0
  0
VERTEX
  8
0
 10
4.31207
 20
21.5268
 30
0.0
 40
0
 41
0
  0
VERTEX
  8
0
 10
4.31976
 20
21.5653
 30
0.0
 40
0
 41
0
  0
VERTEX
  8
0
 10
4.34088
 20
21.5965
 30
0.0
 40
0
 41
0
  0
VERTEX
  8
0
 10
4.37213
 20
21.6175
 30
0.0
 40
0
 41
0
  0
VERTEX
  8
0
 10
4.41049
 20
21.6253
 30
0.0
 40
0
 41
0
  0
VERTEX
  8
0
 10
4.44878
 20
21.6175
 30
0.0
 40
0
 41
0
  0
VERTEX
  8
0
 10
4.48008
 20
21.5965
 30
0.0
 40
0
 41
0
  0
VERTEX
  8
0
 10
4.50119
 20
21.5653
 30
0.0
 40
0
 41
0
  0
VERTEX
  8
0
 10
4.50896
 20
21.5268
 30
0.0
 40
0
 41
0
  0
SEQEND
 8
0
  0
POLYLINE
  8
0
 62
     0
 66
     1
 10
0
 20
0
 30
0.0
 70
     1
 40
0.329829
 41
0.329829
  0
VERTEX
  8
0
 10
4.50896
 20
21.5268
 30
0.0
 40
0.00458096
 41
0.00458096
  0
VERTEX
  8
0
 10
4.50119
 20
21.4886
 30
0.0
 40
0.00458096
 41
0.00458096
  0
VERTEX
  8
0
 10
4.48008
 20
21.4574
 30
0.0
 40
0.00458096
 41
0.00458096
  0
VERTEX
  8
0
 10
4.44878
 20
21.4363
 30
0.0
 40
0.00458096
 41
0.00458096
  0
VERTEX
  8
0
 10
4.41049
 20
21.4285
 30
0.0
 40
0.00458096
 41
0.00458096
  0
VERTEX
  8
0
 10
4.37213
 20
21.4363
 30
0.0
 40
0.00458096
 41
0.00458096
  0
VERTEX
  8
0
 10
4.34088
 20
21.4574
 30
0.0
 40
0.00458096
 41
0.00458096
  0
VERTEX
  8
0
 10
4.31976
 20
21.4886
 30
0.0
 40
0.00458096
 41
0.00458096
  0
VERTEX
  8
0
 10
4.31207
 20
21.5268
 30
0.0
 40
0.00458096
 41
0.00458096
  0
VERTEX
  8
0
 10
4.31976
 20
21.5653
 30
0.0
 40
0.00458096
 41
0.00458096
  0
VERTEX
  8
0
 10
4.34088
 20
21.5965
 30
0.0
 40
0.00458096
 41
0.00458096
  0
VERTEX
  8
0
 10
4.37213
 20
21.6175
 30
0.0
 40
0.00458096
 41
0.00458096
  0
VERTEX
  8
0
 10
4.41049
 20
21.6253
 30
0.0
 40
0.00458096
 41
0.00458096
  0
VERTEX
  8
0
 10
4.44878
 20
21.6175
 30
0.0
 40
0.00458096
 41
0.00458096
  0
VERTEX
  8
0
 10
4.48008
 20
21.5965
 30
0.0
 40
0.00458096
 41
0.00458096
  0
VERTEX
  8
0
 10
4.50119
 20
21.5653
 30
0.0
 40
0.00458096
 41
0.00458096
  0
VERTEX
  8
0
 10
4.50896
 20
21.5268
 30
0.0
 40
0.00458096
 41
0.00458096
  0
SEQEND
 8
0
  0
POLYLINE
  8
0
 62
     0
 66
     1
 10
0
 20
0
 30
0.0
 70
     1
 40
0
 41
0
  0
VERTEX
  8
0
 10
14.1939
 20
20.9363
 30
0.0
 40
0
 41
0
  0
VERTEX
  8
0
 10
14.1862
 20
20.8981
 30
0.0
 40
0
 41
0
  0
VERTEX
  8
0
 10
14.1651
 20
20.8668
 30
0.0
 40
0
 41
0
  0
VERTEX
  8
0
 10
14.1339
 20
20.8457
 30
0.0
 40
0
 41
0
  0
VERTEX
  8
0
 10
14.0956
 20
20.8379
 30
0.0
 40
0
 41
0
  0
VERTEX
  8
0
 10
14.0572
 20
20.8457
 30
0.0
 40
0
 41
0
  0
VERTEX
  8
0
 10
14.026
 20
20.8668
 30
0.0
 40
0
 41
0
  0
VERTEX
  8
0
 10
14.0049
 20
20.8981
 30
0.0
 40
0
 41
0
  0
VERTEX
  8
0
 10
13.9971
 20
20.9363
 30
0.0
 40
0
 41
0
  0
VERTEX
  8
0
 10
14.0049
 20
20.9747
 30
0.0
 40
0
 41
0
  0
VERTEX
  8
0
 10
14.026
 20
21.006
 30
0.0
 40
0
 41
0
  0
VERTEX
  8
0
 10
14.0572
 20
21.0271
 30
0.0
 40
0
 41
0
  0
VERTEX
  8
0
 10
14.0956
 20
21.0347
 30
0.0
 40
0
 41
0
  0
VERTEX
  8
0
 10
14.1339
 20
21.0271
 30
0.0
 40
0
 41
0
  0
VERTEX
  8
0
 10
14.1651
 20
21.006
 30
0.0
 40
0
 41
0
  0
VERTEX
  8
0
 10
14.1862
 20
20.9747
 30
0.0
 40
0
 41
0
  0
VERTEX
  8
0
 10
14.1939
 20
20.9363
 30
0.0
 40
0
 41
0
  0
SEQEND
 8
0
  0
POLYLINE
  8
0
 62
     0
 66
     1
 10
0
 20
0
 30
0.0
 70
     1
 40
0.329829
 41
0.329829
  0
VERTEX
  8
0
 10
14.1939
 20
20.9363
 30
0.0
 40
0.00458096
 41
0.00458096
  0
VERTEX
  8
0
 10
14.1862
 20
20.8981
 30
0.0
 40
0.00458096
 41
0.00458096
  0
VERTEX
  8
0
 10
14.1651
 20
20.8668
 30
0.0
 40
0.00458096
 41
0.00458096
  0
VERTEX
  8
0
 10
14.1339
 20
20.8457
 30
0.0
 40
0.00458096
 41
0.00458096
  0
VERTEX
  8
0
 10
14.0956
 20
20.8379
 30
0.0
 40
0.00458096
 41
0.00458096
  0
VERTEX
  8
0
 10
14.0572
 20
20.8457
 30
0.0
 40
0.00458096
 41
0.00458096
  0
VERTEX
  8
0
 10
14.026
 20
20.8668
 30
0.0
 40
0.00458096
 41
0.00458096
  0
VERTEX
  8
0
 10
14.0049
 20
20.8981
 30
0.0
 40
0.00458096
 41
0.00458096
  0
VERTEX
  8
0
 10
13.9971
 20
20.9363
 30
0.0
 40
0.00458096
 41
0.00458096
  0
VERTEX
  8
0
 10
14.0049
 20
20.9747
 30
0.0
 40
0.00458096
 41
0.00458096
  0
VERTEX
  8
0
 10
14.026
 20
21.006
 30
0.0
 40
0.00458096
 41
0.00458096
  0
VERTEX
  8
0
 10
14.0572
 20
21.0271
 30
0.0
 40
0.00458096
 41
0.00458096
  0
VERTEX
  8
0
 10
14.0956
 20
21.0347
 30
0.0
 40
0.00458096
 41
0.00458096
  0
VERTEX
  8
0
 10
14.1339
 20
21.0271
 30
0.0
 40
0.00458096
 41
0.00458096
  0
VERTEX
  8
0
 10
14.1651
 20
21.006
 30
0.0
 40
0.00458096
 41
0.00458096
  0
VERTEX
  8
0
 10
14.1862
 20
20.9747
 30
0.0
 40
0.00458096
 41
0.00458096
  0
VERTEX
  8
0
 10
14.1939
 20
20.9363
 30
0.0
 40
0.00458096
 41
0.00458096
  0
SEQEND
 8
0
  0
POLYLINE
  8
0
 62
     0
 66
     1
 10
0
 20
0
 30
0.0
 70
     1
 40
0
 41
0
  0
VERTEX
  8
0
 10
10.4144
 20
20.9363
 30
0.0
 40
0
 41
0
  0
VERTEX
  8
0
 10
10.4067
 20
20.8981
 30
0.0
 40
0
 41
0
  0
VERTEX
  8
0
 10
10.3856
 20
20.8668
 30
0.0
 40
0
 41
0
  0
VERTEX
  8
0
 10
10.3543
 20
20.8457
 30
0.0
 40
0
 41
0
  0
VERTEX
  8
0
 10
10.316
 20
20.8379
 30
0.0
 40
0
 41
0
  0
VERTEX
  8
0
 10
10.2777
 20
20.8457
 30
0.0
 40
0
 41
0
  0
VERTEX
  8
0
 10
10.2464
 20
20.8668
 30
0.0
 40
0
 41
0
  0
VERTEX
  8
0
 10
10.2253
 20
20.8981
 30
0.0
 40
0
 41
0
  0
VERTEX
  8
0
 10
10.2176
 20
20.9363
 30
0.0
 40
0
 41
0
  0
VERTEX
  8
0
 10
10.2253
 20
20.9747
 30
0.0
 40
0
 41
0
  0
VERTEX
  8
0
 10
10.2464
 20
21.006
 30
0.0
 40
0
 41
0
  0
VERTEX
  8
0
 10
10.2777
 20
21.0271
 30
0.0
 40
0
 41
0
  0
VERTEX
  8
0
 10
10.316
 20
21.0347
 30
0.0
 40
0
 41
0
  0
VERTEX
  8
0
 10
10.3543
 20
21.0271
 30
0.0
 40
0
 41
0
  0
VERTEX
  8
0
 10
10.3856
 20
21.006
 30
0.0
 40
0
 41
0
  0
VERTEX
  8
0
 10
10.4067
 20
20.9747
 30
0.0
 40
0
 41
0
  0
VERTEX
  8
0
 10
10.4144
 20
20.9363
 30
0.0
 40
0
 41
0
  0
SEQEND
 8
0
  0
POLYLINE
  8
0
 62
     0
 66
     1
 10
0
 20
0
 30
0.0
 70
     1
 40
0.329829
 41
0.329829
  0
VERTEX
  8
0
 10
10.4144
 20
20.9363
 30
0.0
 40
0.00458096
 41
0.00458096
  0
VERTEX
  8
0
 10
10.4067
 20
20.8981
 30
0.0
 40
0.00458096
 41
0.00458096
  0
VERTEX
  8
0
 10
10.3856
 20
20.8668
 30
0.0
 40
0.00458096
 41
0.00458096
  0
VERTEX
  8
0
 10
10.3543
 20
20.8457
 30
0.0
 40
0.00458096
 41
0.00458096
  0
VERTEX
  8
0
 10
10.316
 20
20.8379
 30
0.0
 40
0.00458096
 41
0.00458096
  0
VERTEX
  8
0
 10
10.2777
 20
20.8457
 30
0.0
 40
0.00458096
 41
0.00458096
  0
VERTEX
  8
0
 10
10.2464
 20
20.8668
 30
0.0
 40
0.00458096
 41
0.00458096
  0
VERTEX
  8
0
 10
10.2253
 20
20.8981
 30
0.0
 40
0.00458096
 41
0.00458096
  0
VERTEX
  8
0
 10
10.2176
 20
20.9363
 30
0.0
 40
0.00458096
 41
0.00458096
  0
VERTEX
  8
0
 10
10.2253
 20
20.9747
 30
0.0
 40
0.00458096
 41
0.00458096
  0
VERTEX
  8
0
 10
10.2464
 20
21.006
 30
0.0
 40
0.00458096
 41
0.00458096
  0
VERTEX
  8
0
 10
10.2777
 20
21.0271
 30
0.0
 40
0.00458096
 41
0.00458096
  0
VERTEX
  8
0
 10
10.316
 20
21.0347
 30
0.0
 40
0.00458096
 41
0.00458096
  0
VERTEX
  8
0
 10
10.3543
 20
21.0271
 30
0.0
 40
0.00458096
 41
0.00458096
  0
VERTEX
  8
0
 10
10.3856
 20
21.006
 30
0.0
 40
0.00458096
 41
0.00458096
  0
VERTEX
  8
0
 10
10.4067
 20
20.9747
 30
0.0
 40
0.00458096
 41
0.00458096
  0
VERTEX
  8
0
 10
10.4144
 20
20.9363
 30
0.0
 40
0.00458096
 41
0.00458096
  0
SEQEND
 8
0
  0
POLYLINE
  8
0
 62
     0
 66
     1
 10
0
 20
0
 30
0.0
 70
     1
 40
0
 41
0
  0
VERTEX
  8
0
 10
20.0994
 20
21.5268
 30
0.0
 40
0
 41
0
  0
VERTEX
  8
0
 10
20.0918
 20
21.4886
 30
0.0
 40
0
 41
0
  0
VERTEX
  8
0
 10
20.0707
 20
21.4574
 30
0.0
 40
0
 41
0
  0
VERTEX
  8
0
 10
20.0393
 20
21.4363
 30
0.0
 40
0
 41
0
  0
VERTEX
  8
0
 10
20.001
 20
21.4285
 30
0.0
 40
0
 41
0
  0
VERTEX
  8
0
 10
19.9628
 20
21.4363
 30
0.0
 40
0
 41
0
  0
VERTEX
  8
0
 10
19.9314
 20
21.4574
 30
0.0
 40
0
 41
0
  0
VERTEX
  8
0
 10
19.9103
 20
21.4886
 30
0.0
 40
0
 41
0
  0
VERTEX
  8
0
 10
19.9026
 20
21.5268
 30
0.0
 40
0
 41
0
  0
VERTEX
  8
0
 10
19.9103
 20
21.5653
 30
0.0
 40
0
 41
0
  0
VERTEX
  8
0
 10
19.9314
 20
21.5965
 30
0.0
 40
0
 41
0
  0
VERTEX
  8
0
 10
19.9628
 20
21.6175
 30
0.0
 40
0
 41
0
  0
VERTEX
  8
0
 10
20.001
 20
21.6253
 30
0.0
 40
0
 41
0
  0
VERTEX
  8
0
 10
20.0393
 20
21.6175
 30
0.0
 40
0
 41
0
  0
VERTEX
  8
0
 10
20.0707
 20
21.5965
 30
0.0
 40
0
 41
0
  0
VERTEX
  8
0
 10
20.0918
 20
21.5653
 30
0.0
 40
0
 41
0
  0
VERTEX
  8
0
 10
20.0994
 20
21.5268
 30
0.0
 40
0
 41
0
  0
SEQEND
 8
0
  0
POLYLINE
  8
0
 62
     0
 66
     1
 10
0
 20
0
 30
0.0
 70
     1
 40
0.329829
 41
0.329829
  0
VERTEX
  8
0
 10
20.0994
 20
21.5268
 30
0.0
 40
0.00458096
 41
0.00458096
  0
VERTEX
  8
0
 10
20.0918
 20
21.4886
 30
0.0
 40
0.00458096
 41
0.00458096
  0
VERTEX
  8
0
 10
20.0707
 20
21.4574
 30
0.0
 40
0.00458096
 41
0.00458096
  0
VERTEX
  8
0
 10
20.0393
 20
21.4363
 30
0.0
 40
0.00458096
 41
0.00458096
  0
VERTEX
  8
0
 10
20.001
 20
21.4285
 30
0.0
 40
0.00458096
 41
0.00458096
  0
VERTEX
  8
0
 10
19.9628
 20
21.4363
 30
0.0
 40
0.00458096
 41
0.00458096
  0
VERTEX
  8
0
 10
19.9314
 20
21.4574
 30
0.0
 40
0.00458096
 41
0.00458096
  0
VERTEX
  8
0
 10
19.9103
 20
21.4886
 30
0.0
 40
0.00458096
 41
0.00458096
  0
VERTEX
  8
0
 10
19.9026
 20
21.5268
 30
0.0
 40
0.00458096
 41
0.00458096
  0
VERTEX
  8
0
 10
19.9103
 20
21.5653
 30
0.0
 40
0.00458096
 41
0.00458096
  0
VERTEX
  8
0
 10
19.9314
 20
21.5965
 30
0.0
 40
0.00458096
 41
0.00458096
  0
VERTEX
  8
0
 10
19.9628
 20
21.6175
 30
0.0
 40
0.00458096
 41
0.00458096
  0
VERTEX
  8
0
 10
20.001
 20
21.6253
 30
0.0
 40
0.00458096
 41
0.00458096
  0
VERTEX
  8
0
 10
20.0393
 20
21.6175
 30
0.0
 40
0.00458096
 41
0.00458096
  0
VERTEX
  8
0
 10
20.0707
 20
21.5965
 30
0.0
 40
0.00458096
 41
0.00458096
  0
VERTEX
  8
0
 10
20.0918
 20
21.5653
 30
0.0
 40
0.00458096
 41
0.00458096
  0
VERTEX
  8
0
 10
20.0994
 20
21.5268
 30
0.0
 40
0.00458096
 41
0.00458096
  0
SEQEND
 8
0
  0
POLYLINE
  8
0
 62
     0
 66
     1
 10
0
 20
0
 30
0.0
 70
     1
 40
0
 41
0
  0
VERTEX
  8
0
 10
16.32
 20
21.5268
 30
0.0
 40
0
 41
0
  0
VERTEX
  8
0
 10
16.3122
 20
21.4886
 30
0.0
 40
0
 41
0
  0
VERTEX
  8
0
 10
16.2911
 20
21.4574
 30
0.0
 40
0
 41
0
  0
VERTEX
  8
0
 10
16.2599
 20
21.4363
 30
0.0
 40
0
 41
0
  0
VERTEX
  8
0
 10
16.2215
 20
21.4285
 30
0.0
 40
0
 41
0
  0
VERTEX
  8
0
 10
16.1832
 20
21.4363
 30
0.0
 40
0
 41
0
  0
VERTEX
  8
0
 10
16.1519
 20
21.4574
 30
0.0
 40
0
 41
0
  0
VERTEX
  8
0
 10
16.1308
 20
21.4886
 30
0.0
 40
0
 41
0
  0
VERTEX
  8
0
 10
16.1231
 20
21.5268
 30
0.0
 40
0
 41
0
  0
VERTEX
  8
0
 10
16.1308
 20
21.5653
 30
0.0
 40
0
 41
0
  0
VERTEX
  8
0
 10
16.1519
 20
21.5965
 30
0.0
 40
0
 41
0
  0
VERTEX
  8
0
 10
16.1832
 20
21.6175
 30
0.0
 40
0
 41
0
  0
VERTEX
  8
0
 10
16.2215
 20
21.6253
 30
0.0
 40
0
 41
0
  0
VERTEX
  8
0
 10
16.2599
 20
21.6175
 30
0.0
 40
0
 41
0
  0
VERTEX
  8
0
 10
16.2911
 20
21.5965
 30
0.0
 40
0
 41
0
  0
VERTEX
  8
0
 10
16.3122
 20
21.5653
 30
0.0
 40
0
 41
0
  0
VERTEX
  8
0
 10
16.32
 20
21.5268
 30
0.0
 40
0
 41
0
  0
SEQEND
 8
0
  0
POLYLINE
  8
0
 62
     0
 66
     1
 10
0
 20
0
 30
0.0
 70
     1
 40
0.329829
 41
0.329829
  0
VERTEX
  8
0
 10
16.32
 20
21.5268
 30
0.0
 40
0.00458096
 41
0.00458096
  0
VERTEX
  8
0
 10
16.3122
 20
21.4886
 30
0.0
 40
0.00458096
 41
0.00458096
  0
VERTEX
  8
0
 10
16.2911
 20
21.4574
 30
0.0
 40
0.00458096
 41
0.00458096
  0
VERTEX
  8
0
 10
16.2599
 20
21.4363
 30
0.0
 40
0.00458096
 41
0.00458096
  0
VERTEX
  8
0
 10
16.2215
 20
21.4285
 30
0.0
 40
0.00458096
 41
0.00458096
  0
VERTEX
  8
0
 10
16.1832
 20
21.4363
 30
0.0
 40
0.00458096
 41
0.00458096
  0
VERTEX
  8
0
 10
16.1519
 20
21.4574
 30
0.0
 40
0.00458096
 41
0.00458096
  0
VERTEX
  8
0
 10
16.1308
 20
21.4886
 30
0.0
 40
0.00458096
 41
0.00458096
  0
VERTEX
  8
0
 10
16.1231
 20
21.5268
 30
0.0
 40
0.00458096
 41
0.00458096
  0
VERTEX
  8
0
 10
16.1308
 20
21.5653
 30
0.0
 40
0.00458096
 41
0.00458096
  0
VERTEX
  8
0
 10
16.1519
 20
21.5965
 30
0.0
 40
0.00458096
 41
0.00458096
  0
VERTEX
  8
0
 10
16.1832
 20
21.6175
 30
0.0
 40
0.00458096
 41
0.00458096
  0
VERTEX
  8
0
 10
16.2215
 20
21.6253
 30
0.0
 40
0.00458096
 41
0.00458096
  0
VERTEX
  8
0
 10
16.2599
 20
21.6175
 30
0.0
 40
0.00458096
 41
0.00458096
  0
VERTEX
  8
0
 10
16.2911
 20
21.5965
 30
0.0
 40
0.00458096
 41
0.00458096
  0
VERTEX
  8
0
 10
16.3122
 20
21.5653
 30
0.0
 40
0.00458096
 41
0.00458096
  0
VERTEX
  8
0
 10
16.32
 20
21.5268
 30
0.0
 40
0.00458096
 41
0.00458096
  0
SEQEND
 8
0
  0
POLYLINE
  8
0
 62
     0
 66
     1
 10
0
 20
0
 30
0.0
 70
     1
 40
0
 41
0
  0
VERTEX
  8
0
 10
8.22532
 20
25.0006
 30
0.0
 40
0
 41
0
  0
VERTEX
  8
0
 10
8.21756
 20
24.9622
 30
0.0
 40
0
 41
0
  0
VERTEX
  8
0
 10
8.19646
 20
24.931
 30
0.0
 40
0
 41
0
  0
VERTEX
  8
0
 10
8.16521
 20
24.9099
 30
0.0
 40
0
 41
0
  0
VERTEX
  8
0
 10
8.1269
 20
24.9021
 30
0.0
 40
0
 41
0
  0
VERTEX
  8
0
 10
8.08854
 20
24.9099
 30
0.0
 40
0
 41
0
  0
VERTEX
  8
0
 10
8.05729
 20
24.931
 30
0.0
 40
0
 41
0
  0
VERTEX
  8
0
 10
8.03618
 20
24.9622
 30
0.0
 40
0
 41
0
  0
VERTEX
  8
0
 10
8.02849
 20
25.0006
 30
0.0
 40
0
 41
0
  0
VERTEX
  8
0
 10
8.03618
 20
25.0389
 30
0.0
 40
0
 41
0
  0
VERTEX
  8
0
 10
8.05729
 20
25.0701
 30
0.0
 40
0
 41
0
  0
VERTEX
  8
0
 10
8.08854
 20
25.0912
 30
0.0
 40
0
 41
0
  0
VERTEX
  8
0
 10
8.1269
 20
25.0989
 30
0.0
 40
0
 41
0
  0
VERTEX
  8
0
 10
8.16521
 20
25.0912
 30
0.0
 40
0
 41
0
  0
VERTEX
  8
0
 10
8.19646
 20
25.0701
 30
0.0
 40
0
 41
0
  0
VERTEX
  8
0
 10
8.21756
 20
25.0389
 30
0.0
 40
0
 41
0
  0
VERTEX
  8
0
 10
8.22532
 20
25.0006
 30
0.0
 40
0
 41
0
  0
SEQEND
 8
0
  0
POLYLINE
  8
0
 62
     0
 66
     1
 10
0
 20
0
 30
0.0
 70
     1
 40
0.329829
 41
0.329829
  0
VERTEX
  8
0
 10
8.22532
 20
25.0006
 30
0.0
 40
0.00458096
 41
0.00458096
  0
VERTEX
  8
0
 10
8.21756
 20
24.9622
 30
0.0
 40
0.00458096
 41
0.00458096
  0
VERTEX
  8
0
 10
8.19646
 20
24.931
 30
0.0
 40
0.00458096
 41
0.00458096
  0
VERTEX
  8
0
 10
8.16521
 20
24.9099
 30
0.0
 40
0.00458096
 41
0.00458096
  0
VERTEX
  8
0
 10
8.1269
 20
24.9021
 30
0.0
 40
0.00458096
 41
0.00458096
  0
VERTEX
  8
0
 10
8.08854
 20
24.9099
 30
0.0
 40
0.00458096
 41
0.00458096
  0
VERTEX
  8
0
 10
8.05729
 20
24.931
 30
0.0
 40
0.00458096
 41
0.00458096
  0
VERTEX
  8
0
 10
8.03618
 20
24.9622
 30
0.0
 40
0.00458096
 41
0.00458096
  0
VERTEX
  8
0
 10
8.02849
 20
25.0006
 30
0.0
 40
0.00458096
 41
0.00458096
  0
VERTEX
  8
0
 10
8.03618
 20
25.0389
 30
0.0
 40
0.00458096
 41
0.00458096
  0
VERTEX
  8
0
 10
8.05729
 20
25.0701
 30
0.0
 40
0.00458096
 41
0.00458096
  0
VERTEX
  8
0
 10
8.08854
 20
25.0912
 30
0.0
 40
0.00458096
 41
0.00458096
  0
VERTEX
  8
0
 10
8.1269
 20
25.0989
 30
0.0
 40
0.00458096
 41
0.00458096
  0
VERTEX
  8
0
 10
8.16521
 20
25.0912
 30
0.0
 40
0.00458096
 41
0.00458096
  0
VERTEX
  8
0
 10
8.19646
 20
25.0701
 30
0.0
 40
0.00458096
 41
0.00458096
  0
VERTEX
  8
0
 10
8.21756
 20
25.0389
 30
0.0
 40
0.00458096
 41
0.00458096
  0
VERTEX
  8
0
 10
8.22532
 20
25.0006
 30
0.0
 40
0.00458096
 41
0.00458096
  0
SEQEND
 8
0
  0
POLYLINE
  8
0
 62
     0
 66
     1
 10
0
 20
0
 30
0.0
 70
     1
 40
0
 41
0
  0
VERTEX
  8
0
 10
4.44581
 20
25.0006
 30
0.0
 40
0
 41
0
  0
VERTEX
  8
0
 10
4.43804
 20
24.9622
 30
0.0
 40
0
 41
0
  0
VERTEX
  8
0
 10
4.41694
 20
24.931
 30
0.0
 40
0
 41
0
  0
VERTEX
  8
0
 10
4.38569
 20
24.9099
 30
0.0
 40
0
 41
0
  0
VERTEX
  8
0
 10
4.34739
 20
24.9021
 30
0.0
 40
0
 41
0
  0
VERTEX
  8
0
 10
4.30903
 20
24.9099
 30
0.0
 40
0
 41
0
  0
VERTEX
  8
0
 10
4.27778
 20
24.931
 30
0.0
 40
0
 41
0
  0
VERTEX
  8
0
 10
4.25667
 20
24.9622
 30
0.0
 40
0
 41
0
  0
VERTEX
  8
0
 10
4.24897
 20
25.0006
 30
0.0
 40
0
 41
0
  0
VERTEX
  8
0
 10
4.25667
 20
25.0389
 30
0.0
 40
0
 41
0
  0
VERTEX
  8
0
 10
4.27778
 20
25.0701
 30
0.0
 40
0
 41
0
  0
VERTEX
  8
0
 10
4.30903
 20
25.0912
 30
0.0
 40
0
 41
0
  0
VERTEX
  8
0
 10
4.34739
 20
25.0989
 30
0.0
 40
0
 41
0
  0
VERTEX
  8
0
 10
4.38569
 20
25.0912
 30
0.0
 40
0
 41
0
  0
VERTEX
  8
0
 10
4.41694
 20
25.0701
 30
0.0
 40
0
 41
0
  0
VERTEX
  8
0
 10
4.43804
 20
25.0389
 30
0.0
 40
0
 41
0
  0
VERTEX
  8
0
 10
4.44581
 20
25.0006
 30
0.0
 40
0
 41
0
  0
SEQEND
 8
0
  0
POLYLINE
  8
0
 62
     0
 66
     1
 10
0
 20
0
 30
0.0
 70
     1
 40
0.328819
 41
0.328819
  0
VERTEX
  8
0
 10
4.44581
 20
25.0006
 30
0.0
 40
0.00456693
 41
0.00456693
  0
VERTEX
  8
0
 10
4.43804
 20
24.9622
 30
0.0
 40
0.00456693
 41
0.00456693
  0
VERTEX
  8
0
 10
4.41694
 20
24.931
 30
0.0
 40
0.00456693
 41
0.00456693
  0
VERTEX
  8
0
 10
4.38569
 20
24.9099
 30
0.0
 40
0.00456693
 41
0.00456693
  0
VERTEX
  8
0
 10
4.34739
 20
24.9021
 30
0.0
 40
0.00456693
 41
0.00456693
  0
VERTEX
  8
0
 10
4.30903
 20
24.9099
 30
0.0
 40
0.00456693
 41
0.00456693
  0
VERTEX
  8
0
 10
4.27778
 20
24.931
 30
0.0
 40
0.00456693
 41
0.00456693
  0
VERTEX
  8
0
 10
4.25667
 20
24.9622
 30
0.0
 40
0.00456693
 41
0.00456693
  0
VERTEX
  8
0
 10
4.24897
 20
25.0006
 30
0.0
 40
0.00456693
 41
0.00456693
  0
VERTEX
  8
0
 10
4.25667
 20
25.0389
 30
0.0
 40
0.00456693
 41
0.00456693
  0
VERTEX
  8
0
 10
4.27778
 20
25.0701
 30
0.0
 40
0.00456693
 41
0.00456693
  0
VERTEX
  8
0
 10
4.30903
 20
25.0912
 30
0.0
 40
0.00456693
 41
0.00456693
  0
VERTEX
  8
0
 10
4.34739
 20
25.0989
 30
0.0
 40
0.00456693
 41
0.00456693
  0
VERTEX
  8
0
 10
4.38569
 20
25.0912
 30
0.0
 40
0.00456693
 41
0.00456693
  0
VERTEX
  8
0
 10
4.41694
 20
25.0701
 30
0.0
 40
0.00456693
 41
0.00456693
  0
VERTEX
  8
0
 10
4.43804
 20
25.0389
 30
0.0
 40
0.00456693
 41
0.00456693
  0
VERTEX
  8
0
 10
4.44581
 20
25.0006
 30
0.0
 40
0.00456693
 41
0.00456693
  0
SEQEND
 8
0
  0
POLYLINE
  8
0
 62
     0
 66
     1
 10
0
 20
0
 30
0.0
 70
     1
 40
0
 41
0
  0
VERTEX
  8
0
 10
14.1308
 20
24.41
 30
0.0
 40
0
 41
0
  0
VERTEX
  8
0
 10
14.1231
 20
24.3717
 30
0.0
 40
0
 41
0
  0
VERTEX
  8
0
 10
14.1019
 20
24.3404
 30
0.0
 40
0
 41
0
  0
VERTEX
  8
0
 10
14.0707
 20
24.3193
 30
0.0
 40
0
 41
0
  0
VERTEX
  8
0
 10
14.0324
 20
24.3115
 30
0.0
 40
0
 41
0
  0
VERTEX
  8
0
 10
13.994
 20
24.3193
 30
0.0
 40
0
 41
0
  0
VERTEX
  8
0
 10
13.9628
 20
24.3404
 30
0.0
 40
0
 41
0
  0
VERTEX
  8
0
 10
13.9417
 20
24.3717
 30
0.0
 40
0
 41
0
  0
VERTEX
  8
0
 10
13.934
 20
24.41
 30
0.0
 40
0
 41
0
  0
VERTEX
  8
0
 10
13.9417
 20
24.4483
 30
0.0
 40
0
 41
0
  0
VERTEX
  8
0
 10
13.9628
 20
24.4796
 30
0.0
 40
0
 41
0
  0
VERTEX
  8
0
 10
13.994
 20
24.5007
 30
0.0
 40
0
 41
0
  0
VERTEX
  8
0
 10
14.0324
 20
24.5085
 30
0.0
 40
0
 41
0
  0
VERTEX
  8
0
 10
14.0707
 20
24.5007
 30
0.0
 40
0
 41
0
  0
VERTEX
  8
0
 10
14.1019
 20
24.4796
 30
0.0
 40
0
 41
0
  0
VERTEX
  8
0
 10
14.1231
 20
24.4483
 30
0.0
 40
0
 41
0
  0
VERTEX
  8
0
 10
14.1308
 20
24.41
 30
0.0
 40
0
 41
0
  0
SEQEND
 8
0
  0
POLYLINE
  8
0
 62
     0
 66
     1
 10
0
 20
0
 30
0.0
 70
     1
 40
0.329829
 41
0.329829
  0
VERTEX
  8
0
 10
14.1308
 20
24.41
 30
0.0
 40
0.00458096
 41
0.00458096
  0
VERTEX
  8
0
 10
14.1231
 20
24.3717
 30
0.0
 40
0.00458096
 41
0.00458096
  0
VERTEX
  8
0
 10
14.1019
 20
24.3404
 30
0.0
 40
0.00458096
 41
0.00458096
  0
VERTEX
  8
0
 10
14.0707
 20
24.3193
 30
0.0
 40
0.00458096
 41
0.00458096
  0
VERTEX
  8
0
 10
14.0324
 20
24.3115
 30
0.0
 40
0.00458096
 41
0.00458096
  0
VERTEX
  8
0
 10
13.994
 20
24.3193
 30
0.0
 40
0.00458096
 41
0.00458096
  0
VERTEX
  8
0
 10
13.9628
 20
24.3404
 30
0.0
 40
0.00458096
 41
0.00458096
  0
VERTEX
  8
0
 10
13.9417
 20
24.3717
 30
0.0
 40
0.00458096
 41
0.00458096
  0
VERTEX
  8
0
 10
13.934
 20
24.41
 30
0.0
 40
0.00458096
 41
0.00458096
  0
VERTEX
  8
0
 10
13.9417
 20
24.4483
 30
0.0
 40
0.00458096
 41
0.00458096
  0
VERTEX
  8
0
 10
13.9628
 20
24.4796
 30
0.0
 40
0.00458096
 41
0.00458096
  0
VERTEX
  8
0
 10
13.994
 20
24.5007
 30
0.0
 40
0.00458096
 41
0.00458096
  0
VERTEX
  8
0
 10
14.0324
 20
24.5085
 30
0.0
 40
0.00458096
 41
0.00458096
  0
VERTEX
  8
0
 10
14.0707
 20
24.5007
 30
0.0
 40
0.00458096
 41
0.00458096
  0
VERTEX
  8
0
 10
14.1019
 20
24.4796
 30
0.0
 40
0.00458096
 41
0.00458096
  0
VERTEX
  8
0
 10
14.1231
 20
24.4483
 30
0.0
 40
0.00458096
 41
0.00458096
  0
VERTEX
  8
0
 10
14.1308
 20
24.41
 30
0.0
 40
0.00458096
 41
0.00458096
  0
SEQEND
 8
0
  0
POLYLINE
  8
0
 62
     0
 66
     1
 10
0
 20
0
 30
0.0
 70
     1
 40
0
 41
0
  0
VERTEX
  8
0
 10
10.3513
 20
24.41
 30
0.0
 40
0
 41
0
  0
VERTEX
  8
0
 10
10.3435
 20
24.3717
 30
0.0
 40
0
 41
0
  0
VERTEX
  8
0
 10
10.3224
 20
24.3404
 30
0.0
 40
0
 41
0
  0
VERTEX
  8
0
 10
10.2912
 20
24.3193
 30
0.0
 40
0
 41
0
  0
VERTEX
  8
0
 10
10.2529
 20
24.3115
 30
0.0
 40
0
 41
0
  0
VERTEX
  8
0
 10
10.2145
 20
24.3193
 30
0.0
 40
0
 41
0
  0
VERTEX
  8
0
 10
10.1833
 20
24.3404
 30
0.0
 40
0
 41
0
  0
VERTEX
  8
0
 10
10.1622
 20
24.3717
 30
0.0
 40
0
 41
0
  0
VERTEX
  8
0
 10
10.1545
 20
24.41
 30
0.0
 40
0
 41
0
  0
VERTEX
  8
0
 10
10.1622
 20
24.4483
 30
0.0
 40
0
 41
0
  0
VERTEX
  8
0
 10
10.1833
 20
24.4796
 30
0.0
 40
0
 41
0
  0
VERTEX
  8
0
 10
10.2145
 20
24.5007
 30
0.0
 40
0
 41
0
  0
VERTEX
  8
0
 10
10.2529
 20
24.5085
 30
0.0
 40
0
 41
0
  0
VERTEX
  8
0
 10
10.2912
 20
24.5007
 30
0.0
 40
0
 41
0
  0
VERTEX
  8
0
 10
10.3224
 20
24.4796
 30
0.0
 40
0
 41
0
  0
VERTEX
  8
0
 10
10.3435
 20
24.4483
 30
0.0
 40
0
 41
0
  0
VERTEX
  8
0
 10
10.3513
 20
24.41
 30
0.0
 40
0
 41
0
  0
SEQEND
 8
0
  0
POLYLINE
  8
0
 62
     0
 66
     1
 10
0
 20
0
 30
0.0
 70
     1
 40
0.329829
 41
0.329829
  0
VERTEX
  8
0
 10
10.3513
 20
24.41
 30
0.0
 40
0.00458096
 41
0.00458096
  0
VERTEX
  8
0
 10
10.3435
 20
24.3717
 30
0.0
 40
0.00458096
 41
0.00458096
  0
VERTEX
  8
0
 10
10.3224
 20
24.3404
 30
0.0
 40
0.00458096
 41
0.00458096
  0
VERTEX
  8
0
 10
10.2912
 20
24.3193
 30
0.0
 40
0.00458096
 41
0.00458096
  0
VERTEX
  8
0
 10
10.2529
 20
24.3115
 30
0.0
 40
0.00458096
 41
0.00458096
  0
VERTEX
  8
0
 10
10.2145
 20
24.3193
 30
0.0
 40
0.00458096
 41
0.00458096
  0
VERTEX
  8
0
 10
10.1833
 20
24.3404
 30
0.0
 40
0.00458096
 41
0.00458096
  0
VERTEX
  8
0
 10
10.1622
 20
24.3717
 30
0.0
 40
0.00458096
 41
0.00458096
  0
VERTEX
  8
0
 10
10.1545
 20
24.41
 30
0.0
 40
0.00458096
 41
0.00458096
  0
VERTEX
  8
0
 10
10.1622
 20
24.4483
 30
0.0
 40
0.00458096
 41
0.00458096
  0
VERTEX
  8
0
 10
10.1833
 20
24.4796
 30
0.0
 40
0.00458096
 41
0.00458096
  0
VERTEX
  8
0
 10
10.2145
 20
24.5007
 30
0.0
 40
0.00458096
 41
0.00458096
  0
VERTEX
  8
0
 10
10.2529
 20
24.5085
 30
0.0
 40
0.00458096
 41
0.00458096
  0
VERTEX
  8
0
 10
10.2912
 20
24.5007
 30
0.0
 40
0.00458096
 41
0.00458096
  0
VERTEX
  8
0
 10
10.3224
 20
24.4796
 30
0.0
 40
0.00458096
 41
0.00458096
  0
VERTEX
  8
0
 10
10.3435
 20
24.4483
 30
0.0
 40
0.00458096
 41
0.00458096
  0
VERTEX
  8
0
 10
10.3513
 20
24.41
 30
0.0
 40
0.00458096
 41
0.00458096
  0
SEQEND
 8
0
  0
POLYLINE
  8
0
 62
     0
 66
     1
 10
0
 20
0
 30
0.0
 70
     1
 40
0
 41
0
  0
VERTEX
  8
0
 10
20.0364
 20
25.0006
 30
0.0
 40
0
 41
0
  0
VERTEX
  8
0
 10
20.0286
 20
24.9622
 30
0.0
 40
0
 41
0
  0
VERTEX
  8
0
 10
20.0075
 20
24.931
 30
0.0
 40
0
 41
0
  0
VERTEX
  8
0
 10
19.9763
 20
24.9099
 30
0.0
 40
0
 41
0
  0
VERTEX
  8
0
 10
19.9379
 20
24.9021
 30
0.0
 40
0
 41
0
  0
VERTEX
  8
0
 10
19.8996
 20
24.9099
 30
0.0
 40
0
 41
0
  0
VERTEX
  8
0
 10
19.8683
 20
24.931
 30
0.0
 40
0
 41
0
  0
VERTEX
  8
0
 10
19.8472
 20
24.9622
 30
0.0
 40
0
 41
0
  0
VERTEX
  8
0
 10
19.8396
 20
25.0006
 30
0.0
 40
0
 41
0
  0
VERTEX
  8
0
 10
19.8472
 20
25.0389
 30
0.0
 40
0
 41
0
  0
VERTEX
  8
0
 10
19.8683
 20
25.0701
 30
0.0
 40
0
 41
0
  0
VERTEX
  8
0
 10
19.8996
 20
25.0912
 30
0.0
 40
0
 41
0
  0
VERTEX
  8
0
 10
19.9379
 20
25.0989
 30
0.0
 40
0
 41
0
  0
VERTEX
  8
0
 10
19.9763
 20
25.0912
 30
0.0
 40
0
 41
0
  0
VERTEX
  8
0
 10
20.0075
 20
25.0701
 30
0.0
 40
0
 41
0
  0
VERTEX
  8
0
 10
20.0286
 20
25.0389
 30
0.0
 40
0
 41
0
  0
VERTEX
  8
0
 10
20.0364
 20
25.0006
 30
0.0
 40
0
 41
0
  0
SEQEND
 8
0
  0
POLYLINE
  8
0
 62
     0
 66
     1
 10
0
 20
0
 30
0.0
 70
     1
 40
0.329829
 41
0.329829
  0
VERTEX
  8
0
 10
20.0364
 20
25.0006
 30
0.0
 40
0.00458096
 41
0.00458096
  0
VERTEX
  8
0
 10
20.0286
 20
24.9622
 30
0.0
 40
0.00458096
 41
0.00458096
  0
VERTEX
  8
0
 10
20.0075
 20
24.931
 30
0.0
 40
0.00458096
 41
0.00458096
  0
VERTEX
  8
0
 10
19.9763
 20
24.9099
 30
0.0
 40
0.00458096
 41
0.00458096
  0
VERTEX
  8
0
 10
19.9379
 20
24.9021
 30
0.0
 40
0.00458096
 41
0.00458096
  0
VERTEX
  8
0
 10
19.8996
 20
24.9099
 30
0.0
 40
0.00458096
 41
0.00458096
  0
VERTEX
  8
0
 10
19.8683
 20
24.931
 30
0.0
 40
0.00458096
 41
0.00458096
  0
VERTEX
  8
0
 10
19.8472
 20
24.9622
 30
0.0
 40
0.00458096
 41
0.00458096
  0
VERTEX
  8
0
 10
19.8396
 20
25.0006
 30
0.0
 40
0.00458096
 41
0.00458096
  0
VERTEX
  8
0
 10
19.8472
 20
25.0389
 30
0.0
 40
0.00458096
 41
0.00458096
  0
VERTEX
  8
0
 10
19.8683
 20
25.0701
 30
0.0
 40
0.00458096
 41
0.00458096
  0
VERTEX
  8
0
 10
19.8996
 20
25.0912
 30
0.0
 40
0.00458096
 41
0.00458096
  0
VERTEX
  8
0
 10
19.9379
 20
25.0989
 30
0.0
 40
0.00458096
 41
0.00458096
  0
VERTEX
  8
0
 10
19.9763
 20
25.0912
 30
0.0
 40
0.00458096
 41
0.00458096
  0
VERTEX
  8
0
 10
20.0075
 20
25.0701
 30
0.0
 40
0.00458096
 41
0.00458096
  0
VERTEX
  8
0
 10
20.0286
 20
25.0389
 30
0.0
 40
0.00458096
 41
0.00458096
  0
VERTEX
  8
0
 10
20.0364
 20
25.0006
 30
0.0
 40
0.00458096
 41
0.00458096
  0
SEQEND
 8
0
  0
POLYLINE
  8
0
 62
     0
 66
     1
 10
0
 20
0
 30
0.0
 70
     1
 40
0
 41
0
  0
VERTEX
  8
0
 10
16.2568
 20
25.0006
 30
0.0
 40
0
 41
0
  0
VERTEX
  8
0
 10
16.249
 20
24.9622
 30
0.0
 40
0
 41
0
  0
VERTEX
  8
0
 10
16.2279
 20
24.931
 30
0.0
 40
0
 41
0
  0
VERTEX
  8
0
 10
16.1967
 20
24.9099
 30
0.0
 40
0
 41
0
  0
VERTEX
  8
0
 10
16.1585
 20
24.9021
 30
0.0
 40
0
 41
0
  0
VERTEX
  8
0
 10
16.12
 20
24.9099
 30
0.0
 40
0
 41
0
  0
VERTEX
  8
0
 10
16.0888
 20
24.931
 30
0.0
 40
0
 41
0
  0
VERTEX
  8
0
 10
16.0676
 20
24.9622
 30
0.0
 40
0
 41
0
  0
VERTEX
  8
0
 10
16.06
 20
25.0006
 30
0.0
 40
0
 41
0
  0
VERTEX
  8
0
 10
16.0676
 20
25.0389
 30
0.0
 40
0
 41
0
  0
VERTEX
  8
0
 10
16.0888
 20
25.0701
 30
0.0
 40
0
 41
0
  0
VERTEX
  8
0
 10
16.12
 20
25.0912
 30
0.0
 40
0
 41
0
  0
VERTEX
  8
0
 10
16.1585
 20
25.0989
 30
0.0
 40
0
 41
0
  0
VERTEX
  8
0
 10
16.1967
 20
25.0912
 30
0.0
 40
0
 41
0
  0
VERTEX
  8
0
 10
16.2279
 20
25.0701
 30
0.0
 40
0
 41
0
  0
VERTEX
  8
0
 10
16.249
 20
25.0389
 30
0.0
 40
0
 41
0
  0
VERTEX
  8
0
 10
16.2568
 20
25.0006
 30
0.0
 40
0
 41
0
  0
SEQEND
 8
0
  0
POLYLINE
  8
0
 62
     0
 66
     1
 10
0
 20
0
 30
0.0
 70
     1
 40
0.329829
 41
0.329829
  0
VERTEX
  8
0
 10
16.2568
 20
25.0006
 30
0.0
 40
0.00458096
 41
0.00458096
  0
VERTEX
  8
0
 10
16.249
 20
24.9622
 30
0.0
 40
0.00458096
 41
0.00458096
  0
VERTEX
  8
0
 10
16.2279
 20
24.931
 30
0.0
 40
0.00458096
 41
0.00458096
  0
VERTEX
  8
0
 10
16.1967
 20
24.9099
 30
0.0
 40
0.00458096
 41
0.00458096
  0
VERTEX
  8
0
 10
16.1585
 20
24.9021
 30
0.0
 40
0.00458096
 41
0.00458096
  0
VERTEX
  8
0
 10
16.12
 20
24.9099
 30
0.0
 40
0.00458096
 41
0.00458096
  0
VERTEX
  8
0
 10
16.0888
 20
24.931
 30
0.0
 40
0.00458096
 41
0.00458096
  0
VERTEX
  8
0
 10
16.0676
 20
24.9622
 30
0.0
 40
0.00458096
 41
0.00458096
  0
VERTEX
  8
0
 10
16.06
 20
25.0006
 30
0.0
 40
0.00458096
 41
0.00458096
  0
VERTEX
  8
0
 10
16.0676
 20
25.0389
 30
0.0
 40
0.00458096
 41
0.00458096
  0
VERTEX
  8
0
 10
16.0888
 20
25.0701
 30
0.0
 40
0.00458096
 41
0.00458096
  0
VERTEX
  8
0
 10
16.12
 20
25.0912
 30
0.0
 40
0.00458096
 41
0.00458096
  0
VERTEX
  8
0
 10
16.1585
 20
25.0989
 30
0.0
 40
0.00458096
 41
0.00458096
  0
VERTEX
  8
0
 10
16.1967
 20
25.0912
 30
0.0
 40
0.00458096
 41
0.00458096
  0
VERTEX
  8
0
 10
16.2279
 20
25.0701
 30
0.0
 40
0.00458096
 41
0.00458096
  0
VERTEX
  8
0
 10
16.249
 20
25.0389
 30
0.0
 40
0.00458096
 41
0.00458096
  0
VERTEX
  8
0
 10
16.2568
 20
25.0006
 30
0.0
 40
0.00458096
 41
0.00458096
  0
SEQEND
 8
0
  0
POLYLINE
  8
0
 62
     0
 66
     1
 10
0
 20
0
 30
0.0
 70
     1
 40
0
 41
0
  0
VERTEX
  8
0
 10
6.63081
 20
24.3312
 30
0.0
 40
0
 41
0
  0
VERTEX
  8
0
 10
6.62304
 20
24.2929
 30
0.0
 40
0
 41
0
  0
VERTEX
  8
0
 10
6.60194
 20
24.2617
 30
0.0
 40
0
 41
0
  0
VERTEX
  8
0
 10
6.57069
 20
24.2406
 30
0.0
 40
0
 41
0
  0
VERTEX
  8
0
 10
6.53239
 20
24.2329
 30
0.0
 40
0
 41
0
  0
VERTEX
  8
0
 10
6.49403
 20
24.2406
 30
0.0
 40
0
 41
0
  0
VERTEX
  8
0
 10
6.46278
 20
24.2617
 30
0.0
 40
0
 41
0
  0
VERTEX
  8
0
 10
6.44168
 20
24.2929
 30
0.0
 40
0
 41
0
  0
VERTEX
  8
0
 10
6.43397
 20
24.3312
 30
0.0
 40
0
 41
0
  0
VERTEX
  8
0
 10
6.44168
 20
24.3696
 30
0.0
 40
0
 41
0
  0
VERTEX
  8
0
 10
6.46278
 20
24.4008
 30
0.0
 40
0
 41
0
  0
VERTEX
  8
0
 10
6.49403
 20
24.4219
 30
0.0
 40
0
 41
0
  0
VERTEX
  8
0
 10
6.53239
 20
24.4297
 30
0.0
 40
0
 41
0
  0
VERTEX
  8
0
 10
6.57069
 20
24.4219
 30
0.0
 40
0
 41
0
  0
VERTEX
  8
0
 10
6.60194
 20
24.4008
 30
0.0
 40
0
 41
0
  0
VERTEX
  8
0
 10
6.62304
 20
24.3696
 30
0.0
 40
0
 41
0
  0
VERTEX
  8
0
 10
6.63081
 20
24.3312
 30
0.0
 40
0
 41
0
  0
SEQEND
 8
0
  0
POLYLINE
  8
0
 62
     0
 66
     1
 10
0
 20
0
 30
0.0
 70
     1
 40
0.328819
 41
0.328819
  0
VERTEX
  8
0
 10
6.63081
 20
24.3312
 30
0.0
 40
0.00456693
 41
0.00456693
  0
VERTEX
  8
0
 10
6.62304
 20
24.2929
 30
0.0
 40
0.00456693
 41
0.00456693
  0
VERTEX
  8
0
 10
6.60194
 20
24.2617
 30
0.0
 40
0.00456693
 41
0.00456693
  0
VERTEX
  8
0
 10
6.57069
 20
24.2406
 30
0.0
 40
0.00456693
 41
0.00456693
  0
VERTEX
  8
0
 10
6.53239
 20
24.2329
 30
0.0
 40
0.00456693
 41
0.00456693
  0
VERTEX
  8
0
 10
6.49403
 20
24.2406
 30
0.0
 40
0.00456693
 41
0.00456693
  0
VERTEX
  8
0
 10
6.46278
 20
24.2617
 30
0.0
 40
0.00456693
 41
0.00456693
  0
VERTEX
  8
0
 10
6.44168
 20
24.2929
 30
0.0
 40
0.00456693
 41
0.00456693
  0
VERTEX
  8
0
 10
6.43397
 20
24.3312
 30
0.0
 40
0.00456693
 41
0.00456693
  0
VERTEX
  8
0
 10
6.44168
 20
24.3696
 30
0.0
 40
0.00456693
 41
0.00456693
  0
VERTEX
  8
0
 10
6.46278
 20
24.4008
 30
0.0
 40
0.00456693
 41
0.00456693
  0
VERTEX
  8
0
 10
6.49403
 20
24.4219
 30
0.0
 40
0.00456693
 41
0.00456693
  0
VERTEX
  8
0
 10
6.53239
 20
24.4297
 30
0.0
 40
0.00456693
 41
0.00456693
  0
VERTEX
  8
0
 10
6.57069
 20
24.4219
 30
0.0
 40
0.00456693
 41
0.00456693
  0
VERTEX
  8
0
 10
6.60194
 20
24.4008
 30
0.0
 40
0.00456693
 41
0.00456693
  0
VERTEX
  8
0
 10
6.62304
 20
24.3696
 30
0.0
 40
0.00456693
 41
0.00456693
  0
VERTEX
  8
0
 10
6.63081
 20
24.3312
 30
0.0
 40
0.00456693
 41
0.00456693
  0
SEQEND
 8
0
  0
POLYLINE
  8
0
 62
     0
 66
     1
 10
0
 20
0
 30
0.0
 70
     1
 40
0
 41
0
  0
VERTEX
  8
0
 10
17.8513
 20
24.3312
 30
0.0
 40
0
 41
0
  0
VERTEX
  8
0
 10
17.8435
 20
24.2929
 30
0.0
 40
0
 41
0
  0
VERTEX
  8
0
 10
17.8224
 20
24.2617
 30
0.0
 40
0
 41
0
  0
VERTEX
  8
0
 10
17.7911
 20
24.2406
 30
0.0
 40
0
 41
0
  0
VERTEX
  8
0
 10
17.7529
 20
24.2329
 30
0.0
 40
0
 41
0
  0
VERTEX
  8
0
 10
17.7146
 20
24.2406
 30
0.0
 40
0
 41
0
  0
VERTEX
  8
0
 10
17.6833
 20
24.2617
 30
0.0
 40
0
 41
0
  0
VERTEX
  8
0
 10
17.6622
 20
24.2929
 30
0.0
 40
0
 41
0
  0
VERTEX
  8
0
 10
17.6544
 20
24.3312
 30
0.0
 40
0
 41
0
  0
VERTEX
  8
0
 10
17.6622
 20
24.3696
 30
0.0
 40
0
 41
0
  0
VERTEX
  8
0
 10
17.6833
 20
24.4008
 30
0.0
 40
0
 41
0
  0
VERTEX
  8
0
 10
17.7146
 20
24.4219
 30
0.0
 40
0
 41
0
  0
VERTEX
  8
0
 10
17.7529
 20
24.4297
 30
0.0
 40
0
 41
0
  0
VERTEX
  8
0
 10
17.7911
 20
24.4219
 30
0.0
 40
0
 41
0
  0
VERTEX
  8
0
 10
17.8224
 20
24.4008
 30
0.0
 40
0
 41
0
  0
VERTEX
  8
0
 10
17.8435
 20
24.3696
 30
0.0
 40
0
 41
0
  0
VERTEX
  8
0
 10
17.8513
 20
24.3312
 30
0.0
 40
0
 41
0
  0
SEQEND
 8
0
  0
POLYLINE
  8
0
 62
     0
 66
     1
 10
0
 20
0
 30
0.0
 70
     1
 40
0.328819
 41
0.328819
  0
VERTEX
  8
0
 10
17.8513
 20
24.3312
 30
0.0
 40
0.00456693
 41
0.00456693
  0
VERTEX
  8
0
 10
17.8435
 20
24.2929
 30
0.0
 40
0.00456693
 41
0.00456693
  0
VERTEX
  8
0
 10
17.8224
 20
24.2617
 30
0.0
 40
0.00456693
 41
0.00456693
  0
VERTEX
  8
0
 10
17.7911
 20
24.2406
 30
0.0
 40
0.00456693
 41
0.00456693
  0
VERTEX
  8
0
 10
17.7529
 20
24.2329
 30
0.0
 40
0.00456693
 41
0.00456693
  0
VERTEX
  8
0
 10
17.7146
 20
24.2406
 30
0.0
 40
0.00456693
 41
0.00456693
  0
VERTEX
  8
0
 10
17.6833
 20
24.2617
 30
0.0
 40
0.00456693
 41
0.00456693
  0
VERTEX
  8
0
 10
17.6622
 20
24.2929
 30
0.0
 40
0.00456693
 41
0.00456693
  0
VERTEX
  8
0
 10
17.6544
 20
24.3312
 30
0.0
 40
0.00456693
 41
0.00456693
  0
VERTEX
  8
0
 10
17.6622
 20
24.3696
 30
0.0
 40
0.00456693
 41
0.00456693
  0
VERTEX
  8
0
 10
17.6833
 20
24.4008
 30
0.0
 40
0.00456693
 41
0.00456693
  0
VERTEX
  8
0
 10
17.7146
 20
24.4219
 30
0.0
 40
0.00456693
 41
0.00456693
  0
VERTEX
  8
0
 10
17.7529
 20
24.4297
 30
0.0
 40
0.00456693
 41
0.00456693
  0
VERTEX
  8
0
 10
17.7911
 20
24.4219
 30
0.0
 40
0.00456693
 41
0.00456693
  0
VERTEX
  8
0
 10
17.8224
 20
24.4008
 30
0.0
 40
0.00456693
 41
0.00456693
  0
VERTEX
  8
0
 10
17.8435
 20
24.3696
 30
0.0
 40
0.00456693
 41
0.00456693
  0
VERTEX
  8
0
 10
17.8513
 20
24.3312
 30
0.0
 40
0.00456693
 41
0.00456693
  0
SEQEND
 8
0
  0
POLYLINE
  8
0
 62
     0
 66
     1
 10
0
 20
0
 30
0.0
 70
     1
 40
0.402663
 41
0.402663
  0
VERTEX
  8
0
 10
4.29135
 20
18.2065
 30
0.0
 40
0.00559254
 41
0.00559254
  0
VERTEX
  8
0
 10
4.2915
 20
18.2064
 30
0.0
 40
0.00559254
 41
0.00559254
  0
VERTEX
  8
0
 10
4.2915
 20
18.2065
 30
0.0
 40
0.00559254
 41
0.00559254
  0
VERTEX
  8
0
 10
4.29135
 20
18.2065
 30
0.0
 40
0.00559254
 41
0.00559254
  0
SEQEND
 8
0
  0
POLYLINE
  8
0
 62
     0
 66
     1
 10
0
 20
0
 30
0.0
 70
     1
 40
0.402663
 41
0.402663
  0
VERTEX
  8
0
 10
4.2915
 20
18.2064
 30
0.0
 40
0.00559254
 41
0.00559254
  0
VERTEX
  8
0
 10
3.89458
 20
18.2014
 30
0.0
 40
0.00559254
 41
0.00559254
  0
VERTEX
  8
0
 10
3.88699
 20
18.2011
 30
0.0
 40
0.00559254
 41
0.00559254
  0
VERTEX
  8
0
 10
3.85721
 20
18.1997
 30
0.0
 40
0.00559254
 41
0.00559254
  0
VERTEX
  8
0
 10
3.6409
 20
18.1846
 30
0.0
 40
0.00559254
 41
0.00559254
  0
VERTEX
  8
0
 10
3.4324
 20
18.1553
 30
0.0
 40
0.00559254
 41
0.00559254
  0
VERTEX
  8
0
 10
3.23828
 20
18.1071
 30
0.0
 40
0.00559254
 41
0.00559254
  0
VERTEX
  8
0
 10
3.06494
 20
18.0353
 30
0.0
 40
0.00559254
 41
0.00559254
  0
VERTEX
  8
0
 10
2.91894
 20
17.9353
 30
0.0
 40
0.00559254
 41
0.00559254
  0
VERTEX
  8
0
 10
2.80686
 20
17.8024
 30
0.0
 40
0.00559254
 41
0.00559254
  0
VERTEX
  8
0
 10
2.73508
 20
17.6318
 30
0.0
 40
0.00559254
 41
0.00559254
  0
VERTEX
  8
0
 10
2.71024
 20
17.419
 30
0.0
 40
0.00559254
 41
0.00559254
  0
VERTEX
  8
0
 10
2.71197
 20
17.3828
 30
0.0
 40
0.00559254
 41
0.00559254
  0
VERTEX
  8
0
 10
2.71158
 20
17.3558
 30
0.0
 40
0.00559254
 41
0.00559254
  0
VERTEX
  8
0
 10
2.72299
 20
17.2708
 30
0.0
 40
0.00559254
 41
0.00559254
  0
VERTEX
  8
0
 10
2.75635
 20
17.1764
 30
0.0
 40
0.00559254
 41
0.00559254
  0
VERTEX
  8
0
 10
2.81054
 20
17.0739
 30
0.0
 40
0.00559254
 41
0.00559254
  0
VERTEX
  8
0
 10
2.88444
 20
16.965
 30
0.0
 40
0.00559254
 41
0.00559254
  0
VERTEX
  8
0
 10
2.97683
 20
16.851
 30
0.0
 40
0.00559254
 41
0.00559254
  0
VERTEX
  8
0
 10
3.08664
 20
16.7331
 30
0.0
 40
0.00559254
 41
0.00559254
  0
VERTEX
  8
0
 10
3.21278
 20
16.6128
 30
0.0
 40
0.00559254
 41
0.00559254
  0
VERTEX
  8
0
 10
3.354
 20
16.4915
 30
0.0
 40
0.00559254
 41
0.00559254
  0
VERTEX
  8
0
 10
3.61501
 20
16.3061
 30
0.0
 40
0.00559254
 41
0.00559254
  0
VERTEX
  8
0
 10
3.91319
 20
16.1507
 30
0.0
 40
0.00559254
 41
0.00559254
  0
VERTEX
  8
0
 10
4.24056
 20
16.0215
 30
0.0
 40
0.00559254
 41
0.00559254
  0
VERTEX
  8
0
 10
4.58942
 20
15.9154
 30
0.0
 40
0.00559254
 41
0.00559254
  0
VERTEX
  8
0
 10
4.95193
 20
15.8285
 30
0.0
 40
0.00559254
 41
0.00559254
  0
VERTEX
  8
0
 10
5.32026
 20
15.7572
 30
0.0
 40
0.00559254
 41
0.00559254
  0
VERTEX
  8
0
 10
5.68664
 20
15.6981
 30
0.0
 40
0.00559254
 41
0.00559254
  0
VERTEX
  8
0
 10
6.04324
 20
15.6474
 30
0.0
 40
0.00559254
 41
0.00559254
  0
VERTEX
  8
0
 10
6.7781
 20
15.5793
 30
0.0
 40
0.00559254
 41
0.00559254
  0
VERTEX
  8
0
 10
7.51546
 20
15.5657
 30
0.0
 40
0.00559254
 41
0.00559254
  0
VERTEX
  8
0
 10
8.25483
 20
15.5926
 30
0.0
 40
0.00559254
 41
0.00559254
  0
VERTEX
  8
0
 10
8.99561
 20
15.646
 30
0.0
 40
0.00559254
 41
0.00559254
  0
VERTEX
  8
0
 10
9.73719
 20
15.7118
 30
0.0
 40
0.00559254
 41
0.00559254
  0
VERTEX
  8
0
 10
10.4791
 20
15.7761
 30
0.0
 40
0.00559254
 41
0.00559254
  0
VERTEX
  8
0
 10
11.2207
 20
15.8249
 30
0.0
 40
0.00559254
 41
0.00559254
  0
VERTEX
  8
0
 10
11.9615
 20
15.8443
 30
0.0
 40
0.00559254
 41
0.00559254
  0
VERTEX
  8
0
 10
12.7025
 20
15.8249
 30
0.0
 40
0.00559254
 41
0.00559254
  0
VERTEX
  8
0
 10
13.4443
 20
15.7761
 30
0.0
 40
0.00559254
 41
0.00559254
  0
VERTEX
  8
0
 10
14.1862
 20
15.7118
 30
0.0
 40
0.00559254
 41
0.00559254
  0
VERTEX
  8
0
 10
14.9281
 20
15.6458
 30
0.0
 40
0.00559254
 41
0.00559254
  0
VERTEX
  8
0
 10
15.669
 20
15.5925
 30
0.0
 40
0.00559254
 41
0.00559254
  0
VERTEX
  8
0
 10
16.4086
 20
15.5657
 30
0.0
 40
0.00559254
 41
0.00559254
  0
VERTEX
  8
0
 10
17.1461
 20
15.5793
 30
0.0
 40
0.00559254
 41
0.00559254
  0
VERTEX
  8
0
 10
17.8812
 20
15.6474
 30
0.0
 40
0.00559254
 41
0.00559254
  0
VERTEX
  8
0
 10
18.2378
 20
15.6981
 30
0.0
 40
0.00559254
 41
0.00559254
  0
VERTEX
  8
0
 10
18.6042
 20
15.7572
 30
0.0
 40
0.00559254
 41
0.00559254
  0
VERTEX
  8
0
 10
18.9725
 20
15.8285
 30
0.0
 40
0.00559254
 41
0.00559254
  0
VERTEX
  8
0
 10
19.3349
 20
15.9154
 30
0.0
 40
0.00559254
 41
0.00559254
  0
VERTEX
  8
0
 10
19.6837
 20
16.0215
 30
0.0
 40
0.00559254
 41
0.00559254
  0
VERTEX
  8
0
 10
20.0111
 20
16.1507
 30
0.0
 40
0.00559254
 41
0.00559254
  0
VERTEX
  8
0
 10
20.3093
 20
16.3061
 30
0.0
 40
0.00559254
 41
0.00559254
  0
VERTEX
  8
0
 10
20.5704
 20
16.4915
 30
0.0
 40
0.00559254
 41
0.00559254
  0
VERTEX
  8
0
 10
20.7115
 20
16.6128
 30
0.0
 40
0.00559254
 41
0.00559254
  0
VERTEX
  8
0
 10
20.8376
 20
16.7331
 30
0.0
 40
0.00559254
 41
0.00559254
  0
VERTEX
  8
0
 10
20.9475
 20
16.851
 30
0.0
 40
0.00559254
 41
0.00559254
  0
VERTEX
  8
0
 10
21.04
 20
16.965
 30
0.0
 40
0.00559254
 41
0.00559254
  0
VERTEX
  8
0
 10
21.1139
 20
17.0739
 30
0.0
 40
0.00559254
 41
0.00559254
  0
VERTEX
  8
0
 10
21.1681
 20
17.1764
 30
0.0
 40
0.00559254
 41
0.00559254
  0
VERTEX
  8
0
 10
21.2014
 20
17.2708
 30
0.0
 40
0.00559254
 41
0.00559254
  0
VERTEX
  8
0
 10
21.2128
 20
17.3558
 30
0.0
 40
0.00559254
 41
0.00559254
  0
VERTEX
  8
0
 10
21.2124
 20
17.3828
 30
0.0
 40
0.00559254
 41
0.00559254
  0
VERTEX
  8
0
 10
21.2142
 20
17.419
 30
0.0
 40
0.00559254
 41
0.00559254
  0
VERTEX
  8
0
 10
21.1893
 20
17.6318
 30
0.0
 40
0.00559254
 41
0.00559254
  0
VERTEX
  8
0
 10
21.1175
 20
17.8024
 30
0.0
 40
0.00559254
 41
0.00559254
  0
VERTEX
  8
0
 10
21.0054
 20
17.9353
 30
0.0
 40
0.00559254
 41
0.00559254
  0
VERTEX
  8
0
 10
20.8594
 20
18.0353
 30
0.0
 40
0.00559254
 41
0.00559254
  0
VERTEX
  8
0
 10
20.6861
 20
18.1071
 30
0.0
 40
0.00559254
 41
0.00559254
  0
VERTEX
  8
0
 10
20.4921
 20
18.1553
 30
0.0
 40
0.00559254
 41
0.00559254
  0
VERTEX
  8
0
 10
20.2835
 20
18.1846
 30
0.0
 40
0.00559254
 41
0.00559254
  0
VERTEX
  8
0
 10
20.0672
 20
18.1997
 30
0.0
 40
0.00559254
 41
0.00559254
  0
VERTEX
  8
0
 10
20.0375
 20
18.2011
 30
0.0
 40
0.00559254
 41
0.00559254
  0
VERTEX
  8
0
 10
20.0299
 20
18.2014
 30
0.0
 40
0.00559254
 41
0.00559254
  0
VERTEX
  8
0
 10
19.6329
 20
18.2064
 30
0.0
 40
0.00559254
 41
0.00559254
  0
VERTEX
  8
0
 10
19.6328
 20
18.2064
 30
0.0
 40
0.00559254
 41
0.00559254
  0
VERTEX
  8
0
 10
19.6171
 20
18.175
 30
0.0
 40
0.00559254
 41
0.00559254
  0
VERTEX
  8
0
 10
19.5668
 20
18.0831
 30
0.0
 40
0.00559254
 41
0.00559254
  0
VERTEX
  8
0
 10
19.5667
 20
18.0829
 30
0.0
 40
0.00559254
 41
0.00559254
  0
VERTEX
  8
0
 10
19.4929
 20
17.9656
 30
0.0
 40
0.00559254
 41
0.00559254
  0
VERTEX
  8
0
 10
19.4531
 20
17.909
 30
0.0
 40
0.00559254
 41
0.00559254
  0
VERTEX
  8
0
 10
19.39
 20
17.8276
 30
0.0
 40
0.00559254
 41
0.00559254
  0
VERTEX
  8
0
 10
19.3681
 20
17.8012
 30
0.0
 40
0.00559254
 41
0.00559254
  0
VERTEX
  8
0
 10
19.3231
 20
17.7497
 30
0.0
 40
0.00559254
 41
0.00559254
  0
VERTEX
  8
0
 10
19.2999
 20
17.7247
 30
0.0
 40
0.00559254
 41
0.00559254
  0
VERTEX
  8
0
 10
19.2526
 20
17.6761
 30
0.0
 40
0.00559254
 41
0.00559254
  0
VERTEX
  8
0
 10
19.2525
 20
17.676
 30
0.0
 40
0.00559254
 41
0.00559254
  0
VERTEX
  8
0
 10
19.2482
 20
17.6718
 30
0.0
 40
0.00559254
 41
0.00559254
  0
VERTEX
  8
0
 10
19.1785
 20
17.6061
 30
0.0
 40
0.00559254
 41
0.00559254
  0
VERTEX
  8
0
 10
19.1781
 20
17.6058
 30
0.0
 40
0.00559254
 41
0.00559254
  0
VERTEX
  8
0
 10
19.1776
 20
17.6054
 30
0.0
 40
0.00559254
 41
0.00559254
  0
VERTEX
  8
0
 10
19.1267
 20
17.5615
 30
0.0
 40
0.00559254
 41
0.00559254
  0
VERTEX
  8
0
 10
19.1004
 20
17.54
 30
0.0
 40
0.00559254
 41
0.00559254
  0
VERTEX
  8
0
 10
19.0739
 20
17.5189
 30
0.0
 40
0.00559254
 41
0.00559254
  0
VERTEX
  8
0
 10
19.0469
 20
17.4983
 30
0.0
 40
0.00559254
 41
0.00559254
  0
VERTEX
  8
0
 10
18.9358
 20
17.4207
 30
0.0
 40
0.00559254
 41
0.00559254
  0
VERTEX
  8
0
 10
18.9072
 20
17.4026
 30
0.0
 40
0.00559254
 41
0.00559254
  0
VERTEX
  8
0
 10
18.8493
 20
17.3678
 30
0.0
 40
0.00559254
 41
0.00559254
  0
VERTEX
  8
0
 10
18.8487
 20
17.3674
 30
0.0
 40
0.00559254
 41
0.00559254
  0
VERTEX
  8
0
 10
18.8199
 20
17.3511
 30
0.0
 40
0.00559254
 41
0.00559254
  0
VERTEX
  8
0
 10
18.8119
 20
17.3468
 30
0.0
 40
0.00559254
 41
0.00559254
  0
VERTEX
  8
0
 10
18.7903
 20
17.335
 30
0.0
 40
0.00559254
 41
0.00559254
  0
VERTEX
  8
0
 10
18.7815
 20
17.3304
 30
0.0
 40
0.00559254
 41
0.00559254
  0
VERTEX
  8
0
 10
18.7607
 20
17.3196
 30
0.0
 40
0.00559254
 41
0.00559254
  0
VERTEX
  8
0
 10
18.76
 20
17.3192
 30
0.0
 40
0.00559254
 41
0.00559254
  0
VERTEX
  8
0
 10
18.7299
 20
17.3042
 30
0.0
 40
0.00559254
 41
0.00559254
  0
VERTEX
  8
0
 10
18.725
 20
17.3018
 30
0.0
 40
0.00559254
 41
0.00559254
  0
VERTEX
  8
0
 10
18.699
 20
17.2894
 30
0.0
 40
0.00559254
 41
0.00559254
  0
VERTEX
  8
0
 10
18.6682
 20
17.2753
 30
0.0
 40
0.00559254
 41
0.00559254
  0
VERTEX
  8
0
 10
18.6374
 20
17.2618
 30
0.0
 40
0.00559254
 41
0.00559254
  0
VERTEX
  8
0
 10
18.6336
 20
17.2603
 30
0.0
 40
0.00559254
 41
0.00559254
  0
VERTEX
  8
0
 10
18.6058
 20
17.2486
 30
0.0
 40
0.00559254
 41
0.00559254
  0
VERTEX
  8
0
 10
18.5747
 20
17.2364
 30
0.0
 40
0.00559254
 41
0.00559254
  0
VERTEX
  8
0
 10
18.5672
 20
17.2335
 30
0.0
 40
0.00559254
 41
0.00559254
  0
VERTEX
  8
0
 10
18.5111
 20
17.2131
 30
0.0
 40
0.00559254
 41
0.00559254
  0
VERTEX
  8
0
 10
18.5107
 20
17.2129
 30
0.0
 40
0.00559254
 41
0.00559254
  0
VERTEX
  8
0
 10
18.5014
 20
17.2097
 30
0.0
 40
0.00559254
 41
0.00559254
  0
VERTEX
  8
0
 10
18.4779
 20
17.2018
 30
0.0
 40
0.00559254
 41
0.00559254
  0
VERTEX
  8
0
 10
18.4129
 20
17.1818
 30
0.0
 40
0.00559254
 41
0.00559254
  0
VERTEX
  8
0
 10
18.4083
 20
17.1804
 30
0.0
 40
0.00559254
 41
0.00559254
  0
VERTEX
  8
0
 10
18.3799
 20
17.1725
 30
0.0
 40
0.00559254
 41
0.00559254
  0
VERTEX
  8
0
 10
18.3688
 20
17.1696
 30
0.0
 40
0.00559254
 41
0.00559254
  0
VERTEX
  8
0
 10
18.3468
 20
17.1639
 30
0.0
 40
0.00559254
 41
0.00559254
  0
VERTEX
  8
0
 10
18.3457
 20
17.1636
 30
0.0
 40
0.00559254
 41
0.00559254
  0
VERTEX
  8
0
 10
18.3135
 20
17.1557
 30
0.0
 40
0.00559254
 41
0.00559254
  0
VERTEX
  8
0
 10
18.2803
 20
17.1483
 30
0.0
 40
0.00559254
 41
0.00559254
  0
VERTEX
  8
0
 10
18.2733
 20
17.1468
 30
0.0
 40
0.00559254
 41
0.00559254
  0
VERTEX
  8
0
 10
18.2464
 20
17.1413
 30
0.0
 40
0.00559254
 41
0.00559254
  0
VERTEX
  8
0
 10
18.2126
 20
17.1349
 30
0.0
 40
0.00559254
 41
0.00559254
  0
VERTEX
  8
0
 10
18.1786
 20
17.1292
 30
0.0
 40
0.00559254
 41
0.00559254
  0
VERTEX
  8
0
 10
18.145
 20
17.124
 30
0.0
 40
0.00559254
 41
0.00559254
  0
VERTEX
  8
0
 10
18.1322
 20
17.1222
 30
0.0
 40
0.00559254
 41
0.00559254
  0
VERTEX
  8
0
 10
18.1104
 20
17.1193
 30
0.0
 40
0.00559254
 41
0.00559254
  0
VERTEX
  8
0
 10
18.1026
 20
17.1185
 30
0.0
 40
0.00559254
 41
0.00559254
  0
VERTEX
  8
0
 10
18.0758
 20
17.1153
 30
0.0
 40
0.00559254
 41
0.00559254
  0
VERTEX
  8
0
 10
18.0757
 20
17.1153
 30
0.0
 40
0.00559254
 41
0.00559254
  0
VERTEX
  8
0
 10
18.0717
 20
17.115
 30
0.0
 40
0.00559254
 41
0.00559254
  0
VERTEX
  8
0
 10
18.0414
 20
17.1119
 30
0.0
 40
0.00559254
 41
0.00559254
  0
VERTEX
  8
0
 10
18.0367
 20
17.1115
 30
0.0
 40
0.00559254
 41
0.00559254
  0
VERTEX
  8
0
 10
18.0067
 20
17.1092
 30
0.0
 40
0.00559254
 41
0.00559254
  0
VERTEX
  8
0
 10
18.0025
 20
17.1089
 30
0.0
 40
0.00559254
 41
0.00559254
  0
VERTEX
  8
0
 10
17.9719
 20
17.1069
 30
0.0
 40
0.00559254
 41
0.00559254
  0
VERTEX
  8
0
 10
17.964
 20
17.1067
 30
0.0
 40
0.00559254
 41
0.00559254
  0
VERTEX
  8
0
 10
17.9371
 20
17.1054
 30
0.0
 40
0.00559254
 41
0.00559254
  0
VERTEX
  8
0
 10
17.9278
 20
17.1051
 30
0.0
 40
0.00559254
 41
0.00559254
  0
VERTEX
  8
0
 10
17.9021
 20
17.1044
 30
0.0
 40
0.00559254
 41
0.00559254
  0
VERTEX
  8
0
 10
17.8901
 20
17.1043
 30
0.0
 40
0.00559254
 41
0.00559254
  0
VERTEX
  8
0
 10
17.8672
 20
17.104
 30
0.0
 40
0.00559254
 41
0.00559254
  0
VERTEX
  8
0
 10
17.8443
 20
17.1043
 30
0.0
 40
0.00559254
 41
0.00559254
  0
VERTEX
  8
0
 10
17.8328
 20
17.1044
 30
0.0
 40
0.00559254
 41
0.00559254
  0
VERTEX
  8
0
 10
17.8324
 20
17.1044
 30
0.0
 40
0.00559254
 41
0.00559254
  0
VERTEX
  8
0
 10
17.806
 20
17.1051
 30
0.0
 40
0.00559254
 41
0.00559254
  0
VERTEX
  8
0
 10
17.7974
 20
17.1054
 30
0.0
 40
0.00559254
 41
0.00559254
  0
VERTEX
  8
0
 10
17.7689
 20
17.1067
 30
0.0
 40
0.00559254
 41
0.00559254
  0
VERTEX
  8
0
 10
17.7626
 20
17.1069
 30
0.0
 40
0.00559254
 41
0.00559254
  0
VERTEX
  8
0
 10
17.7333
 20
17.1087
 30
0.0
 40
0.00559254
 41
0.00559254
  0
VERTEX
  8
0
 10
17.7278
 20
17.1092
 30
0.0
 40
0.00559254
 41
0.00559254
  0
VERTEX
  8
0
 10
17.7004
 20
17.1114
 30
0.0
 40
0.00559254
 41
0.00559254
  0
VERTEX
  8
0
 10
17.6931
 20
17.1119
 30
0.0
 40
0.00559254
 41
0.00559254
  0
VERTEX
  8
0
 10
17.6789
 20
17.1133
 30
0.0
 40
0.00559254
 41
0.00559254
  0
VERTEX
  8
0
 10
17.6575
 20
17.1154
 30
0.0
 40
0.00559254
 41
0.00559254
  0
VERTEX
  8
0
 10
17.6243
 20
17.1193
 30
0.0
 40
0.00559254
 41
0.00559254
  0
VERTEX
  8
0
 10
17.6239
 20
17.1194
 30
0.0
 40
0.00559254
 41
0.00559254
  0
VERTEX
  8
0
 10
17.6036
 20
17.1221
 30
0.0
 40
0.00559254
 41
0.00559254
  0
VERTEX
  8
0
 10
17.5894
 20
17.124
 30
0.0
 40
0.00559254
 41
0.00559254
  0
VERTEX
  8
0
 10
17.5738
 20
17.1264
 30
0.0
 40
0.00559254
 41
0.00559254
  0
VERTEX
  8
0
 10
17.5551
 20
17.1292
 30
0.0
 40
0.00559254
 41
0.00559254
  0
VERTEX
  8
0
 10
17.5218
 20
17.1349
 30
0.0
 40
0.00559254
 41
0.00559254
  0
VERTEX
  8
0
 10
17.5061
 20
17.1379
 30
0.0
 40
0.00559254
 41
0.00559254
  0
VERTEX
  8
0
 10
17.4871
 20
17.1415
 30
0.0
 40
0.00559254
 41
0.00559254
  0
VERTEX
  8
0
 10
17.4544
 20
17.1482
 30
0.0
 40
0.00559254
 41
0.00559254
  0
VERTEX
  8
0
 10
17.4539
 20
17.1483
 30
0.0
 40
0.00559254
 41
0.00559254
  0
VERTEX
  8
0
 10
17.421
 20
17.1557
 30
0.0
 40
0.00559254
 41
0.00559254
  0
VERTEX
  8
0
 10
17.4049
 20
17.1597
 30
0.0
 40
0.00559254
 41
0.00559254
  0
VERTEX
  8
0
 10
17.3867
 20
17.1642
 30
0.0
 40
0.00559254
 41
0.00559254
  0
VERTEX
  8
0
 10
17.3537
 20
17.1726
 30
0.0
 40
0.00559254
 41
0.00559254
  0
VERTEX
  8
0
 10
17.3217
 20
17.1818
 30
0.0
 40
0.00559254
 41
0.00559254
  0
VERTEX
  8
0
 10
17.2996
 20
17.1883
 30
0.0
 40
0.00559254
 41
0.00559254
  0
VERTEX
  8
0
 10
17.2885
 20
17.1917
 30
0.0
 40
0.00559254
 41
0.00559254
  0
VERTEX
  8
0
 10
17.2564
 20
17.2019
 30
0.0
 40
0.00559254
 41
0.00559254
  0
VERTEX
  8
0
 10
17.2354
 20
17.2089
 30
0.0
 40
0.00559254
 41
0.00559254
  0
VERTEX
  8
0
 10
17.2236
 20
17.2129
 30
0.0
 40
0.00559254
 41
0.00559254
  0
VERTEX
  8
0
 10
17.2083
 20
17.2185
 30
0.0
 40
0.00559254
 41
0.00559254
  0
VERTEX
  8
0
 10
17.1917
 20
17.2243
 30
0.0
 40
0.00559254
 41
0.00559254
  0
VERTEX
  8
0
 10
17.1772
 20
17.2297
 30
0.0
 40
0.00559254
 41
0.00559254
  0
VERTEX
  8
0
 10
17.1597
 20
17.2364
 30
0.0
 40
0.00559254
 41
0.00559254
  0
VERTEX
  8
0
 10
17.1406
 20
17.244
 30
0.0
 40
0.00559254
 41
0.00559254
  0
VERTEX
  8
0
 10
17.1286
 20
17.2488
 30
0.0
 40
0.00559254
 41
0.00559254
  0
VERTEX
  8
0
 10
17.1033
 20
17.2593
 30
0.0
 40
0.00559254
 41
0.00559254
  0
VERTEX
  8
0
 10
17.0965
 20
17.2621
 30
0.0
 40
0.00559254
 41
0.00559254
  0
VERTEX
  8
0
 10
17.0663
 20
17.2753
 30
0.0
 40
0.00559254
 41
0.00559254
  0
VERTEX
  8
0
 10
17.0354
 20
17.2894
 30
0.0
 40
0.00559254
 41
0.00559254
  0
VERTEX
  8
0
 10
17.0094
 20
17.3018
 30
0.0
 40
0.00559254
 41
0.00559254
  0
VERTEX
  8
0
 10
17.0046
 20
17.3042
 30
0.0
 40
0.00559254
 41
0.00559254
  0
VERTEX
  8
0
 10
16.9893
 20
17.3118
 30
0.0
 40
0.00559254
 41
0.00559254
  0
VERTEX
  8
0
 10
16.974
 20
17.3194
 30
0.0
 40
0.00559254
 41
0.00559254
  0
VERTEX
  8
0
 10
16.9621
 20
17.3257
 30
0.0
 40
0.00559254
 41
0.00559254
  0
VERTEX
  8
0
 10
16.9442
 20
17.335
 30
0.0
 40
0.00559254
 41
0.00559254
  0
VERTEX
  8
0
 10
16.9225
 20
17.3468
 30
0.0
 40
0.00559254
 41
0.00559254
  0
VERTEX
  8
0
 10
16.9146
 20
17.3511
 30
0.0
 40
0.00559254
 41
0.00559254
  0
VERTEX
  8
0
 10
16.8999
 20
17.3594
 30
0.0
 40
0.00559254
 41
0.00559254
  0
VERTEX
  8
0
 10
16.8851
 20
17.3678
 30
0.0
 40
0.00559254
 41
0.00559254
  0
VERTEX
  8
0
 10
16.8826
 20
17.3693
 30
0.0
 40
0.00559254
 41
0.00559254
  0
VERTEX
  8
0
 10
16.8554
 20
17.3853
 30
0.0
 40
0.00559254
 41
0.00559254
  0
VERTEX
  8
0
 10
16.8265
 20
17.4031
 30
0.0
 40
0.00559254
 41
0.00559254
  0
VERTEX
  8
0
 10
16.7986
 20
17.4208
 30
0.0
 40
0.00559254
 41
0.00559254
  0
VERTEX
  8
0
 10
16.7982
 20
17.4211
 30
0.0
 40
0.00559254
 41
0.00559254
  0
VERTEX
  8
0
 10
16.791
 20
17.4258
 30
0.0
 40
0.00559254
 41
0.00559254
  0
VERTEX
  8
0
 10
16.7699
 20
17.4397
 30
0.0
 40
0.00559254
 41
0.00559254
  0
VERTEX
  8
0
 10
16.7643
 20
17.4435
 30
0.0
 40
0.00559254
 41
0.00559254
  0
VERTEX
  8
0
 10
16.7419
 20
17.4589
 30
0.0
 40
0.00559254
 41
0.00559254
  0
VERTEX
  8
0
 10
16.7393
 20
17.4608
 30
0.0
 40
0.00559254
 41
0.00559254
  0
VERTEX
  8
0
 10
16.7143
 20
17.4786
 30
0.0
 40
0.00559254
 41
0.00559254
  0
VERTEX
  8
0
 10
16.6875
 20
17.4983
 30
0.0
 40
0.00559254
 41
0.00559254
  0
VERTEX
  8
0
 10
16.6869
 20
17.4986
 30
0.0
 40
0.00559254
 41
0.00559254
  0
VERTEX
  8
0
 10
16.6749
 20
17.5079
 30
0.0
 40
0.00559254
 41
0.00559254
  0
VERTEX
  8
0
 10
16.6601
 20
17.5193
 30
0.0
 40
0.00559254
 41
0.00559254
  0
VERTEX
  8
0
 10
16.6339
 20
17.54
 30
0.0
 40
0.00559254
 41
0.00559254
  0
VERTEX
  8
0
 10
16.6339
 20
17.5401
 30
0.0
 40
0.00559254
 41
0.00559254
  0
VERTEX
  8
0
 10
16.6211
 20
17.5504
 30
0.0
 40
0.00559254
 41
0.00559254
  0
VERTEX
  8
0
 10
16.6074
 20
17.5618
 30
0.0
 40
0.00559254
 41
0.00559254
  0
VERTEX
  8
0
 10
16.6029
 20
17.5656
 30
0.0
 40
0.00559254
 41
0.00559254
  0
VERTEX
  8
0
 10
16.5815
 20
17.5838
 30
0.0
 40
0.00559254
 41
0.00559254
  0
VERTEX
  8
0
 10
16.5564
 20
17.6058
 30
0.0
 40
0.00559254
 41
0.00559254
  0
VERTEX
  8
0
 10
16.5313
 20
17.6288
 30
0.0
 40
0.00559254
 41
0.00559254
  0
VERTEX
  8
0
 10
16.5218
 20
17.6376
 30
0.0
 40
0.00559254
 41
0.00559254
  0
VERTEX
  8
0
 10
16.4821
 20
17.6758
 30
0.0
 40
0.00559254
 41
0.00559254
  0
VERTEX
  8
0
 10
16.4819
 20
17.6761
 30
0.0
 40
0.00559254
 41
0.00559254
  0
VERTEX
  8
0
 10
16.4582
 20
17.7001
 30
0.0
 40
0.00559254
 41
0.00559254
  0
VERTEX
  8
0
 10
16.4579
 20
17.7004
 30
0.0
 40
0.00559254
 41
0.00559254
  0
VERTEX
  8
0
 10
16.4443
 20
17.7146
 30
0.0
 40
0.00559254
 41
0.00559254
  0
VERTEX
  8
0
 10
16.4344
 20
17.725
 30
0.0
 40
0.00559254
 41
0.00559254
  0
VERTEX
  8
0
 10
16.4112
 20
17.75
 30
0.0
 40
0.00559254
 41
0.00559254
  0
VERTEX
  8
0
 10
16.3887
 20
17.7753
 30
0.0
 40
0.00559254
 41
0.00559254
  0
VERTEX
  8
0
 10
16.3885
 20
17.7756
 30
0.0
 40
0.00559254
 41
0.00559254
  0
VERTEX
  8
0
 10
16.3664
 20
17.8012
 30
0.0
 40
0.00559254
 41
0.00559254
  0
VERTEX
  8
0
 10
16.3663
 20
17.8015
 30
0.0
 40
0.00559254
 41
0.00559254
  0
VERTEX
  8
0
 10
16.3474
 20
17.8242
 30
0.0
 40
0.00559254
 41
0.00559254
  0
VERTEX
  8
0
 10
16.3444
 20
17.8276
 30
0.0
 40
0.00559254
 41
0.00559254
  0
VERTEX
  8
0
 10
16.3247
 20
17.8524
 30
0.0
 40
0.00559254
 41
0.00559254
  0
VERTEX
  8
0
 10
16.3231
 20
17.8544
 30
0.0
 40
0.00559254
 41
0.00559254
  0
VERTEX
  8
0
 10
16.3176
 20
17.8615
 30
0.0
 40
0.00559254
 41
0.00559254
  0
VERTEX
  8
0
 10
16.3019
 20
17.8817
 30
0.0
 40
0.00559254
 41
0.00559254
  0
VERTEX
  8
0
 10
16.2815
 20
17.9092
 30
0.0
 40
0.00559254
 41
0.00559254
  0
VERTEX
  8
0
 10
16.2813
 20
17.9093
 30
0.0
 40
0.00559254
 41
0.00559254
  0
VERTEX
  8
0
 10
16.2614
 20
17.9371
 30
0.0
 40
0.00559254
 41
0.00559254
  0
VERTEX
  8
0
 10
16.2613
 20
17.9372
 30
0.0
 40
0.00559254
 41
0.00559254
  0
VERTEX
  8
0
 10
16.2417
 20
17.9656
 30
0.0
 40
0.00559254
 41
0.00559254
  0
VERTEX
  8
0
 10
16.2415
 20
17.9657
 30
0.0
 40
0.00559254
 41
0.00559254
  0
VERTEX
  8
0
 10
16.2225
 20
17.9942
 30
0.0
 40
0.00559254
 41
0.00559254
  0
VERTEX
  8
0
 10
16.2224
 20
17.9943
 30
0.0
 40
0.00559254
 41
0.00559254
  0
VERTEX
  8
0
 10
16.2194
 20
17.9988
 30
0.0
 40
0.00559254
 41
0.00559254
  0
VERTEX
  8
0
 10
16.2036
 20
18.0236
 30
0.0
 40
0.00559254
 41
0.00559254
  0
VERTEX
  8
0
 10
16.1676
 20
18.0829
 30
0.0
 40
0.00559254
 41
0.00559254
  0
VERTEX
  8
0
 10
16.1676
 20
18.0831
 30
0.0
 40
0.00559254
 41
0.00559254
  0
VERTEX
  8
0
 10
16.1504
 20
18.1133
 30
0.0
 40
0.00559254
 41
0.00559254
  0
VERTEX
  8
0
 10
16.1504
 20
18.1133
 30
0.0
 40
0.00559254
 41
0.00559254
  0
VERTEX
  8
0
 10
16.1338
 20
18.144
 30
0.0
 40
0.00559254
 41
0.00559254
  0
VERTEX
  8
0
 10
16.1175
 20
18.1751
 30
0.0
 40
0.00559254
 41
0.00559254
  0
VERTEX
  8
0
 10
16.1017
 20
18.2065
 30
0.0
 40
0.00559254
 41
0.00559254
  0
VERTEX
  8
0
 10
16.0793
 20
18.1668
 30
0.0
 40
0.00559254
 41
0.00559254
  0
VERTEX
  8
0
 10
16.0154
 20
18.1299
 30
0.0
 40
0.00559254
 41
0.00559254
  0
VERTEX
  8
0
 10
15.9144
 20
18.0965
 30
0.0
 40
0.00559254
 41
0.00559254
  0
VERTEX
  8
0
 10
15.7804
 20
18.0674
 30
0.0
 40
0.00559254
 41
0.00559254
  0
VERTEX
  8
0
 10
15.6181
 20
18.0433
 30
0.0
 40
0.00559254
 41
0.00559254
  0
VERTEX
  8
0
 10
15.4318
 20
18.0251
 30
0.0
 40
0.00559254
 41
0.00559254
  0
VERTEX
  8
0
 10
15.226
 20
18.0136
 30
0.0
 40
0.00559254
 41
0.00559254
  0
VERTEX
  8
0
 10
15.005
 20
18.0097
 30
0.0
 40
0.00559254
 41
0.00559254
  0
VERTEX
  8
0
 10
14.7843
 20
18.0136
 30
0.0
 40
0.00559254
 41
0.00559254
  0
VERTEX
  8
0
 10
14.5786
 20
18.0251
 30
0.0
 40
0.00559254
 41
0.00559254
  0
VERTEX
  8
0
 10
14.3926
 20
18.0432
 30
0.0
 40
0.00559254
 41
0.00559254
  0
VERTEX
  8
0
 10
14.2304
 20
18.0672
 30
0.0
 40
0.00559254
 41
0.00559254
  0
VERTEX
  8
0
 10
14.0964
 20
18.0963
 30
0.0
 40
0.00559254
 41
0.00559254
  0
VERTEX
  8
0
 10
13.9951
 20
18.1296
 30
0.0
 40
0.00559254
 41
0.00559254
  0
VERTEX
  8
0
 10
13.9311
 20
18.1664
 30
0.0
 40
0.00559254
 41
0.00559254
  0
VERTEX
  8
0
 10
13.9083
 20
18.2061
 30
0.0
 40
0.00559254
 41
0.00559254
  0
VERTEX
  8
0
 10
13.8752
 20
18.03
 30
0.0
 40
0.00559254
 41
0.00559254
  0
VERTEX
  8
0
 10
13.8272
 20
17.8601
 30
0.0
 40
0.00559254
 41
0.00559254
  0
VERTEX
  8
0
 10
13.7649
 20
17.6974
 30
0.0
 40
0.00559254
 41
0.00559254
  0
VERTEX
  8
0
 10
13.6892
 20
17.5422
 30
0.0
 40
0.00559254
 41
0.00559254
  0
VERTEX
  8
0
 10
13.6008
 20
17.3953
 30
0.0
 40
0.00559254
 41
0.00559254
  0
VERTEX
  8
0
 10
13.5004
 20
17.2572
 30
0.0
 40
0.00559254
 41
0.00559254
  0
VERTEX
  8
0
 10
13.3889
 20
17.1289
 30
0.0
 40
0.00559254
 41
0.00559254
  0
VERTEX
  8
0
 10
13.267
 20
17.0108
 30
0.0
 40
0.00559254
 41
0.00559254
  0
VERTEX
  8
0
 10
13.1354
 20
16.9036
 30
0.0
 40
0.00559254
 41
0.00559254
  0
VERTEX
  8
0
 10
12.9949
 20
16.8079
 30
0.0
 40
0.00559254
 41
0.00559254
  0
VERTEX
  8
0
 10
12.8462
 20
16.7246
 30
0.0
 40
0.00559254
 41
0.00559254
  0
VERTEX
  8
0
 10
12.6902
 20
16.654
 30
0.0
 40
0.00559254
 41
0.00559254
  0
VERTEX
  8
0
 10
12.5276
 20
16.5971
 30
0.0
 40
0.00559254
 41
0.00559254
  0
VERTEX
  8
0
 10
12.3591
 20
16.5544
 30
0.0
 40
0.00559254
 41
0.00559254
  0
VERTEX
  8
0
 10
12.1854
 20
16.5265
 30
0.0
 40
0.00559254
 41
0.00559254
  0
VERTEX
  8
0
 10
12.0074
 20
16.5142
 30
0.0
 40
0.00559254
 41
0.00559254
  0
VERTEX
  8
0
 10
12.0073
 20
16.5142
 30
0.0
 40
0.00559254
 41
0.00559254
  0
VERTEX
  8
0
 10
11.9998
 20
16.514
 30
0.0
 40
0.00559254
 41
0.00559254
  0
VERTEX
  8
0
 10
11.9622
 20
16.5136
 30
0.0
 40
0.00559254
 41
0.00559254
  0
VERTEX
  8
0
 10
11.9245
 20
16.514
 30
0.0
 40
0.00559254
 41
0.00559254
  0
VERTEX
  8
0
 10
11.917
 20
16.5142
 30
0.0
 40
0.00559254
 41
0.00559254
  0
VERTEX
  8
0
 10
11.9168
 20
16.5142
 30
0.0
 40
0.00559254
 41
0.00559254
  0
VERTEX
  8
0
 10
11.7388
 20
16.5265
 30
0.0
 40
0.00559254
 41
0.00559254
  0
VERTEX
  8
0
 10
11.5652
 20
16.5544
 30
0.0
 40
0.00559254
 41
0.00559254
  0
VERTEX
  8
0
 10
11.3967
 20
16.5971
 30
0.0
 40
0.00559254
 41
0.00559254
  0
VERTEX
  8
0
 10
11.234
 20
16.654
 30
0.0
 40
0.00559254
 41
0.00559254
  0
VERTEX
  8
0
 10
11.078
 20
16.7246
 30
0.0
 40
0.00559254
 41
0.00559254
  0
VERTEX
  8
0
 10
10.9293
 20
16.8079
 30
0.0
 40
0.00559254
 41
0.00559254
  0
VERTEX
  8
0
 10
10.7888
 20
16.9036
 30
0.0
 40
0.00559254
 41
0.00559254
  0
VERTEX
  8
0
 10
10.6572
 20
17.0108
 30
0.0
 40
0.00559254
 41
0.00559254
  0
VERTEX
  8
0
 10
10.5353
 20
17.1289
 30
0.0
 40
0.00559254
 41
0.00559254
  0
VERTEX
  8
0
 10
10.4238
 20
17.2572
 30
0.0
 40
0.00559254
 41
0.00559254
  0
VERTEX
  8
0
 10
10.3235
 20
17.3953
 30
0.0
 40
0.00559254
 41
0.00559254
  0
VERTEX
  8
0
 10
10.235
 20
17.5422
 30
0.0
 40
0.00559254
 41
0.00559254
  0
VERTEX
  8
0
 10
10.1593
 20
17.6974
 30
0.0
 40
0.00559254
 41
0.00559254
  0
VERTEX
  8
0
 10
10.0971
 20
17.8603
 30
0.0
 40
0.00559254
 41
0.00559254
  0
VERTEX
  8
0
 10
10.049
 20
18.03
 30
0.0
 40
0.00559254
 41
0.00559254
  0
VERTEX
  8
0
 10
10.0159
 20
18.2061
 30
0.0
 40
0.00559254
 41
0.00559254
  0
VERTEX
  8
0
 10
9.99328
 20
18.1665
 30
0.0
 40
0.00559254
 41
0.00559254
  0
VERTEX
  8
0
 10
9.9291
 20
18.1297
 30
0.0
 40
0.00559254
 41
0.00559254
  0
VERTEX
  8
0
 10
9.82785
 20
18.0963
 30
0.0
 40
0.00559254
 41
0.00559254
  0
VERTEX
  8
0
 10
9.69396
 20
18.0672
 30
0.0
 40
0.00559254
 41
0.00559254
  0
VERTEX
  8
0
 10
9.53174
 20
18.0432
 30
0.0
 40
0.00559254
 41
0.00559254
  0
VERTEX
  8
0
 10
9.3456
 20
18.0251
 30
0.0
 40
0.00559254
 41
0.00559254
  0
VERTEX
  8
0
 10
9.13997
 20
18.0136
 30
0.0
 40
0.00559254
 41
0.00559254
  0
VERTEX
  8
0
 10
8.91932
 20
18.0097
 30
0.0
 40
0.00559254
 41
0.00559254
  0
VERTEX
  8
0
 10
8.69829
 20
18.0136
 30
0.0
 40
0.00559254
 41
0.00559254
  0
VERTEX
  8
0
 10
8.4924
 20
18.0251
 30
0.0
 40
0.00559254
 41
0.00559254
  0
VERTEX
  8
0
 10
8.3061
 20
18.0433
 30
0.0
 40
0.00559254
 41
0.00559254
  0
VERTEX
  8
0
 10
8.14378
 20
18.0674
 30
0.0
 40
0.00559254
 41
0.00559254
  0
VERTEX
  8
0
 10
8.00988
 20
18.0965
 30
0.0
 40
0.00559254
 41
0.00559254
  0
VERTEX
  8
0
 10
7.90875
 20
18.1299
 30
0.0
 40
0.00559254
 41
0.00559254
  0
VERTEX
  8
0
 10
7.84483
 20
18.1668
 30
0.0
 40
0.00559254
 41
0.00559254
  0
VERTEX
  8
0
 10
7.82254
 20
18.2065
 30
0.0
 40
0.00559254
 41
0.00559254
  0
VERTEX
  8
0
 10
7.80686
 20
18.1751
 30
0.0
 40
0.00559254
 41
0.00559254
  0
VERTEX
  8
0
 10
7.79204
 20
18.1468
 30
0.0
 40
0.00559254
 41
0.00559254
  0
VERTEX
  8
0
 10
7.77387
 20
18.1133
 30
0.0
 40
0.00559254
 41
0.00559254
  0
VERTEX
  8
0
 10
7.74957
 20
18.0713
 30
0.0
 40
0.00559254
 41
0.00559254
  0
VERTEX
  8
0
 10
7.7206
 20
18.0236
 30
0.0
 40
0.00559254
 41
0.00559254
  0
VERTEX
  8
0
 10
7.70469
 20
17.9988
 30
0.0
 40
0.00559254
 41
0.00559254
  0
VERTEX
  8
0
 10
7.70193
 20
17.9944
 30
0.0
 40
0.00559254
 41
0.00559254
  0
VERTEX
  8
0
 10
7.70182
 20
17.9943
 30
0.0
 40
0.00559254
 41
0.00559254
  0
VERTEX
  8
0
 10
7.68272
 20
17.9657
 30
0.0
 40
0.00559254
 41
0.00559254
  0
VERTEX
  8
0
 10
7.63499
 20
17.8986
 30
0.0
 40
0.00559254
 41
0.00559254
  0
VERTEX
  8
0
 10
7.62239
 20
17.8818
 30
0.0
 40
0.00559254
 41
0.00559254
  0
VERTEX
  8
0
 10
7.62224
 20
17.8817
 30
0.0
 40
0.00559254
 41
0.00559254
  0
VERTEX
  8
0
 10
7.6014
 20
17.8547
 30
0.0
 40
0.00559254
 41
0.00559254
  0
VERTEX
  8
0
 10
7.60124
 20
17.8544
 30
0.0
 40
0.00559254
 41
0.00559254
  0
VERTEX
  8
0
 10
7.57992
 20
17.8279
 30
0.0
 40
0.00559254
 41
0.00559254
  0
VERTEX
  8
0
 10
7.57981
 20
17.8278
 30
0.0
 40
0.00559254
 41
0.00559254
  0
VERTEX
  8
0
 10
7.57687
 20
17.8242
 30
0.0
 40
0.00559254
 41
0.00559254
  0
VERTEX
  8
0
 10
7.54417
 20
17.7854
 30
0.0
 40
0.00559254
 41
0.00559254
  0
VERTEX
  8
0
 10
7.51303
 20
17.7501
 30
0.0
 40
0.00559254
 41
0.00559254
  0
VERTEX
  8
0
 10
7.50125
 20
17.7374
 30
0.0
 40
0.00559254
 41
0.00559254
  0
VERTEX
  8
0
 10
7.48964
 20
17.7249
 30
0.0
 40
0.00559254
 41
0.00559254
  0
VERTEX
  8
0
 10
7.46636
 20
17.7004
 30
0.0
 40
0.00559254
 41
0.00559254
  0
VERTEX
  8
0
 10
7.44233
 20
17.6761
 30
0.0
 40
0.00559254
 41
0.00559254
  0
VERTEX
  8
0
 10
7.44211
 20
17.676
 30
0.0
 40
0.00559254
 41
0.00559254
  0
VERTEX
  8
0
 10
7.40246
 20
17.6378
 30
0.0
 40
0.00559254
 41
0.00559254
  0
VERTEX
  8
0
 10
7.39301
 20
17.6289
 30
0.0
 40
0.00559254
 41
0.00559254
  0
VERTEX
  8
0
 10
7.36789
 20
17.606
 30
0.0
 40
0.00559254
 41
0.00559254
  0
VERTEX
  8
0
 10
7.34272
 20
17.5839
 30
0.0
 40
0.00559254
 41
0.00559254
  0
VERTEX
  8
0
 10
7.34239
 20
17.5836
 30
0.0
 40
0.00559254
 41
0.00559254
  0
VERTEX
  8
0
 10
7.31689
 20
17.5619
 30
0.0
 40
0.00559254
 41
0.00559254
  0
VERTEX
  8
0
 10
7.31651
 20
17.5615
 30
0.0
 40
0.00559254
 41
0.00559254
  0
VERTEX
  8
0
 10
7.29069
 20
17.5404
 30
0.0
 40
0.00559254
 41
0.00559254
  0
VERTEX
  8
0
 10
7.29042
 20
17.5401
 30
0.0
 40
0.00559254
 41
0.00559254
  0
VERTEX
  8
0
 10
7.26411
 20
17.5193
 30
0.0
 40
0.00559254
 41
0.00559254
  0
VERTEX
  8
0
 10
7.2494
 20
17.5081
 30
0.0
 40
0.00559254
 41
0.00559254
  0
VERTEX
  8
0
 10
7.21382
 20
17.4815
 30
0.0
 40
0.00559254
 41
0.00559254
  0
VERTEX
  8
0
 10
7.20996
 20
17.4786
 30
0.0
 40
0.00559254
 41
0.00559254
  0
VERTEX
  8
0
 10
7.20947
 20
17.4783
 30
0.0
 40
0.00559254
 41
0.00559254
  0
VERTEX
  8
0
 10
7.18235
 20
17.459
 30
0.0
 40
0.00559254
 41
0.00559254
  0
VERTEX
  8
0
 10
7.18186
 20
17.4588
 30
0.0
 40
0.00559254
 41
0.00559254
  0
VERTEX
  8
0
 10
7.15446
 20
17.4399
 30
0.0
 40
0.00559254
 41
0.00559254
  0
VERTEX
  8
0
 10
7.15397
 20
17.4396
 30
0.0
 40
0.00559254
 41
0.00559254
  0
VERTEX
  8
0
 10
7.12625
 20
17.4212
 30
0.0
 40
0.00559254
 41
0.00559254
  0
VERTEX
  8
0
 10
7.12608
 20
17.4211
 30
0.0
 40
0.00559254
 41
0.00559254
  0
VERTEX
  8
0
 10
7.09765
 20
17.4031
 30
0.0
 40
0.00559254
 41
0.00559254
  0
VERTEX
  8
0
 10
7.06885
 20
17.3854
 30
0.0
 40
0.00559254
 41
0.00559254
  0
VERTEX
  8
0
 10
7.04167
 20
17.3693
 30
0.0
 40
0.00559254
 41
0.00559254
  0
VERTEX
  8
0
 10
7.03965
 20
17.3682
 30
0.0
 40
0.00559254
 41
0.00559254
  0
VERTEX
  8
0
 10
7.03956
 20
17.3682
 30
0.0
 40
0.00559254
 41
0.00559254
  0
VERTEX
  8
0
 10
7.02431
 20
17.3594
 30
0.0
 40
0.00559254
 41
0.00559254
  0
VERTEX
  8
0
 10
7.00971
 20
17.3513
 30
0.0
 40
0.00559254
 41
0.00559254
  0
VERTEX
  8
0
 10
7.00174
 20
17.3469
 30
0.0
 40
0.00559254
 41
0.00559254
  0
VERTEX
  8
0
 10
6.98008
 20
17.3351
 30
0.0
 40
0.00559254
 41
0.00559254
  0
VERTEX
  8
0
 10
6.96218
 20
17.3258
 30
0.0
 40
0.00559254
 41
0.00559254
  0
VERTEX
  8
0
 10
6.95025
 20
17.3196
 30
0.0
 40
0.00559254
 41
0.00559254
  0
VERTEX
  8
0
 10
6.93494
 20
17.3119
 30
0.0
 40
0.00559254
 41
0.00559254
  0
VERTEX
  8
0
 10
6.91965
 20
17.3043
 30
0.0
 40
0.00559254
 41
0.00559254
  0
VERTEX
  8
0
 10
6.91482
 20
17.3019
 30
0.0
 40
0.00559254
 41
0.00559254
  0
VERTEX
  8
0
 10
6.88883
 20
17.2896
 30
0.0
 40
0.00559254
 41
0.00559254
  0
VERTEX
  8
0
 10
6.85872
 20
17.2758
 30
0.0
 40
0.00559254
 41
0.00559254
  0
VERTEX
  8
0
 10
6.85824
 20
17.2756
 30
0.0
 40
0.00559254
 41
0.00559254
  0
VERTEX
  8
0
 10
6.84907
 20
17.2715
 30
0.0
 40
0.00559254
 41
0.00559254
  0
VERTEX
  8
0
 10
6.8271
 20
17.2619
 30
0.0
 40
0.00559254
 41
0.00559254
  0
VERTEX
  8
0
 10
6.79633
 20
17.249
 30
0.0
 40
0.00559254
 41
0.00559254
  0
VERTEX
  8
0
 10
6.79551
 20
17.2488
 30
0.0
 40
0.00559254
 41
0.00559254
  0
VERTEX
  8
0
 10
6.78358
 20
17.244
 30
0.0
 40
0.00559254
 41
0.00559254
  0
VERTEX
  8
0
 10
6.76449
 20
17.2365
 30
0.0
 40
0.00559254
 41
0.00559254
  0
VERTEX
  8
0
 10
6.73296
 20
17.2246
 30
0.0
 40
0.00559254
 41
0.00559254
  0
VERTEX
  8
0
 10
6.7321
 20
17.2243
 30
0.0
 40
0.00559254
 41
0.00559254
  0
VERTEX
  8
0
 10
6.71593
 20
17.2185
 30
0.0
 40
0.00559254
 41
0.00559254
  0
VERTEX
  8
0
 10
6.70057
 20
17.2131
 30
0.0
 40
0.00559254
 41
0.00559254
  0
VERTEX
  8
0
 10
6.68875
 20
17.209
 30
0.0
 40
0.00559254
 41
0.00559254
  0
VERTEX
  8
0
 10
6.66781
 20
17.2019
 30
0.0
 40
0.00559254
 41
0.00559254
  0
VERTEX
  8
0
 10
6.63624
 20
17.1919
 30
0.0
 40
0.00559254
 41
0.00559254
  0
VERTEX
  8
0
 10
6.63531
 20
17.1917
 30
0.0
 40
0.00559254
 41
0.00559254
  0
VERTEX
  8
0
 10
6.62462
 20
17.1885
 30
0.0
 40
0.00559254
 41
0.00559254
  0
VERTEX
  8
0
 10
6.6026
 20
17.1818
 30
0.0
 40
0.00559254
 41
0.00559254
  0
VERTEX
  8
0
 10
6.57042
 20
17.1728
 30
0.0
 40
0.00559254
 41
0.00559254
  0
VERTEX
  8
0
 10
6.53754
 20
17.1642
 30
0.0
 40
0.00559254
 41
0.00559254
  0
VERTEX
  8
0
 10
6.51937
 20
17.1597
 30
0.0
 40
0.00559254
 41
0.00559254
  0
VERTEX
  8
0
 10
6.50325
 20
17.1558
 30
0.0
 40
0.00559254
 41
0.00559254
  0
VERTEX
  8
0
 10
6.47086
 20
17.1486
 30
0.0
 40
0.00559254
 41
0.00559254
  0
VERTEX
  8
0
 10
6.47032
 20
17.1485
 30
0.0
 40
0.00559254
 41
0.00559254
  0
VERTEX
  8
0
 10
6.43722
 20
17.1417
 30
0.0
 40
0.00559254
 41
0.00559254
  0
VERTEX
  8
0
 10
6.41808
 20
17.1379
 30
0.0
 40
0.00559254
 41
0.00559254
  0
VERTEX
  8
0
 10
6.40235
 20
17.135
 30
0.0
 40
0.00559254
 41
0.00559254
  0
VERTEX
  8
0
 10
6.36947
 20
17.1294
 30
0.0
 40
0.00559254
 41
0.00559254
  0
VERTEX
  8
0
 10
6.36903
 20
17.1293
 30
0.0
 40
0.00559254
 41
0.00559254
  0
VERTEX
  8
0
 10
6.35047
 20
17.1265
 30
0.0
 40
0.00559254
 41
0.00559254
  0
VERTEX
  8
0
 10
6.33475
 20
17.124
 30
0.0
 40
0.00559254
 41
0.00559254
  0
VERTEX
  8
0
 10
6.32058
 20
17.1221
 30
0.0
 40
0.00559254
 41
0.00559254
  0
VERTEX
  8
0
 10
6.30035
 20
17.1194
 30
0.0
 40
0.00559254
 41
0.00559254
  0
VERTEX
  8
0
 10
6.26671
 20
17.1156
 30
0.0
 40
0.00559254
 41
0.00559254
  0
VERTEX
  8
0
 10
6.24533
 20
17.1133
 30
0.0
 40
0.00559254
 41
0.00559254
  0
VERTEX
  8
0
 10
6.23122
 20
17.1119
 30
0.0
 40
0.00559254
 41
0.00559254
  0
VERTEX
  8
0
 10
6.22385
 20
17.1114
 30
0.0
 40
0.00559254
 41
0.00559254
  0
VERTEX
  8
0
 10
6.1965
 20
17.1092
 30
0.0
 40
0.00559254
 41
0.00559254
  0
VERTEX
  8
0
 10
6.19086
 20
17.1089
 30
0.0
 40
0.00559254
 41
0.00559254
  0
VERTEX
  8
0
 10
6.16162
 20
17.1069
 30
0.0
 40
0.00559254
 41
0.00559254
  0
VERTEX
  8
0
 10
6.15539
 20
17.1067
 30
0.0
 40
0.00559254
 41
0.00559254
  0
VERTEX
  8
0
 10
6.12679
 20
17.1054
 30
0.0
 40
0.00559254
 41
0.00559254
  0
VERTEX
  8
0
 10
6.11822
 20
17.1051
 30
0.0
 40
0.00559254
 41
0.00559254
  0
VERTEX
  8
0
 10
6.0919
 20
17.1044
 30
0.0
 40
0.00559254
 41
0.00559254
  0
VERTEX
  8
0
 10
6.07992
 20
17.1043
 30
0.0
 40
0.00559254
 41
0.00559254
  0
VERTEX
  8
0
 10
6.05697
 20
17.104
 30
0.0
 40
0.00559254
 41
0.00559254
  0
VERTEX
  8
0
 10
6.03407
 20
17.1043
 30
0.0
 40
0.00559254
 41
0.00559254
  0
VERTEX
  8
0
 10
6.02214
 20
17.1044
 30
0.0
 40
0.00559254
 41
0.00559254
  0
VERTEX
  8
0
 10
5.99647
 20
17.1051
 30
0.0
 40
0.00559254
 41
0.00559254
  0
VERTEX
  8
0
 10
5.98714
 20
17.1054
 30
0.0
 40
0.00559254
 41
0.00559254
  0
VERTEX
  8
0
 10
5.96013
 20
17.1067
 30
0.0
 40
0.00559254
 41
0.00559254
  0
VERTEX
  8
0
 10
5.95225
 20
17.1069
 30
0.0
 40
0.00559254
 41
0.00559254
  0
VERTEX
  8
0
 10
5.92171
 20
17.1089
 30
0.0
 40
0.00559254
 41
0.00559254
  0
VERTEX
  8
0
 10
5.91758
 20
17.1092
 30
0.0
 40
0.00559254
 41
0.00559254
  0
VERTEX
  8
0
 10
5.88753
 20
17.1117
 30
0.0
 40
0.00559254
 41
0.00559254
  0
VERTEX
  8
0
 10
5.88286
 20
17.1121
 30
0.0
 40
0.00559254
 41
0.00559254
  0
VERTEX
  8
0
 10
5.85249
 20
17.115
 30
0.0
 40
0.00559254
 41
0.00559254
  0
VERTEX
  8
0
 10
5.84831
 20
17.1154
 30
0.0
 40
0.00559254
 41
0.00559254
  0
VERTEX
  8
0
 10
5.82156
 20
17.1186
 30
0.0
 40
0.00559254
 41
0.00559254
  0
VERTEX
  8
0
 10
5.81375
 20
17.1194
 30
0.0
 40
0.00559254
 41
0.00559254
  0
VERTEX
  8
0
 10
5.79194
 20
17.1224
 30
0.0
 40
0.00559254
 41
0.00559254
  0
VERTEX
  8
0
 10
5.7786
 20
17.1242
 30
0.0
 40
0.00559254
 41
0.00559254
  0
VERTEX
  8
0
 10
5.74561
 20
17.1292
 30
0.0
 40
0.00559254
 41
0.00559254
  0
VERTEX
  8
0
 10
5.71164
 20
17.135
 30
0.0
 40
0.00559254
 41
0.00559254
  0
VERTEX
  8
0
 10
5.67785
 20
17.1414
 30
0.0
 40
0.00559254
 41
0.00559254
  0
VERTEX
  8
0
 10
5.65093
 20
17.1469
 30
0.0
 40
0.00559254
 41
0.00559254
  0
VERTEX
  8
0
 10
5.64393
 20
17.1483
 30
0.0
 40
0.00559254
 41
0.00559254
  0
VERTEX
  8
0
 10
5.61074
 20
17.1558
 30
0.0
 40
0.00559254
 41
0.00559254
  0
VERTEX
  8
0
 10
5.57835
 20
17.1638
 30
0.0
 40
0.00559254
 41
0.00559254
  0
VERTEX
  8
0
 10
5.57736
 20
17.1639
 30
0.0
 40
0.00559254
 41
0.00559254
  0
VERTEX
  8
0
 10
5.55544
 20
17.1696
 30
0.0
 40
0.00559254
 41
0.00559254
  0
VERTEX
  8
0
 10
5.54383
 20
17.1726
 30
0.0
 40
0.00559254
 41
0.00559254
  0
VERTEX
  8
0
 10
5.51139
 20
17.1818
 30
0.0
 40
0.00559254
 41
0.00559254
  0
VERTEX
  8
0
 10
5.44624
 20
17.2019
 30
0.0
 40
0.00559254
 41
0.00559254
  0
VERTEX
  8
0
 10
5.42279
 20
17.2099
 30
0.0
 40
0.00559254
 41
0.00559254
  0
VERTEX
  8
0
 10
5.41308
 20
17.2131
 30
0.0
 40
0.00559254
 41
0.00559254
  0
VERTEX
  8
0
 10
5.35704
 20
17.2336
 30
0.0
 40
0.00559254
 41
0.00559254
  0
VERTEX
  8
0
 10
5.34924
 20
17.2365
 30
0.0
 40
0.00559254
 41
0.00559254
  0
VERTEX
  8
0
 10
5.28982
 20
17.2607
 30
0.0
 40
0.00559254
 41
0.00559254
  0
VERTEX
  8
0
 10
5.28694
 20
17.2619
 30
0.0
 40
0.00559254
 41
0.00559254
  0
VERTEX
  8
0
 10
5.25597
 20
17.2754
 30
0.0
 40
0.00559254
 41
0.00559254
  0
VERTEX
  8
0
 10
5.22515
 20
17.2894
 30
0.0
 40
0.00559254
 41
0.00559254
  0
VERTEX
  8
0
 10
5.19917
 20
17.3019
 30
0.0
 40
0.00559254
 41
0.00559254
  0
VERTEX
  8
0
 10
5.19433
 20
17.3043
 30
0.0
 40
0.00559254
 41
0.00559254
  0
VERTEX
  8
0
 10
5.16422
 20
17.3193
 30
0.0
 40
0.00559254
 41
0.00559254
  0
VERTEX
  8
0
 10
5.16351
 20
17.3197
 30
0.0
 40
0.00559254
 41
0.00559254
  0
VERTEX
  8
0
 10
5.14264
 20
17.3306
 30
0.0
 40
0.00559254
 41
0.00559254
  0
VERTEX
  8
0
 10
5.1339
 20
17.3351
 30
0.0
 40
0.00559254
 41
0.00559254
  0
VERTEX
  8
0
 10
5.11225
 20
17.3469
 30
0.0
 40
0.00559254
 41
0.00559254
  0
VERTEX
  8
0
 10
5.10379
 20
17.3515
 30
0.0
 40
0.00559254
 41
0.00559254
  0
VERTEX
  8
0
 10
5.07497
 20
17.3678
 30
0.0
 40
0.00559254
 41
0.00559254
  0
VERTEX
  8
0
 10
5.04579
 20
17.385
 30
0.0
 40
0.00559254
 41
0.00559254
  0
VERTEX
  8
0
 10
5.04519
 20
17.3854
 30
0.0
 40
0.00559254
 41
0.00559254
  0
VERTEX
  8
0
 10
5.01693
 20
17.4028
 30
0.0
 40
0.00559254
 41
0.00559254
  0
VERTEX
  8
0
 10
4.98833
 20
17.4208
 30
0.0
 40
0.00559254
 41
0.00559254
  0
VERTEX
  8
0
 10
4.87722
 20
17.4985
 30
0.0
 40
0.00559254
 41
0.00559254
  0
VERTEX
  8
0
 10
4.87679
 20
17.4988
 30
0.0
 40
0.00559254
 41
0.00559254
  0
VERTEX
  8
0
 10
4.85032
 20
17.519
 30
0.0
 40
0.00559254
 41
0.00559254
  0
VERTEX
  8
0
 10
4.82374
 20
17.54
 30
0.0
 40
0.00559254
 41
0.00559254
  0
VERTEX
  8
0
 10
4.74664
 20
17.6054
 30
0.0
 40
0.00559254
 41
0.00559254
  0
VERTEX
  8
0
 10
4.74576
 20
17.6063
 30
0.0
 40
0.00559254
 41
0.00559254
  0
VERTEX
  8
0
 10
4.72103
 20
17.6289
 30
0.0
 40
0.00559254
 41
0.00559254
  0
VERTEX
  8
0
 10
4.676
 20
17.6719
 30
0.0
 40
0.00559254
 41
0.00559254
  0
VERTEX
  8
0
 10
4.6716
 20
17.6762
 30
0.0
 40
0.00559254
 41
0.00559254
  0
VERTEX
  8
0
 10
4.62435
 20
17.7249
 30
0.0
 40
0.00559254
 41
0.00559254
  0
VERTEX
  8
0
 10
4.60124
 20
17.7499
 30
0.0
 40
0.00559254
 41
0.00559254
  0
VERTEX
  8
0
 10
4.55615
 20
17.8014
 30
0.0
 40
0.00559254
 41
0.00559254
  0
VERTEX
  8
0
 10
4.55593
 20
17.8015
 30
0.0
 40
0.00559254
 41
0.00559254
  0
VERTEX
  8
0
 10
4.53424
 20
17.8276
 30
0.0
 40
0.00559254
 41
0.00559254
  0
VERTEX
  8
0
 10
4.47119
 20
17.9092
 30
0.0
 40
0.00559254
 41
0.00559254
  0
VERTEX
  8
0
 10
4.47103
 20
17.9094
 30
0.0
 40
0.00559254
 41
0.00559254
  0
VERTEX
  8
0
 10
4.45107
 20
17.9372
 30
0.0
 40
0.00559254
 41
0.00559254
  0
VERTEX
  8
0
 10
4.4509
 20
17.9374
 30
0.0
 40
0.00559254
 41
0.00559254
  0
VERTEX
  8
0
 10
4.35747
 20
18.0831
 30
0.0
 40
0.00559254
 41
0.00559254
  0
VERTEX
  8
0
 10
4.35742
 20
18.0831
 30
0.0
 40
0.00559254
 41
0.00559254
  0
VERTEX
  8
0
 10
4.2915
 20
18.2064
 30
0.0
 40
0.00559254
 41
0.00559254
  0
SEQEND
 8
0
  0
POLYLINE
  8
0
 62
     0
 66
     1
 10
0
 20
0
 30
0.0
 70
     1
 40
0
 41
0
  0
VERTEX
  8
0
 10
8.04622
 20
16.9271
 30
0.0
 40
0
 41
0
  0
VERTEX
  8
0
 10
8.03847
 20
16.8887
 30
0.0
 40
0
 41
0
  0
VERTEX
  8
0
 10
8.01736
 20
16.8574
 30
0.0
 40
0
 41
0
  0
VERTEX
  8
0
 10
7.98611
 20
16.8362
 30
0.0
 40
0
 41
0
  0
VERTEX
  8
0
 10
7.94781
 20
16.8286
 30
0.0
 40
0
 41
0
  0
VERTEX
  8
0
 10
7.90944
 20
16.8362
 30
0.0
 40
0
 41
0
  0
VERTEX
  8
0
 10
7.87815
 20
16.8574
 30
0.0
 40
0
 41
0
  0
VERTEX
  8
0
 10
7.85704
 20
16.8887
 30
0.0
 40
0
 41
0
  0
VERTEX
  8
0
 10
7.84933
 20
16.9271
 30
0.0
 40
0
 41
0
  0
VERTEX
  8
0
 10
7.85704
 20
16.9653
 30
0.0
 40
0
 41
0
  0
VERTEX
  8
0
 10
7.87815
 20
16.9967
 30
0.0
 40
0
 41
0
  0
VERTEX
  8
0
 10
7.90944
 20
17.0178
 30
0.0
 40
0
 41
0
  0
VERTEX
  8
0
 10
7.94781
 20
17.0254
 30
0.0
 40
0
 41
0
  0
VERTEX
  8
0
 10
7.98611
 20
17.0178
 30
0.0
 40
0
 41
0
  0
VERTEX
  8
0
 10
8.01736
 20
16.9967
 30
0.0
 40
0
 41
0
  0
VERTEX
  8
0
 10
8.03847
 20
16.9653
 30
0.0
 40
0
 41
0
  0
VERTEX
  8
0
 10
8.04622
 20
16.9271
 30
0.0
 40
0
 41
0
  0
SEQEND
 8
0
  0
POLYLINE
  8
0
 62
     0
 66
     1
 10
0
 20
0
 30
0.0
 70
     1
 40
0.329829
 41
0.329829
  0
VERTEX
  8
0
 10
8.04622
 20
16.9271
 30
0.0
 40
0.00458096
 41
0.00458096
  0
VERTEX
  8
0
 10
8.03847
 20
16.8887
 30
0.0
 40
0.00458096
 41
0.00458096
  0
VERTEX
  8
0
 10
8.01736
 20
16.8574
 30
0.0
 40
0.00458096
 41
0.00458096
  0
VERTEX
  8
0
 10
7.98611
 20
16.8362
 30
0.0
 40
0.00458096
 41
0.00458096
  0
VERTEX
  8
0
 10
7.94781
 20
16.8286
 30
0.0
 40
0.00458096
 41
0.00458096
  0
VERTEX
  8
0
 10
7.90944
 20
16.8362
 30
0.0
 40
0.00458096
 41
0.00458096
  0
VERTEX
  8
0
 10
7.87815
 20
16.8574
 30
0.0
 40
0.00458096
 41
0.00458096
  0
VERTEX
  8
0
 10
7.85704
 20
16.8887
 30
0.0
 40
0.00458096
 41
0.00458096
  0
VERTEX
  8
0
 10
7.84933
 20
16.9271
 30
0.0
 40
0.00458096
 41
0.00458096
  0
VERTEX
  8
0
 10
7.85704
 20
16.9653
 30
0.0
 40
0.00458096
 41
0.00458096
  0
VERTEX
  8
0
 10
7.87815
 20
16.9967
 30
0.0
 40
0.00458096
 41
0.00458096
  0
VERTEX
  8
0
 10
7.90944
 20
17.0178
 30
0.0
 40
0.00458096
 41
0.00458096
  0
VERTEX
  8
0
 10
7.94781
 20
17.0254
 30
0.0
 40
0.00458096
 41
0.00458096
  0
VERTEX
  8
0
 10
7.98611
 20
17.0178
 30
0.0
 40
0.00458096
 41
0.00458096
  0
VERTEX
  8
0
 10
8.01736
 20
16.9967
 30
0.0
 40
0.00458096
 41
0.00458096
  0
VERTEX
  8
0
 10
8.03847
 20
16.9653
 30
0.0
 40
0.00458096
 41
0.00458096
  0
VERTEX
  8
0
 10
8.04622
 20
16.9271
 30
0.0
 40
0.00458096
 41
0.00458096
  0
SEQEND
 8
0
  0
POLYLINE
  8
0
 62
     0
 66
     1
 10
0
 20
0
 30
0.0
 70
     1
 40
0
 41
0
  0
VERTEX
  8
0
 10
4.26671
 20
16.9271
 30
0.0
 40
0
 41
0
  0
VERTEX
  8
0
 10
4.25896
 20
16.8887
 30
0.0
 40
0
 41
0
  0
VERTEX
  8
0
 10
4.23785
 20
16.8574
 30
0.0
 40
0
 41
0
  0
VERTEX
  8
0
 10
4.20654
 20
16.8362
 30
0.0
 40
0
 41
0
  0
VERTEX
  8
0
 10
4.16824
 20
16.8286
 30
0.0
 40
0
 41
0
  0
VERTEX
  8
0
 10
4.12989
 20
16.8362
 30
0.0
 40
0
 41
0
  0
VERTEX
  8
0
 10
4.09864
 20
16.8574
 30
0.0
 40
0
 41
0
  0
VERTEX
  8
0
 10
4.07753
 20
16.8887
 30
0.0
 40
0
 41
0
  0
VERTEX
  8
0
 10
4.06982
 20
16.9271
 30
0.0
 40
0
 41
0
  0
VERTEX
  8
0
 10
4.07753
 20
16.9653
 30
0.0
 40
0
 41
0
  0
VERTEX
  8
0
 10
4.09864
 20
16.9967
 30
0.0
 40
0
 41
0
  0
VERTEX
  8
0
 10
4.12989
 20
17.0178
 30
0.0
 40
0
 41
0
  0
VERTEX
  8
0
 10
4.16824
 20
17.0254
 30
0.0
 40
0
 41
0
  0
VERTEX
  8
0
 10
4.20654
 20
17.0178
 30
0.0
 40
0
 41
0
  0
VERTEX
  8
0
 10
4.23785
 20
16.9967
 30
0.0
 40
0
 41
0
  0
VERTEX
  8
0
 10
4.25896
 20
16.9653
 30
0.0
 40
0
 41
0
  0
VERTEX
  8
0
 10
4.26671
 20
16.9271
 30
0.0
 40
0
 41
0
  0
SEQEND
 8
0
  0
POLYLINE
  8
0
 62
     0
 66
     1
 10
0
 20
0
 30
0.0
 70
     1
 40
0.329829
 41
0.329829
  0
VERTEX
  8
0
 10
4.26671
 20
16.9271
 30
0.0
 40
0.00458096
 41
0.00458096
  0
VERTEX
  8
0
 10
4.25896
 20
16.8887
 30
0.0
 40
0.00458096
 41
0.00458096
  0
VERTEX
  8
0
 10
4.23785
 20
16.8574
 30
0.0
 40
0.00458096
 41
0.00458096
  0
VERTEX
  8
0
 10
4.20654
 20
16.8362
 30
0.0
 40
0.00458096
 41
0.00458096
  0
VERTEX
  8
0
 10
4.16824
 20
16.8286
 30
0.0
 40
0.00458096
 41
0.00458096
  0
VERTEX
  8
0
 10
4.12989
 20
16.8362
 30
0.0
 40
0.00458096
 41
0.00458096
  0
VERTEX
  8
0
 10
4.09864
 20
16.8574
 30
0.0
 40
0.00458096
 41
0.00458096
  0
VERTEX
  8
0
 10
4.07753
 20
16.8887
 30
0.0
 40
0.00458096
 41
0.00458096
  0
VERTEX
  8
0
 10
4.06982
 20
16.9271
 30
0.0
 40
0.00458096
 41
0.00458096
  0
VERTEX
  8
0
 10
4.07753
 20
16.9653
 30
0.0
 40
0.00458096
 41
0.00458096
  0
VERTEX
  8
0
 10
4.09864
 20
16.9967
 30
0.0
 40
0.00458096
 41
0.00458096
  0
VERTEX
  8
0
 10
4.12989
 20
17.0178
 30
0.0
 40
0.00458096
 41
0.00458096
  0
VERTEX
  8
0
 10
4.16824
 20
17.0254
 30
0.0
 40
0.00458096
 41
0.00458096
  0
VERTEX
  8
0
 10
4.20654
 20
17.0178
 30
0.0
 40
0.00458096
 41
0.00458096
  0
VERTEX
  8
0
 10
4.23785
 20
16.9967
 30
0.0
 40
0.00458096
 41
0.00458096
  0
VERTEX
  8
0
 10
4.25896
 20
16.9653
 30
0.0
 40
0.00458096
 41
0.00458096
  0
VERTEX
  8
0
 10
4.26671
 20
16.9271
 30
0.0
 40
0.00458096
 41
0.00458096
  0
SEQEND
 8
0
  0
POLYLINE
  8
0
 62
     0
 66
     1
 10
0
 20
0
 30
0.0
 70
     1
 40
0
 41
0
  0
VERTEX
  8
0
 10
13.9517
 20
16.3364
 30
0.0
 40
0
 41
0
  0
VERTEX
  8
0
 10
13.9439
 20
16.2982
 30
0.0
 40
0
 41
0
  0
VERTEX
  8
0
 10
13.9229
 20
16.2668
 30
0.0
 40
0
 41
0
  0
VERTEX
  8
0
 10
13.8917
 20
16.2458
 30
0.0
 40
0
 41
0
  0
VERTEX
  8
0
 10
13.8533
 20
16.2381
 30
0.0
 40
0
 41
0
  0
VERTEX
  8
0
 10
13.8149
 20
16.2458
 30
0.0
 40
0
 41
0
  0
VERTEX
  8
0
 10
13.7837
 20
16.2668
 30
0.0
 40
0
 41
0
  0
VERTEX
  8
0
 10
13.7626
 20
16.2982
 30
0.0
 40
0
 41
0
  0
VERTEX
  8
0
 10
13.7549
 20
16.3364
 30
0.0
 40
0
 41
0
  0
VERTEX
  8
0
 10
13.7626
 20
16.3747
 30
0.0
 40
0
 41
0
  0
VERTEX
  8
0
 10
13.7837
 20
16.4061
 30
0.0
 40
0
 41
0
  0
VERTEX
  8
0
 10
13.8149
 20
16.4272
 30
0.0
 40
0
 41
0
  0
VERTEX
  8
0
 10
13.8533
 20
16.4349
 30
0.0
 40
0
 41
0
  0
VERTEX
  8
0
 10
13.8917
 20
16.4272
 30
0.0
 40
0
 41
0
  0
VERTEX
  8
0
 10
13.9229
 20
16.4061
 30
0.0
 40
0
 41
0
  0
VERTEX
  8
0
 10
13.9439
 20
16.3747
 30
0.0
 40
0
 41
0
  0
VERTEX
  8
0
 10
13.9517
 20
16.3364
 30
0.0
 40
0
 41
0
  0
SEQEND
 8
0
  0
POLYLINE
  8
0
 62
     0
 66
     1
 10
0
 20
0
 30
0.0
 70
     1
 40
0.329829
 41
0.329829
  0
VERTEX
  8
0
 10
13.9517
 20
16.3364
 30
0.0
 40
0.00458096
 41
0.00458096
  0
VERTEX
  8
0
 10
13.9439
 20
16.2982
 30
0.0
 40
0.00458096
 41
0.00458096
  0
VERTEX
  8
0
 10
13.9229
 20
16.2668
 30
0.0
 40
0.00458096
 41
0.00458096
  0
VERTEX
  8
0
 10
13.8917
 20
16.2458
 30
0.0
 40
0.00458096
 41
0.00458096
  0
VERTEX
  8
0
 10
13.8533
 20
16.2381
 30
0.0
 40
0.00458096
 41
0.00458096
  0
VERTEX
  8
0
 10
13.8149
 20
16.2458
 30
0.0
 40
0.00458096
 41
0.00458096
  0
VERTEX
  8
0
 10
13.7837
 20
16.2668
 30
0.0
 40
0.00458096
 41
0.00458096
  0
VERTEX
  8
0
 10
13.7626
 20
16.2982
 30
0.0
 40
0.00458096
 41
0.00458096
  0
VERTEX
  8
0
 10
13.7549
 20
16.3364
 30
0.0
 40
0.00458096
 41
0.00458096
  0
VERTEX
  8
0
 10
13.7626
 20
16.3747
 30
0.0
 40
0.00458096
 41
0.00458096
  0
VERTEX
  8
0
 10
13.7837
 20
16.4061
 30
0.0
 40
0.00458096
 41
0.00458096
  0
VERTEX
  8
0
 10
13.8149
 20
16.4272
 30
0.0
 40
0.00458096
 41
0.00458096
  0
VERTEX
  8
0
 10
13.8533
 20
16.4349
 30
0.0
 40
0.00458096
 41
0.00458096
  0
VERTEX
  8
0
 10
13.8917
 20
16.4272
 30
0.0
 40
0.00458096
 41
0.00458096
  0
VERTEX
  8
0
 10
13.9229
 20
16.4061
 30
0.0
 40
0.00458096
 41
0.00458096
  0
VERTEX
  8
0
 10
13.9439
 20
16.3747
 30
0.0
 40
0.00458096
 41
0.00458096
  0
VERTEX
  8
0
 10
13.9517
 20
16.3364
 30
0.0
 40
0.00458096
 41
0.00458096
  0
SEQEND
 8
0
  0
POLYLINE
  8
0
 62
     0
 66
     1
 10
0
 20
0
 30
0.0
 70
     1
 40
0
 41
0
  0
VERTEX
  8
0
 10
10.1722
 20
16.3364
 30
0.0
 40
0
 41
0
  0
VERTEX
  8
0
 10
10.1644
 20
16.2982
 30
0.0
 40
0
 41
0
  0
VERTEX
  8
0
 10
10.1433
 20
16.2668
 30
0.0
 40
0
 41
0
  0
VERTEX
  8
0
 10
10.1121
 20
16.2458
 30
0.0
 40
0
 41
0
  0
VERTEX
  8
0
 10
10.0738
 20
16.2381
 30
0.0
 40
0
 41
0
  0
VERTEX
  8
0
 10
10.0354
 20
16.2458
 30
0.0
 40
0
 41
0
  0
VERTEX
  8
0
 10
10.0042
 20
16.2668
 30
0.0
 40
0
 41
0
  0
VERTEX
  8
0
 10
9.98307
 20
16.2982
 30
0.0
 40
0
 41
0
  0
VERTEX
  8
0
 10
9.97537
 20
16.3364
 30
0.0
 40
0
 41
0
  0
VERTEX
  8
0
 10
9.98307
 20
16.3747
 30
0.0
 40
0
 41
0
  0
VERTEX
  8
0
 10
10.0042
 20
16.4061
 30
0.0
 40
0
 41
0
  0
VERTEX
  8
0
 10
10.0354
 20
16.4272
 30
0.0
 40
0
 41
0
  0
VERTEX
  8
0
 10
10.0738
 20
16.4349
 30
0.0
 40
0
 41
0
  0
VERTEX
  8
0
 10
10.1121
 20
16.4272
 30
0.0
 40
0
 41
0
  0
VERTEX
  8
0
 10
10.1433
 20
16.4061
 30
0.0
 40
0
 41
0
  0
VERTEX
  8
0
 10
10.1644
 20
16.3747
 30
0.0
 40
0
 41
0
  0
VERTEX
  8
0
 10
10.1722
 20
16.3364
 30
0.0
 40
0
 41
0
  0
SEQEND
 8
0
  0
POLYLINE
  8
0
 62
     0
 66
     1
 10
0
 20
0
 30
0.0
 70
     1
 40
0.329829
 41
0.329829
  0
VERTEX
  8
0
 10
10.1722
 20
16.3364
 30
0.0
 40
0.00458096
 41
0.00458096
  0
VERTEX
  8
0
 10
10.1644
 20
16.2982
 30
0.0
 40
0.00458096
 41
0.00458096
  0
VERTEX
  8
0
 10
10.1433
 20
16.2668
 30
0.0
 40
0.00458096
 41
0.00458096
  0
VERTEX
  8
0
 10
10.1121
 20
16.2458
 30
0.0
 40
0.00458096
 41
0.00458096
  0
VERTEX
  8
0
 10
10.0738
 20
16.2381
 30
0.0
 40
0.00458096
 41
0.00458096
  0
VERTEX
  8
0
 10
10.0354
 20
16.2458
 30
0.0
 40
0.00458096
 41
0.00458096
  0
VERTEX
  8
0
 10
10.0042
 20
16.2668
 30
0.0
 40
0.00458096
 41
0.00458096
  0
VERTEX
  8
0
 10
9.98307
 20
16.2982
 30
0.0
 40
0.00458096
 41
0.00458096
  0
VERTEX
  8
0
 10
9.97537
 20
16.3364
 30
0.0
 40
0.00458096
 41
0.00458096
  0
VERTEX
  8
0
 10
9.98307
 20
16.3747
 30
0.0
 40
0.00458096
 41
0.00458096
  0
VERTEX
  8
0
 10
10.0042
 20
16.4061
 30
0.0
 40
0.00458096
 41
0.00458096
  0
VERTEX
  8
0
 10
10.0354
 20
16.4272
 30
0.0
 40
0.00458096
 41
0.00458096
  0
VERTEX
  8
0
 10
10.0738
 20
16.4349
 30
0.0
 40
0.00458096
 41
0.00458096
  0
VERTEX
  8
0
 10
10.1121
 20
16.4272
 30
0.0
 40
0.00458096
 41
0.00458096
  0
VERTEX
  8
0
 10
10.1433
 20
16.4061
 30
0.0
 40
0.00458096
 41
0.00458096
  0
VERTEX
  8
0
 10
10.1644
 20
16.3747
 30
0.0
 40
0.00458096
 41
0.00458096
  0
VERTEX
  8
0
 10
10.1722
 20
16.3364
 30
0.0
 40
0.00458096
 41
0.00458096
  0
SEQEND
 8
0
  0
POLYLINE
  8
0
 62
     0
 66
     1
 10
0
 20
0
 30
0.0
 70
     1
 40
0
 41
0
  0
VERTEX
  8
0
 10
19.8572
 20
16.9271
 30
0.0
 40
0
 41
0
  0
VERTEX
  8
0
 10
19.8494
 20
16.8887
 30
0.0
 40
0
 41
0
  0
VERTEX
  8
0
 10
19.8283
 20
16.8574
 30
0.0
 40
0
 41
0
  0
VERTEX
  8
0
 10
19.7971
 20
16.8362
 30
0.0
 40
0
 41
0
  0
VERTEX
  8
0
 10
19.7588
 20
16.8286
 30
0.0
 40
0
 41
0
  0
VERTEX
  8
0
 10
19.7204
 20
16.8362
 30
0.0
 40
0
 41
0
  0
VERTEX
  8
0
 10
19.6892
 20
16.8574
 30
0.0
 40
0
 41
0
  0
VERTEX
  8
0
 10
19.6681
 20
16.8887
 30
0.0
 40
0
 41
0
  0
VERTEX
  8
0
 10
19.6604
 20
16.9271
 30
0.0
 40
0
 41
0
  0
VERTEX
  8
0
 10
19.6681
 20
16.9653
 30
0.0
 40
0
 41
0
  0
VERTEX
  8
0
 10
19.6892
 20
16.9967
 30
0.0
 40
0
 41
0
  0
VERTEX
  8
0
 10
19.7204
 20
17.0178
 30
0.0
 40
0
 41
0
  0
VERTEX
  8
0
 10
19.7588
 20
17.0254
 30
0.0
 40
0
 41
0
  0
VERTEX
  8
0
 10
19.7971
 20
17.0178
 30
0.0
 40
0
 41
0
  0
VERTEX
  8
0
 10
19.8283
 20
16.9967
 30
0.0
 40
0
 41
0
  0
VERTEX
  8
0
 10
19.8494
 20
16.9653
 30
0.0
 40
0
 41
0
  0
VERTEX
  8
0
 10
19.8572
 20
16.9271
 30
0.0
 40
0
 41
0
  0
SEQEND
 8
0
  0
POLYLINE
  8
0
 62
     0
 66
     1
 10
0
 20
0
 30
0.0
 70
     1
 40
0.329829
 41
0.329829
  0
VERTEX
  8
0
 10
19.8572
 20
16.9271
 30
0.0
 40
0.00458096
 41
0.00458096
  0
VERTEX
  8
0
 10
19.8494
 20
16.8887
 30
0.0
 40
0.00458096
 41
0.00458096
  0
VERTEX
  8
0
 10
19.8283
 20
16.8574
 30
0.0
 40
0.00458096
 41
0.00458096
  0
VERTEX
  8
0
 10
19.7971
 20
16.8362
 30
0.0
 40
0.00458096
 41
0.00458096
  0
VERTEX
  8
0
 10
19.7588
 20
16.8286
 30
0.0
 40
0.00458096
 41
0.00458096
  0
VERTEX
  8
0
 10
19.7204
 20
16.8362
 30
0.0
 40
0.00458096
 41
0.00458096
  0
VERTEX
  8
0
 10
19.6892
 20
16.8574
 30
0.0
 40
0.00458096
 41
0.00458096
  0
VERTEX
  8
0
 10
19.6681
 20
16.8887
 30
0.0
 40
0.00458096
 41
0.00458096
  0
VERTEX
  8
0
 10
19.6604
 20
16.9271
 30
0.0
 40
0.00458096
 41
0.00458096
  0
VERTEX
  8
0
 10
19.6681
 20
16.9653
 30
0.0
 40
0.00458096
 41
0.00458096
  0
VERTEX
  8
0
 10
19.6892
 20
16.9967
 30
0.0
 40
0.00458096
 41
0.00458096
  0
VERTEX
  8
0
 10
19.7204
 20
17.0178
 30
0.0
 40
0.00458096
 41
0.00458096
  0
VERTEX
  8
0
 10
19.7588
 20
17.0254
 30
0.0
 40
0.00458096
 41
0.00458096
  0
VERTEX
  8
0
 10
19.7971
 20
17.0178
 30
0.0
 40
0.00458096
 41
0.00458096
  0
VERTEX
  8
0
 10
19.8283
 20
16.9967
 30
0.0
 40
0.00458096
 41
0.00458096
  0
VERTEX
  8
0
 10
19.8494
 20
16.9653
 30
0.0
 40
0.00458096
 41
0.00458096
  0
VERTEX
  8
0
 10
19.8572
 20
16.9271
 30
0.0
 40
0.00458096
 41
0.00458096
  0
SEQEND
 8
0
  0
POLYLINE
  8
0
 62
     0
 66
     1
 10
0
 20
0
 30
0.0
 70
     1
 40
0
 41
0
  0
VERTEX
  8
0
 10
16.0776
 20
16.9271
 30
0.0
 40
0
 41
0
  0
VERTEX
  8
0
 10
16.07
 20
16.8887
 30
0.0
 40
0
 41
0
  0
VERTEX
  8
0
 10
16.0489
 20
16.8574
 30
0.0
 40
0
 41
0
  0
VERTEX
  8
0
 10
16.0176
 20
16.8362
 30
0.0
 40
0
 41
0
  0
VERTEX
  8
0
 10
15.9793
 20
16.8286
 30
0.0
 40
0
 41
0
  0
VERTEX
  8
0
 10
15.941
 20
16.8362
 30
0.0
 40
0
 41
0
  0
VERTEX
  8
0
 10
15.9097
 20
16.8574
 30
0.0
 40
0
 41
0
  0
VERTEX
  8
0
 10
15.8886
 20
16.8887
 30
0.0
 40
0
 41
0
  0
VERTEX
  8
0
 10
15.8808
 20
16.9271
 30
0.0
 40
0
 41
0
  0
VERTEX
  8
0
 10
15.8886
 20
16.9653
 30
0.0
 40
0
 41
0
  0
VERTEX
  8
0
 10
15.9097
 20
16.9967
 30
0.0
 40
0
 41
0
  0
VERTEX
  8
0
 10
15.941
 20
17.0178
 30
0.0
 40
0
 41
0
  0
VERTEX
  8
0
 10
15.9793
 20
17.0254
 30
0.0
 40
0
 41
0
  0
VERTEX
  8
0
 10
16.0176
 20
17.0178
 30
0.0
 40
0
 41
0
  0
VERTEX
  8
0
 10
16.0489
 20
16.9967
 30
0.0
 40
0
 41
0
  0
VERTEX
  8
0
 10
16.07
 20
16.9653
 30
0.0
 40
0
 41
0
  0
VERTEX
  8
0
 10
16.0776
 20
16.9271
 30
0.0
 40
0
 41
0
  0
SEQEND
 8
0
  0
POLYLINE
  8
0
 62
     0
 66
     1
 10
0
 20
0
 30
0.0
 70
     1
 40
0.329829
 41
0.329829
  0
VERTEX
  8
0
 10
16.0776
 20
16.9271
 30
0.0
 40
0.00458096
 41
0.00458096
  0
VERTEX
  8
0
 10
16.07
 20
16.8887
 30
0.0
 40
0.00458096
 41
0.00458096
  0
VERTEX
  8
0
 10
16.0489
 20
16.8574
 30
0.0
 40
0.00458096
 41
0.00458096
  0
VERTEX
  8
0
 10
16.0176
 20
16.8362
 30
0.0
 40
0.00458096
 41
0.00458096
  0
VERTEX
  8
0
 10
15.9793
 20
16.8286
 30
0.0
 40
0.00458096
 41
0.00458096
  0
VERTEX
  8
0
 10
15.941
 20
16.8362
 30
0.0
 40
0.00458096
 41
0.00458096
  0
VERTEX
  8
0
 10
15.9097
 20
16.8574
 30
0.0
 40
0.00458096
 41
0.00458096
  0
VERTEX
  8
0
 10
15.8886
 20
16.8887
 30
0.0
 40
0.00458096
 41
0.00458096
  0
VERTEX
  8
0
 10
15.8808
 20
16.9271
 30
0.0
 40
0.00458096
 41
0.00458096
  0
VERTEX
  8
0
 10
15.8886
 20
16.9653
 30
0.0
 40
0.00458096
 41
0.00458096
  0
VERTEX
  8
0
 10
15.9097
 20
16.9967
 30
0.0
 40
0.00458096
 41
0.00458096
  0
VERTEX
  8
0
 10
15.941
 20
17.0178
 30
0.0
 40
0.00458096
 41
0.00458096
  0
VERTEX
  8
0
 10
15.9793
 20
17.0254
 30
0.0
 40
0.00458096
 41
0.00458096
  0
VERTEX
  8
0
 10
16.0176
 20
17.0178
 30
0.0
 40
0.00458096
 41
0.00458096
  0
VERTEX
  8
0
 10
16.0489
 20
16.9967
 30
0.0
 40
0.00458096
 41
0.00458096
  0
VERTEX
  8
0
 10
16.07
 20
16.9653
 30
0.0
 40
0.00458096
 41
0.00458096
  0
VERTEX
  8
0
 10
16.0776
 20
16.9271
 30
0.0
 40
0.00458096
 41
0.00458096
  0
SEQEND
 8
0
  0
POLYLINE
  8
0
 62
     0
 66
     1
 10
0
 20
0
 30
0.0
 70
     1
 40
0.402663
 41
0.402663
  0
VERTEX
  8
0
 10
4.53364
 20
22.8068
 30
0.0
 40
0.00559254
 41
0.00559254
  0
VERTEX
  8
0
 10
4.53375
 20
22.8067
 30
0.0
 40
0.00559254
 41
0.00559254
  0
VERTEX
  8
0
 10
4.53375
 20
22.8068
 30
0.0
 40
0.00559254
 41
0.00559254
  0
VERTEX
  8
0
 10
4.53364
 20
22.8068
 30
0.0
 40
0.00559254
 41
0.00559254
  0
SEQEND
 8
0
  0
POLYLINE
  8
0
 62
     0
 66
     1
 10
0
 20
0
 30
0.0
 70
     1
 40
0.402663
 41
0.402663
  0
VERTEX
  8
0
 10
4.53375
 20
22.8067
 30
0.0
 40
0.00559254
 41
0.00559254
  0
VERTEX
  8
0
 10
4.13683
 20
22.8017
 30
0.0
 40
0.00559254
 41
0.00559254
  0
VERTEX
  8
0
 10
4.12924
 20
22.8014
 30
0.0
 40
0.00559254
 41
0.00559254
  0
VERTEX
  8
0
 10
4.09944
 20
22.8
 30
0.0
 40
0.00559254
 41
0.00559254
  0
VERTEX
  8
0
 10
3.88314
 20
22.7849
 30
0.0
 40
0.00559254
 41
0.00559254
  0
VERTEX
  8
0
 10
3.67464
 20
22.7556
 30
0.0
 40
0.00559254
 41
0.00559254
  0
VERTEX
  8
0
 10
3.48053
 20
22.7074
 30
0.0
 40
0.00559254
 41
0.00559254
  0
VERTEX
  8
0
 10
3.30718
 20
22.6356
 30
0.0
 40
0.00559254
 41
0.00559254
  0
VERTEX
  8
0
 10
3.16118
 20
22.5356
 30
0.0
 40
0.00559254
 41
0.00559254
  0
VERTEX
  8
0
 10
3.0491
 20
22.4026
 30
0.0
 40
0.00559254
 41
0.00559254
  0
VERTEX
  8
0
 10
2.97732
 20
22.2321
 30
0.0
 40
0.00559254
 41
0.00559254
  0
VERTEX
  8
0
 10
2.95247
 20
22.0193
 30
0.0
 40
0.00559254
 41
0.00559254
  0
VERTEX
  8
0
 10
2.95426
 20
21.9831
 30
0.0
 40
0.00559254
 41
0.00559254
  0
VERTEX
  8
0
 10
2.95383
 20
21.9561
 30
0.0
 40
0.00559254
 41
0.00559254
  0
VERTEX
  8
0
 10
2.96522
 20
21.871
 30
0.0
 40
0.00559254
 41
0.00559254
  0
VERTEX
  8
0
 10
2.99858
 20
21.7765
 30
0.0
 40
0.00559254
 41
0.00559254
  0
VERTEX
  8
0
 10
3.05279
 20
21.6742
 30
0.0
 40
0.00559254
 41
0.00559254
  0
VERTEX
  8
0
 10
3.12668
 20
21.5653
 30
0.0
 40
0.00559254
 41
0.00559254
  0
VERTEX
  8
0
 10
3.21907
 20
21.4511
 30
0.0
 40
0.00559254
 41
0.00559254
  0
VERTEX
  8
0
 10
3.32894
 20
21.3333
 30
0.0
 40
0.00559254
 41
0.00559254
  0
VERTEX
  8
0
 10
3.45503
 20
21.2131
 30
0.0
 40
0.00559254
 41
0.00559254
  0
VERTEX
  8
0
 10
3.59625
 20
21.0918
 30
0.0
 40
0.00559254
 41
0.00559254
  0
VERTEX
  8
0
 10
3.85732
 20
20.9064
 30
0.0
 40
0.00559254
 41
0.00559254
  0
VERTEX
  8
0
 10
4.15543
 20
20.751
 30
0.0
 40
0.00559254
 41
0.00559254
  0
VERTEX
  8
0
 10
4.48286
 20
20.6219
 30
0.0
 40
0.00559254
 41
0.00559254
  0
VERTEX
  8
0
 10
4.83171
 20
20.5157
 30
0.0
 40
0.00559254
 41
0.00559254
  0
VERTEX
  8
0
 10
5.19417
 20
20.4288
 30
0.0
 40
0.00559254
 41
0.00559254
  0
VERTEX
  8
0
 10
5.5625
 20
20.3575
 30
0.0
 40
0.00559254
 41
0.00559254
  0
VERTEX
  8
0
 10
5.92888
 20
20.2983
 30
0.0
 40
0.00559254
 41
0.00559254
  0
VERTEX
  8
0
 10
6.28549
 20
20.2476
 30
0.0
 40
0.00559254
 41
0.00559254
  0
VERTEX
  8
0
 10
7.02035
 20
20.1796
 30
0.0
 40
0.00559254
 41
0.00559254
  0
VERTEX
  8
0
 10
7.75771
 20
20.166
 30
0.0
 40
0.00559254
 41
0.00559254
  0
VERTEX
  8
0
 10
8.49707
 20
20.1929
 30
0.0
 40
0.00559254
 41
0.00559254
  0
VERTEX
  8
0
 10
9.23785
 20
20.2462
 30
0.0
 40
0.00559254
 41
0.00559254
  0
VERTEX
  8
0
 10
9.97944
 20
20.3119
 30
0.0
 40
0.00559254
 41
0.00559254
  0
VERTEX
  8
0
 10
10.7214
 20
20.3764
 30
0.0
 40
0.00559254
 41
0.00559254
  0
VERTEX
  8
0
 10
11.4629
 20
20.4251
 30
0.0
 40
0.00559254
 41
0.00559254
  0
VERTEX
  8
0
 10
12.2038
 20
20.4446
 30
0.0
 40
0.00559254
 41
0.00559254
  0
VERTEX
  8
0
 10
12.9447
 20
20.4251
 30
0.0
 40
0.00559254
 41
0.00559254
  0
VERTEX
  8
0
 10
13.6865
 20
20.3764
 30
0.0
 40
0.00559254
 41
0.00559254
  0
VERTEX
  8
0
 10
14.4286
 20
20.3119
 30
0.0
 40
0.00559254
 41
0.00559254
  0
VERTEX
  8
0
 10
15.1704
 20
20.2462
 30
0.0
 40
0.00559254
 41
0.00559254
  0
VERTEX
  8
0
 10
15.9112
 20
20.1929
 30
0.0
 40
0.00559254
 41
0.00559254
  0
VERTEX
  8
0
 10
16.6508
 20
20.166
 30
0.0
 40
0.00559254
 41
0.00559254
  0
VERTEX
  8
0
 10
17.3883
 20
20.1796
 30
0.0
 40
0.00559254
 41
0.00559254
  0
VERTEX
  8
0
 10
18.1235
 20
20.2476
 30
0.0
 40
0.00559254
 41
0.00559254
  0
VERTEX
  8
0
 10
18.48
 20
20.2983
 30
0.0
 40
0.00559254
 41
0.00559254
  0
VERTEX
  8
0
 10
18.8464
 20
20.3575
 30
0.0
 40
0.00559254
 41
0.00559254
  0
VERTEX
  8
0
 10
19.2147
 20
20.4288
 30
0.0
 40
0.00559254
 41
0.00559254
  0
VERTEX
  8
0
 10
19.5772
 20
20.5157
 30
0.0
 40
0.00559254
 41
0.00559254
  0
VERTEX
  8
0
 10
19.9261
 20
20.6219
 30
0.0
 40
0.00559254
 41
0.00559254
  0
VERTEX
  8
0
 10
20.2535
 20
20.751
 30
0.0
 40
0.00559254
 41
0.00559254
  0
VERTEX
  8
0
 10
20.5515
 20
20.9064
 30
0.0
 40
0.00559254
 41
0.00559254
  0
VERTEX
  8
0
 10
20.8126
 20
21.0918
 30
0.0
 40
0.00559254
 41
0.00559254
  0
VERTEX
  8
0
 10
20.9539
 20
21.2131
 30
0.0
 40
0.00559254
 41
0.00559254
  0
VERTEX
  8
0
 10
21.08
 20
21.3333
 30
0.0
 40
0.00559254
 41
0.00559254
  0
VERTEX
  8
0
 10
21.1897
 20
21.4511
 30
0.0
 40
0.00559254
 41
0.00559254
  0
VERTEX
  8
0
 10
21.2822
 20
21.5653
 30
0.0
 40
0.00559254
 41
0.00559254
  0
VERTEX
  8
0
 10
21.3561
 20
21.6742
 30
0.0
 40
0.00559254
 41
0.00559254
  0
VERTEX
  8
0
 10
21.4103
 20
21.7765
 30
0.0
 40
0.00559254
 41
0.00559254
  0
VERTEX
  8
0
 10
21.4436
 20
21.871
 30
0.0
 40
0.00559254
 41
0.00559254
  0
VERTEX
  8
0
 10
21.4551
 20
21.9561
 30
0.0
 40
0.00559254
 41
0.00559254
  0
VERTEX
  8
0
 10
21.4547
 20
21.9831
 30
0.0
 40
0.00559254
 41
0.00559254
  0
VERTEX
  8
0
 10
21.4564
 20
22.0193
 30
0.0
 40
0.00559254
 41
0.00559254
  0
VERTEX
  8
0
 10
21.4315
 20
22.2321
 30
0.0
 40
0.00559254
 41
0.00559254
  0
VERTEX
  8
0
 10
21.3597
 20
22.4026
 30
0.0
 40
0.00559254
 41
0.00559254
  0
VERTEX
  8
0
 10
21.2476
 20
22.5356
 30
0.0
 40
0.00559254
 41
0.00559254
  0
VERTEX
  8
0
 10
21.1017
 20
22.6356
 30
0.0
 40
0.00559254
 41
0.00559254
  0
VERTEX
  8
0
 10
20.9283
 20
22.7074
 30
0.0
 40
0.00559254
 41
0.00559254
  0
VERTEX
  8
0
 10
20.7343
 20
22.7556
 30
0.0
 40
0.00559254
 41
0.00559254
  0
VERTEX
  8
0
 10
20.5258
 20
22.7849
 30
0.0
 40
0.00559254
 41
0.00559254
  0
VERTEX
  8
0
 10
20.3096
 20
22.8
 30
0.0
 40
0.00559254
 41
0.00559254
  0
VERTEX
  8
0
 10
20.2797
 20
22.8014
 30
0.0
 40
0.00559254
 41
0.00559254
  0
VERTEX
  8
0
 10
20.2721
 20
22.8017
 30
0.0
 40
0.00559254
 41
0.00559254
  0
VERTEX
  8
0
 10
19.8751
 20
22.8067
 30
0.0
 40
0.00559254
 41
0.00559254
  0
VERTEX
  8
0
 10
19.875
 20
22.8067
 30
0.0
 40
0.00559254
 41
0.00559254
  0
VERTEX
  8
0
 10
19.8593
 20
22.7753
 30
0.0
 40
0.00559254
 41
0.00559254
  0
VERTEX
  8
0
 10
19.809
 20
22.6833
 30
0.0
 40
0.00559254
 41
0.00559254
  0
VERTEX
  8
0
 10
19.809
 20
22.6832
 30
0.0
 40
0.00559254
 41
0.00559254
  0
VERTEX
  8
0
 10
19.7351
 20
22.5658
 30
0.0
 40
0.00559254
 41
0.00559254
  0
VERTEX
  8
0
 10
19.6953
 20
22.5093
 30
0.0
 40
0.00559254
 41
0.00559254
  0
VERTEX
  8
0
 10
19.6322
 20
22.4278
 30
0.0
 40
0.00559254
 41
0.00559254
  0
VERTEX
  8
0
 10
19.6104
 20
22.4015
 30
0.0
 40
0.00559254
 41
0.00559254
  0
VERTEX
  8
0
 10
19.5653
 20
22.35
 30
0.0
 40
0.00559254
 41
0.00559254
  0
VERTEX
  8
0
 10
19.5421
 20
22.325
 30
0.0
 40
0.00559254
 41
0.00559254
  0
VERTEX
  8
0
 10
19.4949
 20
22.2764
 30
0.0
 40
0.00559254
 41
0.00559254
  0
VERTEX
  8
0
 10
19.4947
 20
22.2763
 30
0.0
 40
0.00559254
 41
0.00559254
  0
VERTEX
  8
0
 10
19.4904
 20
22.2721
 30
0.0
 40
0.00559254
 41
0.00559254
  0
VERTEX
  8
0
 10
19.4207
 20
22.2064
 30
0.0
 40
0.00559254
 41
0.00559254
  0
VERTEX
  8
0
 10
19.4204
 20
22.2061
 30
0.0
 40
0.00559254
 41
0.00559254
  0
VERTEX
  8
0
 10
19.4199
 20
22.2056
 30
0.0
 40
0.00559254
 41
0.00559254
  0
VERTEX
  8
0
 10
19.369
 20
22.1617
 30
0.0
 40
0.00559254
 41
0.00559254
  0
VERTEX
  8
0
 10
19.3428
 20
22.1401
 30
0.0
 40
0.00559254
 41
0.00559254
  0
VERTEX
  8
0
 10
19.3161
 20
22.1192
 30
0.0
 40
0.00559254
 41
0.00559254
  0
VERTEX
  8
0
 10
19.2892
 20
22.0986
 30
0.0
 40
0.00559254
 41
0.00559254
  0
VERTEX
  8
0
 10
19.1782
 20
22.021
 30
0.0
 40
0.00559254
 41
0.00559254
  0
VERTEX
  8
0
 10
19.1496
 20
22.0029
 30
0.0
 40
0.00559254
 41
0.00559254
  0
VERTEX
  8
0
 10
19.0915
 20
21.9681
 30
0.0
 40
0.00559254
 41
0.00559254
  0
VERTEX
  8
0
 10
19.091
 20
21.9676
 30
0.0
 40
0.00559254
 41
0.00559254
  0
VERTEX
  8
0
 10
19.0621
 20
21.9514
 30
0.0
 40
0.00559254
 41
0.00559254
  0
VERTEX
  8
0
 10
19.0542
 20
21.9471
 30
0.0
 40
0.00559254
 41
0.00559254
  0
VERTEX
  8
0
 10
19.0325
 20
21.9353
 30
0.0
 40
0.00559254
 41
0.00559254
  0
VERTEX
  8
0
 10
19.0237
 20
21.9307
 30
0.0
 40
0.00559254
 41
0.00559254
  0
VERTEX
  8
0
 10
19.0029
 20
21.9199
 30
0.0
 40
0.00559254
 41
0.00559254
  0
VERTEX
  8
0
 10
19.0022
 20
21.9194
 30
0.0
 40
0.00559254
 41
0.00559254
  0
VERTEX
  8
0
 10
18.9721
 20
21.9044
 30
0.0
 40
0.00559254
 41
0.00559254
  0
VERTEX
  8
0
 10
18.9672
 20
21.9021
 30
0.0
 40
0.00559254
 41
0.00559254
  0
VERTEX
  8
0
 10
18.9414
 20
21.8896
 30
0.0
 40
0.00559254
 41
0.00559254
  0
VERTEX
  8
0
 10
18.9104
 20
21.8756
 30
0.0
 40
0.00559254
 41
0.00559254
  0
VERTEX
  8
0
 10
18.8796
 20
21.8621
 30
0.0
 40
0.00559254
 41
0.00559254
  0
VERTEX
  8
0
 10
18.8758
 20
21.8606
 30
0.0
 40
0.00559254
 41
0.00559254
  0
VERTEX
  8
0
 10
18.8481
 20
21.8489
 30
0.0
 40
0.00559254
 41
0.00559254
  0
VERTEX
  8
0
 10
18.8169
 20
21.8367
 30
0.0
 40
0.00559254
 41
0.00559254
  0
VERTEX
  8
0
 10
18.8094
 20
21.8338
 30
0.0
 40
0.00559254
 41
0.00559254
  0
VERTEX
  8
0
 10
18.7535
 20
21.8132
 30
0.0
 40
0.00559254
 41
0.00559254
  0
VERTEX
  8
0
 10
18.7529
 20
21.8132
 30
0.0
 40
0.00559254
 41
0.00559254
  0
VERTEX
  8
0
 10
18.7438
 20
21.81
 30
0.0
 40
0.00559254
 41
0.00559254
  0
VERTEX
  8
0
 10
18.7203
 20
21.8021
 30
0.0
 40
0.00559254
 41
0.00559254
  0
VERTEX
  8
0
 10
18.6551
 20
21.7819
 30
0.0
 40
0.00559254
 41
0.00559254
  0
VERTEX
  8
0
 10
18.6506
 20
21.7807
 30
0.0
 40
0.00559254
 41
0.00559254
  0
VERTEX
  8
0
 10
18.6221
 20
21.7728
 30
0.0
 40
0.00559254
 41
0.00559254
  0
VERTEX
  8
0
 10
18.611
 20
21.7699
 30
0.0
 40
0.00559254
 41
0.00559254
  0
VERTEX
  8
0
 10
18.589
 20
21.7642
 30
0.0
 40
0.00559254
 41
0.00559254
  0
VERTEX
  8
0
 10
18.5879
 20
21.7639
 30
0.0
 40
0.00559254
 41
0.00559254
  0
VERTEX
  8
0
 10
18.5558
 20
21.756
 30
0.0
 40
0.00559254
 41
0.00559254
  0
VERTEX
  8
0
 10
18.5225
 20
21.7485
 30
0.0
 40
0.00559254
 41
0.00559254
  0
VERTEX
  8
0
 10
18.5156
 20
21.7471
 30
0.0
 40
0.00559254
 41
0.00559254
  0
VERTEX
  8
0
 10
18.4886
 20
21.7415
 30
0.0
 40
0.00559254
 41
0.00559254
  0
VERTEX
  8
0
 10
18.4549
 20
21.7351
 30
0.0
 40
0.00559254
 41
0.00559254
  0
VERTEX
  8
0
 10
18.4208
 20
21.7294
 30
0.0
 40
0.00559254
 41
0.00559254
  0
VERTEX
  8
0
 10
18.3872
 20
21.7243
 30
0.0
 40
0.00559254
 41
0.00559254
  0
VERTEX
  8
0
 10
18.3746
 20
21.7226
 30
0.0
 40
0.00559254
 41
0.00559254
  0
VERTEX
  8
0
 10
18.3526
 20
21.7197
 30
0.0
 40
0.00559254
 41
0.00559254
  0
VERTEX
  8
0
 10
18.345
 20
21.7188
 30
0.0
 40
0.00559254
 41
0.00559254
  0
VERTEX
  8
0
 10
18.3182
 20
21.7156
 30
0.0
 40
0.00559254
 41
0.00559254
  0
VERTEX
  8
0
 10
18.3181
 20
21.7156
 30
0.0
 40
0.00559254
 41
0.00559254
  0
VERTEX
  8
0
 10
18.314
 20
21.7153
 30
0.0
 40
0.00559254
 41
0.00559254
  0
VERTEX
  8
0
 10
18.2836
 20
21.7122
 30
0.0
 40
0.00559254
 41
0.00559254
  0
VERTEX
  8
0
 10
18.2789
 20
21.7118
 30
0.0
 40
0.00559254
 41
0.00559254
  0
VERTEX
  8
0
 10
18.2489
 20
21.7094
 30
0.0
 40
0.00559254
 41
0.00559254
  0
VERTEX
  8
0
 10
18.2447
 20
21.7092
 30
0.0
 40
0.00559254
 41
0.00559254
  0
VERTEX
  8
0
 10
18.2142
 20
21.7072
 30
0.0
 40
0.00559254
 41
0.00559254
  0
VERTEX
  8
0
 10
18.2064
 20
21.7068
 30
0.0
 40
0.00559254
 41
0.00559254
  0
VERTEX
  8
0
 10
18.1793
 20
21.7057
 30
0.0
 40
0.00559254
 41
0.00559254
  0
VERTEX
  8
0
 10
18.17
 20
21.7054
 30
0.0
 40
0.00559254
 41
0.00559254
  0
VERTEX
  8
0
 10
18.1443
 20
21.7047
 30
0.0
 40
0.00559254
 41
0.00559254
  0
VERTEX
  8
0
 10
18.1324
 20
21.7046
 30
0.0
 40
0.00559254
 41
0.00559254
  0
VERTEX
  8
0
 10
18.1094
 20
21.7043
 30
0.0
 40
0.00559254
 41
0.00559254
  0
VERTEX
  8
0
 10
18.0865
 20
21.7046
 30
0.0
 40
0.00559254
 41
0.00559254
  0
VERTEX
  8
0
 10
18.075
 20
21.7047
 30
0.0
 40
0.00559254
 41
0.00559254
  0
VERTEX
  8
0
 10
18.0746
 20
21.7047
 30
0.0
 40
0.00559254
 41
0.00559254
  0
VERTEX
  8
0
 10
18.0482
 20
21.7054
 30
0.0
 40
0.00559254
 41
0.00559254
  0
VERTEX
  8
0
 10
18.0397
 20
21.7056
 30
0.0
 40
0.00559254
 41
0.00559254
  0
VERTEX
  8
0
 10
18.0111
 20
21.7069
 30
0.0
 40
0.00559254
 41
0.00559254
  0
VERTEX
  8
0
 10
18.0049
 20
21.7072
 30
0.0
 40
0.00559254
 41
0.00559254
  0
VERTEX
  8
0
 10
17.9757
 20
21.709
 30
0.0
 40
0.00559254
 41
0.00559254
  0
VERTEX
  8
0
 10
17.97
 20
21.7093
 30
0.0
 40
0.00559254
 41
0.00559254
  0
VERTEX
  8
0
 10
17.9426
 20
21.7115
 30
0.0
 40
0.00559254
 41
0.00559254
  0
VERTEX
  8
0
 10
17.9353
 20
21.7122
 30
0.0
 40
0.00559254
 41
0.00559254
  0
VERTEX
  8
0
 10
17.9211
 20
21.7136
 30
0.0
 40
0.00559254
 41
0.00559254
  0
VERTEX
  8
0
 10
17.8999
 20
21.7157
 30
0.0
 40
0.00559254
 41
0.00559254
  0
VERTEX
  8
0
 10
17.8665
 20
21.7196
 30
0.0
 40
0.00559254
 41
0.00559254
  0
VERTEX
  8
0
 10
17.8661
 20
21.7197
 30
0.0
 40
0.00559254
 41
0.00559254
  0
VERTEX
  8
0
 10
17.8458
 20
21.7224
 30
0.0
 40
0.00559254
 41
0.00559254
  0
VERTEX
  8
0
 10
17.8317
 20
21.7243
 30
0.0
 40
0.00559254
 41
0.00559254
  0
VERTEX
  8
0
 10
17.816
 20
21.7267
 30
0.0
 40
0.00559254
 41
0.00559254
  0
VERTEX
  8
0
 10
17.7974
 20
21.7294
 30
0.0
 40
0.00559254
 41
0.00559254
  0
VERTEX
  8
0
 10
17.7642
 20
21.7351
 30
0.0
 40
0.00559254
 41
0.00559254
  0
VERTEX
  8
0
 10
17.7483
 20
21.7381
 30
0.0
 40
0.00559254
 41
0.00559254
  0
VERTEX
  8
0
 10
17.7293
 20
21.7418
 30
0.0
 40
0.00559254
 41
0.00559254
  0
VERTEX
  8
0
 10
17.6967
 20
21.7485
 30
0.0
 40
0.00559254
 41
0.00559254
  0
VERTEX
  8
0
 10
17.6961
 20
21.7486
 30
0.0
 40
0.00559254
 41
0.00559254
  0
VERTEX
  8
0
 10
17.6632
 20
21.756
 30
0.0
 40
0.00559254
 41
0.00559254
  0
VERTEX
  8
0
 10
17.6471
 20
21.7599
 30
0.0
 40
0.00559254
 41
0.00559254
  0
VERTEX
  8
0
 10
17.6289
 20
21.7644
 30
0.0
 40
0.00559254
 41
0.00559254
  0
VERTEX
  8
0
 10
17.596
 20
21.7729
 30
0.0
 40
0.00559254
 41
0.00559254
  0
VERTEX
  8
0
 10
17.5639
 20
21.7819
 30
0.0
 40
0.00559254
 41
0.00559254
  0
VERTEX
  8
0
 10
17.5419
 20
21.7886
 30
0.0
 40
0.00559254
 41
0.00559254
  0
VERTEX
  8
0
 10
17.5307
 20
21.7919
 30
0.0
 40
0.00559254
 41
0.00559254
  0
VERTEX
  8
0
 10
17.4988
 20
21.8021
 30
0.0
 40
0.00559254
 41
0.00559254
  0
VERTEX
  8
0
 10
17.4776
 20
21.8092
 30
0.0
 40
0.00559254
 41
0.00559254
  0
VERTEX
  8
0
 10
17.466
 20
21.8132
 30
0.0
 40
0.00559254
 41
0.00559254
  0
VERTEX
  8
0
 10
17.4506
 20
21.8187
 30
0.0
 40
0.00559254
 41
0.00559254
  0
VERTEX
  8
0
 10
17.434
 20
21.8246
 30
0.0
 40
0.00559254
 41
0.00559254
  0
VERTEX
  8
0
 10
17.4194
 20
21.83
 30
0.0
 40
0.00559254
 41
0.00559254
  0
VERTEX
  8
0
 10
17.4019
 20
21.8367
 30
0.0
 40
0.00559254
 41
0.00559254
  0
VERTEX
  8
0
 10
17.3829
 20
21.8443
 30
0.0
 40
0.00559254
 41
0.00559254
  0
VERTEX
  8
0
 10
17.3708
 20
21.849
 30
0.0
 40
0.00559254
 41
0.00559254
  0
VERTEX
  8
0
 10
17.3456
 20
21.8596
 30
0.0
 40
0.00559254
 41
0.00559254
  0
VERTEX
  8
0
 10
17.3388
 20
21.8624
 30
0.0
 40
0.00559254
 41
0.00559254
  0
VERTEX
  8
0
 10
17.3085
 20
21.8756
 30
0.0
 40
0.00559254
 41
0.00559254
  0
VERTEX
  8
0
 10
17.2776
 20
21.8897
 30
0.0
 40
0.00559254
 41
0.00559254
  0
VERTEX
  8
0
 10
17.2517
 20
21.9021
 30
0.0
 40
0.00559254
 41
0.00559254
  0
VERTEX
  8
0
 10
17.2468
 20
21.9044
 30
0.0
 40
0.00559254
 41
0.00559254
  0
VERTEX
  8
0
 10
17.2315
 20
21.9121
 30
0.0
 40
0.00559254
 41
0.00559254
  0
VERTEX
  8
0
 10
17.2162
 20
21.9197
 30
0.0
 40
0.00559254
 41
0.00559254
  0
VERTEX
  8
0
 10
17.2043
 20
21.926
 30
0.0
 40
0.00559254
 41
0.00559254
  0
VERTEX
  8
0
 10
17.1864
 20
21.9353
 30
0.0
 40
0.00559254
 41
0.00559254
  0
VERTEX
  8
0
 10
17.1647
 20
21.9471
 30
0.0
 40
0.00559254
 41
0.00559254
  0
VERTEX
  8
0
 10
17.1568
 20
21.9514
 30
0.0
 40
0.00559254
 41
0.00559254
  0
VERTEX
  8
0
 10
17.1421
 20
21.9597
 30
0.0
 40
0.00559254
 41
0.00559254
  0
VERTEX
  8
0
 10
17.1275
 20
21.9681
 30
0.0
 40
0.00559254
 41
0.00559254
  0
VERTEX
  8
0
 10
17.1249
 20
21.9696
 30
0.0
 40
0.00559254
 41
0.00559254
  0
VERTEX
  8
0
 10
17.0976
 20
21.9856
 30
0.0
 40
0.00559254
 41
0.00559254
  0
VERTEX
  8
0
 10
17.0689
 20
22.0032
 30
0.0
 40
0.00559254
 41
0.00559254
  0
VERTEX
  8
0
 10
17.0408
 20
22.0211
 30
0.0
 40
0.00559254
 41
0.00559254
  0
VERTEX
  8
0
 10
17.0404
 20
22.0214
 30
0.0
 40
0.00559254
 41
0.00559254
  0
VERTEX
  8
0
 10
17.0332
 20
22.0261
 30
0.0
 40
0.00559254
 41
0.00559254
  0
VERTEX
  8
0
 10
17.0122
 20
22.04
 30
0.0
 40
0.00559254
 41
0.00559254
  0
VERTEX
  8
0
 10
17.0065
 20
22.0438
 30
0.0
 40
0.00559254
 41
0.00559254
  0
VERTEX
  8
0
 10
16.9842
 20
22.0592
 30
0.0
 40
0.00559254
 41
0.00559254
  0
VERTEX
  8
0
 10
16.9815
 20
22.061
 30
0.0
 40
0.00559254
 41
0.00559254
  0
VERTEX
  8
0
 10
16.9565
 20
22.0789
 30
0.0
 40
0.00559254
 41
0.00559254
  0
VERTEX
  8
0
 10
16.9297
 20
22.0986
 30
0.0
 40
0.00559254
 41
0.00559254
  0
VERTEX
  8
0
 10
16.9293
 20
22.0989
 30
0.0
 40
0.00559254
 41
0.00559254
  0
VERTEX
  8
0
 10
16.9171
 20
22.1082
 30
0.0
 40
0.00559254
 41
0.00559254
  0
VERTEX
  8
0
 10
16.9024
 20
22.1196
 30
0.0
 40
0.00559254
 41
0.00559254
  0
VERTEX
  8
0
 10
16.8762
 20
22.1401
 30
0.0
 40
0.00559254
 41
0.00559254
  0
VERTEX
  8
0
 10
16.8761
 20
22.1404
 30
0.0
 40
0.00559254
 41
0.00559254
  0
VERTEX
  8
0
 10
16.8633
 20
22.1507
 30
0.0
 40
0.00559254
 41
0.00559254
  0
VERTEX
  8
0
 10
16.8497
 20
22.1619
 30
0.0
 40
0.00559254
 41
0.00559254
  0
VERTEX
  8
0
 10
16.8453
 20
22.1658
 30
0.0
 40
0.00559254
 41
0.00559254
  0
VERTEX
  8
0
 10
16.8238
 20
22.184
 30
0.0
 40
0.00559254
 41
0.00559254
  0
VERTEX
  8
0
 10
16.7986
 20
22.2061
 30
0.0
 40
0.00559254
 41
0.00559254
  0
VERTEX
  8
0
 10
16.7736
 20
22.229
 30
0.0
 40
0.00559254
 41
0.00559254
  0
VERTEX
  8
0
 10
16.764
 20
22.2379
 30
0.0
 40
0.00559254
 41
0.00559254
  0
VERTEX
  8
0
 10
16.7244
 20
22.2761
 30
0.0
 40
0.00559254
 41
0.00559254
  0
VERTEX
  8
0
 10
16.7242
 20
22.2763
 30
0.0
 40
0.00559254
 41
0.00559254
  0
VERTEX
  8
0
 10
16.7004
 20
22.3003
 30
0.0
 40
0.00559254
 41
0.00559254
  0
VERTEX
  8
0
 10
16.7001
 20
22.3006
 30
0.0
 40
0.00559254
 41
0.00559254
  0
VERTEX
  8
0
 10
16.6865
 20
22.3149
 30
0.0
 40
0.00559254
 41
0.00559254
  0
VERTEX
  8
0
 10
16.6767
 20
22.3253
 30
0.0
 40
0.00559254
 41
0.00559254
  0
VERTEX
  8
0
 10
16.6535
 20
22.3503
 30
0.0
 40
0.00559254
 41
0.00559254
  0
VERTEX
  8
0
 10
16.631
 20
22.3756
 30
0.0
 40
0.00559254
 41
0.00559254
  0
VERTEX
  8
0
 10
16.6308
 20
22.3758
 30
0.0
 40
0.00559254
 41
0.00559254
  0
VERTEX
  8
0
 10
16.6086
 20
22.4015
 30
0.0
 40
0.00559254
 41
0.00559254
  0
VERTEX
  8
0
 10
16.6085
 20
22.4018
 30
0.0
 40
0.00559254
 41
0.00559254
  0
VERTEX
  8
0
 10
16.5897
 20
22.4244
 30
0.0
 40
0.00559254
 41
0.00559254
  0
VERTEX
  8
0
 10
16.5867
 20
22.4279
 30
0.0
 40
0.00559254
 41
0.00559254
  0
VERTEX
  8
0
 10
16.5669
 20
22.4526
 30
0.0
 40
0.00559254
 41
0.00559254
  0
VERTEX
  8
0
 10
16.5653
 20
22.4546
 30
0.0
 40
0.00559254
 41
0.00559254
  0
VERTEX
  8
0
 10
16.5599
 20
22.4618
 30
0.0
 40
0.00559254
 41
0.00559254
  0
VERTEX
  8
0
 10
16.5442
 20
22.4819
 30
0.0
 40
0.00559254
 41
0.00559254
  0
VERTEX
  8
0
 10
16.5237
 20
22.5094
 30
0.0
 40
0.00559254
 41
0.00559254
  0
VERTEX
  8
0
 10
16.5236
 20
22.5096
 30
0.0
 40
0.00559254
 41
0.00559254
  0
VERTEX
  8
0
 10
16.5036
 20
22.5374
 30
0.0
 40
0.00559254
 41
0.00559254
  0
VERTEX
  8
0
 10
16.5035
 20
22.5375
 30
0.0
 40
0.00559254
 41
0.00559254
  0
VERTEX
  8
0
 10
16.4839
 20
22.5657
 30
0.0
 40
0.00559254
 41
0.00559254
  0
VERTEX
  8
0
 10
16.4837
 20
22.566
 30
0.0
 40
0.00559254
 41
0.00559254
  0
VERTEX
  8
0
 10
16.4647
 20
22.5944
 30
0.0
 40
0.00559254
 41
0.00559254
  0
VERTEX
  8
0
 10
16.4646
 20
22.5946
 30
0.0
 40
0.00559254
 41
0.00559254
  0
VERTEX
  8
0
 10
16.4618
 20
22.599
 30
0.0
 40
0.00559254
 41
0.00559254
  0
VERTEX
  8
0
 10
16.4458
 20
22.6239
 30
0.0
 40
0.00559254
 41
0.00559254
  0
VERTEX
  8
0
 10
16.41
 20
22.6832
 30
0.0
 40
0.00559254
 41
0.00559254
  0
VERTEX
  8
0
 10
16.41
 20
22.6833
 30
0.0
 40
0.00559254
 41
0.00559254
  0
VERTEX
  8
0
 10
16.3926
 20
22.7136
 30
0.0
 40
0.00559254
 41
0.00559254
  0
VERTEX
  8
0
 10
16.3926
 20
22.7136
 30
0.0
 40
0.00559254
 41
0.00559254
  0
VERTEX
  8
0
 10
16.376
 20
22.7443
 30
0.0
 40
0.00559254
 41
0.00559254
  0
VERTEX
  8
0
 10
16.3597
 20
22.7753
 30
0.0
 40
0.00559254
 41
0.00559254
  0
VERTEX
  8
0
 10
16.344
 20
22.8068
 30
0.0
 40
0.00559254
 41
0.00559254
  0
VERTEX
  8
0
 10
16.3217
 20
22.7671
 30
0.0
 40
0.00559254
 41
0.00559254
  0
VERTEX
  8
0
 10
16.2578
 20
22.7301
 30
0.0
 40
0.00559254
 41
0.00559254
  0
VERTEX
  8
0
 10
16.1567
 20
22.6967
 30
0.0
 40
0.00559254
 41
0.00559254
  0
VERTEX
  8
0
 10
16.0228
 20
22.6676
 30
0.0
 40
0.00559254
 41
0.00559254
  0
VERTEX
  8
0
 10
15.8604
 20
22.6436
 30
0.0
 40
0.00559254
 41
0.00559254
  0
VERTEX
  8
0
 10
15.6742
 20
22.6254
 30
0.0
 40
0.00559254
 41
0.00559254
  0
VERTEX
  8
0
 10
15.4682
 20
22.6139
 30
0.0
 40
0.00559254
 41
0.00559254
  0
VERTEX
  8
0
 10
15.2472
 20
22.6099
 30
0.0
 40
0.00559254
 41
0.00559254
  0
VERTEX
  8
0
 10
15.0265
 20
22.6139
 30
0.0
 40
0.00559254
 41
0.00559254
  0
VERTEX
  8
0
 10
14.821
 20
22.6254
 30
0.0
 40
0.00559254
 41
0.00559254
  0
VERTEX
  8
0
 10
14.6349
 20
22.6435
 30
0.0
 40
0.00559254
 41
0.00559254
  0
VERTEX
  8
0
 10
14.4726
 20
22.6674
 30
0.0
 40
0.00559254
 41
0.00559254
  0
VERTEX
  8
0
 10
14.3386
 20
22.6965
 30
0.0
 40
0.00559254
 41
0.00559254
  0
VERTEX
  8
0
 10
14.2374
 20
22.7299
 30
0.0
 40
0.00559254
 41
0.00559254
  0
VERTEX
  8
0
 10
14.1733
 20
22.7667
 30
0.0
 40
0.00559254
 41
0.00559254
  0
VERTEX
  8
0
 10
14.1506
 20
22.8063
 30
0.0
 40
0.00559254
 41
0.00559254
  0
VERTEX
  8
0
 10
14.1175
 20
22.6303
 30
0.0
 40
0.00559254
 41
0.00559254
  0
VERTEX
  8
0
 10
14.0694
 20
22.4604
 30
0.0
 40
0.00559254
 41
0.00559254
  0
VERTEX
  8
0
 10
14.0072
 20
22.2976
 30
0.0
 40
0.00559254
 41
0.00559254
  0
VERTEX
  8
0
 10
13.9314
 20
22.1424
 30
0.0
 40
0.00559254
 41
0.00559254
  0
VERTEX
  8
0
 10
13.843
 20
21.9956
 30
0.0
 40
0.00559254
 41
0.00559254
  0
VERTEX
  8
0
 10
13.7427
 20
21.8575
 30
0.0
 40
0.00559254
 41
0.00559254
  0
VERTEX
  8
0
 10
13.6312
 20
21.7292
 30
0.0
 40
0.00559254
 41
0.00559254
  0
VERTEX
  8
0
 10
13.5092
 20
21.6111
 30
0.0
 40
0.00559254
 41
0.00559254
  0
VERTEX
  8
0
 10
13.3777
 20
21.5039
 30
0.0
 40
0.00559254
 41
0.00559254
  0
VERTEX
  8
0
 10
13.2371
 20
21.4082
 30
0.0
 40
0.00559254
 41
0.00559254
  0
VERTEX
  8
0
 10
13.0885
 20
21.3249
 30
0.0
 40
0.00559254
 41
0.00559254
  0
VERTEX
  8
0
 10
12.9325
 20
21.2543
 30
0.0
 40
0.00559254
 41
0.00559254
  0
VERTEX
  8
0
 10
12.7699
 20
21.1974
 30
0.0
 40
0.00559254
 41
0.00559254
  0
VERTEX
  8
0
 10
12.6013
 20
21.1547
 30
0.0
 40
0.00559254
 41
0.00559254
  0
VERTEX
  8
0
 10
12.4277
 20
21.1268
 30
0.0
 40
0.00559254
 41
0.00559254
  0
VERTEX
  8
0
 10
12.2497
 20
21.1144
 30
0.0
 40
0.00559254
 41
0.00559254
  0
VERTEX
  8
0
 10
12.2496
 20
21.1144
 30
0.0
 40
0.00559254
 41
0.00559254
  0
VERTEX
  8
0
 10
12.2421
 20
21.1143
 30
0.0
 40
0.00559254
 41
0.00559254
  0
VERTEX
  8
0
 10
12.2044
 20
21.1139
 30
0.0
 40
0.00559254
 41
0.00559254
  0
VERTEX
  8
0
 10
12.1667
 20
21.1143
 30
0.0
 40
0.00559254
 41
0.00559254
  0
VERTEX
  8
0
 10
12.1592
 20
21.1144
 30
0.0
 40
0.00559254
 41
0.00559254
  0
VERTEX
  8
0
 10
12.1591
 20
21.1144
 30
0.0
 40
0.00559254
 41
0.00559254
  0
VERTEX
  8
0
 10
11.9811
 20
21.1268
 30
0.0
 40
0.00559254
 41
0.00559254
  0
VERTEX
  8
0
 10
11.8074
 20
21.1547
 30
0.0
 40
0.00559254
 41
0.00559254
  0
VERTEX
  8
0
 10
11.6389
 20
21.1974
 30
0.0
 40
0.00559254
 41
0.00559254
  0
VERTEX
  8
0
 10
11.4762
 20
21.2543
 30
0.0
 40
0.00559254
 41
0.00559254
  0
VERTEX
  8
0
 10
11.3202
 20
21.3249
 30
0.0
 40
0.00559254
 41
0.00559254
  0
VERTEX
  8
0
 10
11.1716
 20
21.4082
 30
0.0
 40
0.00559254
 41
0.00559254
  0
VERTEX
  8
0
 10
11.031
 20
21.5039
 30
0.0
 40
0.00559254
 41
0.00559254
  0
VERTEX
  8
0
 10
10.8995
 20
21.6111
 30
0.0
 40
0.00559254
 41
0.00559254
  0
VERTEX
  8
0
 10
10.7775
 20
21.7292
 30
0.0
 40
0.00559254
 41
0.00559254
  0
VERTEX
  8
0
 10
10.666
 20
21.8575
 30
0.0
 40
0.00559254
 41
0.00559254
  0
VERTEX
  8
0
 10
10.5657
 20
21.9956
 30
0.0
 40
0.00559254
 41
0.00559254
  0
VERTEX
  8
0
 10
10.4773
 20
22.1425
 30
0.0
 40
0.00559254
 41
0.00559254
  0
VERTEX
  8
0
 10
10.4016
 20
22.2976
 30
0.0
 40
0.00559254
 41
0.00559254
  0
VERTEX
  8
0
 10
10.3393
 20
22.4606
 30
0.0
 40
0.00559254
 41
0.00559254
  0
VERTEX
  8
0
 10
10.2912
 20
22.6303
 30
0.0
 40
0.00559254
 41
0.00559254
  0
VERTEX
  8
0
 10
10.2582
 20
22.8064
 30
0.0
 40
0.00559254
 41
0.00559254
  0
VERTEX
  8
0
 10
10.2355
 20
22.7668
 30
0.0
 40
0.00559254
 41
0.00559254
  0
VERTEX
  8
0
 10
10.1714
 20
22.7299
 30
0.0
 40
0.00559254
 41
0.00559254
  0
VERTEX
  8
0
 10
10.0702
 20
22.6965
 30
0.0
 40
0.00559254
 41
0.00559254
  0
VERTEX
  8
0
 10
9.93619
 20
22.6675
 30
0.0
 40
0.00559254
 41
0.00559254
  0
VERTEX
  8
0
 10
9.77399
 20
22.6435
 30
0.0
 40
0.00559254
 41
0.00559254
  0
VERTEX
  8
0
 10
9.58789
 20
22.6254
 30
0.0
 40
0.00559254
 41
0.00559254
  0
VERTEX
  8
0
 10
9.38226
 20
22.6139
 30
0.0
 40
0.00559254
 41
0.00559254
  0
VERTEX
  8
0
 10
9.16157
 20
22.6099
 30
0.0
 40
0.00559254
 41
0.00559254
  0
VERTEX
  8
0
 10
8.94054
 20
22.6139
 30
0.0
 40
0.00559254
 41
0.00559254
  0
VERTEX
  8
0
 10
8.73465
 20
22.6254
 30
0.0
 40
0.00559254
 41
0.00559254
  0
VERTEX
  8
0
 10
8.54833
 20
22.6436
 30
0.0
 40
0.00559254
 41
0.00559254
  0
VERTEX
  8
0
 10
8.38607
 20
22.6676
 30
0.0
 40
0.00559254
 41
0.00559254
  0
VERTEX
  8
0
 10
8.25211
 20
22.6967
 30
0.0
 40
0.00559254
 41
0.00559254
  0
VERTEX
  8
0
 10
8.15099
 20
22.7301
 30
0.0
 40
0.00559254
 41
0.00559254
  0
VERTEX
  8
0
 10
8.08708
 20
22.7671
 30
0.0
 40
0.00559254
 41
0.00559254
  0
VERTEX
  8
0
 10
8.06483
 20
22.8068
 30
0.0
 40
0.00559254
 41
0.00559254
  0
VERTEX
  8
0
 10
8.0491
 20
22.7753
 30
0.0
 40
0.00559254
 41
0.00559254
  0
VERTEX
  8
0
 10
8.03429
 20
22.7471
 30
0.0
 40
0.00559254
 41
0.00559254
  0
VERTEX
  8
0
 10
8.01611
 20
22.7136
 30
0.0
 40
0.00559254
 41
0.00559254
  0
VERTEX
  8
0
 10
7.99181
 20
22.6715
 30
0.0
 40
0.00559254
 41
0.00559254
  0
VERTEX
  8
0
 10
7.96283
 20
22.6239
 30
0.0
 40
0.00559254
 41
0.00559254
  0
VERTEX
  8
0
 10
7.94694
 20
22.599
 30
0.0
 40
0.00559254
 41
0.00559254
  0
VERTEX
  8
0
 10
7.94417
 20
22.5947
 30
0.0
 40
0.00559254
 41
0.00559254
  0
VERTEX
  8
0
 10
7.94407
 20
22.5946
 30
0.0
 40
0.00559254
 41
0.00559254
  0
VERTEX
  8
0
 10
7.92497
 20
22.566
 30
0.0
 40
0.00559254
 41
0.00559254
  0
VERTEX
  8
0
 10
7.87722
 20
22.4989
 30
0.0
 40
0.00559254
 41
0.00559254
  0
VERTEX
  8
0
 10
7.86464
 20
22.4821
 30
0.0
 40
0.00559254
 41
0.00559254
  0
VERTEX
  8
0
 10
7.86447
 20
22.4819
 30
0.0
 40
0.00559254
 41
0.00559254
  0
VERTEX
  8
0
 10
7.84364
 20
22.4549
 30
0.0
 40
0.00559254
 41
0.00559254
  0
VERTEX
  8
0
 10
7.84347
 20
22.4547
 30
0.0
 40
0.00559254
 41
0.00559254
  0
VERTEX
  8
0
 10
7.82221
 20
22.4282
 30
0.0
 40
0.00559254
 41
0.00559254
  0
VERTEX
  8
0
 10
7.82206
 20
22.4281
 30
0.0
 40
0.00559254
 41
0.00559254
  0
VERTEX
  8
0
 10
7.81912
 20
22.4244
 30
0.0
 40
0.00559254
 41
0.00559254
  0
VERTEX
  8
0
 10
7.7864
 20
22.3857
 30
0.0
 40
0.00559254
 41
0.00559254
  0
VERTEX
  8
0
 10
7.75526
 20
22.3504
 30
0.0
 40
0.00559254
 41
0.00559254
  0
VERTEX
  8
0
 10
7.74349
 20
22.3376
 30
0.0
 40
0.00559254
 41
0.00559254
  0
VERTEX
  8
0
 10
7.73188
 20
22.3251
 30
0.0
 40
0.00559254
 41
0.00559254
  0
VERTEX
  8
0
 10
7.70861
 20
22.3007
 30
0.0
 40
0.00559254
 41
0.00559254
  0
VERTEX
  8
0
 10
7.68457
 20
22.2764
 30
0.0
 40
0.00559254
 41
0.00559254
  0
VERTEX
  8
0
 10
7.68435
 20
22.2763
 30
0.0
 40
0.00559254
 41
0.00559254
  0
VERTEX
  8
0
 10
7.64469
 20
22.2381
 30
0.0
 40
0.00559254
 41
0.00559254
  0
VERTEX
  8
0
 10
7.63525
 20
22.2292
 30
0.0
 40
0.00559254
 41
0.00559254
  0
VERTEX
  8
0
 10
7.61014
 20
22.2062
 30
0.0
 40
0.00559254
 41
0.00559254
  0
VERTEX
  8
0
 10
7.58496
 20
22.184
 30
0.0
 40
0.00559254
 41
0.00559254
  0
VERTEX
  8
0
 10
7.58464
 20
22.1837
 30
0.0
 40
0.00559254
 41
0.00559254
  0
VERTEX
  8
0
 10
7.55914
 20
22.1622
 30
0.0
 40
0.00559254
 41
0.00559254
  0
VERTEX
  8
0
 10
7.55875
 20
22.1618
 30
0.0
 40
0.00559254
 41
0.00559254
  0
VERTEX
  8
0
 10
7.53293
 20
22.1406
 30
0.0
 40
0.00559254
 41
0.00559254
  0
VERTEX
  8
0
 10
7.53267
 20
22.1404
 30
0.0
 40
0.00559254
 41
0.00559254
  0
VERTEX
  8
0
 10
7.50635
 20
22.1196
 30
0.0
 40
0.00559254
 41
0.00559254
  0
VERTEX
  8
0
 10
7.49164
 20
22.1083
 30
0.0
 40
0.00559254
 41
0.00559254
  0
VERTEX
  8
0
 10
7.45606
 20
22.0818
 30
0.0
 40
0.00559254
 41
0.00559254
  0
VERTEX
  8
0
 10
7.45221
 20
22.0789
 30
0.0
 40
0.00559254
 41
0.00559254
  0
VERTEX
  8
0
 10
7.45171
 20
22.0786
 30
0.0
 40
0.00559254
 41
0.00559254
  0
VERTEX
  8
0
 10
7.42458
 20
22.0593
 30
0.0
 40
0.00559254
 41
0.00559254
  0
VERTEX
  8
0
 10
7.4241
 20
22.0589
 30
0.0
 40
0.00559254
 41
0.00559254
  0
VERTEX
  8
0
 10
7.39669
 20
22.0401
 30
0.0
 40
0.00559254
 41
0.00559254
  0
VERTEX
  8
0
 10
7.39621
 20
22.0397
 30
0.0
 40
0.00559254
 41
0.00559254
  0
VERTEX
  8
0
 10
7.36849
 20
22.0215
 30
0.0
 40
0.00559254
 41
0.00559254
  0
VERTEX
  8
0
 10
7.36833
 20
22.0214
 30
0.0
 40
0.00559254
 41
0.00559254
  0
VERTEX
  8
0
 10
7.3399
 20
22.0032
 30
0.0
 40
0.00559254
 41
0.00559254
  0
VERTEX
  8
0
 10
7.31108
 20
21.9856
 30
0.0
 40
0.00559254
 41
0.00559254
  0
VERTEX
  8
0
 10
7.2839
 20
21.9696
 30
0.0
 40
0.00559254
 41
0.00559254
  0
VERTEX
  8
0
 10
7.2819
 20
21.9685
 30
0.0
 40
0.00559254
 41
0.00559254
  0
VERTEX
  8
0
 10
7.28179
 20
21.9685
 30
0.0
 40
0.00559254
 41
0.00559254
  0
VERTEX
  8
0
 10
7.26654
 20
21.9597
 30
0.0
 40
0.00559254
 41
0.00559254
  0
VERTEX
  8
0
 10
7.25196
 20
21.9515
 30
0.0
 40
0.00559254
 41
0.00559254
  0
VERTEX
  8
0
 10
7.24397
 20
21.9472
 30
0.0
 40
0.00559254
 41
0.00559254
  0
VERTEX
  8
0
 10
7.22233
 20
21.9354
 30
0.0
 40
0.00559254
 41
0.00559254
  0
VERTEX
  8
0
 10
7.20443
 20
21.9261
 30
0.0
 40
0.00559254
 41
0.00559254
  0
VERTEX
  8
0
 10
7.19249
 20
21.9199
 30
0.0
 40
0.00559254
 41
0.00559254
  0
VERTEX
  8
0
 10
7.17719
 20
21.9122
 30
0.0
 40
0.00559254
 41
0.00559254
  0
VERTEX
  8
0
 10
7.16189
 20
21.9044
 30
0.0
 40
0.00559254
 41
0.00559254
  0
VERTEX
  8
0
 10
7.15707
 20
21.9022
 30
0.0
 40
0.00559254
 41
0.00559254
  0
VERTEX
  8
0
 10
7.13108
 20
21.8899
 30
0.0
 40
0.00559254
 41
0.00559254
  0
VERTEX
  8
0
 10
7.10097
 20
21.876
 30
0.0
 40
0.00559254
 41
0.00559254
  0
VERTEX
  8
0
 10
7.10047
 20
21.8758
 30
0.0
 40
0.00559254
 41
0.00559254
  0
VERTEX
  8
0
 10
7.09131
 20
21.8718
 30
0.0
 40
0.00559254
 41
0.00559254
  0
VERTEX
  8
0
 10
7.06933
 20
21.8621
 30
0.0
 40
0.00559254
 41
0.00559254
  0
VERTEX
  8
0
 10
7.03857
 20
21.8493
 30
0.0
 40
0.00559254
 41
0.00559254
  0
VERTEX
  8
0
 10
7.03776
 20
21.849
 30
0.0
 40
0.00559254
 41
0.00559254
  0
VERTEX
  8
0
 10
7.02582
 20
21.8443
 30
0.0
 40
0.00559254
 41
0.00559254
  0
VERTEX
  8
0
 10
7.00672
 20
21.8368
 30
0.0
 40
0.00559254
 41
0.00559254
  0
VERTEX
  8
0
 10
6.97521
 20
21.8249
 30
0.0
 40
0.00559254
 41
0.00559254
  0
VERTEX
  8
0
 10
6.97433
 20
21.8246
 30
0.0
 40
0.00559254
 41
0.00559254
  0
VERTEX
  8
0
 10
6.95817
 20
21.8187
 30
0.0
 40
0.00559254
 41
0.00559254
  0
VERTEX
  8
0
 10
6.94282
 20
21.8132
 30
0.0
 40
0.00559254
 41
0.00559254
  0
VERTEX
  8
0
 10
6.93099
 20
21.8093
 30
0.0
 40
0.00559254
 41
0.00559254
  0
VERTEX
  8
0
 10
6.91004
 20
21.8022
 30
0.0
 40
0.00559254
 41
0.00559254
  0
VERTEX
  8
0
 10
6.87847
 20
21.7922
 30
0.0
 40
0.00559254
 41
0.00559254
  0
VERTEX
  8
0
 10
6.87756
 20
21.7919
 30
0.0
 40
0.00559254
 41
0.00559254
  0
VERTEX
  8
0
 10
6.86686
 20
21.7888
 30
0.0
 40
0.00559254
 41
0.00559254
  0
VERTEX
  8
0
 10
6.84483
 20
21.7821
 30
0.0
 40
0.00559254
 41
0.00559254
  0
VERTEX
  8
0
 10
6.81267
 20
21.7731
 30
0.0
 40
0.00559254
 41
0.00559254
  0
VERTEX
  8
0
 10
6.77979
 20
21.7644
 30
0.0
 40
0.00559254
 41
0.00559254
  0
VERTEX
  8
0
 10
6.76161
 20
21.76
 30
0.0
 40
0.00559254
 41
0.00559254
  0
VERTEX
  8
0
 10
6.7455
 20
21.7561
 30
0.0
 40
0.00559254
 41
0.00559254
  0
VERTEX
  8
0
 10
6.71311
 20
21.7488
 30
0.0
 40
0.00559254
 41
0.00559254
  0
VERTEX
  8
0
 10
6.71257
 20
21.7488
 30
0.0
 40
0.00559254
 41
0.00559254
  0
VERTEX
  8
0
 10
6.67947
 20
21.7418
 30
0.0
 40
0.00559254
 41
0.00559254
  0
VERTEX
  8
0
 10
6.66032
 20
21.7382
 30
0.0
 40
0.00559254
 41
0.00559254
  0
VERTEX
  8
0
 10
6.64458
 20
21.7353
 30
0.0
 40
0.00559254
 41
0.00559254
  0
VERTEX
  8
0
 10
6.61171
 20
21.7297
 30
0.0
 40
0.00559254
 41
0.00559254
  0
VERTEX
  8
0
 10
6.61128
 20
21.7296
 30
0.0
 40
0.00559254
 41
0.00559254
  0
VERTEX
  8
0
 10
6.59272
 20
21.7267
 30
0.0
 40
0.00559254
 41
0.00559254
  0
VERTEX
  8
0
 10
6.57699
 20
21.7243
 30
0.0
 40
0.00559254
 41
0.00559254
  0
VERTEX
  8
0
 10
6.56282
 20
21.7224
 30
0.0
 40
0.00559254
 41
0.00559254
  0
VERTEX
  8
0
 10
6.54258
 20
21.7197
 30
0.0
 40
0.00559254
 41
0.00559254
  0
VERTEX
  8
0
 10
6.50896
 20
21.7158
 30
0.0
 40
0.00559254
 41
0.00559254
  0
VERTEX
  8
0
 10
6.48757
 20
21.7136
 30
0.0
 40
0.00559254
 41
0.00559254
  0
VERTEX
  8
0
 10
6.47347
 20
21.7122
 30
0.0
 40
0.00559254
 41
0.00559254
  0
VERTEX
  8
0
 10
6.4661
 20
21.7117
 30
0.0
 40
0.00559254
 41
0.00559254
  0
VERTEX
  8
0
 10
6.43875
 20
21.7094
 30
0.0
 40
0.00559254
 41
0.00559254
  0
VERTEX
  8
0
 10
6.43311
 20
21.709
 30
0.0
 40
0.00559254
 41
0.00559254
  0
VERTEX
  8
0
 10
6.40386
 20
21.7072
 30
0.0
 40
0.00559254
 41
0.00559254
  0
VERTEX
  8
0
 10
6.39757
 20
21.7069
 30
0.0
 40
0.00559254
 41
0.00559254
  0
VERTEX
  8
0
 10
6.36903
 20
21.7057
 30
0.0
 40
0.00559254
 41
0.00559254
  0
VERTEX
  8
0
 10
6.36046
 20
21.7054
 30
0.0
 40
0.00559254
 41
0.00559254
  0
VERTEX
  8
0
 10
6.3341
 20
21.7047
 30
0.0
 40
0.00559254
 41
0.00559254
  0
VERTEX
  8
0
 10
6.32215
 20
21.7046
 30
0.0
 40
0.00559254
 41
0.00559254
  0
VERTEX
  8
0
 10
6.29921
 20
21.7043
 30
0.0
 40
0.00559254
 41
0.00559254
  0
VERTEX
  8
0
 10
6.27632
 20
21.7046
 30
0.0
 40
0.00559254
 41
0.00559254
  0
VERTEX
  8
0
 10
6.26438
 20
21.7047
 30
0.0
 40
0.00559254
 41
0.00559254
  0
VERTEX
  8
0
 10
6.23872
 20
21.7054
 30
0.0
 40
0.00559254
 41
0.00559254
  0
VERTEX
  8
0
 10
6.22939
 20
21.7057
 30
0.0
 40
0.00559254
 41
0.00559254
  0
VERTEX
  8
0
 10
6.20236
 20
21.7069
 30
0.0
 40
0.00559254
 41
0.00559254
  0
VERTEX
  8
0
 10
6.1945
 20
21.7072
 30
0.0
 40
0.00559254
 41
0.00559254
  0
VERTEX
  8
0
 10
6.16396
 20
21.7092
 30
0.0
 40
0.00559254
 41
0.00559254
  0
VERTEX
  8
0
 10
6.15983
 20
21.7094
 30
0.0
 40
0.00559254
 41
0.00559254
  0
VERTEX
  8
0
 10
6.12978
 20
21.7118
 30
0.0
 40
0.00559254
 41
0.00559254
  0
VERTEX
  8
0
 10
6.12511
 20
21.7124
 30
0.0
 40
0.00559254
 41
0.00559254
  0
VERTEX
  8
0
 10
6.09472
 20
21.7153
 30
0.0
 40
0.00559254
 41
0.00559254
  0
VERTEX
  8
0
 10
6.09056
 20
21.7157
 30
0.0
 40
0.00559254
 41
0.00559254
  0
VERTEX
  8
0
 10
6.06375
 20
21.7188
 30
0.0
 40
0.00559254
 41
0.00559254
  0
VERTEX
  8
0
 10
6.05599
 20
21.7197
 30
0.0
 40
0.00559254
 41
0.00559254
  0
VERTEX
  8
0
 10
6.03418
 20
21.7226
 30
0.0
 40
0.00559254
 41
0.00559254
  0
VERTEX
  8
0
 10
6.02083
 20
21.7244
 30
0.0
 40
0.00559254
 41
0.00559254
  0
VERTEX
  8
0
 10
5.98785
 20
21.7294
 30
0.0
 40
0.00559254
 41
0.00559254
  0
VERTEX
  8
0
 10
5.95389
 20
21.7353
 30
0.0
 40
0.00559254
 41
0.00559254
  0
VERTEX
  8
0
 10
5.92008
 20
21.7415
 30
0.0
 40
0.00559254
 41
0.00559254
  0
VERTEX
  8
0
 10
5.89318
 20
21.7472
 30
0.0
 40
0.00559254
 41
0.00559254
  0
VERTEX
  8
0
 10
5.88618
 20
21.7486
 30
0.0
 40
0.00559254
 41
0.00559254
  0
VERTEX
  8
0
 10
5.85297
 20
21.7561
 30
0.0
 40
0.00559254
 41
0.00559254
  0
VERTEX
  8
0
 10
5.82058
 20
21.7639
 30
0.0
 40
0.00559254
 41
0.00559254
  0
VERTEX
  8
0
 10
5.81961
 20
21.7642
 30
0.0
 40
0.00559254
 41
0.00559254
  0
VERTEX
  8
0
 10
5.79769
 20
21.7699
 30
0.0
 40
0.00559254
 41
0.00559254
  0
VERTEX
  8
0
 10
5.78608
 20
21.7729
 30
0.0
 40
0.00559254
 41
0.00559254
  0
VERTEX
  8
0
 10
5.75364
 20
21.7821
 30
0.0
 40
0.00559254
 41
0.00559254
  0
VERTEX
  8
0
 10
5.68847
 20
21.8022
 30
0.0
 40
0.00559254
 41
0.00559254
  0
VERTEX
  8
0
 10
5.66499
 20
21.81
 30
0.0
 40
0.00559254
 41
0.00559254
  0
VERTEX
  8
0
 10
5.65533
 20
21.8133
 30
0.0
 40
0.00559254
 41
0.00559254
  0
VERTEX
  8
0
 10
5.59928
 20
21.8339
 30
0.0
 40
0.00559254
 41
0.00559254
  0
VERTEX
  8
0
 10
5.59147
 20
21.8368
 30
0.0
 40
0.00559254
 41
0.00559254
  0
VERTEX
  8
0
 10
5.53201
 20
21.861
 30
0.0
 40
0.00559254
 41
0.00559254
  0
VERTEX
  8
0
 10
5.52919
 20
21.8621
 30
0.0
 40
0.00559254
 41
0.00559254
  0
VERTEX
  8
0
 10
5.49821
 20
21.8757
 30
0.0
 40
0.00559254
 41
0.00559254
  0
VERTEX
  8
0
 10
5.46739
 20
21.8897
 30
0.0
 40
0.00559254
 41
0.00559254
  0
VERTEX
  8
0
 10
5.4414
 20
21.9022
 30
0.0
 40
0.00559254
 41
0.00559254
  0
VERTEX
  8
0
 10
5.43658
 20
21.9044
 30
0.0
 40
0.00559254
 41
0.00559254
  0
VERTEX
  8
0
 10
5.40647
 20
21.9196
 30
0.0
 40
0.00559254
 41
0.00559254
  0
VERTEX
  8
0
 10
5.40576
 20
21.9199
 30
0.0
 40
0.00559254
 41
0.00559254
  0
VERTEX
  8
0
 10
5.38488
 20
21.9308
 30
0.0
 40
0.00559254
 41
0.00559254
  0
VERTEX
  8
0
 10
5.37614
 20
21.9353
 30
0.0
 40
0.00559254
 41
0.00559254
  0
VERTEX
  8
0
 10
5.35449
 20
21.9472
 30
0.0
 40
0.00559254
 41
0.00559254
  0
VERTEX
  8
0
 10
5.34603
 20
21.9517
 30
0.0
 40
0.00559254
 41
0.00559254
  0
VERTEX
  8
0
 10
5.31722
 20
21.9681
 30
0.0
 40
0.00559254
 41
0.00559254
  0
VERTEX
  8
0
 10
5.28803
 20
21.9853
 30
0.0
 40
0.00559254
 41
0.00559254
  0
VERTEX
  8
0
 10
5.28743
 20
21.9856
 30
0.0
 40
0.00559254
 41
0.00559254
  0
VERTEX
  8
0
 10
5.25917
 20
22.0029
 30
0.0
 40
0.00559254
 41
0.00559254
  0
VERTEX
  8
0
 10
5.23058
 20
22.0211
 30
0.0
 40
0.00559254
 41
0.00559254
  0
VERTEX
  8
0
 10
5.11947
 20
22.0987
 30
0.0
 40
0.00559254
 41
0.00559254
  0
VERTEX
  8
0
 10
5.11903
 20
22.099
 30
0.0
 40
0.00559254
 41
0.00559254
  0
VERTEX
  8
0
 10
5.09256
 20
22.1193
 30
0.0
 40
0.00559254
 41
0.00559254
  0
VERTEX
  8
0
 10
5.06597
 20
22.1403
 30
0.0
 40
0.00559254
 41
0.00559254
  0
VERTEX
  8
0
 10
4.98888
 20
22.2057
 30
0.0
 40
0.00559254
 41
0.00559254
  0
VERTEX
  8
0
 10
4.98801
 20
22.2065
 30
0.0
 40
0.00559254
 41
0.00559254
  0
VERTEX
  8
0
 10
4.96326
 20
22.2292
 30
0.0
 40
0.00559254
 41
0.00559254
  0
VERTEX
  8
0
 10
4.91824
 20
22.2722
 30
0.0
 40
0.00559254
 41
0.00559254
  0
VERTEX
  8
0
 10
4.91385
 20
22.2765
 30
0.0
 40
0.00559254
 41
0.00559254
  0
VERTEX
  8
0
 10
4.8666
 20
22.3251
 30
0.0
 40
0.00559254
 41
0.00559254
  0
VERTEX
  8
0
 10
4.84347
 20
22.3501
 30
0.0
 40
0.00559254
 41
0.00559254
  0
VERTEX
  8
0
 10
4.79839
 20
22.4015
 30
0.0
 40
0.00559254
 41
0.00559254
  0
VERTEX
  8
0
 10
4.79818
 20
22.4018
 30
0.0
 40
0.00559254
 41
0.00559254
  0
VERTEX
  8
0
 10
4.77647
 20
22.4279
 30
0.0
 40
0.00559254
 41
0.00559254
  0
VERTEX
  8
0
 10
4.71343
 20
22.5094
 30
0.0
 40
0.00559254
 41
0.00559254
  0
VERTEX
  8
0
 10
4.71326
 20
22.5097
 30
0.0
 40
0.00559254
 41
0.00559254
  0
VERTEX
  8
0
 10
4.69325
 20
22.5375
 30
0.0
 40
0.00559254
 41
0.00559254
  0
VERTEX
  8
0
 10
4.69314
 20
22.5376
 30
0.0
 40
0.00559254
 41
0.00559254
  0
VERTEX
  8
0
 10
4.59972
 20
22.6833
 30
0.0
 40
0.00559254
 41
0.00559254
  0
VERTEX
  8
0
 10
4.59961
 20
22.6833
 30
0.0
 40
0.00559254
 41
0.00559254
  0
VERTEX
  8
0
 10
4.53369
 20
22.8067
 30
0.0
 40
0.00559254
 41
0.00559254
  0
VERTEX
  8
0
 10
4.53375
 20
22.8067
 30
0.0
 40
0.00559254
 41
0.00559254
  0
SEQEND
 8
0
  0
POLYLINE
  8
0
 62
     0
 66
     1
 10
0
 20
0
 30
0.0
 70
     1
 40
0.402663
 41
0.402663
  0
VERTEX
  8
0
 10
4.47228
 20
26.2806
 30
0.0
 40
0.00559254
 41
0.00559254
  0
VERTEX
  8
0
 10
4.47239
 20
26.2804
 30
0.0
 40
0.00559254
 41
0.00559254
  0
VERTEX
  8
0
 10
4.47244
 20
26.2804
 30
0.0
 40
0.00559254
 41
0.00559254
  0
VERTEX
  8
0
 10
4.47239
 20
26.2806
 30
0.0
 40
0.00559254
 41
0.00559254
  0
VERTEX
  8
0
 10
4.47228
 20
26.2806
 30
0.0
 40
0.00559254
 41
0.00559254
  0
SEQEND
 8
0
  0
POLYLINE
  8
0
 62
     0
 66
     1
 10
0
 20
0
 30
0.0
 70
     1
 40
0.402663
 41
0.402663
  0
VERTEX
  8
0
 10
4.47239
 20
26.2804
 30
0.0
 40
0.00559254
 41
0.00559254
  0
VERTEX
  8
0
 10
4.07553
 20
26.2753
 30
0.0
 40
0.00559254
 41
0.00559254
  0
VERTEX
  8
0
 10
4.06787
 20
26.275
 30
0.0
 40
0.00559254
 41
0.00559254
  0
VERTEX
  8
0
 10
4.03808
 20
26.2737
 30
0.0
 40
0.00559254
 41
0.00559254
  0
VERTEX
  8
0
 10
3.82178
 20
26.2586
 30
0.0
 40
0.00559254
 41
0.00559254
  0
VERTEX
  8
0
 10
3.61328
 20
26.2293
 30
0.0
 40
0.00559254
 41
0.00559254
  0
VERTEX
  8
0
 10
3.41917
 20
26.1811
 30
0.0
 40
0.00559254
 41
0.00559254
  0
VERTEX
  8
0
 10
3.24582
 20
26.1093
 30
0.0
 40
0.00559254
 41
0.00559254
  0
VERTEX
  8
0
 10
3.09987
 20
26.0093
 30
0.0
 40
0.00559254
 41
0.00559254
  0
VERTEX
  8
0
 10
2.98774
 20
25.8764
 30
0.0
 40
0.00559254
 41
0.00559254
  0
VERTEX
  8
0
 10
2.91601
 20
25.7058
 30
0.0
 40
0.00559254
 41
0.00559254
  0
VERTEX
  8
0
 10
2.89117
 20
25.4931
 30
0.0
 40
0.00559254
 41
0.00559254
  0
VERTEX
  8
0
 10
2.8929
 20
25.4568
 30
0.0
 40
0.00559254
 41
0.00559254
  0
VERTEX
  8
0
 10
2.89247
 20
25.4299
 30
0.0
 40
0.00559254
 41
0.00559254
  0
VERTEX
  8
0
 10
2.90386
 20
25.3447
 30
0.0
 40
0.00559254
 41
0.00559254
  0
VERTEX
  8
0
 10
2.93722
 20
25.2503
 30
0.0
 40
0.00559254
 41
0.00559254
  0
VERTEX
  8
0
 10
2.99143
 20
25.1479
 30
0.0
 40
0.00559254
 41
0.00559254
  0
VERTEX
  8
0
 10
3.06532
 20
25.039
 30
0.0
 40
0.00559254
 41
0.00559254
  0
VERTEX
  8
0
 10
3.15776
 20
24.9249
 30
0.0
 40
0.00559254
 41
0.00559254
  0
VERTEX
  8
0
 10
3.26758
 20
24.8071
 30
0.0
 40
0.00559254
 41
0.00559254
  0
VERTEX
  8
0
 10
3.39367
 20
24.6868
 30
0.0
 40
0.00559254
 41
0.00559254
  0
VERTEX
  8
0
 10
3.53494
 20
24.5654
 30
0.0
 40
0.00559254
 41
0.00559254
  0
VERTEX
  8
0
 10
3.79596
 20
24.3801
 30
0.0
 40
0.00559254
 41
0.00559254
  0
VERTEX
  8
0
 10
4.09407
 20
24.2247
 30
0.0
 40
0.00559254
 41
0.00559254
  0
VERTEX
  8
0
 10
4.4215
 20
24.0956
 30
0.0
 40
0.00559254
 41
0.00559254
  0
VERTEX
  8
0
 10
4.77035
 20
23.9894
 30
0.0
 40
0.00559254
 41
0.00559254
  0
VERTEX
  8
0
 10
5.13286
 20
23.9025
 30
0.0
 40
0.00559254
 41
0.00559254
  0
VERTEX
  8
0
 10
5.50119
 20
23.8312
 30
0.0
 40
0.00559254
 41
0.00559254
  0
VERTEX
  8
0
 10
5.86757
 20
23.7721
 30
0.0
 40
0.00559254
 41
0.00559254
  0
VERTEX
  8
0
 10
6.22418
 20
23.7214
 30
0.0
 40
0.00559254
 41
0.00559254
  0
VERTEX
  8
0
 10
6.95904
 20
23.6533
 30
0.0
 40
0.00559254
 41
0.00559254
  0
VERTEX
  8
0
 10
7.6964
 20
23.6397
 30
0.0
 40
0.00559254
 41
0.00559254
  0
VERTEX
  8
0
 10
8.43576
 20
23.6667
 30
0.0
 40
0.00559254
 41
0.00559254
  0
VERTEX
  8
0
 10
9.17654
 20
23.72
 30
0.0
 40
0.00559254
 41
0.00559254
  0
VERTEX
  8
0
 10
9.91812
 20
23.7857
 30
0.0
 40
0.00559254
 41
0.00559254
  0
VERTEX
  8
0
 10
10.66
 20
23.85
 30
0.0
 40
0.00559254
 41
0.00559254
  0
VERTEX
  8
0
 10
11.4016
 20
23.8989
 30
0.0
 40
0.00559254
 41
0.00559254
  0
VERTEX
  8
0
 10
12.1425
 20
23.9183
 30
0.0
 40
0.00559254
 41
0.00559254
  0
VERTEX
  8
0
 10
12.8834
 20
23.8989
 30
0.0
 40
0.00559254
 41
0.00559254
  0
VERTEX
  8
0
 10
13.6252
 20
23.85
 30
0.0
 40
0.00559254
 41
0.00559254
  0
VERTEX
  8
0
 10
14.3672
 20
23.7857
 30
0.0
 40
0.00559254
 41
0.00559254
  0
VERTEX
  8
0
 10
15.109
 20
23.7199
 30
0.0
 40
0.00559254
 41
0.00559254
  0
VERTEX
  8
0
 10
15.85
 20
23.6665
 30
0.0
 40
0.00559254
 41
0.00559254
  0
VERTEX
  8
0
 10
16.5894
 20
23.6397
 30
0.0
 40
0.00559254
 41
0.00559254
  0
VERTEX
  8
0
 10
17.3269
 20
23.6533
 30
0.0
 40
0.00559254
 41
0.00559254
  0
VERTEX
  8
0
 10
18.0621
 20
23.7214
 30
0.0
 40
0.00559254
 41
0.00559254
  0
VERTEX
  8
0
 10
18.4186
 20
23.7721
 30
0.0
 40
0.00559254
 41
0.00559254
  0
VERTEX
  8
0
 10
18.785
 20
23.8312
 30
0.0
 40
0.00559254
 41
0.00559254
  0
VERTEX
  8
0
 10
19.1533
 20
23.9025
 30
0.0
 40
0.00559254
 41
0.00559254
  0
VERTEX
  8
0
 10
19.5158
 20
23.9894
 30
0.0
 40
0.00559254
 41
0.00559254
  0
VERTEX
  8
0
 10
19.8647
 20
24.0956
 30
0.0
 40
0.00559254
 41
0.00559254
  0
VERTEX
  8
0
 10
20.1921
 20
24.2247
 30
0.0
 40
0.00559254
 41
0.00559254
  0
VERTEX
  8
0
 10
20.4903
 20
24.3801
 30
0.0
 40
0.00559254
 41
0.00559254
  0
VERTEX
  8
0
 10
20.7512
 20
24.5654
 30
0.0
 40
0.00559254
 41
0.00559254
  0
VERTEX
  8
0
 10
20.8925
 20
24.6868
 30
0.0
 40
0.00559254
 41
0.00559254
  0
VERTEX
  8
0
 10
21.0186
 20
24.8071
 30
0.0
 40
0.00559254
 41
0.00559254
  0
VERTEX
  8
0
 10
21.1285
 20
24.9249
 30
0.0
 40
0.00559254
 41
0.00559254
  0
VERTEX
  8
0
 10
21.2208
 20
25.039
 30
0.0
 40
0.00559254
 41
0.00559254
  0
VERTEX
  8
0
 10
21.2947
 20
25.1479
 30
0.0
 40
0.00559254
 41
0.00559254
  0
VERTEX
  8
0
 10
21.3489
 20
25.2503
 30
0.0
 40
0.00559254
 41
0.00559254
  0
VERTEX
  8
0
 10
21.3824
 20
25.3447
 30
0.0
 40
0.00559254
 41
0.00559254
  0
VERTEX
  8
0
 10
21.3937
 20
25.4299
 30
0.0
 40
0.00559254
 41
0.00559254
  0
VERTEX
  8
0
 10
21.3933
 20
25.4568
 30
0.0
 40
0.00559254
 41
0.00559254
  0
VERTEX
  8
0
 10
21.3951
 20
25.4931
 30
0.0
 40
0.00559254
 41
0.00559254
  0
VERTEX
  8
0
 10
21.3701
 20
25.7058
 30
0.0
 40
0.00559254
 41
0.00559254
  0
VERTEX
  8
0
 10
21.2985
 20
25.8764
 30
0.0
 40
0.00559254
 41
0.00559254
  0
VERTEX
  8
0
 10
21.1863
 20
26.0093
 30
0.0
 40
0.00559254
 41
0.00559254
  0
VERTEX
  8
0
 10
21.0404
 20
26.1093
 30
0.0
 40
0.00559254
 41
0.00559254
  0
VERTEX
  8
0
 10
20.8671
 20
26.1811
 30
0.0
 40
0.00559254
 41
0.00559254
  0
VERTEX
  8
0
 10
20.6729
 20
26.2293
 30
0.0
 40
0.00559254
 41
0.00559254
  0
VERTEX
  8
0
 10
20.4644
 20
26.2586
 30
0.0
 40
0.00559254
 41
0.00559254
  0
VERTEX
  8
0
 10
20.2482
 20
26.2737
 30
0.0
 40
0.00559254
 41
0.00559254
  0
VERTEX
  8
0
 10
20.2183
 20
26.275
 30
0.0
 40
0.00559254
 41
0.00559254
  0
VERTEX
  8
0
 10
20.2107
 20
26.2753
 30
0.0
 40
0.00559254
 41
0.00559254
  0
VERTEX
  8
0
 10
19.8137
 20
26.2804
 30
0.0
 40
0.00559254
 41
0.00559254
  0
VERTEX
  8
0
 10
19.8137
 20
26.2804
 30
0.0
 40
0.00559254
 41
0.00559254
  0
VERTEX
  8
0
 10
19.7981
 20
26.249
 30
0.0
 40
0.00559254
 41
0.00559254
  0
VERTEX
  8
0
 10
19.7478
 20
26.1569
 30
0.0
 40
0.00559254
 41
0.00559254
  0
VERTEX
  8
0
 10
19.7476
 20
26.1569
 30
0.0
 40
0.00559254
 41
0.00559254
  0
VERTEX
  8
0
 10
19.6739
 20
26.0396
 30
0.0
 40
0.00559254
 41
0.00559254
  0
VERTEX
  8
0
 10
19.6339
 20
25.9831
 30
0.0
 40
0.00559254
 41
0.00559254
  0
VERTEX
  8
0
 10
19.571
 20
25.9015
 30
0.0
 40
0.00559254
 41
0.00559254
  0
VERTEX
  8
0
 10
19.549
 20
25.8753
 30
0.0
 40
0.00559254
 41
0.00559254
  0
VERTEX
  8
0
 10
19.5039
 20
25.8238
 30
0.0
 40
0.00559254
 41
0.00559254
  0
VERTEX
  8
0
 10
19.4807
 20
25.7988
 30
0.0
 40
0.00559254
 41
0.00559254
  0
VERTEX
  8
0
 10
19.4335
 20
25.7501
 30
0.0
 40
0.00559254
 41
0.00559254
  0
VERTEX
  8
0
 10
19.4333
 20
25.75
 30
0.0
 40
0.00559254
 41
0.00559254
  0
VERTEX
  8
0
 10
19.429
 20
25.7458
 30
0.0
 40
0.00559254
 41
0.00559254
  0
VERTEX
  8
0
 10
19.3593
 20
25.6801
 30
0.0
 40
0.00559254
 41
0.00559254
  0
VERTEX
  8
0
 10
19.359
 20
25.6799
 30
0.0
 40
0.00559254
 41
0.00559254
  0
VERTEX
  8
0
 10
19.3585
 20
25.6793
 30
0.0
 40
0.00559254
 41
0.00559254
  0
VERTEX
  8
0
 10
19.3076
 20
25.6354
 30
0.0
 40
0.00559254
 41
0.00559254
  0
VERTEX
  8
0
 10
19.2814
 20
25.6139
 30
0.0
 40
0.00559254
 41
0.00559254
  0
VERTEX
  8
0
 10
19.2547
 20
25.5929
 30
0.0
 40
0.00559254
 41
0.00559254
  0
VERTEX
  8
0
 10
19.2279
 20
25.5724
 30
0.0
 40
0.00559254
 41
0.00559254
  0
VERTEX
  8
0
 10
19.1168
 20
25.4947
 30
0.0
 40
0.00559254
 41
0.00559254
  0
VERTEX
  8
0
 10
19.0882
 20
25.4765
 30
0.0
 40
0.00559254
 41
0.00559254
  0
VERTEX
  8
0
 10
19.0301
 20
25.4417
 30
0.0
 40
0.00559254
 41
0.00559254
  0
VERTEX
  8
0
 10
19.0296
 20
25.4414
 30
0.0
 40
0.00559254
 41
0.00559254
  0
VERTEX
  8
0
 10
19.0008
 20
25.4251
 30
0.0
 40
0.00559254
 41
0.00559254
  0
VERTEX
  8
0
 10
18.9928
 20
25.4208
 30
0.0
 40
0.00559254
 41
0.00559254
  0
VERTEX
  8
0
 10
18.9713
 20
25.409
 30
0.0
 40
0.00559254
 41
0.00559254
  0
VERTEX
  8
0
 10
18.9624
 20
25.4044
 30
0.0
 40
0.00559254
 41
0.00559254
  0
VERTEX
  8
0
 10
18.9415
 20
25.3936
 30
0.0
 40
0.00559254
 41
0.00559254
  0
VERTEX
  8
0
 10
18.9408
 20
25.3932
 30
0.0
 40
0.00559254
 41
0.00559254
  0
VERTEX
  8
0
 10
18.9108
 20
25.3782
 30
0.0
 40
0.00559254
 41
0.00559254
  0
VERTEX
  8
0
 10
18.906
 20
25.3758
 30
0.0
 40
0.00559254
 41
0.00559254
  0
VERTEX
  8
0
 10
18.88
 20
25.3633
 30
0.0
 40
0.00559254
 41
0.00559254
  0
VERTEX
  8
0
 10
18.8492
 20
25.3493
 30
0.0
 40
0.00559254
 41
0.00559254
  0
VERTEX
  8
0
 10
18.8182
 20
25.3358
 30
0.0
 40
0.00559254
 41
0.00559254
  0
VERTEX
  8
0
 10
18.8146
 20
25.3343
 30
0.0
 40
0.00559254
 41
0.00559254
  0
VERTEX
  8
0
 10
18.7867
 20
25.3226
 30
0.0
 40
0.00559254
 41
0.00559254
  0
VERTEX
  8
0
 10
18.7557
 20
25.3103
 30
0.0
 40
0.00559254
 41
0.00559254
  0
VERTEX
  8
0
 10
18.7481
 20
25.3075
 30
0.0
 40
0.00559254
 41
0.00559254
  0
VERTEX
  8
0
 10
18.6921
 20
25.2869
 30
0.0
 40
0.00559254
 41
0.00559254
  0
VERTEX
  8
0
 10
18.6917
 20
25.2869
 30
0.0
 40
0.00559254
 41
0.00559254
  0
VERTEX
  8
0
 10
18.6824
 20
25.2838
 30
0.0
 40
0.00559254
 41
0.00559254
  0
VERTEX
  8
0
 10
18.6589
 20
25.2758
 30
0.0
 40
0.00559254
 41
0.00559254
  0
VERTEX
  8
0
 10
18.5938
 20
25.2557
 30
0.0
 40
0.00559254
 41
0.00559254
  0
VERTEX
  8
0
 10
18.5892
 20
25.2544
 30
0.0
 40
0.00559254
 41
0.00559254
  0
VERTEX
  8
0
 10
18.5608
 20
25.2465
 30
0.0
 40
0.00559254
 41
0.00559254
  0
VERTEX
  8
0
 10
18.5496
 20
25.2436
 30
0.0
 40
0.00559254
 41
0.00559254
  0
VERTEX
  8
0
 10
18.5278
 20
25.2378
 30
0.0
 40
0.00559254
 41
0.00559254
  0
VERTEX
  8
0
 10
18.5265
 20
25.2376
 30
0.0
 40
0.00559254
 41
0.00559254
  0
VERTEX
  8
0
 10
18.4944
 20
25.2297
 30
0.0
 40
0.00559254
 41
0.00559254
  0
VERTEX
  8
0
 10
18.4612
 20
25.2222
 30
0.0
 40
0.00559254
 41
0.00559254
  0
VERTEX
  8
0
 10
18.4543
 20
25.2208
 30
0.0
 40
0.00559254
 41
0.00559254
  0
VERTEX
  8
0
 10
18.4274
 20
25.2153
 30
0.0
 40
0.00559254
 41
0.00559254
  0
VERTEX
  8
0
 10
18.3935
 20
25.2089
 30
0.0
 40
0.00559254
 41
0.00559254
  0
VERTEX
  8
0
 10
18.3596
 20
25.2031
 30
0.0
 40
0.00559254
 41
0.00559254
  0
VERTEX
  8
0
 10
18.3258
 20
25.1981
 30
0.0
 40
0.00559254
 41
0.00559254
  0
VERTEX
  8
0
 10
18.3132
 20
25.1963
 30
0.0
 40
0.00559254
 41
0.00559254
  0
VERTEX
  8
0
 10
18.2914
 20
25.1933
 30
0.0
 40
0.00559254
 41
0.00559254
  0
VERTEX
  8
0
 10
18.2836
 20
25.1925
 30
0.0
 40
0.00559254
 41
0.00559254
  0
VERTEX
  8
0
 10
18.2568
 20
25.1893
 30
0.0
 40
0.00559254
 41
0.00559254
  0
VERTEX
  8
0
 10
18.2567
 20
25.1893
 30
0.0
 40
0.00559254
 41
0.00559254
  0
VERTEX
  8
0
 10
18.2526
 20
25.189
 30
0.0
 40
0.00559254
 41
0.00559254
  0
VERTEX
  8
0
 10
18.2222
 20
25.186
 30
0.0
 40
0.00559254
 41
0.00559254
  0
VERTEX
  8
0
 10
18.2176
 20
25.1856
 30
0.0
 40
0.00559254
 41
0.00559254
  0
VERTEX
  8
0
 10
18.1875
 20
25.1832
 30
0.0
 40
0.00559254
 41
0.00559254
  0
VERTEX
  8
0
 10
18.1835
 20
25.1829
 30
0.0
 40
0.00559254
 41
0.00559254
  0
VERTEX
  8
0
 10
18.1529
 20
25.181
 30
0.0
 40
0.00559254
 41
0.00559254
  0
VERTEX
  8
0
 10
18.145
 20
25.1806
 30
0.0
 40
0.00559254
 41
0.00559254
  0
VERTEX
  8
0
 10
18.1181
 20
25.1793
 30
0.0
 40
0.00559254
 41
0.00559254
  0
VERTEX
  8
0
 10
18.1086
 20
25.1792
 30
0.0
 40
0.00559254
 41
0.00559254
  0
VERTEX
  8
0
 10
18.0831
 20
25.1785
 30
0.0
 40
0.00559254
 41
0.00559254
  0
VERTEX
  8
0
 10
18.0711
 20
25.1783
 30
0.0
 40
0.00559254
 41
0.00559254
  0
VERTEX
  8
0
 10
18.0481
 20
25.1781
 30
0.0
 40
0.00559254
 41
0.00559254
  0
VERTEX
  8
0
 10
18.0253
 20
25.1783
 30
0.0
 40
0.00559254
 41
0.00559254
  0
VERTEX
  8
0
 10
18.0136
 20
25.1785
 30
0.0
 40
0.00559254
 41
0.00559254
  0
VERTEX
  8
0
 10
18.0132
 20
25.1785
 30
0.0
 40
0.00559254
 41
0.00559254
  0
VERTEX
  8
0
 10
17.9869
 20
25.1792
 30
0.0
 40
0.00559254
 41
0.00559254
  0
VERTEX
  8
0
 10
17.9783
 20
25.1793
 30
0.0
 40
0.00559254
 41
0.00559254
  0
VERTEX
  8
0
 10
17.9499
 20
25.1807
 30
0.0
 40
0.00559254
 41
0.00559254
  0
VERTEX
  8
0
 10
17.9435
 20
25.181
 30
0.0
 40
0.00559254
 41
0.00559254
  0
VERTEX
  8
0
 10
17.9143
 20
25.1828
 30
0.0
 40
0.00559254
 41
0.00559254
  0
VERTEX
  8
0
 10
17.9086
 20
25.1831
 30
0.0
 40
0.00559254
 41
0.00559254
  0
VERTEX
  8
0
 10
17.8812
 20
25.1853
 30
0.0
 40
0.00559254
 41
0.00559254
  0
VERTEX
  8
0
 10
17.8739
 20
25.1858
 30
0.0
 40
0.00559254
 41
0.00559254
  0
VERTEX
  8
0
 10
17.8599
 20
25.1872
 30
0.0
 40
0.00559254
 41
0.00559254
  0
VERTEX
  8
0
 10
17.8385
 20
25.1894
 30
0.0
 40
0.00559254
 41
0.00559254
  0
VERTEX
  8
0
 10
17.8051
 20
25.1933
 30
0.0
 40
0.00559254
 41
0.00559254
  0
VERTEX
  8
0
 10
17.8049
 20
25.1935
 30
0.0
 40
0.00559254
 41
0.00559254
  0
VERTEX
  8
0
 10
17.7846
 20
25.1961
 30
0.0
 40
0.00559254
 41
0.00559254
  0
VERTEX
  8
0
 10
17.7704
 20
25.1981
 30
0.0
 40
0.00559254
 41
0.00559254
  0
VERTEX
  8
0
 10
17.7547
 20
25.2004
 30
0.0
 40
0.00559254
 41
0.00559254
  0
VERTEX
  8
0
 10
17.7361
 20
25.2032
 30
0.0
 40
0.00559254
 41
0.00559254
  0
VERTEX
  8
0
 10
17.7028
 20
25.2089
 30
0.0
 40
0.00559254
 41
0.00559254
  0
VERTEX
  8
0
 10
17.6869
 20
25.2118
 30
0.0
 40
0.00559254
 41
0.00559254
  0
VERTEX
  8
0
 10
17.6679
 20
25.2156
 30
0.0
 40
0.00559254
 41
0.00559254
  0
VERTEX
  8
0
 10
17.6354
 20
25.2222
 30
0.0
 40
0.00559254
 41
0.00559254
  0
VERTEX
  8
0
 10
17.6349
 20
25.2224
 30
0.0
 40
0.00559254
 41
0.00559254
  0
VERTEX
  8
0
 10
17.6019
 20
25.2297
 30
0.0
 40
0.00559254
 41
0.00559254
  0
VERTEX
  8
0
 10
17.5858
 20
25.2336
 30
0.0
 40
0.00559254
 41
0.00559254
  0
VERTEX
  8
0
 10
17.5676
 20
25.2381
 30
0.0
 40
0.00559254
 41
0.00559254
  0
VERTEX
  8
0
 10
17.5347
 20
25.2467
 30
0.0
 40
0.00559254
 41
0.00559254
  0
VERTEX
  8
0
 10
17.5025
 20
25.2557
 30
0.0
 40
0.00559254
 41
0.00559254
  0
VERTEX
  8
0
 10
17.4806
 20
25.2624
 30
0.0
 40
0.00559254
 41
0.00559254
  0
VERTEX
  8
0
 10
17.4693
 20
25.2657
 30
0.0
 40
0.00559254
 41
0.00559254
  0
VERTEX
  8
0
 10
17.4374
 20
25.2758
 30
0.0
 40
0.00559254
 41
0.00559254
  0
VERTEX
  8
0
 10
17.4164
 20
25.2829
 30
0.0
 40
0.00559254
 41
0.00559254
  0
VERTEX
  8
0
 10
17.4046
 20
25.2869
 30
0.0
 40
0.00559254
 41
0.00559254
  0
VERTEX
  8
0
 10
17.3892
 20
25.2924
 30
0.0
 40
0.00559254
 41
0.00559254
  0
VERTEX
  8
0
 10
17.3726
 20
25.2983
 30
0.0
 40
0.00559254
 41
0.00559254
  0
VERTEX
  8
0
 10
17.3582
 20
25.3038
 30
0.0
 40
0.00559254
 41
0.00559254
  0
VERTEX
  8
0
 10
17.3407
 20
25.3104
 30
0.0
 40
0.00559254
 41
0.00559254
  0
VERTEX
  8
0
 10
17.3215
 20
25.3179
 30
0.0
 40
0.00559254
 41
0.00559254
  0
VERTEX
  8
0
 10
17.3094
 20
25.3228
 30
0.0
 40
0.00559254
 41
0.00559254
  0
VERTEX
  8
0
 10
17.2842
 20
25.3332
 30
0.0
 40
0.00559254
 41
0.00559254
  0
VERTEX
  8
0
 10
17.2775
 20
25.3361
 30
0.0
 40
0.00559254
 41
0.00559254
  0
VERTEX
  8
0
 10
17.2472
 20
25.3493
 30
0.0
 40
0.00559254
 41
0.00559254
  0
VERTEX
  8
0
 10
17.2162
 20
25.3635
 30
0.0
 40
0.00559254
 41
0.00559254
  0
VERTEX
  8
0
 10
17.1903
 20
25.3758
 30
0.0
 40
0.00559254
 41
0.00559254
  0
VERTEX
  8
0
 10
17.1856
 20
25.3782
 30
0.0
 40
0.00559254
 41
0.00559254
  0
VERTEX
  8
0
 10
17.1701
 20
25.3858
 30
0.0
 40
0.00559254
 41
0.00559254
  0
VERTEX
  8
0
 10
17.1549
 20
25.3935
 30
0.0
 40
0.00559254
 41
0.00559254
  0
VERTEX
  8
0
 10
17.1429
 20
25.3997
 30
0.0
 40
0.00559254
 41
0.00559254
  0
VERTEX
  8
0
 10
17.125
 20
25.409
 30
0.0
 40
0.00559254
 41
0.00559254
  0
VERTEX
  8
0
 10
17.1035
 20
25.4208
 30
0.0
 40
0.00559254
 41
0.00559254
  0
VERTEX
  8
0
 10
17.0954
 20
25.4251
 30
0.0
 40
0.00559254
 41
0.00559254
  0
VERTEX
  8
0
 10
17.0808
 20
25.4335
 30
0.0
 40
0.00559254
 41
0.00559254
  0
VERTEX
  8
0
 10
17.0661
 20
25.4417
 30
0.0
 40
0.00559254
 41
0.00559254
  0
VERTEX
  8
0
 10
17.0635
 20
25.4432
 30
0.0
 40
0.00559254
 41
0.00559254
  0
VERTEX
  8
0
 10
17.0364
 20
25.4593
 30
0.0
 40
0.00559254
 41
0.00559254
  0
VERTEX
  8
0
 10
17.0075
 20
25.4769
 30
0.0
 40
0.00559254
 41
0.00559254
  0
VERTEX
  8
0
 10
16.9794
 20
25.4947
 30
0.0
 40
0.00559254
 41
0.00559254
  0
VERTEX
  8
0
 10
16.979
 20
25.495
 30
0.0
 40
0.00559254
 41
0.00559254
  0
VERTEX
  8
0
 10
16.9718
 20
25.4997
 30
0.0
 40
0.00559254
 41
0.00559254
  0
VERTEX
  8
0
 10
16.9508
 20
25.5138
 30
0.0
 40
0.00559254
 41
0.00559254
  0
VERTEX
  8
0
 10
16.9453
 20
25.5175
 30
0.0
 40
0.00559254
 41
0.00559254
  0
VERTEX
  8
0
 10
16.9229
 20
25.5329
 30
0.0
 40
0.00559254
 41
0.00559254
  0
VERTEX
  8
0
 10
16.9201
 20
25.5347
 30
0.0
 40
0.00559254
 41
0.00559254
  0
VERTEX
  8
0
 10
16.8951
 20
25.5526
 30
0.0
 40
0.00559254
 41
0.00559254
  0
VERTEX
  8
0
 10
16.8683
 20
25.5724
 30
0.0
 40
0.00559254
 41
0.00559254
  0
VERTEX
  8
0
 10
16.8679
 20
25.5726
 30
0.0
 40
0.00559254
 41
0.00559254
  0
VERTEX
  8
0
 10
16.8557
 20
25.5819
 30
0.0
 40
0.00559254
 41
0.00559254
  0
VERTEX
  8
0
 10
16.841
 20
25.5932
 30
0.0
 40
0.00559254
 41
0.00559254
  0
VERTEX
  8
0
 10
16.8149
 20
25.6139
 30
0.0
 40
0.00559254
 41
0.00559254
  0
VERTEX
  8
0
 10
16.8147
 20
25.614
 30
0.0
 40
0.00559254
 41
0.00559254
  0
VERTEX
  8
0
 10
16.8021
 20
25.6244
 30
0.0
 40
0.00559254
 41
0.00559254
  0
VERTEX
  8
0
 10
16.7883
 20
25.6357
 30
0.0
 40
0.00559254
 41
0.00559254
  0
VERTEX
  8
0
 10
16.7839
 20
25.6396
 30
0.0
 40
0.00559254
 41
0.00559254
  0
VERTEX
  8
0
 10
16.7624
 20
25.6578
 30
0.0
 40
0.00559254
 41
0.00559254
  0
VERTEX
  8
0
 10
16.7372
 20
25.6799
 30
0.0
 40
0.00559254
 41
0.00559254
  0
VERTEX
  8
0
 10
16.7122
 20
25.7028
 30
0.0
 40
0.00559254
 41
0.00559254
  0
VERTEX
  8
0
 10
16.7028
 20
25.7117
 30
0.0
 40
0.00559254
 41
0.00559254
  0
VERTEX
  8
0
 10
16.6631
 20
25.7499
 30
0.0
 40
0.00559254
 41
0.00559254
  0
VERTEX
  8
0
 10
16.6629
 20
25.75
 30
0.0
 40
0.00559254
 41
0.00559254
  0
VERTEX
  8
0
 10
16.6392
 20
25.774
 30
0.0
 40
0.00559254
 41
0.00559254
  0
VERTEX
  8
0
 10
16.6389
 20
25.7743
 30
0.0
 40
0.00559254
 41
0.00559254
  0
VERTEX
  8
0
 10
16.6253
 20
25.7886
 30
0.0
 40
0.00559254
 41
0.00559254
  0
VERTEX
  8
0
 10
16.6153
 20
25.799
 30
0.0
 40
0.00559254
 41
0.00559254
  0
VERTEX
  8
0
 10
16.5922
 20
25.824
 30
0.0
 40
0.00559254
 41
0.00559254
  0
VERTEX
  8
0
 10
16.5697
 20
25.8493
 30
0.0
 40
0.00559254
 41
0.00559254
  0
VERTEX
  8
0
 10
16.5694
 20
25.8496
 30
0.0
 40
0.00559254
 41
0.00559254
  0
VERTEX
  8
0
 10
16.5474
 20
25.8753
 30
0.0
 40
0.00559254
 41
0.00559254
  0
VERTEX
  8
0
 10
16.5471
 20
25.8756
 30
0.0
 40
0.00559254
 41
0.00559254
  0
VERTEX
  8
0
 10
16.5283
 20
25.8981
 30
0.0
 40
0.00559254
 41
0.00559254
  0
VERTEX
  8
0
 10
16.5254
 20
25.9017
 30
0.0
 40
0.00559254
 41
0.00559254
  0
VERTEX
  8
0
 10
16.5057
 20
25.9264
 30
0.0
 40
0.00559254
 41
0.00559254
  0
VERTEX
  8
0
 10
16.504
 20
25.9283
 30
0.0
 40
0.00559254
 41
0.00559254
  0
VERTEX
  8
0
 10
16.4985
 20
25.9356
 30
0.0
 40
0.00559254
 41
0.00559254
  0
VERTEX
  8
0
 10
16.4828
 20
25.9557
 30
0.0
 40
0.00559254
 41
0.00559254
  0
VERTEX
  8
0
 10
16.4624
 20
25.9832
 30
0.0
 40
0.00559254
 41
0.00559254
  0
VERTEX
  8
0
 10
16.4622
 20
25.9833
 30
0.0
 40
0.00559254
 41
0.00559254
  0
VERTEX
  8
0
 10
16.4422
 20
26.0111
 30
0.0
 40
0.00559254
 41
0.00559254
  0
VERTEX
  8
0
 10
16.4422
 20
26.0113
 30
0.0
 40
0.00559254
 41
0.00559254
  0
VERTEX
  8
0
 10
16.4226
 20
26.0394
 30
0.0
 40
0.00559254
 41
0.00559254
  0
VERTEX
  8
0
 10
16.4224
 20
26.0397
 30
0.0
 40
0.00559254
 41
0.00559254
  0
VERTEX
  8
0
 10
16.4035
 20
26.0682
 30
0.0
 40
0.00559254
 41
0.00559254
  0
VERTEX
  8
0
 10
16.4033
 20
26.0683
 30
0.0
 40
0.00559254
 41
0.00559254
  0
VERTEX
  8
0
 10
16.4004
 20
26.0728
 30
0.0
 40
0.00559254
 41
0.00559254
  0
VERTEX
  8
0
 10
16.3846
 20
26.0975
 30
0.0
 40
0.00559254
 41
0.00559254
  0
VERTEX
  8
0
 10
16.3486
 20
26.1569
 30
0.0
 40
0.00559254
 41
0.00559254
  0
VERTEX
  8
0
 10
16.3486
 20
26.1571
 30
0.0
 40
0.00559254
 41
0.00559254
  0
VERTEX
  8
0
 10
16.3314
 20
26.1872
 30
0.0
 40
0.00559254
 41
0.00559254
  0
VERTEX
  8
0
 10
16.3314
 20
26.1874
 30
0.0
 40
0.00559254
 41
0.00559254
  0
VERTEX
  8
0
 10
16.3146
 20
26.2181
 30
0.0
 40
0.00559254
 41
0.00559254
  0
VERTEX
  8
0
 10
16.2983
 20
26.249
 30
0.0
 40
0.00559254
 41
0.00559254
  0
VERTEX
  8
0
 10
16.2826
 20
26.2806
 30
0.0
 40
0.00559254
 41
0.00559254
  0
VERTEX
  8
0
 10
16.2603
 20
26.2408
 30
0.0
 40
0.00559254
 41
0.00559254
  0
VERTEX
  8
0
 10
16.1964
 20
26.2039
 30
0.0
 40
0.00559254
 41
0.00559254
  0
VERTEX
  8
0
 10
16.0953
 20
26.1704
 30
0.0
 40
0.00559254
 41
0.00559254
  0
VERTEX
  8
0
 10
15.9614
 20
26.1413
 30
0.0
 40
0.00559254
 41
0.00559254
  0
VERTEX
  8
0
 10
15.799
 20
26.1172
 30
0.0
 40
0.00559254
 41
0.00559254
  0
VERTEX
  8
0
 10
15.6128
 20
26.0992
 30
0.0
 40
0.00559254
 41
0.00559254
  0
VERTEX
  8
0
 10
15.4068
 20
26.0876
 30
0.0
 40
0.00559254
 41
0.00559254
  0
VERTEX
  8
0
 10
15.1858
 20
26.0836
 30
0.0
 40
0.00559254
 41
0.00559254
  0
VERTEX
  8
0
 10
14.9651
 20
26.0876
 30
0.0
 40
0.00559254
 41
0.00559254
  0
VERTEX
  8
0
 10
14.7596
 20
26.099
 30
0.0
 40
0.00559254
 41
0.00559254
  0
VERTEX
  8
0
 10
14.5735
 20
26.1172
 30
0.0
 40
0.00559254
 41
0.00559254
  0
VERTEX
  8
0
 10
14.4112
 20
26.1411
 30
0.0
 40
0.00559254
 41
0.00559254
  0
VERTEX
  8
0
 10
14.2772
 20
26.1703
 30
0.0
 40
0.00559254
 41
0.00559254
  0
VERTEX
  8
0
 10
14.1761
 20
26.2036
 30
0.0
 40
0.00559254
 41
0.00559254
  0
VERTEX
  8
0
 10
14.1118
 20
26.2404
 30
0.0
 40
0.00559254
 41
0.00559254
  0
VERTEX
  8
0
 10
14.0892
 20
26.28
 30
0.0
 40
0.00559254
 41
0.00559254
  0
VERTEX
  8
0
 10
14.0561
 20
26.104
 30
0.0
 40
0.00559254
 41
0.00559254
  0
VERTEX
  8
0
 10
14.0081
 20
25.9342
 30
0.0
 40
0.00559254
 41
0.00559254
  0
VERTEX
  8
0
 10
13.9457
 20
25.7714
 30
0.0
 40
0.00559254
 41
0.00559254
  0
VERTEX
  8
0
 10
13.8701
 20
25.6161
 30
0.0
 40
0.00559254
 41
0.00559254
  0
VERTEX
  8
0
 10
13.7816
 20
25.4693
 30
0.0
 40
0.00559254
 41
0.00559254
  0
VERTEX
  8
0
 10
13.6813
 20
25.3312
 30
0.0
 40
0.00559254
 41
0.00559254
  0
VERTEX
  8
0
 10
13.5698
 20
25.2029
 30
0.0
 40
0.00559254
 41
0.00559254
  0
VERTEX
  8
0
 10
13.4479
 20
25.0847
 30
0.0
 40
0.00559254
 41
0.00559254
  0
VERTEX
  8
0
 10
13.3163
 20
24.9776
 30
0.0
 40
0.00559254
 41
0.00559254
  0
VERTEX
  8
0
 10
13.1758
 20
24.8819
 30
0.0
 40
0.00559254
 41
0.00559254
  0
VERTEX
  8
0
 10
13.0271
 20
24.7986
 30
0.0
 40
0.00559254
 41
0.00559254
  0
VERTEX
  8
0
 10
12.8711
 20
24.7281
 30
0.0
 40
0.00559254
 41
0.00559254
  0
VERTEX
  8
0
 10
12.7084
 20
24.6711
 30
0.0
 40
0.00559254
 41
0.00559254
  0
VERTEX
  8
0
 10
12.5399
 20
24.6283
 30
0.0
 40
0.00559254
 41
0.00559254
  0
VERTEX
  8
0
 10
12.3663
 20
24.6006
 30
0.0
 40
0.00559254
 41
0.00559254
  0
VERTEX
  8
0
 10
12.1883
 20
24.5882
 30
0.0
 40
0.00559254
 41
0.00559254
  0
VERTEX
  8
0
 10
12.1882
 20
24.5882
 30
0.0
 40
0.00559254
 41
0.00559254
  0
VERTEX
  8
0
 10
12.1807
 20
24.5881
 30
0.0
 40
0.00559254
 41
0.00559254
  0
VERTEX
  8
0
 10
12.143
 20
24.5876
 30
0.0
 40
0.00559254
 41
0.00559254
  0
VERTEX
  8
0
 10
12.1053
 20
24.5881
 30
0.0
 40
0.00559254
 41
0.00559254
  0
VERTEX
  8
0
 10
12.0979
 20
24.5882
 30
0.0
 40
0.00559254
 41
0.00559254
  0
VERTEX
  8
0
 10
12.0977
 20
24.5882
 30
0.0
 40
0.00559254
 41
0.00559254
  0
VERTEX
  8
0
 10
11.9197
 20
24.6006
 30
0.0
 40
0.00559254
 41
0.00559254
  0
VERTEX
  8
0
 10
11.746
 20
24.6283
 30
0.0
 40
0.00559254
 41
0.00559254
  0
VERTEX
  8
0
 10
11.5775
 20
24.6711
 30
0.0
 40
0.00559254
 41
0.00559254
  0
VERTEX
  8
0
 10
11.4149
 20
24.7281
 30
0.0
 40
0.00559254
 41
0.00559254
  0
VERTEX
  8
0
 10
11.2588
 20
24.7986
 30
0.0
 40
0.00559254
 41
0.00559254
  0
VERTEX
  8
0
 10
11.1102
 20
24.8819
 30
0.0
 40
0.00559254
 41
0.00559254
  0
VERTEX
  8
0
 10
10.9697
 20
24.9776
 30
0.0
 40
0.00559254
 41
0.00559254
  0
VERTEX
  8
0
 10
10.8381
 20
25.0847
 30
0.0
 40
0.00559254
 41
0.00559254
  0
VERTEX
  8
0
 10
10.7161
 20
25.2029
 30
0.0
 40
0.00559254
 41
0.00559254
  0
VERTEX
  8
0
 10
10.6047
 20
25.3312
 30
0.0
 40
0.00559254
 41
0.00559254
  0
VERTEX
  8
0
 10
10.5043
 20
25.4693
 30
0.0
 40
0.00559254
 41
0.00559254
  0
VERTEX
  8
0
 10
10.4159
 20
25.6161
 30
0.0
 40
0.00559254
 41
0.00559254
  0
VERTEX
  8
0
 10
10.3402
 20
25.7714
 30
0.0
 40
0.00559254
 41
0.00559254
  0
VERTEX
  8
0
 10
10.2779
 20
25.9342
 30
0.0
 40
0.00559254
 41
0.00559254
  0
VERTEX
  8
0
 10
10.2299
 20
26.104
 30
0.0
 40
0.00559254
 41
0.00559254
  0
VERTEX
  8
0
 10
10.1968
 20
26.28
 30
0.0
 40
0.00559254
 41
0.00559254
  0
VERTEX
  8
0
 10
10.1742
 20
26.2406
 30
0.0
 40
0.00559254
 41
0.00559254
  0
VERTEX
  8
0
 10
10.11
 20
26.2036
 30
0.0
 40
0.00559254
 41
0.00559254
  0
VERTEX
  8
0
 10
10.0087
 20
26.1703
 30
0.0
 40
0.00559254
 41
0.00559254
  0
VERTEX
  8
0
 10
9.87483
 20
26.1411
 30
0.0
 40
0.00559254
 41
0.00559254
  0
VERTEX
  8
0
 10
9.71263
 20
26.1172
 30
0.0
 40
0.00559254
 41
0.00559254
  0
VERTEX
  8
0
 10
9.52647
 20
26.099
 30
0.0
 40
0.00559254
 41
0.00559254
  0
VERTEX
  8
0
 10
9.32086
 20
26.0876
 30
0.0
 40
0.00559254
 41
0.00559254
  0
VERTEX
  8
0
 10
9.10021
 20
26.0836
 30
0.0
 40
0.00559254
 41
0.00559254
  0
VERTEX
  8
0
 10
8.87918
 20
26.0876
 30
0.0
 40
0.00559254
 41
0.00559254
  0
VERTEX
  8
0
 10
8.67329
 20
26.0992
 30
0.0
 40
0.00559254
 41
0.00559254
  0
VERTEX
  8
0
 10
8.48697
 20
26.1172
 30
0.0
 40
0.00559254
 41
0.00559254
  0
VERTEX
  8
0
 10
8.32465
 20
26.1413
 30
0.0
 40
0.00559254
 41
0.00559254
  0
VERTEX
  8
0
 10
8.19075
 20
26.1704
 30
0.0
 40
0.00559254
 41
0.00559254
  0
VERTEX
  8
0
 10
8.08963
 20
26.2039
 30
0.0
 40
0.00559254
 41
0.00559254
  0
VERTEX
  8
0
 10
8.02572
 20
26.2408
 30
0.0
 40
0.00559254
 41
0.00559254
  0
VERTEX
  8
0
 10
8.00342
 20
26.2806
 30
0.0
 40
0.00559254
 41
0.00559254
  0
VERTEX
  8
0
 10
7.98774
 20
26.249
 30
0.0
 40
0.00559254
 41
0.00559254
  0
VERTEX
  8
0
 10
7.97293
 20
26.2208
 30
0.0
 40
0.00559254
 41
0.00559254
  0
VERTEX
  8
0
 10
7.95475
 20
26.1874
 30
0.0
 40
0.00559254
 41
0.00559254
  0
VERTEX
  8
0
 10
7.93044
 20
26.1453
 30
0.0
 40
0.00559254
 41
0.00559254
  0
VERTEX
  8
0
 10
7.90147
 20
26.0976
 30
0.0
 40
0.00559254
 41
0.00559254
  0
VERTEX
  8
0
 10
7.88558
 20
26.0728
 30
0.0
 40
0.00559254
 41
0.00559254
  0
VERTEX
  8
0
 10
7.88281
 20
26.0685
 30
0.0
 40
0.00559254
 41
0.00559254
  0
VERTEX
  8
0
 10
7.88271
 20
26.0683
 30
0.0
 40
0.00559254
 41
0.00559254
  0
VERTEX
  8
0
 10
7.86361
 20
26.0397
 30
0.0
 40
0.00559254
 41
0.00559254
  0
VERTEX
  8
0
 10
7.81586
 20
25.9726
 30
0.0
 40
0.00559254
 41
0.00559254
  0
VERTEX
  8
0
 10
7.80328
 20
25.9558
 30
0.0
 40
0.00559254
 41
0.00559254
  0
VERTEX
  8
0
 10
7.80311
 20
25.9556
 30
0.0
 40
0.00559254
 41
0.00559254
  0
VERTEX
  8
0
 10
7.78228
 20
25.9286
 30
0.0
 40
0.00559254
 41
0.00559254
  0
VERTEX
  8
0
 10
7.78211
 20
25.9285
 30
0.0
 40
0.00559254
 41
0.00559254
  0
VERTEX
  8
0
 10
7.76079
 20
25.9018
 30
0.0
 40
0.00559254
 41
0.00559254
  0
VERTEX
  8
0
 10
7.76069
 20
25.9018
 30
0.0
 40
0.00559254
 41
0.00559254
  0
VERTEX
  8
0
 10
7.75776
 20
25.8982
 30
0.0
 40
0.00559254
 41
0.00559254
  0
VERTEX
  8
0
 10
7.72504
 20
25.8594
 30
0.0
 40
0.00559254
 41
0.00559254
  0
VERTEX
  8
0
 10
7.6939
 20
25.8242
 30
0.0
 40
0.00559254
 41
0.00559254
  0
VERTEX
  8
0
 10
7.68212
 20
25.8114
 30
0.0
 40
0.00559254
 41
0.00559254
  0
VERTEX
  8
0
 10
7.67046
 20
25.7988
 30
0.0
 40
0.00559254
 41
0.00559254
  0
VERTEX
  8
0
 10
7.64719
 20
25.7744
 30
0.0
 40
0.00559254
 41
0.00559254
  0
VERTEX
  8
0
 10
7.62321
 20
25.7501
 30
0.0
 40
0.00559254
 41
0.00559254
  0
VERTEX
  8
0
 10
7.62299
 20
25.75
 30
0.0
 40
0.00559254
 41
0.00559254
  0
VERTEX
  8
0
 10
7.58333
 20
25.7118
 30
0.0
 40
0.00559254
 41
0.00559254
  0
VERTEX
  8
0
 10
7.57389
 20
25.7029
 30
0.0
 40
0.00559254
 41
0.00559254
  0
VERTEX
  8
0
 10
7.54878
 20
25.68
 30
0.0
 40
0.00559254
 41
0.00559254
  0
VERTEX
  8
0
 10
7.5236
 20
25.6578
 30
0.0
 40
0.00559254
 41
0.00559254
  0
VERTEX
  8
0
 10
7.52328
 20
25.6575
 30
0.0
 40
0.00559254
 41
0.00559254
  0
VERTEX
  8
0
 10
7.49778
 20
25.6358
 30
0.0
 40
0.00559254
 41
0.00559254
  0
VERTEX
  8
0
 10
7.49739
 20
25.6356
 30
0.0
 40
0.00559254
 41
0.00559254
  0
VERTEX
  8
0
 10
7.47157
 20
25.6143
 30
0.0
 40
0.00559254
 41
0.00559254
  0
VERTEX
  8
0
 10
7.47125
 20
25.6142
 30
0.0
 40
0.00559254
 41
0.00559254
  0
VERTEX
  8
0
 10
7.44499
 20
25.5933
 30
0.0
 40
0.00559254
 41
0.00559254
  0
VERTEX
  8
0
 10
7.43028
 20
25.5821
 30
0.0
 40
0.00559254
 41
0.00559254
  0
VERTEX
  8
0
 10
7.39469
 20
25.5556
 30
0.0
 40
0.00559254
 41
0.00559254
  0
VERTEX
  8
0
 10
7.39085
 20
25.5526
 30
0.0
 40
0.00559254
 41
0.00559254
  0
VERTEX
  8
0
 10
7.39035
 20
25.5524
 30
0.0
 40
0.00559254
 41
0.00559254
  0
VERTEX
  8
0
 10
7.36322
 20
25.5331
 30
0.0
 40
0.00559254
 41
0.00559254
  0
VERTEX
  8
0
 10
7.36274
 20
25.5326
 30
0.0
 40
0.00559254
 41
0.00559254
  0
VERTEX
  8
0
 10
7.33535
 20
25.5139
 30
0.0
 40
0.00559254
 41
0.00559254
  0
VERTEX
  8
0
 10
7.33485
 20
25.5135
 30
0.0
 40
0.00559254
 41
0.00559254
  0
VERTEX
  8
0
 10
7.30712
 20
25.4953
 30
0.0
 40
0.00559254
 41
0.00559254
  0
VERTEX
  8
0
 10
7.30697
 20
25.4951
 30
0.0
 40
0.00559254
 41
0.00559254
  0
VERTEX
  8
0
 10
7.27854
 20
25.4769
 30
0.0
 40
0.00559254
 41
0.00559254
  0
VERTEX
  8
0
 10
7.24968
 20
25.4593
 30
0.0
 40
0.00559254
 41
0.00559254
  0
VERTEX
  8
0
 10
7.2225
 20
25.4433
 30
0.0
 40
0.00559254
 41
0.00559254
  0
VERTEX
  8
0
 10
7.22054
 20
25.4422
 30
0.0
 40
0.00559254
 41
0.00559254
  0
VERTEX
  8
0
 10
7.22043
 20
25.4422
 30
0.0
 40
0.00559254
 41
0.00559254
  0
VERTEX
  8
0
 10
7.20518
 20
25.4335
 30
0.0
 40
0.00559254
 41
0.00559254
  0
VERTEX
  8
0
 10
7.19054
 20
25.4253
 30
0.0
 40
0.00559254
 41
0.00559254
  0
VERTEX
  8
0
 10
7.18261
 20
25.4208
 30
0.0
 40
0.00559254
 41
0.00559254
  0
VERTEX
  8
0
 10
7.16097
 20
25.4092
 30
0.0
 40
0.00559254
 41
0.00559254
  0
VERTEX
  8
0
 10
7.14307
 20
25.3999
 30
0.0
 40
0.00559254
 41
0.00559254
  0
VERTEX
  8
0
 10
7.13112
 20
25.3936
 30
0.0
 40
0.00559254
 41
0.00559254
  0
VERTEX
  8
0
 10
7.11583
 20
25.386
 30
0.0
 40
0.00559254
 41
0.00559254
  0
VERTEX
  8
0
 10
7.10053
 20
25.3782
 30
0.0
 40
0.00559254
 41
0.00559254
  0
VERTEX
  8
0
 10
7.09571
 20
25.376
 30
0.0
 40
0.00559254
 41
0.00559254
  0
VERTEX
  8
0
 10
7.06972
 20
25.3636
 30
0.0
 40
0.00559254
 41
0.00559254
  0
VERTEX
  8
0
 10
7.03961
 20
25.3497
 30
0.0
 40
0.00559254
 41
0.00559254
  0
VERTEX
  8
0
 10
7.03911
 20
25.3496
 30
0.0
 40
0.00559254
 41
0.00559254
  0
VERTEX
  8
0
 10
7.02994
 20
25.3456
 30
0.0
 40
0.00559254
 41
0.00559254
  0
VERTEX
  8
0
 10
7.00792
 20
25.3358
 30
0.0
 40
0.00559254
 41
0.00559254
  0
VERTEX
  8
0
 10
6.97721
 20
25.3231
 30
0.0
 40
0.00559254
 41
0.00559254
  0
VERTEX
  8
0
 10
6.9764
 20
25.3228
 30
0.0
 40
0.00559254
 41
0.00559254
  0
VERTEX
  8
0
 10
6.96446
 20
25.3181
 30
0.0
 40
0.00559254
 41
0.00559254
  0
VERTEX
  8
0
 10
6.94536
 20
25.3106
 30
0.0
 40
0.00559254
 41
0.00559254
  0
VERTEX
  8
0
 10
6.91385
 20
25.2986
 30
0.0
 40
0.00559254
 41
0.00559254
  0
VERTEX
  8
0
 10
6.91297
 20
25.2983
 30
0.0
 40
0.00559254
 41
0.00559254
  0
VERTEX
  8
0
 10
6.89681
 20
25.2925
 30
0.0
 40
0.00559254
 41
0.00559254
  0
VERTEX
  8
0
 10
6.88146
 20
25.2869
 30
0.0
 40
0.00559254
 41
0.00559254
  0
VERTEX
  8
0
 10
6.86963
 20
25.2831
 30
0.0
 40
0.00559254
 41
0.00559254
  0
VERTEX
  8
0
 10
6.84864
 20
25.276
 30
0.0
 40
0.00559254
 41
0.00559254
  0
VERTEX
  8
0
 10
6.81706
 20
25.2658
 30
0.0
 40
0.00559254
 41
0.00559254
  0
VERTEX
  8
0
 10
6.81619
 20
25.2656
 30
0.0
 40
0.00559254
 41
0.00559254
  0
VERTEX
  8
0
 10
6.8055
 20
25.2624
 30
0.0
 40
0.00559254
 41
0.00559254
  0
VERTEX
  8
0
 10
6.78347
 20
25.2558
 30
0.0
 40
0.00559254
 41
0.00559254
  0
VERTEX
  8
0
 10
6.75131
 20
25.2468
 30
0.0
 40
0.00559254
 41
0.00559254
  0
VERTEX
  8
0
 10
6.71843
 20
25.2382
 30
0.0
 40
0.00559254
 41
0.00559254
  0
VERTEX
  8
0
 10
6.70025
 20
25.2337
 30
0.0
 40
0.00559254
 41
0.00559254
  0
VERTEX
  8
0
 10
6.68414
 20
25.2299
 30
0.0
 40
0.00559254
 41
0.00559254
  0
VERTEX
  8
0
 10
6.65169
 20
25.2225
 30
0.0
 40
0.00559254
 41
0.00559254
  0
VERTEX
  8
0
 10
6.65121
 20
25.2225
 30
0.0
 40
0.00559254
 41
0.00559254
  0
VERTEX
  8
0
 10
6.61811
 20
25.2156
 30
0.0
 40
0.00559254
 41
0.00559254
  0
VERTEX
  8
0
 10
6.59896
 20
25.2119
 30
0.0
 40
0.00559254
 41
0.00559254
  0
VERTEX
  8
0
 10
6.58322
 20
25.209
 30
0.0
 40
0.00559254
 41
0.00559254
  0
VERTEX
  8
0
 10
6.55035
 20
25.2033
 30
0.0
 40
0.00559254
 41
0.00559254
  0
VERTEX
  8
0
 10
6.54992
 20
25.2033
 30
0.0
 40
0.00559254
 41
0.00559254
  0
VERTEX
  8
0
 10
6.53136
 20
25.2004
 30
0.0
 40
0.00559254
 41
0.00559254
  0
VERTEX
  8
0
 10
6.51563
 20
25.1981
 30
0.0
 40
0.00559254
 41
0.00559254
  0
VERTEX
  8
0
 10
6.50146
 20
25.1961
 30
0.0
 40
0.00559254
 41
0.00559254
  0
VERTEX
  8
0
 10
6.48122
 20
25.1935
 30
0.0
 40
0.00559254
 41
0.00559254
  0
VERTEX
  8
0
 10
6.4476
 20
25.1894
 30
0.0
 40
0.00559254
 41
0.00559254
  0
VERTEX
  8
0
 10
6.42622
 20
25.1874
 30
0.0
 40
0.00559254
 41
0.00559254
  0
VERTEX
  8
0
 10
6.41211
 20
25.186
 30
0.0
 40
0.00559254
 41
0.00559254
  0
VERTEX
  8
0
 10
6.40474
 20
25.1854
 30
0.0
 40
0.00559254
 41
0.00559254
  0
VERTEX
  8
0
 10
6.37739
 20
25.1832
 30
0.0
 40
0.00559254
 41
0.00559254
  0
VERTEX
  8
0
 10
6.37175
 20
25.1828
 30
0.0
 40
0.00559254
 41
0.00559254
  0
VERTEX
  8
0
 10
6.3425
 20
25.181
 30
0.0
 40
0.00559254
 41
0.00559254
  0
VERTEX
  8
0
 10
6.33621
 20
25.1807
 30
0.0
 40
0.00559254
 41
0.00559254
  0
VERTEX
  8
0
 10
6.30767
 20
25.1794
 30
0.0
 40
0.00559254
 41
0.00559254
  0
VERTEX
  8
0
 10
6.2991
 20
25.1792
 30
0.0
 40
0.00559254
 41
0.00559254
  0
VERTEX
  8
0
 10
6.27274
 20
25.1785
 30
0.0
 40
0.00559254
 41
0.00559254
  0
VERTEX
  8
0
 10
6.26074
 20
25.1783
 30
0.0
 40
0.00559254
 41
0.00559254
  0
VERTEX
  8
0
 10
6.23785
 20
25.1781
 30
0.0
 40
0.00559254
 41
0.00559254
  0
VERTEX
  8
0
 10
6.21496
 20
25.1783
 30
0.0
 40
0.00559254
 41
0.00559254
  0
VERTEX
  8
0
 10
6.20296
 20
25.1785
 30
0.0
 40
0.00559254
 41
0.00559254
  0
VERTEX
  8
0
 10
6.17736
 20
25.1792
 30
0.0
 40
0.00559254
 41
0.00559254
  0
VERTEX
  8
0
 10
6.16803
 20
25.1794
 30
0.0
 40
0.00559254
 41
0.00559254
  0
VERTEX
  8
0
 10
6.141
 20
25.1807
 30
0.0
 40
0.00559254
 41
0.00559254
  0
VERTEX
  8
0
 10
6.13314
 20
25.181
 30
0.0
 40
0.00559254
 41
0.00559254
  0
VERTEX
  8
0
 10
6.10254
 20
25.1829
 30
0.0
 40
0.00559254
 41
0.00559254
  0
VERTEX
  8
0
 10
6.09847
 20
25.1832
 30
0.0
 40
0.00559254
 41
0.00559254
  0
VERTEX
  8
0
 10
6.06842
 20
25.1856
 30
0.0
 40
0.00559254
 41
0.00559254
  0
VERTEX
  8
0
 10
6.06375
 20
25.186
 30
0.0
 40
0.00559254
 41
0.00559254
  0
VERTEX
  8
0
 10
6.03336
 20
25.189
 30
0.0
 40
0.00559254
 41
0.00559254
  0
VERTEX
  8
0
 10
6.02919
 20
25.1894
 30
0.0
 40
0.00559254
 41
0.00559254
  0
VERTEX
  8
0
 10
6.00239
 20
25.1925
 30
0.0
 40
0.00559254
 41
0.00559254
  0
VERTEX
  8
0
 10
5.99463
 20
25.1935
 30
0.0
 40
0.00559254
 41
0.00559254
  0
VERTEX
  8
0
 10
5.97282
 20
25.1964
 30
0.0
 40
0.00559254
 41
0.00559254
  0
VERTEX
  8
0
 10
5.95947
 20
25.1982
 30
0.0
 40
0.00559254
 41
0.00559254
  0
VERTEX
  8
0
 10
5.92649
 20
25.2032
 30
0.0
 40
0.00559254
 41
0.00559254
  0
VERTEX
  8
0
 10
5.89253
 20
25.209
 30
0.0
 40
0.00559254
 41
0.00559254
  0
VERTEX
  8
0
 10
5.85872
 20
25.2153
 30
0.0
 40
0.00559254
 41
0.00559254
  0
VERTEX
  8
0
 10
5.83182
 20
25.221
 30
0.0
 40
0.00559254
 41
0.00559254
  0
VERTEX
  8
0
 10
5.82482
 20
25.2224
 30
0.0
 40
0.00559254
 41
0.00559254
  0
VERTEX
  8
0
 10
5.79161
 20
25.2299
 30
0.0
 40
0.00559254
 41
0.00559254
  0
VERTEX
  8
0
 10
5.75922
 20
25.2376
 30
0.0
 40
0.00559254
 41
0.00559254
  0
VERTEX
  8
0
 10
5.75825
 20
25.2379
 30
0.0
 40
0.00559254
 41
0.00559254
  0
VERTEX
  8
0
 10
5.73633
 20
25.2436
 30
0.0
 40
0.00559254
 41
0.00559254
  0
VERTEX
  8
0
 10
5.72472
 20
25.2467
 30
0.0
 40
0.00559254
 41
0.00559254
  0
VERTEX
  8
0
 10
5.69228
 20
25.2558
 30
0.0
 40
0.00559254
 41
0.00559254
  0
VERTEX
  8
0
 10
5.62711
 20
25.2758
 30
0.0
 40
0.00559254
 41
0.00559254
  0
VERTEX
  8
0
 10
5.60363
 20
25.2838
 30
0.0
 40
0.00559254
 41
0.00559254
  0
VERTEX
  8
0
 10
5.59392
 20
25.2871
 30
0.0
 40
0.00559254
 41
0.00559254
  0
VERTEX
  8
0
 10
5.53792
 20
25.3075
 30
0.0
 40
0.00559254
 41
0.00559254
  0
VERTEX
  8
0
 10
5.53011
 20
25.3106
 30
0.0
 40
0.00559254
 41
0.00559254
  0
VERTEX
  8
0
 10
5.47065
 20
25.3346
 30
0.0
 40
0.00559254
 41
0.00559254
  0
VERTEX
  8
0
 10
5.46778
 20
25.3358
 30
0.0
 40
0.00559254
 41
0.00559254
  0
VERTEX
  8
0
 10
5.43685
 20
25.3494
 30
0.0
 40
0.00559254
 41
0.00559254
  0
VERTEX
  8
0
 10
5.40603
 20
25.3635
 30
0.0
 40
0.00559254
 41
0.00559254
  0
VERTEX
  8
0
 10
5.38004
 20
25.376
 30
0.0
 40
0.00559254
 41
0.00559254
  0
VERTEX
  8
0
 10
5.37522
 20
25.3782
 30
0.0
 40
0.00559254
 41
0.00559254
  0
VERTEX
  8
0
 10
5.34511
 20
25.3933
 30
0.0
 40
0.00559254
 41
0.00559254
  0
VERTEX
  8
0
 10
5.3444
 20
25.3936
 30
0.0
 40
0.00559254
 41
0.00559254
  0
VERTEX
  8
0
 10
5.32351
 20
25.4044
 30
0.0
 40
0.00559254
 41
0.00559254
  0
VERTEX
  8
0
 10
5.31478
 20
25.409
 30
0.0
 40
0.00559254
 41
0.00559254
  0
VERTEX
  8
0
 10
5.29313
 20
25.4208
 30
0.0
 40
0.00559254
 41
0.00559254
  0
VERTEX
  8
0
 10
5.28467
 20
25.4254
 30
0.0
 40
0.00559254
 41
0.00559254
  0
VERTEX
  8
0
 10
5.25586
 20
25.4418
 30
0.0
 40
0.00559254
 41
0.00559254
  0
VERTEX
  8
0
 10
5.22661
 20
25.459
 30
0.0
 40
0.00559254
 41
0.00559254
  0
VERTEX
  8
0
 10
5.22607
 20
25.4593
 30
0.0
 40
0.00559254
 41
0.00559254
  0
VERTEX
  8
0
 10
5.19775
 20
25.4767
 30
0.0
 40
0.00559254
 41
0.00559254
  0
VERTEX
  8
0
 10
5.16917
 20
25.4949
 30
0.0
 40
0.00559254
 41
0.00559254
  0
VERTEX
  8
0
 10
5.05811
 20
25.5724
 30
0.0
 40
0.00559254
 41
0.00559254
  0
VERTEX
  8
0
 10
5.05767
 20
25.5726
 30
0.0
 40
0.00559254
 41
0.00559254
  0
VERTEX
  8
0
 10
5.03119
 20
25.5931
 30
0.0
 40
0.00559254
 41
0.00559254
  0
VERTEX
  8
0
 10
5.00461
 20
25.614
 30
0.0
 40
0.00559254
 41
0.00559254
  0
VERTEX
  8
0
 10
4.92751
 20
25.6794
 30
0.0
 40
0.00559254
 41
0.00559254
  0
VERTEX
  8
0
 10
4.92665
 20
25.6803
 30
0.0
 40
0.00559254
 41
0.00559254
  0
VERTEX
  8
0
 10
4.90186
 20
25.7029
 30
0.0
 40
0.00559254
 41
0.00559254
  0
VERTEX
  8
0
 10
4.85682
 20
25.746
 30
0.0
 40
0.00559254
 41
0.00559254
  0
VERTEX
  8
0
 10
4.85249
 20
25.7503
 30
0.0
 40
0.00559254
 41
0.00559254
  0
VERTEX
  8
0
 10
4.80524
 20
25.7988
 30
0.0
 40
0.00559254
 41
0.00559254
  0
VERTEX
  8
0
 10
4.78207
 20
25.8239
 30
0.0
 40
0.00559254
 41
0.00559254
  0
VERTEX
  8
0
 10
4.73697
 20
25.8753
 30
0.0
 40
0.00559254
 41
0.00559254
  0
VERTEX
  8
0
 10
4.73682
 20
25.8756
 30
0.0
 40
0.00559254
 41
0.00559254
  0
VERTEX
  8
0
 10
4.71511
 20
25.9017
 30
0.0
 40
0.00559254
 41
0.00559254
  0
VERTEX
  8
0
 10
4.65201
 20
25.9832
 30
0.0
 40
0.00559254
 41
0.00559254
  0
VERTEX
  8
0
 10
4.65192
 20
25.9833
 30
0.0
 40
0.00559254
 41
0.00559254
  0
VERTEX
  8
0
 10
4.63189
 20
26.0113
 30
0.0
 40
0.00559254
 41
0.00559254
  0
VERTEX
  8
0
 10
4.63178
 20
26.0114
 30
0.0
 40
0.00559254
 41
0.00559254
  0
VERTEX
  8
0
 10
4.53836
 20
26.1569
 30
0.0
 40
0.00559254
 41
0.00559254
  0
VERTEX
  8
0
 10
4.53825
 20
26.1571
 30
0.0
 40
0.00559254
 41
0.00559254
  0
VERTEX
  8
0
 10
4.47239
 20
26.2804
 30
0.0
 40
0.00559254
 41
0.00559254
  0
SEQEND
 8
0
  0
ENDSEC
  0
EOF
